<svg width="28" height="28" viewBox="0 0 28 28" fill="none" xmlns="http://www.w3.org/2000/svg">
<path d="M11.375 25.375H16.625V27.125H11.375V25.375ZM10.5 22.75H17.5V24.5H10.5V22.75ZM20.2027 3.42838C18.5582 1.78174 16.3554 0.875025 14 0.875025C12.8502 0.872284 11.7111 1.09674 10.6483 1.5355C9.58547 1.97425 8.61979 2.61867 7.80673 3.43173C6.99367 4.24479 6.34925 5.21047 5.9105 6.2733C5.47174 7.33614 5.24728 8.47519 5.25002 9.62502C5.25002 12.1746 6.22729 14.5595 7.92971 16.1678L8.16815 16.3915C9.15307 17.3124 10.5 18.5741 10.5 19.6875V21.875H13.125V14.717L10.7035 13.3438L11.7031 11.9066L14 13.125L16.2581 11.9006L17.3026 13.3049L14.875 14.7268V21.875H17.5V19.6875C17.5 18.6003 18.8322 17.3398 19.8051 16.4189L20.0736 16.164C21.8247 14.4922 22.75 12.2287 22.75 9.62502C22.7558 8.47508 22.5337 7.33539 22.0965 6.27179C21.6592 5.20819 21.0156 4.24178 20.2027 3.42838Z" fill="#324978"/>
</svg>
