<svg width="28" height="28" viewBox="0 0 28 28" fill="none" xmlns="http://www.w3.org/2000/svg">
<path d="M6.61575 11.5664L10.1882 6.73289C12.4975 3.60849 13.6521 2.0463 14.7294 2.37642C15.8066 2.70655 15.8066 4.62258 15.8066 8.45465V8.81596C15.8066 10.1981 15.8066 10.8892 16.2483 11.3227L16.2716 11.3451C16.7228 11.7694 17.4421 11.7694 18.8806 11.7694C21.4693 11.7694 22.7636 11.7694 23.2011 12.5545C23.2083 12.5675 23.2153 12.5806 23.2222 12.5938C23.6351 13.3911 22.8857 14.4051 21.3868 16.433L17.8143 21.2664C15.505 24.3909 14.3504 25.9531 13.2731 25.6229C12.1959 25.2928 12.1959 23.3767 12.1959 19.5446L12.1959 19.1835C12.196 17.8013 12.196 17.1102 11.7544 16.6767L11.731 16.6543C11.2798 16.23 10.5606 16.23 9.12201 16.23C6.53333 16.23 5.23899 16.23 4.80155 15.4449C4.79431 15.4319 4.78726 15.4188 4.78043 15.4056C4.36748 14.6083 5.11691 13.5943 6.61575 11.5664Z" fill="white"/>
</svg>
