<svg width="28" height="28" viewBox="0 0 28 28" fill="none" xmlns="http://www.w3.org/2000/svg">
<path d="M23.334 14.0003C23.0535 14.0023 22.7757 14.0549 22.5138 14.1555L19.7162 11.8653C19.785 11.6157 19.834 11.3567 19.834 11.0837C19.834 9.46666 18.5343 8.16699 16.9173 8.16699C15.3003 8.16699 14.0007 9.46666 14.0007 11.0837C14.0007 11.5457 14.1173 11.9762 14.3063 12.3635L10.9125 16.3745C10.7767 16.3487 10.6389 16.335 10.5007 16.3337C10.2918 16.3337 10.0947 16.3687 9.90332 16.42L6.91315 13.4298C6.96565 13.2397 7.00065 13.0425 7.00065 12.8337C7.00065 11.541 5.95998 10.5003 4.66732 10.5003C3.37465 10.5003 2.33398 11.541 2.33398 12.8337C2.33398 14.1263 3.37465 15.167 4.66732 15.167C4.87615 15.167 5.07332 15.132 5.26465 15.0807L8.25482 18.0708C8.20001 18.2649 8.1706 18.4653 8.16732 18.667C8.16732 19.9597 9.20798 21.0003 10.5007 21.0003C11.7933 21.0003 12.834 19.9597 12.834 18.667C12.834 18.3905 12.778 18.1303 12.6905 17.8842L16.089 13.8685C16.3538 13.9455 16.628 14.0003 16.9173 14.0003C17.3776 13.9969 17.8306 13.8845 18.2392 13.6725L21.038 15.9627C21.0157 16.0851 21.0032 16.2092 21.0007 16.3337C21.0007 17.6263 22.0413 18.667 23.334 18.667C24.6267 18.667 25.6673 17.6263 25.6673 16.3337C25.6673 15.041 24.6267 14.0003 23.334 14.0003Z" fill="#324978"/>
</svg>
