<svg width="28" height="28" viewBox="0 0 28 28" fill="none" xmlns="http://www.w3.org/2000/svg">
<path d="M15.6765 21.3217C16.8293 19.1493 20.6719 19.1493 20.6719 19.1493C24.6759 19.1076 25.2168 16.6765 25.5784 15.4478C24.9312 20.676 20.825 24.8321 15.6206 25.555C15.2442 24.7629 14.7984 22.9767 15.6765 21.3217Z" fill="white"/>
<path d="M5.84101 6.80589L5.36077 6.39515C5.32078 6.36095 5.28254 6.32513 5.24611 6.28783C3.43359 8.34383 2.33398 11.0433 2.33398 13.9997C2.33398 20.3706 7.44057 25.5488 13.7839 25.6644C13.3716 24.4338 13.1026 22.4393 14.1308 20.5017C15.0759 18.7206 16.9775 18.0195 18.1889 17.7217C18.8501 17.5592 19.4581 17.4799 19.8972 17.4405C20.1188 17.4207 20.3028 17.4105 20.4355 17.4052C20.502 17.4026 20.5561 17.4012 20.596 17.4004L20.6451 17.3997L20.6582 17.3996C22.2691 17.382 22.8943 16.9065 23.1828 16.5818C23.5396 16.18 23.6795 15.7035 23.8744 15.04L23.8996 14.954C24.1308 14.1685 24.8689 13.6605 25.6635 13.6999C25.5903 10.7954 24.4555 8.15472 22.6327 6.15111C22.5958 6.35843 22.5519 6.55117 22.5082 6.72181C22.3103 7.49364 21.9781 8.32636 21.5705 8.94496C21.1716 9.55036 20.463 10.0913 19.992 10.4297C19.6366 10.6851 19.2733 10.8973 18.9739 11.0698L18.8665 11.1316C18.5962 11.2871 18.3812 11.411 18.1766 11.5462C17.7613 11.8206 17.5121 12.0643 17.3433 12.3945C17.4461 12.7705 17.519 13.2026 17.5202 13.6545C17.523 14.7295 16.9727 15.579 16.3149 16.1091C15.6677 16.6306 14.8304 16.9255 13.982 16.9162C10.5405 16.8787 8.52195 14.0712 8.26203 11.1782C8.18645 10.337 7.80804 9.4307 7.27924 8.5862C6.76498 7.7649 6.18369 7.12187 5.84101 6.80589Z" fill="white"/>
<path d="M10.005 11.0216C9.78654 8.59003 7.91135 6.32424 7.00106 5.49529L6.49821 5.06522C8.52655 3.3601 11.1439 2.33301 14.0011 2.33301C16.5833 2.33301 18.9697 3.17196 20.9024 4.59217C21.1755 5.42112 20.6553 7.15318 20.1092 7.98213C19.9113 8.28239 19.4627 8.65516 18.9709 9.00851C17.862 9.80523 16.4626 10.1993 15.7511 11.6663C15.5477 12.0857 15.5564 12.4956 15.6542 12.852C15.7245 13.1082 15.7695 13.3866 15.7702 13.659C15.7725 14.5397 14.8818 15.176 14.0011 15.1663C11.7094 15.1413 10.2092 13.2945 10.005 11.0216Z" fill="white"/>
</svg>
