<svg width="28" height="28" viewBox="0 0 28 28" fill="none" xmlns="http://www.w3.org/2000/svg">
<path d="M5.83399 23.333V20.9997H22.1673V23.333H5.83399ZM5.83399 19.2497L4.34649 9.88718C4.3076 9.88718 4.26365 9.89223 4.21465 9.90234C4.16565 9.91245 4.1221 9.91712 4.08399 9.91634C3.59788 9.91634 3.18488 9.74601 2.84499 9.40534C2.5051 9.06468 2.33476 8.65168 2.33399 8.16634C2.33321 7.68101 2.50354 7.26801 2.84499 6.92734C3.18643 6.58668 3.59943 6.41634 4.08399 6.41634C4.56854 6.41634 4.98193 6.58668 5.32415 6.92734C5.66638 7.26801 5.83632 7.68101 5.83399 8.16634C5.83399 8.30245 5.81921 8.42884 5.78965 8.54551C5.7601 8.66218 5.72627 8.76912 5.68815 8.86634L9.33399 10.4997L12.9798 5.51218C12.7659 5.35662 12.5909 5.15245 12.4548 4.89968C12.3187 4.6469 12.2507 4.37468 12.2507 4.08301C12.2507 3.5969 12.421 3.18351 12.7617 2.84284C13.1023 2.50218 13.5153 2.33223 14.0007 2.33301C14.486 2.33379 14.8994 2.50412 15.2408 2.84401C15.5823 3.1839 15.7522 3.5969 15.7507 4.08301C15.7507 4.37468 15.6826 4.6469 15.5465 4.89968C15.4104 5.15245 15.2354 5.35662 15.0215 5.51218L18.6673 10.4997L22.3132 8.86634C22.2743 8.76912 22.24 8.66218 22.2105 8.54551C22.1809 8.42884 22.1665 8.30245 22.1673 8.16634C22.1673 7.68023 22.3377 7.26684 22.6783 6.92618C23.019 6.58551 23.432 6.41557 23.9173 6.41634C24.4027 6.41712 24.816 6.58746 25.1575 6.92734C25.4989 7.26723 25.6689 7.68023 25.6673 8.16634C25.6658 8.65245 25.4958 9.06584 25.1575 9.40651C24.8192 9.74718 24.4058 9.91712 23.9173 9.91634C23.8784 9.91634 23.8349 9.91168 23.7867 9.90234C23.7384 9.89301 23.6945 9.88796 23.6548 9.88718L22.1673 19.2497H5.83399Z" fill="white"/>
</svg>
