<svg width="28" height="28" viewBox="0 0 28 28" fill="none" xmlns="http://www.w3.org/2000/svg">
<path d="M13.9993 25.6663C11.2966 24.9858 9.06513 23.4349 7.30502 21.0137C5.54491 18.5925 4.66524 15.9045 4.66602 12.9497V5.83301L13.9993 2.33301L23.3327 5.83301V12.9497C23.3327 15.9052 22.453 18.5936 20.6937 21.0148C18.9343 23.4361 16.7029 24.9866 13.9993 25.6663ZM13.9993 23.2163C15.8855 22.633 17.4605 21.4807 18.7243 19.7595C19.9882 18.0383 20.7271 16.1183 20.941 13.9997H13.9993V4.81217L6.99935 7.43717V13.4747C6.99935 13.6108 7.01879 13.7858 7.05768 13.9997H13.9993V23.2163Z" fill="#324978"/>
</svg>
