<svg width="28" height="28" viewBox="0 0 28 28" fill="none" xmlns="http://www.w3.org/2000/svg">
<path d="M10.4993 7C10.4993 8.933 12.0664 10.5 13.9993 10.5C15.9323 10.5 17.4993 8.933 17.4993 7C17.4993 5.067 15.9323 3.5 13.9993 3.5C12.0664 3.5 10.4993 5.067 10.4993 7Z" fill="white"/>
<path d="M2.91602 21C2.91602 22.933 4.48302 24.5 6.41602 24.5C8.34901 24.5 9.91601 22.933 9.91601 21C9.91601 19.067 8.34901 17.5 6.41602 17.5C4.48302 17.5 2.91602 19.067 2.91602 21Z" fill="white"/>
<path d="M21.5827 24.5C19.6497 24.5 18.0827 22.933 18.0827 21C18.0827 19.067 19.6497 17.5 21.5827 17.5C23.5157 17.5 25.0827 19.067 25.0827 21C25.0827 22.933 23.5157 24.5 21.5827 24.5Z" fill="white"/>
<path d="M8.40481 8.82269C8.76712 8.50291 8.8016 7.94997 8.48182 7.58765C8.16204 7.22534 7.60909 7.19086 7.24678 7.51064C5.12891 9.3799 3.79102 12.1176 3.79102 15.1667C3.79102 15.6499 4.18277 16.0417 4.66602 16.0417C5.14926 16.0417 5.54102 15.6499 5.54102 15.1667C5.54102 12.6405 6.64734 10.3738 8.40481 8.82269Z" fill="white"/>
<path d="M20.7519 7.51064C20.3896 7.19086 19.8367 7.22534 19.5169 7.58765C19.1971 7.94997 19.2316 8.50291 19.5939 8.82269C21.3514 10.3738 22.4577 12.6405 22.4577 15.1667C22.4577 15.6499 22.8494 16.0417 23.3327 16.0417C23.8159 16.0417 24.2077 15.6499 24.2077 15.1667C24.2077 12.1176 22.8698 9.3799 20.7519 7.51064Z" fill="white"/>
<path d="M11.8841 23.3586C11.4161 23.2382 10.9391 23.5199 10.8186 23.9879C10.6982 24.4559 10.9799 24.9329 11.4479 25.0534C12.2643 25.2635 13.1195 25.375 13.9993 25.375C14.8792 25.375 15.7344 25.2635 16.5508 25.0534C17.0188 24.9329 17.3005 24.4559 17.1801 23.9879C17.0596 23.5199 16.5826 23.2382 16.1146 23.3586C15.4395 23.5324 14.7309 23.625 13.9993 23.625C13.2678 23.625 12.5592 23.5324 11.8841 23.3586Z" fill="white"/>
</svg>
