<svg width="28" height="28" viewBox="0 0 28 28" fill="none" xmlns="http://www.w3.org/2000/svg">
<path d="M16.5447 4.98804C17.0114 5.11311 17.2885 5.59291 17.1634 6.05969L12.5275 23.361C12.4024 23.8278 11.9226 24.1048 11.4559 23.9797C10.9891 23.8547 10.7121 23.3749 10.8371 22.9081L15.473 5.60676C15.5981 5.13998 16.0779 4.86297 16.5447 4.98804Z" fill="white"/>
<path d="M19.1832 8.54907C19.5065 8.18987 20.0597 8.16075 20.4189 8.48403L22.446 10.3084C23.3051 11.0815 24.0177 11.7228 24.507 12.3045C25.0215 12.9161 25.3873 13.5732 25.3873 14.3844C25.3873 15.1956 25.0215 15.8527 24.507 16.4644C24.0177 17.046 23.3051 17.6873 22.446 18.4604L20.4189 20.2848C20.0597 20.6081 19.5065 20.579 19.1832 20.2198C18.8599 19.8606 18.889 19.3073 19.2482 18.984L21.2274 17.2027C22.1466 16.3755 22.7664 15.815 23.1678 15.3378C23.5531 14.8798 23.6373 14.6124 23.6373 14.3844C23.6373 14.1564 23.5531 13.889 23.1678 13.431C22.7664 12.9538 22.1466 12.3934 21.2274 11.5661L19.2482 9.7848C18.889 9.46152 18.8599 8.90827 19.1832 8.54907Z" fill="white"/>
<path d="M8.75232 9.7848C9.11151 9.46152 9.14063 8.90827 8.81735 8.54907C8.49408 8.18987 7.94082 8.16075 7.58163 8.48403L5.55456 10.3084C4.69549 11.0815 3.98289 11.7228 3.49357 12.3045C2.97904 12.9161 2.61328 13.5732 2.61328 14.3844C2.61328 15.1956 2.97904 15.8527 3.49357 16.4644C3.98288 17.046 4.69548 17.6873 5.55453 18.4604L7.58163 20.2848C7.94082 20.6081 8.49408 20.579 8.81735 20.2198C9.14063 19.8606 9.11151 19.3073 8.75232 18.984L6.7731 17.2027C5.85391 16.3755 5.23418 15.815 4.83273 15.3378C4.44744 14.8798 4.36328 14.6124 4.36328 14.3844C4.36328 14.1564 4.44744 13.889 4.83273 13.431C5.23418 12.9538 5.85391 12.3934 6.7731 11.5661L8.75232 9.7848Z" fill="white"/>
</svg>
