<svg width="28" height="28" viewBox="0 0 28 28" fill="none" xmlns="http://www.w3.org/2000/svg">
<path fill-rule="evenodd" clip-rule="evenodd" d="M22.1653 6.95235L13.9987 2.2373L5.83203 6.95235V16.3824L12.4417 20.1985C11.633 20.6009 11.002 21.3069 10.6979 22.1673H3.49871C2.85437 22.1673 2.33203 22.6897 2.33203 23.334C2.33203 23.9784 2.85437 24.5007 3.49871 24.5007H10.6979C11.1783 25.8601 12.4748 26.834 13.9987 26.834C15.5226 26.834 16.819 25.8601 17.2995 24.5007H24.4987C25.143 24.5007 25.6653 23.9784 25.6653 23.334C25.6653 22.6897 25.143 22.1673 24.4987 22.1673H17.2995C16.9954 21.3069 16.3644 20.6009 15.5556 20.1985L22.1653 16.3824V6.95235ZM8.16533 10.5007C8.16533 9.85639 8.68767 9.33405 9.332 9.33405C9.97634 9.33405 10.4987 9.85639 10.4987 10.5007V12.834C10.4987 13.4784 9.97634 14.0007 9.332 14.0007C8.68767 14.0007 8.16533 13.4784 8.16533 12.834V10.5007ZM19.832 10.5007C19.832 9.85639 19.3097 9.33405 18.6654 9.33405C18.021 9.33405 17.4987 9.85639 17.4987 10.5007V12.834C17.4987 13.4784 18.021 14.0007 18.6654 14.0007C19.3097 14.0007 19.832 13.4784 19.832 12.834V10.5007ZM13.9987 7.0007C14.643 7.0007 15.1653 7.52302 15.1653 8.16734V15.1674C15.1653 15.8117 14.643 16.334 13.9987 16.334C13.3544 16.334 12.832 15.8117 12.832 15.1674V8.16735C12.832 7.52302 13.3544 7.0007 13.9987 7.0007ZM15.1653 23.334C15.1653 23.9784 14.643 24.5007 13.9987 24.5007C13.3544 24.5007 12.832 23.9784 12.832 23.334C12.832 22.6897 13.3544 22.1673 13.9987 22.1673C14.643 22.1673 15.1653 22.6897 15.1653 23.334Z" fill="#324978"/>
</svg>
