<svg width="28" height="28" viewBox="0 0 28 28" fill="none" xmlns="http://www.w3.org/2000/svg">
<path fill-rule="evenodd" clip-rule="evenodd" d="M14 1.75C11.4473 1.75 8.99914 2.76406 7.1941 4.5691C5.38906 6.37414 4.375 8.82229 4.375 11.375V13.125C4.375 14.049 4.75125 14.9362 5.15025 15.6205C5.5545 16.3187 6.041 16.9032 6.3805 17.2445L8.86025 19.7225L9.87 22.75H18.13L19.1398 19.7225L21.6195 17.2445C21.959 16.9032 22.4455 16.317 22.8498 15.6205C23.2488 14.9362 23.625 14.049 23.625 13.125V11.375C23.625 8.82229 22.6109 6.37414 20.8059 4.5691C19.0009 2.76406 16.5527 1.75 14 1.75ZM16.3695 9.3695L15.1305 8.1305L11.8878 11.375L13.6378 13.125L11.6305 15.1305L12.8695 16.3695L16.1122 13.125L14.3622 11.375L16.3695 9.3695Z" fill="#324978"/>
<path d="M17.5 26.25V24.5H10.5V26.25H17.5Z" fill="#324978"/>
</svg>
