<svg width="28" height="28" viewBox="0 0 28 28" fill="none" xmlns="http://www.w3.org/2000/svg">
<g clip-path="url(#clip0_856_2915)">
<path fill-rule="evenodd" clip-rule="evenodd" d="M3.79297 1.16699C3.79297 0.934928 3.70078 0.712368 3.53669 0.548274C3.37259 0.384179 3.15003 0.291992 2.91797 0.291992C2.6859 0.291992 2.46334 0.384179 2.29925 0.548274C2.13516 0.712368 2.04297 0.934928 2.04297 1.16699V5.42533C1.55997 5.42533 1.11314 5.58866 0.784135 5.91649C0.457469 6.24549 0.292969 6.69233 0.292969 7.17533V10.6753C0.292969 11.1583 0.456302 11.6052 0.784135 11.933C1.11314 12.262 1.55997 12.4253 2.04297 12.4253V15.342C2.04297 15.5741 2.13516 15.7966 2.29925 15.9607C2.46334 16.1248 2.6859 16.217 2.91797 16.217C3.15003 16.217 3.37259 16.1248 3.53669 15.9607C3.70078 15.7966 3.79297 15.5741 3.79297 15.342V12.4253C4.27597 12.4253 4.7228 12.262 5.0518 11.933C5.37847 11.6063 5.54297 11.1583 5.54297 10.6753V7.17533C5.54297 6.69233 5.37964 6.24549 5.0518 5.91649C4.7228 5.58866 4.27597 5.42533 3.79297 5.42533V1.16699ZM8.45963 23.042C7.97663 23.042 7.5298 22.8787 7.2008 22.5508C7.03958 22.384 6.91314 22.1868 6.82882 21.9707C6.7445 21.7546 6.70398 21.5239 6.70964 21.292V16.042C6.70964 15.559 6.87297 15.1122 7.2008 14.7832C7.52864 14.4542 7.97663 14.292 8.45963 14.292V11.3753C8.45963 11.1433 8.55182 10.9207 8.71592 10.7566C8.88001 10.5925 9.10257 10.5003 9.33463 10.5003C9.5667 10.5003 9.78926 10.5925 9.95335 10.7566C10.1174 10.9207 10.2096 11.1433 10.2096 11.3753V14.292C10.6926 14.292 11.1395 14.4553 11.4685 14.7832C11.7963 15.1122 11.9596 15.559 11.9596 16.042V21.292C11.9596 21.775 11.7963 22.2218 11.4685 22.5508C11.1395 22.8775 10.6926 23.042 10.2096 23.042V26.8337C10.2096 27.0657 10.1174 27.2883 9.95335 27.4524C9.78926 27.6165 9.5667 27.7087 9.33463 27.7087C9.10257 27.7087 8.88001 27.6165 8.71592 27.4524C8.55182 27.2883 8.45963 27.0657 8.45963 26.8337V23.042ZM15.1353 13.7332C15.462 13.4065 15.91 13.242 16.393 13.242H18.143C18.626 13.242 19.0728 13.4053 19.4018 13.7332C19.7296 14.0622 19.893 14.509 19.893 14.992V19.6587C19.893 20.1417 19.7296 20.5885 19.4018 20.9175C19.0728 21.2442 18.626 21.4087 18.143 21.4087V25.492C18.143 25.7241 18.0508 25.9466 17.8867 26.1107C17.7226 26.2748 17.5 26.367 17.268 26.367C17.0359 26.367 16.8133 26.2748 16.6493 26.1107C16.4852 25.9466 16.393 25.7241 16.393 25.492V21.4087C15.91 21.4087 15.4631 21.2453 15.1341 20.9175C14.9729 20.7507 14.8465 20.5535 14.7621 20.3374C14.6778 20.1213 14.6373 19.8906 14.643 19.6587V14.992C14.643 14.509 14.8063 14.0622 15.1341 13.7332M24.2971 3.23199C24.215 3.13352 24.1123 3.0543 23.9961 2.99993C23.88 2.94557 23.7534 2.91739 23.6251 2.91739C23.4969 2.91739 23.3703 2.94557 23.2541 2.99993C23.138 3.0543 23.0353 3.13352 22.9531 3.23199L19.4531 7.43199C19.3467 7.55974 19.2789 7.71517 19.2577 7.88006C19.2364 8.04496 19.2625 8.2125 19.333 8.36307C19.4036 8.51365 19.5155 8.64101 19.6558 8.73025C19.7961 8.8195 19.9589 8.86693 20.1251 8.86699H22.4585V21.992C22.4585 22.3014 22.5814 22.5982 22.8002 22.8169C23.019 23.0357 23.3157 23.1587 23.6251 23.1587C23.9346 23.1587 24.2313 23.0357 24.4501 22.8169C24.6689 22.5982 24.7918 22.3014 24.7918 21.992V8.86699H27.1251C27.2914 8.86693 27.4542 8.8195 27.5945 8.73025C27.7348 8.64101 27.8467 8.51365 27.9172 8.36307C27.9877 8.2125 28.0139 8.04496 27.9926 7.88006C27.9713 7.71517 27.9035 7.55974 27.7971 7.43199L24.2971 3.23199Z" fill="#324978"/>
</g>
<defs>
<clipPath id="clip0_856_2915">
<rect width="28" height="28" fill="white"/>
</clipPath>
</defs>
</svg>
