<svg width="28" height="28" viewBox="0 0 28 28" fill="none" xmlns="http://www.w3.org/2000/svg">
<path d="M25.0846 10.4995C25.0851 11.9971 24.6422 13.4612 23.8117 14.7074C22.9812 15.9535 21.8003 16.9259 20.418 17.5019V17.4995C20.418 14.8695 19.3732 12.3471 17.5134 10.4874C15.6537 8.62767 13.1314 7.58288 10.5013 7.58288H10.499C11.1742 5.96557 12.3887 4.63199 13.936 3.80878C15.4832 2.98557 17.2678 2.72353 18.9864 3.0672C20.705 3.41086 22.2516 4.33902 23.3633 5.69394C24.475 7.04886 25.0832 8.74692 25.0846 10.4995ZM8.16797 3.49954C6.93029 3.49954 5.74331 3.99121 4.86814 4.86638C3.99297 5.74155 3.5013 6.92853 3.5013 8.16621V9.91621H5.83464V8.16621C5.83464 7.54737 6.08047 6.95388 6.51805 6.5163C6.95564 6.07871 7.54913 5.83288 8.16797 5.83288H9.91797V3.49954H8.16797ZM22.168 18.0829V19.8329C22.168 20.4517 21.9221 21.0452 21.4846 21.4828C21.047 21.9204 20.4535 22.1662 19.8346 22.1662H18.0846V24.4995H19.8346C21.0723 24.4995 22.2593 24.0079 23.1345 23.1327C24.0096 22.2575 24.5013 21.0706 24.5013 19.8329V18.0829H22.168ZM10.5013 25.0829C12.5125 25.0829 14.4414 24.2839 15.8635 22.8618C17.2857 21.4396 18.0846 19.5108 18.0846 17.4995C18.0846 15.4883 17.2857 13.5595 15.8635 12.1373C14.4414 10.7152 12.5125 9.91621 10.5013 9.91621C8.49008 9.91621 6.56123 10.7152 5.13908 12.1373C3.71692 13.5595 2.91797 15.4883 2.91797 17.4995C2.91797 19.5108 3.71692 21.4396 5.13908 22.8618C6.56123 24.2839 8.49008 25.0829 10.5013 25.0829ZM10.5013 14.5829L13.418 17.4995L10.5013 20.4162L7.58464 17.4995L10.5013 14.5829Z" fill="#324978"/>
</svg>
