<svg width="28" height="28" viewBox="0 0 28 28" fill="none" xmlns="http://www.w3.org/2000/svg">
<path d="M20.9987 22.6622V24.0913C20.9987 24.4219 20.8867 24.6992 20.6627 24.9232C20.4387 25.1472 20.1618 25.2588 19.832 25.258C19.5023 25.2572 19.2254 25.1456 19.0014 24.9232C18.7774 24.7007 18.6654 24.4235 18.6654 24.0913V20.4163C18.6654 19.9302 18.8357 19.5172 19.1764 19.1773C19.517 18.8375 19.93 18.6671 20.4154 18.6663H24.0904C24.4209 18.6663 24.6982 18.7783 24.9222 19.0023C25.1462 19.2263 25.2578 19.5032 25.257 19.833C25.2563 20.1628 25.1446 20.4401 24.9222 20.6648C24.6998 20.8896 24.4225 21.0012 24.0904 20.9997H22.632L25.257 23.6247C25.4709 23.8386 25.5779 24.1061 25.5779 24.4273C25.5779 24.7486 25.4709 25.0255 25.257 25.258C25.0237 25.4913 24.7468 25.608 24.4264 25.608C24.1059 25.608 23.8286 25.4913 23.5945 25.258L20.9987 22.6622ZM13.9987 25.6663C12.3848 25.6663 10.8681 25.3599 9.4487 24.747C8.02926 24.1341 6.79453 23.3031 5.74453 22.2538C4.69453 21.2046 3.86348 19.9699 3.25137 18.5497C2.63926 17.1295 2.33281 15.6128 2.33203 13.9997C2.33125 12.3866 2.6377 10.8699 3.25137 9.44967C3.86503 8.02945 4.69609 6.79473 5.74453 5.74551C6.79298 4.69629 8.0277 3.86523 9.4487 3.25234C10.8697 2.63945 12.3864 2.33301 13.9987 2.33301C15.611 2.33301 17.1277 2.63945 18.5487 3.25234C19.9697 3.86523 21.2044 4.69629 22.2529 5.74551C23.3013 6.79473 24.1328 8.02945 24.7472 9.44967C25.3616 10.8699 25.6677 12.3866 25.6654 13.9997C25.6654 14.1941 25.6607 14.408 25.6514 14.6413C25.642 14.8747 25.6273 15.0886 25.607 15.283C25.5681 15.6136 25.432 15.8714 25.1987 16.0565C24.9654 16.2416 24.6737 16.3338 24.3237 16.333C24.0126 16.333 23.7501 16.1969 23.5362 15.9247C23.3223 15.6525 23.2348 15.3608 23.2737 15.0497C23.3126 14.8552 23.332 14.6802 23.332 14.5247V13.9997C23.332 13.6108 23.3075 13.2219 23.2585 12.833C23.2095 12.4441 23.1368 12.0552 23.0404 11.6663H19.0737C19.132 12.0552 19.176 12.4441 19.2055 12.833C19.2351 13.2219 19.2495 13.6108 19.2487 13.9997V14.6273C19.2487 14.8506 19.239 15.0594 19.2195 15.2538C19.1806 15.5844 19.0445 15.8469 18.8112 16.0413C18.5779 16.2358 18.2959 16.333 17.9654 16.333C17.6543 16.333 17.3871 16.2066 17.1639 15.9538C16.9406 15.7011 16.8481 15.4191 16.8862 15.108C16.9056 14.9136 16.9154 14.7288 16.9154 14.5538V13.9997C16.9154 13.6108 16.901 13.2219 16.8722 12.833C16.8434 12.4441 16.7995 12.0552 16.7404 11.6663H11.257C11.1987 12.0552 11.1551 12.4441 11.1264 12.833C11.0976 13.2219 11.0828 13.6108 11.082 13.9997C11.0813 14.3886 11.096 14.7775 11.1264 15.1663C11.1567 15.5552 11.2003 15.9441 11.257 16.333H13.9987C14.3293 16.333 14.6065 16.445 14.8305 16.669C15.0545 16.893 15.1661 17.1699 15.1654 17.4997C15.1646 17.8295 15.0526 18.1067 14.8294 18.3315C14.6061 18.5563 14.3293 18.6679 13.9987 18.6663H11.782C12.0154 19.5025 12.3168 20.3047 12.6862 21.0732C13.0556 21.8416 13.4931 22.5755 13.9987 23.2747C14.1931 23.2747 14.3876 23.2797 14.582 23.2898C14.7765 23.3 14.9709 23.2949 15.1654 23.2747C15.4959 23.2358 15.7681 23.3186 15.982 23.5232C16.1959 23.7277 16.3029 23.9949 16.3029 24.3247C16.3029 24.6747 16.2154 24.9663 16.0404 25.1997C15.8654 25.433 15.6126 25.5691 15.282 25.608C15.0876 25.6275 14.8737 25.6422 14.6404 25.6523C14.407 25.6625 14.1931 25.6671 13.9987 25.6663ZM4.95703 16.333H8.9237C8.86537 15.9441 8.82181 15.5552 8.79303 15.1663C8.76426 14.7775 8.74948 14.3886 8.7487 13.9997C8.74792 13.6108 8.7627 13.2219 8.79303 12.833C8.82337 12.4441 8.86692 12.0552 8.9237 11.6663H4.95703C4.85981 12.0552 4.78709 12.4441 4.73887 12.833C4.69064 13.2219 4.66614 13.6108 4.66537 13.9997C4.66459 14.3886 4.68909 14.7775 4.73887 15.1663C4.78864 15.5552 4.86137 15.9441 4.95703 16.333ZM10.9654 22.808C10.6154 22.1469 10.3089 21.4714 10.046 20.7815C9.78314 20.0916 9.56459 19.3866 9.39037 18.6663H5.9487C6.51259 19.658 7.22231 20.5089 8.07787 21.219C8.93342 21.9291 9.89592 22.4588 10.9654 22.808ZM5.9487 9.33301H9.39037C9.56537 8.61356 9.78431 7.9089 10.0472 7.21901C10.3101 6.52912 10.6161 5.85323 10.9654 5.19134C9.89592 5.54134 8.93342 6.0714 8.07787 6.78151C7.22231 7.49162 6.51259 8.34212 5.9487 9.33301ZM11.782 9.33301H16.2154C15.982 8.4969 15.6806 7.69501 15.3112 6.92734C14.9418 6.15967 14.5043 5.42545 13.9987 4.72467C13.4931 5.42467 13.0556 6.1589 12.6862 6.92734C12.3168 7.69579 12.0154 8.49767 11.782 9.33301ZM18.607 9.33301H22.0487C21.4848 8.34134 20.7751 7.49084 19.9195 6.78151C19.064 6.07217 18.1015 5.54212 17.032 5.19134C17.382 5.85245 17.6885 6.52834 17.9514 7.21901C18.2143 7.90967 18.4328 8.61434 18.607 9.33301Z" fill="#324978"/>
</svg>
