<svg width="28" height="28" viewBox="0 0 28 28" fill="none" xmlns="http://www.w3.org/2000/svg">
<path fill-rule="evenodd" clip-rule="evenodd" d="M13.9987 2.33301C20.4422 2.33301 25.6654 7.55617 25.6654 13.9997C25.6654 20.4432 20.4422 25.6663 13.9987 25.6663C12.013 25.6692 10.0597 25.1631 8.32521 24.1963L7.96937 23.9887L4.43204 25.0293C4.23954 25.0861 4.03575 25.0927 3.83998 25.0486C3.6442 25.0045 3.46294 24.9111 3.31337 24.7773C3.1638 24.6435 3.05087 24.4737 2.98531 24.284C2.91974 24.0944 2.9037 23.8911 2.93871 23.6935L2.96904 23.5663L4.00971 20.029C2.9096 18.2105 2.32933 16.1251 2.33204 13.9997C2.33204 7.55617 7.55521 2.33301 13.9987 2.33301ZM11.4239 11.4248L7.92387 14.9248C7.81245 15.0325 7.72357 15.1612 7.66242 15.3035C7.60128 15.4459 7.56909 15.599 7.56775 15.7539C7.5664 15.9088 7.59592 16.0624 7.65458 16.2058C7.71324 16.3492 7.79987 16.4794 7.90941 16.589C8.01895 16.6985 8.14922 16.7851 8.29259 16.8438C8.43597 16.9025 8.5896 16.932 8.74451 16.9306C8.89942 16.9293 9.05251 16.8971 9.19485 16.836C9.33718 16.7748 9.46592 16.6859 9.57354 16.5745L12.2487 13.8993L14.9239 16.5745C15.1427 16.7932 15.4393 16.9161 15.7487 16.9161C16.0581 16.9161 16.3548 16.7932 16.5735 16.5745L20.0735 13.0745C20.2861 12.8545 20.4037 12.5598 20.401 12.2539C20.3983 11.948 20.2756 11.6554 20.0593 11.4391C19.843 11.2227 19.5504 11.1 19.2445 11.0974C18.9386 11.0947 18.6439 11.2123 18.4239 11.4248L15.7487 14.1L13.0735 11.4248C12.8548 11.2061 12.5581 11.0833 12.2487 11.0833C11.9393 11.0833 11.6427 11.2061 11.4239 11.4248Z" fill="#324978"/>
</svg>
