<svg width="17" height="16" viewBox="0 0 17 16" fill="none" xmlns="http://www.w3.org/2000/svg">
<g clip-path="url(#clip0_332_2996)">
<path fill-rule="evenodd" clip-rule="evenodd" d="M16.18 8.1808C16.18 7.61352 16.1291 7.06807 16.0345 6.54443H8.5V9.63898H12.8055C12.62 10.639 12.0564 11.4863 11.2091 12.0535V14.0608H13.7945C15.3073 12.6681 16.18 10.6172 16.18 8.1808Z" fill="#4285F4"/>
<path fill-rule="evenodd" clip-rule="evenodd" d="M8.49675 16.001C10.6567 16.001 12.4677 15.2846 13.7913 14.0628L11.2058 12.0555C10.4895 12.5355 9.57311 12.8192 8.49675 12.8192C6.41311 12.8192 4.64947 11.4119 4.02038 9.521H1.34766V11.5937C2.66402 14.2083 5.36947 16.001 8.49675 16.001Z" fill="#34A853"/>
<path fill-rule="evenodd" clip-rule="evenodd" d="M4.02364 9.51898C3.86364 9.03898 3.77273 8.52625 3.77273 7.99898C3.77273 7.4717 3.86364 6.95898 4.02364 6.47898V4.40625H1.35091C0.809091 5.48625 0.5 6.70807 0.5 7.99898C0.5 9.28989 0.809091 10.5117 1.35091 11.5917L4.02364 9.51898Z" fill="#FBBC05"/>
<path fill-rule="evenodd" clip-rule="evenodd" d="M8.49675 3.18182C9.67129 3.18182 10.7258 3.58545 11.5549 4.37818L13.8495 2.08364C12.464 0.792727 10.6531 0 8.49675 0C5.36947 0 2.66402 1.79273 1.34766 4.40727L4.02038 6.48C4.64947 4.58909 6.41311 3.18182 8.49675 3.18182Z" fill="#EA4335"/>
</g>
<defs>
<clipPath id="clip0_332_2996">
<rect width="16" height="16" fill="white" transform="translate(0.5)"/>
</clipPath>
</defs>
</svg>
