<svg width="13" height="13" viewBox="0 0 13 13" fill="none" xmlns="http://www.w3.org/2000/svg">
<path opacity="0.4" fill-rule="evenodd" clip-rule="evenodd" d="M6.31341 1.74451C3.79055 1.74451 1.74537 3.78969 1.74537 6.31255C1.74537 8.83541 3.79055 10.8806 6.31341 10.8806C8.83627 10.8806 10.8814 8.83541 10.8814 6.31255C10.8814 3.78969 8.83627 1.74451 6.31341 1.74451ZM0.841797 6.31255C0.841797 3.29067 3.29152 0.840942 6.31341 0.840942C9.3353 0.840942 11.785 3.29067 11.785 6.31255C11.785 9.33444 9.3353 11.7842 6.31341 11.7842C3.29152 11.7842 0.841797 9.33444 0.841797 6.31255Z" fill="#FC3E60"/>
<path d="M6.76511 4.55628C6.76511 4.30676 6.56284 4.10449 6.31332 4.10449C6.06381 4.10449 5.86154 4.30676 5.86154 4.55628V6.97945L5.12683 6.24475C4.9504 6.06831 4.66435 6.06831 4.48792 6.24475C4.31148 6.42118 4.31148 6.70723 4.48792 6.88367L5.99386 8.38961C6.1703 8.56605 6.45635 8.56605 6.63278 8.38961L8.13873 6.88367C8.31516 6.70723 8.31516 6.42118 8.13873 6.24475C7.9623 6.06831 7.67624 6.06831 7.49981 6.24475L6.76511 6.97945V4.55628Z" fill="#FC3E60"/>
</svg>
