<svg width="16" height="16" viewBox="0 0 16 16" fill="none" xmlns="http://www.w3.org/2000/svg">
<g clip-path="url(#clip0_2067_3597)">
<path fill-rule="evenodd" clip-rule="evenodd" d="M0.761719 2.57027C0.761719 1.57141 1.57239 0.760742 2.57124 0.760742H13.4284C14.4272 0.760742 15.2379 1.57141 15.2379 2.57027V5.93805C15.2373 7.99591 14.5773 9.99943 13.3547 11.6547C12.1321 13.31 10.4112 14.53 8.44444 15.1356C8.15484 15.2255 7.84479 15.2255 7.55519 15.1356C5.58847 14.53 3.86758 13.31 2.64495 11.6547C1.42232 9.99943 0.762309 7.99591 0.761719 5.93805L0.761719 2.57027ZM7.99981 7.48183C8.61685 7.48183 9.20861 7.23671 9.64492 6.80041C10.0812 6.3641 10.3263 5.77233 10.3263 5.1553C10.3263 4.53827 10.0812 3.9465 9.64492 3.51019C9.20861 3.07389 8.61685 2.82877 7.99981 2.82877C7.38278 2.82877 6.79102 3.07389 6.35471 3.51019C5.9184 3.9465 5.67328 4.53827 5.67328 5.1553C5.67328 5.77233 5.9184 6.3641 6.35471 6.80041C6.79102 7.23671 7.38278 7.48183 7.99981 7.48183ZM12.293 10.4732C11.7592 9.85872 11.0997 9.36597 10.359 9.02829C9.61834 8.6906 8.81382 8.51585 7.99981 8.51584C7.18581 8.51585 6.38129 8.6906 5.64063 9.02829C4.89997 9.36597 4.24043 9.85872 3.70659 10.4732C4.7354 11.9889 6.24953 13.1092 7.99981 13.6497C9.7501 13.1092 11.2642 11.9889 12.293 10.4732Z" fill="#324978"/>
</g>
<defs>
<clipPath id="clip0_2067_3597">
<rect width="16" height="16" fill="white"/>
</clipPath>
</defs>
</svg>
