<svg width="16" height="16" viewBox="0 0 16 16" fill="none" xmlns="http://www.w3.org/2000/svg">
<g clip-path="url(#clip0_2067_3567)">
<path fill-rule="evenodd" clip-rule="evenodd" d="M2.16797 0.666992C2.16797 0.534384 2.11529 0.407207 2.02152 0.313439C1.92775 0.219671 1.80058 0.166992 1.66797 0.166992C1.53536 0.166992 1.40818 0.219671 1.31442 0.313439C1.22065 0.407207 1.16797 0.534384 1.16797 0.666992V3.10033C0.891969 3.10033 0.636635 3.19366 0.448635 3.38099C0.261969 3.56899 0.167969 3.82433 0.167969 4.10033V6.10033C0.167969 6.37633 0.261302 6.63166 0.448635 6.81899C0.636635 7.00699 0.891969 7.10033 1.16797 7.10033V8.76699C1.16797 8.8996 1.22065 9.02678 1.31442 9.12055C1.40818 9.21431 1.53536 9.26699 1.66797 9.26699C1.80058 9.26699 1.92775 9.21431 2.02152 9.12055C2.11529 9.02678 2.16797 8.8996 2.16797 8.76699V7.10033C2.44397 7.10033 2.6993 7.00699 2.8873 6.81899C3.07397 6.63233 3.16797 6.37633 3.16797 6.10033V4.10033C3.16797 3.82433 3.07464 3.56899 2.8873 3.38099C2.6993 3.19366 2.44397 3.10033 2.16797 3.10033V0.666992ZM4.83464 13.167C4.55864 13.167 4.3033 13.0737 4.1153 12.8863C4.02318 12.791 3.95092 12.6783 3.90274 12.5548C3.85456 12.4314 3.83141 12.2995 3.83464 12.167V9.16699C3.83464 8.89099 3.92797 8.63566 4.1153 8.44766C4.30264 8.25966 4.55864 8.16699 4.83464 8.16699V6.50033C4.83464 6.36772 4.88731 6.24054 4.98108 6.14677C5.07485 6.053 5.20203 6.00033 5.33464 6.00033C5.46724 6.00033 5.59442 6.053 5.68819 6.14677C5.78196 6.24054 5.83464 6.36772 5.83464 6.50033V8.16699C6.11064 8.16699 6.36597 8.26033 6.55397 8.44766C6.7413 8.63566 6.83464 8.89099 6.83464 9.16699V12.167C6.83464 12.443 6.7413 12.6983 6.55397 12.8863C6.36597 13.073 6.11064 13.167 5.83464 13.167V15.3337C5.83464 15.4663 5.78196 15.5934 5.68819 15.6872C5.59442 15.781 5.46724 15.8337 5.33464 15.8337C5.20203 15.8337 5.07485 15.781 4.98108 15.6872C4.88731 15.5934 4.83464 15.4663 4.83464 15.3337V13.167ZM8.6493 7.84766C8.83597 7.66099 9.09197 7.56699 9.36797 7.56699H10.368C10.644 7.56699 10.8993 7.66033 11.0873 7.84766C11.2746 8.03566 11.368 8.29099 11.368 8.56699V11.2337C11.368 11.5097 11.2746 11.765 11.0873 11.953C10.8993 12.1397 10.644 12.2337 10.368 12.2337V14.567C10.368 14.6996 10.3153 14.8268 10.2215 14.9205C10.1278 15.0143 10.0006 15.067 9.86797 15.067C9.73536 15.067 9.60818 15.0143 9.51442 14.9205C9.42065 14.8268 9.36797 14.6996 9.36797 14.567V12.2337C9.09197 12.2337 8.83664 12.1403 8.64864 11.953C8.55651 11.8577 8.48426 11.745 8.43607 11.6215C8.38789 11.498 8.36474 11.3662 8.36797 11.2337V8.56699C8.36797 8.29099 8.4613 8.03566 8.64864 7.84766M13.8846 1.84699C13.8377 1.79072 13.779 1.74545 13.7126 1.71439C13.6463 1.68332 13.5739 1.66722 13.5006 1.66722C13.4274 1.66722 13.355 1.68332 13.2886 1.71439C13.2223 1.74545 13.1636 1.79072 13.1166 1.84699L11.1166 4.24699C11.0558 4.31999 11.0171 4.40881 11.0049 4.50303C10.9928 4.59726 11.0077 4.693 11.048 4.77904C11.0883 4.86508 11.1523 4.93786 11.2324 4.98886C11.3126 5.03985 11.4056 5.06696 11.5006 5.06699H12.834V12.567C12.834 12.7438 12.9042 12.9134 13.0292 13.0384C13.1543 13.1634 13.3238 13.2337 13.5006 13.2337C13.6774 13.2337 13.847 13.1634 13.972 13.0384C14.0971 12.9134 14.1673 12.7438 14.1673 12.567V5.06699H15.5006C15.5956 5.06696 15.6887 5.03985 15.7688 4.98886C15.849 4.93786 15.913 4.86508 15.9533 4.77904C15.9935 4.693 16.0085 4.59726 15.9963 4.50303C15.9842 4.40881 15.9454 4.31999 15.8846 4.24699L13.8846 1.84699Z" fill="#324978"/>
</g>
<defs>
<clipPath id="clip0_2067_3567">
<rect width="16" height="16" fill="white"/>
</clipPath>
</defs>
</svg>
