<svg width="20" height="20" viewBox="0 0 20 20" fill="none" xmlns="http://www.w3.org/2000/svg">
<path d="M15.0496 2.35829C14.0913 1.71662 12.9996 1.25829 11.833 1.01662C11.3163 0.91662 10.833 1.30829 10.833 1.84162C10.833 2.22495 11.0913 2.57495 11.4663 2.64995C12.4413 2.84162 13.3496 3.23329 14.1413 3.76662C14.4663 3.98329 14.8913 3.92495 15.1663 3.64995C15.5497 3.27495 15.4913 2.64995 15.0496 2.35829ZM9.16632 1.84162C9.16632 1.30829 8.68298 0.91662 8.16632 1.01662C6.99965 1.25829 5.90798 1.71662 4.94965 2.35829C4.51632 2.64995 4.45798 3.27495 4.82465 3.64162C5.09965 3.91662 5.52465 3.97495 5.84965 3.75829C6.64965 3.22495 7.54965 2.84162 8.52465 2.64162C8.90798 2.57495 9.16632 2.22495 9.16632 1.84162ZM3.64965 4.82495C3.5626 4.73754 3.45723 4.67055 3.34115 4.62881C3.22507 4.58707 3.10116 4.57162 2.97838 4.58358C2.8556 4.59554 2.73701 4.6346 2.63117 4.69796C2.52532 4.76132 2.43486 4.84739 2.36632 4.94995C1.71186 5.92348 1.25593 7.01658 1.02465 8.16662C0.999932 8.28771 1.00246 8.41278 1.03204 8.53277C1.06163 8.65277 1.11753 8.76468 1.1957 8.8604C1.27387 8.95612 1.37236 9.03326 1.48402 9.08622C1.59568 9.13918 1.71773 9.16665 1.84132 9.16662C2.22465 9.16662 2.57465 8.90829 2.64965 8.53329C2.84132 7.55829 3.23298 6.64995 3.76632 5.84995C3.97465 5.53329 3.91632 5.09995 3.64965 4.82495ZM18.158 9.16662C18.2816 9.16665 18.4036 9.13918 18.5153 9.08622C18.6269 9.03326 18.7254 8.95612 18.8036 8.8604C18.8818 8.76468 18.9377 8.65277 18.9673 8.53277C18.9968 8.41278 18.9994 8.28771 18.9746 8.16662C18.733 6.99995 18.2746 5.91662 17.633 4.94995C17.3413 4.51662 16.7163 4.44995 16.3497 4.82495C16.0747 5.09995 16.0163 5.52495 16.233 5.84995C16.7663 6.64995 17.1496 7.55829 17.3496 8.53329C17.4247 8.90829 17.7747 9.16662 18.158 9.16662ZM6.66632 10.3833L8.69965 11.3083L9.61632 13.3333C9.64946 13.406 9.70283 13.4677 9.77006 13.511C9.83729 13.5542 9.91554 13.5772 9.99548 13.5772C10.0754 13.5772 10.1537 13.5542 10.2209 13.511C10.2881 13.4677 10.3415 13.406 10.3746 13.3333L11.2996 11.3L13.333 10.3833C13.4057 10.3501 13.4674 10.2968 13.5107 10.2295C13.5539 10.1623 13.5769 10.0841 13.5769 10.0041C13.5769 9.92418 13.5539 9.84593 13.5107 9.7787C13.4674 9.71147 13.4057 9.6581 13.333 9.62495L11.2996 8.69995L10.383 6.66662C10.3498 6.59388 10.2965 6.5322 10.2292 6.48895C10.162 6.4457 10.0838 6.42271 10.0038 6.42271C9.92388 6.42271 9.84562 6.4457 9.77839 6.48895C9.71116 6.5322 9.65779 6.59388 9.62465 6.66662L8.69965 8.69995L6.66632 9.61662C6.34132 9.76662 6.34132 10.2333 6.66632 10.3833Z" fill="#F1F5FB"/>
<path d="M9.9987 17.5C8.76803 17.4997 7.55651 17.1953 6.47192 16.6137C5.38732 16.0322 4.46329 15.1916 3.78203 14.1667H4.9987C5.45703 14.1667 5.83203 13.7917 5.83203 13.3333C5.83203 12.875 5.45703 12.5 4.9987 12.5H1.66536C1.20703 12.5 0.832031 12.875 0.832031 13.3333V16.6667C0.832031 17.125 1.20703 17.5 1.66536 17.5C2.1237 17.5 2.4987 17.125 2.4987 16.6667V15.25C4.15703 17.6167 6.89036 19.1667 9.9987 19.1667C13.707 19.1667 16.8904 16.9667 18.332 13.8083C18.3818 13.6954 18.4062 13.573 18.4034 13.4496C18.4006 13.3263 18.3707 13.205 18.3158 13.0945C18.2609 12.984 18.1825 12.8869 18.0859 12.8101C17.9893 12.7332 17.8771 12.6786 17.757 12.65C17.382 12.5667 16.982 12.7417 16.8237 13.1C15.6404 15.6917 13.032 17.5 9.9987 17.5Z" fill="#F1F5FB"/>
</svg>
