<svg width="20" height="20" viewBox="0 0 20 20" fill="none" xmlns="http://www.w3.org/2000/svg">
<path d="M15.832 9.16634C15.832 5.94134 13.2237 3.33301 9.9987 3.33301C8.72147 3.33364 7.47986 3.75405 6.46498 4.52951C5.45011 5.30497 4.71824 6.39249 4.38203 7.62467C3.3732 7.85659 2.47284 8.42377 1.82804 9.23356C1.18324 10.0433 0.832114 11.0479 0.832031 12.083C0.832031 14.6163 2.88203 16.6663 5.41536 16.6663H15.4154C17.4904 16.658 19.1654 14.9747 19.1654 12.8997C19.1654 10.958 17.707 9.38301 15.832 9.16634ZM10.832 10.833V12.4997C10.832 12.958 10.457 13.333 9.9987 13.333C9.54037 13.333 9.16537 12.958 9.16537 12.4997V10.833H7.6737C7.2987 10.833 7.11536 10.383 7.38203 10.1247L9.70703 7.79967C9.8737 7.63301 10.132 7.63301 10.2987 7.79967L12.6237 10.1247C12.6808 10.1829 12.7196 10.2566 12.7352 10.3367C12.7508 10.4167 12.7425 10.4996 12.7115 10.575C12.6804 10.6504 12.6279 10.7151 12.5605 10.7609C12.493 10.8068 12.4136 10.8319 12.332 10.833H10.832Z" fill="white"/>
</svg>
