<svg width="20" height="20" viewBox="0 0 20 20" fill="none" xmlns="http://www.w3.org/2000/svg">
<path d="M15.6622 8.575C15.0722 5.34188 12.2497 2.89062 8.84781 2.89062V5.39062C10.0232 5.39228 11.15 5.85994 11.9811 6.69107C12.8123 7.5222 13.2799 8.64898 13.2816 9.82438C13.2796 10.9994 12.8119 12.1258 11.9809 12.9567C11.1499 13.7875 10.0235 14.2551 8.84844 14.2569V16.7581C12.2497 16.7556 15.0734 14.3044 15.6628 11.0731H18.5941V8.57312H15.6628L15.6622 8.575ZM12.7341 9.825C12.735 8.90384 12.4087 8.01231 11.8132 7.3095C11.2177 6.60668 10.3919 6.13832 9.48308 5.98799C8.57427 5.83766 7.64161 6.01515 6.85154 6.48877C6.06147 6.9624 5.4654 7.70135 5.16969 8.57375H0.898438V11.0738H5.16969C5.46503 11.9465 6.06094 12.6859 6.85104 13.1599C7.64114 13.6339 8.57399 13.8117 9.48304 13.6615C10.3921 13.5113 11.2182 13.0429 11.8138 12.3399C12.4094 11.6369 12.7358 10.7451 12.7347 9.82375L12.7341 9.825Z" fill="#F1F5FB"/>
</svg>
