<svg width="16" height="16" viewBox="0 0 16 16" fill="none" xmlns="http://www.w3.org/2000/svg">
<path d="M6.06945 3.63167C6.46812 2.46501 8.08012 2.42967 8.55278 3.52567L8.59278 3.63234L9.13078 5.20567C9.25408 5.5665 9.45332 5.89668 9.71507 6.17396C9.97682 6.45123 10.295 6.66915 10.6481 6.81301L10.7928 6.86701L12.3661 7.40434C13.5328 7.80301 13.5681 9.41501 12.4728 9.88767L12.3661 9.92768L10.7928 10.4657C10.4318 10.5889 10.1015 10.7881 9.82413 11.0498C9.54673 11.3116 9.32871 11.6298 9.18478 11.983L9.13078 12.127L8.59345 13.701C8.19478 14.8677 6.58278 14.903 6.11078 13.8077L6.06945 13.701L5.53212 12.1277C5.4089 11.7667 5.2097 11.4364 4.94794 11.159C4.68619 10.8816 4.36798 10.6636 4.01478 10.5197L3.87078 10.4657L2.29745 9.92834C1.13012 9.52967 1.09478 7.91767 2.19078 7.44567L2.29745 7.40434L3.87078 6.86701C4.23161 6.74371 4.56179 6.54447 4.83907 6.28272C5.11634 6.02097 5.33426 5.7028 5.47812 5.34967L5.53212 5.20567L6.06945 3.63167ZM12.6648 1.33301C12.7895 1.33301 12.9117 1.36799 13.0176 1.43399C13.1234 1.49998 13.2086 1.59434 13.2635 1.70634L13.2955 1.78434L13.5288 2.46834L14.2135 2.70167C14.3384 2.74414 14.448 2.82275 14.5283 2.92755C14.6085 3.03235 14.6559 3.15862 14.6643 3.29036C14.6727 3.42209 14.6419 3.55336 14.5756 3.66753C14.5093 3.7817 14.4107 3.87363 14.2921 3.93167L14.2135 3.96367L13.5295 4.19701L13.2961 4.88167C13.2536 5.00663 13.1749 5.11614 13.0701 5.19634C12.9652 5.27653 12.8389 5.3238 12.7072 5.33216C12.5755 5.34051 12.4442 5.30957 12.3301 5.24326C12.216 5.17695 12.1241 5.07825 12.0661 4.95967L12.0341 4.88167L11.8008 4.19767L11.1161 3.96434C10.9911 3.92188 10.8816 3.84326 10.8013 3.73846C10.721 3.63366 10.6737 3.5074 10.6653 3.37566C10.6568 3.24393 10.6877 3.11265 10.754 2.99848C10.8202 2.88431 10.9189 2.79238 11.0375 2.73434L11.1161 2.70234L11.8001 2.46901L12.0335 1.78434C12.0784 1.65262 12.1635 1.53828 12.2767 1.45734C12.3899 1.3764 12.5256 1.33292 12.6648 1.33301Z" fill="#ffffff"/>
</svg>
