<svg width="20" height="20" viewBox="0 0 20 20" fill="none" xmlns="http://www.w3.org/2000/svg">
<path d="M14.218 10.8334C12.668 10.8334 11.368 11.9418 11.0346 13.4168C10.243 13.0751 9.51797 13.1668 8.96797 13.4084C8.6263 11.9251 7.3263 10.8334 5.78464 10.8334C3.9763 10.8334 2.5013 12.3251 2.5013 14.1668C2.5013 16.0084 3.9763 17.5001 5.78464 17.5001C7.5013 17.5001 8.9013 16.1501 9.03464 14.4334C9.31797 14.2334 10.0596 13.8584 10.968 14.4501C11.118 16.1584 12.5013 17.5001 14.218 17.5001C16.0263 17.5001 17.5013 16.0084 17.5013 14.1668C17.5013 12.3251 16.0263 10.8334 14.218 10.8334ZM5.78464 16.5501C4.48464 16.5501 3.44297 15.4834 3.44297 14.1668C3.44297 12.8501 4.49297 11.7834 5.78464 11.7834C7.08464 11.7834 8.1263 12.8501 8.1263 14.1668C8.1263 15.4834 7.08464 16.5501 5.78464 16.5501ZM14.218 16.5501C12.918 16.5501 11.8763 15.4834 11.8763 14.1668C11.8763 12.8501 12.918 11.7834 14.218 11.7834C15.518 11.7834 16.568 12.8501 16.568 14.1668C16.568 15.4834 15.5096 16.5501 14.218 16.5501ZM18.3346 8.7501H1.66797V10.0001H18.3346V8.7501ZM12.943 2.19176C12.7596 1.78343 12.293 1.56676 11.8513 1.70843L10.0013 2.3251L8.14297 1.70843L8.1013 1.7001C7.65964 1.5751 7.19297 1.80843 7.0263 2.23343L5.0013 7.5001H15.0013L12.968 2.23343L12.943 2.19176Z" fill="white"/>
</svg>
