<svg width="16" height="16" viewBox="0 0 16 16" fill="none" xmlns="http://www.w3.org/2000/svg">
<g clip-path="url(#clip0_2067_3587)">
<path d="M14.1402 10.9535C14.1104 10.9235 14.075 10.8996 14.036 10.8834C13.997 10.8671 13.9551 10.8587 13.9129 10.8587C13.8706 10.8587 13.8287 10.8671 13.7897 10.8834C13.7507 10.8996 13.7153 10.9235 13.6855 10.9535L12.4055 12.2335C12.3591 12.2779 12.3274 12.3354 12.3148 12.3984C12.3021 12.4613 12.3092 12.5267 12.3349 12.5855C12.3597 12.6434 12.4007 12.6929 12.4529 12.728C12.5052 12.7631 12.5666 12.7824 12.6295 12.7835H12.9882C13.0151 12.7845 13.0413 12.792 13.0646 12.8054C13.0879 12.8187 13.1077 12.8375 13.1222 12.8602C13.1367 12.882 13.1444 12.9076 13.1444 12.9338C13.1444 12.96 13.1367 12.9857 13.1222 13.0075C12.8987 13.4463 12.5534 13.8113 12.1278 14.0587C11.7021 14.3062 11.2141 14.4257 10.7222 14.4028C10.5525 14.4028 10.3897 14.4703 10.2696 14.5903C10.1496 14.7103 10.0822 14.8731 10.0822 15.0428C10.0822 15.2126 10.1496 15.3754 10.2696 15.4954C10.3897 15.6154 10.5525 15.6828 10.7222 15.6828C12.6422 15.6828 14.2042 14.4735 14.4982 12.9182C14.5068 12.8821 14.5272 12.8499 14.5562 12.8267C14.5852 12.8035 14.6211 12.7906 14.6582 12.7902H15.1962C15.2597 12.7908 15.3218 12.7721 15.3744 12.7366C15.427 12.7012 15.4676 12.6506 15.4909 12.5915C15.516 12.5337 15.5227 12.4695 15.5101 12.4077C15.4975 12.3459 15.4661 12.2895 15.4202 12.2462L14.1402 10.9535ZM1.53686 5.03216C1.59553 5.09283 1.67686 5.1255 1.76086 5.12216C1.8024 5.1235 1.84375 5.11618 1.88231 5.10069C1.92087 5.0852 1.95579 5.06186 1.98486 5.03216L3.26486 3.75216C3.30906 3.70707 3.33893 3.64991 3.35072 3.58787C3.3625 3.52584 3.35567 3.46171 3.33108 3.40355C3.30649 3.34539 3.26524 3.2958 3.21253 3.26104C3.15982 3.22627 3.098 3.20787 3.03486 3.20816H2.67619C2.64986 3.20781 2.62399 3.20122 2.6007 3.18894C2.57741 3.17665 2.55736 3.15902 2.54219 3.1375C2.52992 3.11381 2.52351 3.08751 2.52351 3.06083C2.52351 3.03415 2.52992 3.00786 2.54219 2.98416C2.76794 2.5467 3.11503 2.18359 3.54188 1.93836C3.96873 1.69313 4.45723 1.57617 4.94886 1.6015C5.1186 1.6015 5.28139 1.53407 5.40141 1.41405C5.52143 1.29402 5.58886 1.13124 5.58886 0.961498C5.58886 0.791759 5.52143 0.628973 5.40141 0.508949C5.28139 0.388926 5.1186 0.321498 4.94886 0.321498C4.09813 0.281497 3.25936 0.534098 2.5722 1.03725C1.88504 1.5404 1.39095 2.26373 1.17219 3.08683C1.16359 3.12294 1.14317 3.15514 1.11419 3.17832C1.0852 3.20151 1.04931 3.21436 1.01219 3.21483H0.474861C0.411684 3.21506 0.34999 3.23399 0.297552 3.26922C0.245114 3.30446 0.204279 3.35443 0.180194 3.41283C0.156228 3.47193 0.150085 3.53676 0.162524 3.59931C0.174963 3.66186 0.205439 3.7194 0.250194 3.76483L1.53686 5.03216ZM6.71553 9.92283C6.7138 9.79606 6.66268 9.67497 6.57303 9.58533C6.48338 9.49568 6.36229 9.44456 6.23553 9.44283H4.63553C4.59309 9.44283 4.5524 9.45969 4.52239 9.48969C4.49238 9.5197 4.47553 9.5604 4.47553 9.60283V10.2428C4.47553 10.3308 4.54686 10.4028 4.63553 10.4028H6.23553C6.36229 10.4011 6.48338 10.35 6.57303 10.2603C6.66268 10.1707 6.7138 10.0496 6.71553 9.92283ZM6.23486 11.3562H4.63486C4.61385 11.3562 4.59304 11.3603 4.57363 11.3683C4.55422 11.3764 4.53658 11.3882 4.52172 11.403C4.50687 11.4179 4.49508 11.4355 4.48704 11.4549C4.479 11.4743 4.47486 11.4952 4.47486 11.5162V12.1562C4.47486 12.2448 4.54686 12.3162 4.63486 12.3162H6.23486C6.36216 12.3162 6.48425 12.2656 6.57427 12.1756C6.66429 12.0856 6.71486 11.9635 6.71486 11.8362C6.71486 11.7089 6.66429 11.5868 6.57427 11.4968C6.48425 11.4067 6.36216 11.3562 6.23486 11.3562Z" fill="#ffffff"/>
<path d="M5.44028 6.08179C1.74495 6.08179 -0.564381 10.0818 1.28295 13.2818C3.13028 16.4818 7.74962 16.4831 9.59762 13.2825C10.019 12.5528 10.2409 11.7251 10.241 10.8825C10.2376 9.61038 9.73084 8.39136 8.83141 7.4918C7.93198 6.59224 6.71302 6.08531 5.44095 6.08179M4.16095 13.7625V13.4425C4.16095 13.4 4.14409 13.3593 4.11409 13.3293C4.08408 13.2993 4.04339 13.2825 4.00095 13.2825C3.9371 13.2834 3.87371 13.2714 3.81462 13.2472C3.75553 13.2229 3.70194 13.187 3.6571 13.1416C3.61225 13.0961 3.57707 13.042 3.55367 12.9826C3.53028 12.9232 3.51915 12.8596 3.52095 12.7958V8.95579C3.52095 8.82849 3.57152 8.7064 3.66154 8.61638C3.75156 8.52636 3.87365 8.47579 4.00095 8.47579C4.04339 8.47579 4.08408 8.45893 4.11409 8.42893C4.14409 8.39892 4.16095 8.35822 4.16095 8.31579V8.00246C4.16095 7.87515 4.21152 7.75306 4.30154 7.66304C4.39156 7.57303 4.51365 7.52246 4.64095 7.52246C4.76826 7.52246 4.89035 7.57303 4.98036 7.66304C5.07038 7.75306 5.12095 7.87515 5.12095 8.00246V8.32246C5.12095 8.41046 5.19295 8.48246 5.28095 8.48246H5.60095C5.64339 8.48246 5.68408 8.4656 5.71409 8.43559C5.74409 8.40559 5.76095 8.36489 5.76095 8.32246V8.00246C5.76095 7.87515 5.81152 7.75306 5.90154 7.66304C5.99156 7.57303 6.11365 7.52246 6.24095 7.52246C6.36826 7.52246 6.49035 7.57303 6.58036 7.66304C6.67038 7.75306 6.72095 7.87515 6.72095 8.00246V8.46246C6.72087 8.49378 6.72999 8.52444 6.74717 8.55063C6.76436 8.57682 6.78885 8.59739 6.81762 8.60979C7.01778 8.69454 7.19581 8.82411 7.33799 8.98852C7.48018 9.15293 7.58273 9.34778 7.63773 9.55807C7.69273 9.76836 7.69873 9.98847 7.65525 10.2014C7.61177 10.4144 7.51998 10.6146 7.38695 10.7865C7.36509 10.8137 7.35318 10.8475 7.35318 10.8825C7.35318 10.9174 7.36509 10.9512 7.38695 10.9785C7.57458 11.2278 7.67781 11.5304 7.68162 11.8425C7.6805 12.1223 7.59822 12.3959 7.44474 12.63C7.29127 12.864 7.07319 13.0485 6.81695 13.1611C6.78943 13.1731 6.76583 13.1926 6.74885 13.2173C6.73188 13.2421 6.72221 13.2711 6.72095 13.3011V13.7625C6.72095 13.8898 6.67038 14.0118 6.58036 14.1019C6.49035 14.1919 6.36826 14.2425 6.24095 14.2425C6.11365 14.2425 5.99156 14.1919 5.90154 14.1019C5.81152 14.0118 5.76095 13.8898 5.76095 13.7625V13.4425C5.76095 13.4 5.74409 13.3593 5.71409 13.3293C5.68408 13.2993 5.64339 13.2825 5.60095 13.2825H5.28095C5.23852 13.2825 5.19782 13.2993 5.16781 13.3293C5.13781 13.3593 5.12095 13.4 5.12095 13.4425V13.7625C5.12095 13.8898 5.07038 14.0118 4.98036 14.1019C4.89035 14.1919 4.76826 14.2425 4.64095 14.2425C4.51365 14.2425 4.39156 14.1919 4.30154 14.1019C4.21152 14.0118 4.16095 13.8898 4.16095 13.7625ZM12.3216 7.36179C15.031 7.36179 16.725 4.42846 15.3696 2.08179C14.015 -0.265544 10.6276 -0.265544 9.27228 2.08179C8.96333 2.61692 8.80068 3.22394 8.80069 3.84185C8.8007 4.45976 8.96337 5.06678 9.27235 5.6019C9.58132 6.13702 10.0257 6.58137 10.5609 6.8903C11.096 7.19922 11.7037 7.36183 12.3216 7.36179ZM13.121 1.75512C13.2483 1.75512 13.3703 1.80569 13.4604 1.89571C13.5504 1.98573 13.601 2.10782 13.601 2.23512C13.601 2.36243 13.5504 2.48452 13.4604 2.57453C13.3703 2.66455 13.2483 2.71512 13.121 2.71512H12.0323C11.9707 2.71686 11.9122 2.74256 11.8692 2.78675C11.8263 2.83095 11.8023 2.89016 11.8023 2.95179C11.8021 2.99854 11.8161 3.04425 11.8422 3.083C11.8684 3.12176 11.9055 3.15176 11.949 3.16912L13.0503 3.61112C13.5036 3.79446 13.801 4.23512 13.799 4.72446C13.799 5.26312 13.4363 5.73379 12.9156 5.87046C12.8824 5.88011 12.8532 5.90027 12.8324 5.92792C12.8116 5.95556 12.8004 5.9892 12.8003 6.02379V6.08179C12.8003 6.20909 12.7497 6.33118 12.6597 6.4212C12.5697 6.51122 12.4476 6.56179 12.3203 6.56179C12.193 6.56179 12.0709 6.51122 11.9809 6.4212C11.8909 6.33118 11.8403 6.20909 11.8403 6.08179C11.8403 6.06078 11.8361 6.03997 11.8281 6.02056C11.8201 6.00115 11.8083 5.98351 11.7934 5.96865C11.7786 5.95379 11.7609 5.94201 11.7415 5.93397C11.7221 5.92593 11.7013 5.92179 11.6803 5.92179H11.5203C11.4573 5.92179 11.3948 5.90937 11.3366 5.88525C11.2784 5.86113 11.2254 5.82577 11.1809 5.7812C11.1363 5.73663 11.1009 5.68371 11.0768 5.62548C11.0527 5.56724 11.0403 5.50482 11.0403 5.44179C11.0403 5.37875 11.0527 5.31634 11.0768 5.2581C11.1009 5.19986 11.1363 5.14695 11.1809 5.10238C11.2254 5.05781 11.2784 5.02245 11.3366 4.99833C11.3948 4.9742 11.4573 4.96179 11.5203 4.96179H12.6023C12.6331 4.96259 12.6637 4.95722 12.6924 4.94598C12.7211 4.93475 12.7472 4.91789 12.7693 4.89639C12.7913 4.87489 12.8089 4.84919 12.8208 4.8208C12.8328 4.79242 12.839 4.76193 12.839 4.73112C12.84 4.68334 12.8265 4.63637 12.8003 4.59639C12.7742 4.55641 12.7365 4.52529 12.6923 4.50712L11.591 4.07179C10.735 3.72979 10.571 2.58979 11.295 2.01979C11.4203 1.92112 11.565 1.84846 11.719 1.80646C11.7544 1.79764 11.7858 1.77697 11.8078 1.74786C11.8299 1.71875 11.8414 1.68297 11.8403 1.64646V1.60112C11.8403 1.47382 11.8909 1.35173 11.9809 1.26171C12.0709 1.17169 12.193 1.12112 12.3203 1.12112C12.4476 1.12112 12.5697 1.17169 12.6597 1.26171C12.7497 1.35173 12.8003 1.47382 12.8003 1.60112C12.8003 1.68979 12.8723 1.76112 12.9603 1.76112L13.121 1.75512Z" fill="#ffffff"/>
</g>
<defs>
<clipPath id="clip0_2067_3587">
<rect width="16" height="16" fill="white"/>
</clipPath>
</defs>
</svg>
