<svg width="20" height="20" viewBox="0 0 20 20" fill="none" xmlns="http://www.w3.org/2000/svg">
<path d="M6.515 2.31869C6.39871 2.20077 6.26015 2.10714 6.10736 2.04323C5.95458 1.97932 5.79061 1.94641 5.625 1.94641C5.45939 1.94641 5.29542 1.97932 5.14264 2.04323C4.98985 2.10714 4.85129 2.20077 4.735 2.31869L2.415 4.67244C2.06937 5.0229 1.87542 5.49522 1.875 5.98744V16.2499C1.875 16.7472 2.07254 17.2241 2.42417 17.5758C2.77581 17.9274 3.25272 18.1249 3.75 18.1249H6.25V13.7499C6.25 13.5842 6.31585 13.4252 6.43306 13.308C6.55027 13.1908 6.70924 13.1249 6.875 13.1249H9.375V5.98806C9.37491 5.49541 9.18093 5.02258 8.835 4.67181L6.515 2.31869ZM10.625 5.98869V13.1249H13.125C13.2908 13.1249 13.4497 13.1908 13.5669 13.308C13.6842 13.4252 13.75 13.5842 13.75 13.7499V18.1249H16.25C16.7473 18.1249 17.2242 17.9274 17.5758 17.5758C17.9275 17.2241 18.125 16.7472 18.125 16.2499V5.98806C18.1249 5.49541 17.9309 5.02258 17.585 4.67181L15.265 2.31869C15.1487 2.20077 15.0101 2.10714 14.8574 2.04323C14.7046 1.97932 14.5406 1.94641 14.375 1.94641C14.2094 1.94641 14.0454 1.97932 13.8926 2.04323C13.7399 2.10714 13.6013 2.20077 13.485 2.31869L11.165 4.67119C10.8191 5.02196 10.6251 5.49478 10.625 5.98744M10.625 14.3749V18.1249H12.5V14.3749H10.625ZM9.375 18.1249V14.3749H7.5V18.1249H9.375ZM5.625 8.28119C5.4178 8.28119 5.21909 8.19888 5.07257 8.05236C4.92606 7.90585 4.84375 7.70714 4.84375 7.49994C4.84375 7.29274 4.92606 7.09402 5.07257 6.94751C5.21909 6.801 5.4178 6.71869 5.625 6.71869C5.8322 6.71869 6.03091 6.801 6.17743 6.94751C6.32394 7.09402 6.40625 7.29274 6.40625 7.49994C6.40625 7.70714 6.32394 7.90585 6.17743 8.05236C6.03091 8.19888 5.8322 8.28119 5.625 8.28119ZM13.5938 7.49994C13.5938 7.29274 13.6761 7.09402 13.8226 6.94751C13.9691 6.801 14.1678 6.71869 14.375 6.71869C14.5822 6.71869 14.7809 6.801 14.9274 6.94751C15.0739 7.09402 15.1562 7.29274 15.1562 7.49994C15.1562 7.70714 15.0739 7.90585 14.9274 8.05236C14.7809 8.19888 14.5822 8.28119 14.375 8.28119C14.1678 8.28119 13.9691 8.19888 13.8226 8.05236C13.6761 7.90585 13.5938 7.70714 13.5938 7.49994ZM5.625 11.4062C5.4178 11.4062 5.21909 11.3239 5.07257 11.1774C4.92606 11.0309 4.84375 10.8321 4.84375 10.6249C4.84375 10.4177 4.92606 10.219 5.07257 10.0725C5.21909 9.926 5.4178 9.84369 5.625 9.84369C5.8322 9.84369 6.03091 9.926 6.17743 10.0725C6.32394 10.219 6.40625 10.4177 6.40625 10.6249C6.40625 10.8321 6.32394 11.0309 6.17743 11.1774C6.03091 11.3239 5.8322 11.4062 5.625 11.4062ZM13.5938 10.6249C13.5938 10.4177 13.6761 10.219 13.8226 10.0725C13.9691 9.926 14.1678 9.84369 14.375 9.84369C14.5822 9.84369 14.7809 9.926 14.9274 10.0725C15.0739 10.219 15.1562 10.4177 15.1562 10.6249C15.1562 10.8321 15.0739 11.0309 14.9274 11.1774C14.7809 11.3239 14.5822 11.4062 14.375 11.4062C14.1678 11.4062 13.9691 11.3239 13.8226 11.1774C13.6761 11.0309 13.5938 10.8321 13.5938 10.6249Z" fill="black"/>
</svg>
