<svg width="20" height="20" viewBox="0 0 20 20" fill="none" xmlns="http://www.w3.org/2000/svg">
<g clip-path="url(#clip0_319_9549)">
<path d="M2.5 4.16666V1.66666H19.1667V13.3333H16.6667M9.16667 0.833328H12.5V2.49999H9.16667V0.833328Z" stroke="white" stroke-width="1.66667"/>
<path d="M5.41732 11.6666C11.6673 11.6666 14.584 7.91659 14.584 7.91659L15.834 9.16659C12.5007 14.9999 10.0007 13.7499 10.0007 15.8333V19.1666H0.833984V15.8333C0.833984 12.4999 3.75065 11.6666 5.41732 11.6666C4.64377 11.6666 3.9019 11.3593 3.35492 10.8123C2.80794 10.2653 2.50065 9.52347 2.50065 8.74992C2.50065 7.97637 2.80794 7.23451 3.35492 6.68752C3.9019 6.14054 4.64377 5.83325 5.41732 5.83325C6.19087 5.83325 6.93273 6.14054 7.47971 6.68752C8.02669 7.23451 8.33398 7.97637 8.33398 8.74992C8.33398 9.52347 8.02669 10.2653 7.47971 10.8123C6.93273 11.3593 6.19087 11.6666 5.41732 11.6666Z" fill="white"/>
</g>
<defs>
<clipPath id="clip0_319_9549">
<rect width="20" height="20" fill="white"/>
</clipPath>
</defs>
</svg>
