<svg width="20" height="20" viewBox="0 0 20 20" fill="none" xmlns="http://www.w3.org/2000/svg">
<path fill-rule="evenodd" clip-rule="evenodd" d="M10 1.25C8.17664 1.25 6.42795 1.97433 5.13864 3.26364C3.84933 4.55295 3.125 6.30164 3.125 8.125V9.375C3.125 10.035 3.39375 10.6687 3.67875 11.1575C3.9675 11.6562 4.315 12.0738 4.5575 12.3175L6.32875 14.0875L7.05 16.25H12.95L13.6713 14.0875L15.4425 12.3175C15.685 12.0738 16.0325 11.655 16.3212 11.1575C16.6062 10.6687 16.875 10.035 16.875 9.375V8.125C16.875 6.30164 16.1507 4.55295 14.8614 3.26364C13.572 1.97433 11.8234 1.25 10 1.25ZM11.6925 6.6925L10.8075 5.8075L8.49125 8.125L9.74125 9.375L8.3075 10.8075L9.1925 11.6925L11.5087 9.375L10.2587 8.125L11.6925 6.6925Z" fill="white"/>
<path d="M12.5 18.75V17.5H7.5V18.75H12.5Z" fill="white"/>
</svg>
