<svg width="20" height="20" viewBox="0 0 20 20" fill="none" xmlns="http://www.w3.org/2000/svg">
<path d="M2.5 18.3333V1.66663L3.75 2.91663L5 1.66663L6.25 2.91663L7.5 1.66663L8.75 2.91663L10 1.66663L11.25 2.91663L12.5 1.66663L13.75 2.91663L15 1.66663L16.25 2.91663L17.5 1.66663V18.3333L16.25 17.0833L15 18.3333L13.75 17.0833L12.5 18.3333L11.25 17.0833L10 18.3333L8.75 17.0833L7.5 18.3333L6.25 17.0833L5 18.3333L3.75 17.0833L2.5 18.3333ZM5 14.1666H15V12.5H5V14.1666ZM5 10.8333H15V9.16663H5V10.8333ZM5 7.49996H15V5.83329H5V7.49996Z" fill="black"/>
</svg>
