<svg width="28" height="28" viewBox="0 0 28 28" fill="none" xmlns="http://www.w3.org/2000/svg">
<path d="M13.125 2.41852C12.418 2.55036 11.5873 2.83503 10.311 3.27253L9.6425 3.50003C6.13433 4.70169 4.38083 5.30136 3.941 5.92902C3.50933 6.54269 3.5 8.34169 3.5 11.9117L13.125 8.70336V2.41852ZM13.125 10.5467L3.5 13.755V13.9895C3.5 20.5672 8.4455 23.7592 11.5488 25.1149C12.1438 25.375 12.5288 25.543 13.125 25.6189V10.5467ZM14.875 25.62V10.5467L24.5 13.755V13.9895C24.5 20.5672 19.5545 23.7592 16.4512 25.1149C15.8562 25.375 15.4712 25.5442 14.875 25.62ZM14.875 8.70336V2.41736C15.582 2.54919 16.4127 2.83386 17.689 3.27136L18.3575 3.50003C21.8657 4.70053 23.6192 5.30019 24.059 5.92786C24.4907 6.54152 24.5 8.34052 24.5 11.9094L14.875 8.70336Z" fill="#324978"/>
</svg>
