<svg width="20" height="20" viewBox="0 0 20 20" fill="none" xmlns="http://www.w3.org/2000/svg">
<path d="M11.25 13.3334C11.25 13.6649 11.1183 13.9828 10.8839 14.2173C10.6495 14.4517 10.3315 14.5834 10 14.5834C9.66848 14.5834 9.35054 14.4517 9.11612 14.2173C8.8817 13.9828 8.75 13.6649 8.75 13.3334C8.75 13.0019 8.8817 12.6839 9.11612 12.4495C9.35054 12.2151 9.66848 12.0834 10 12.0834C10.3315 12.0834 10.6495 12.2151 10.8839 12.4495C11.1183 12.6839 11.25 13.0019 11.25 13.3334Z" fill="black"/>
<path d="M11.9558 0.549927L14.6058 4.26326L16.3533 3.66743L17.9483 8.33326H18.75V18.3333H1.25V8.33326H1.675V8.32493L2.215 8.32993L11.9558 0.549927ZM7.83083 8.33326H16.1875L15.3233 5.80576L14.055 6.21159L7.83083 8.33326ZM6.5325 7.01409L12.9583 4.82493L11.6217 2.94993L6.5325 7.01409ZM4.58333 9.99993H2.91667V11.6666C3.35869 11.6666 3.78262 11.491 4.09518 11.1784C4.40774 10.8659 4.58333 10.442 4.58333 9.99993ZM12.9167 13.3333C12.9167 12.9502 12.8412 12.571 12.6946 12.2171C12.5481 11.8632 12.3332 11.5417 12.0624 11.2709C11.7916 11 11.47 10.7852 11.1162 10.6386C10.7623 10.492 10.383 10.4166 10 10.4166C9.61698 10.4166 9.23771 10.492 8.88384 10.6386C8.52997 10.7852 8.20844 11 7.93761 11.2709C7.66677 11.5417 7.45193 11.8632 7.30535 12.2171C7.15877 12.571 7.08333 12.9502 7.08333 13.3333C7.08333 14.1068 7.39062 14.8487 7.93761 15.3957C8.48459 15.9426 9.22645 16.2499 10 16.2499C10.7735 16.2499 11.5154 15.9426 12.0624 15.3957C12.6094 14.8487 12.9167 14.1068 12.9167 13.3333ZM17.0833 16.6666V14.9999C16.6413 14.9999 16.2174 15.1755 15.9048 15.4881C15.5923 15.8006 15.4167 16.2246 15.4167 16.6666H17.0833ZM15.4167 9.99993C15.4167 10.442 15.5923 10.8659 15.9048 11.1784C16.2174 11.491 16.6413 11.6666 17.0833 11.6666V9.99993H15.4167ZM2.91667 16.6666H4.58333C4.58333 16.2246 4.40774 15.8006 4.09518 15.4881C3.78262 15.1755 3.35869 14.9999 2.91667 14.9999V16.6666Z" fill="black"/>
</svg>
