<svg width="28" height="28" viewBox="0 0 28 28" fill="none" xmlns="http://www.w3.org/2000/svg">
<path d="M12.8351 6.99991H16.3351L20.1735 3.14991C20.2819 3.04056 20.411 2.95376 20.5531 2.89453C20.6953 2.8353 20.8478 2.80481 21.0018 2.80481C21.1558 2.80481 21.3083 2.8353 21.4505 2.89453C21.5927 2.95376 21.7217 3.04056 21.8301 3.14991L24.8401 6.17157C25.0574 6.39016 25.1794 6.68586 25.1794 6.99407C25.1794 7.30229 25.0574 7.59798 24.8401 7.81657L22.1685 10.4999H12.8351V12.8332C12.8351 13.1427 12.7122 13.4394 12.4934 13.6582C12.2746 13.877 11.9779 13.9999 11.6685 13.9999C11.3591 13.9999 11.0623 13.877 10.8435 13.6582C10.6247 13.4394 10.5018 13.1427 10.5018 12.8332V9.33324C10.5018 8.7144 10.7476 8.12091 11.1852 7.68332C11.6228 7.24574 12.2163 6.99991 12.8351 6.99991ZM5.83514 12.8332V17.4999L3.16348 20.1716C2.94618 20.3902 2.82422 20.6859 2.82422 20.9941C2.82422 21.3023 2.94618 21.598 3.16348 21.8166L6.17348 24.8382C6.28193 24.9476 6.41097 25.0344 6.55314 25.0936C6.69531 25.1528 6.8478 25.1833 7.00181 25.1833C7.15582 25.1833 7.30831 25.1528 7.45048 25.0936C7.59265 25.0344 7.72169 24.9476 7.83014 24.8382L12.8351 19.8332H17.5018C17.8112 19.8332 18.108 19.7103 18.3268 19.4915C18.5456 19.2727 18.6685 18.976 18.6685 18.6666V17.4999H19.8351C20.1446 17.4999 20.4413 17.377 20.6601 17.1582C20.8789 16.9394 21.0018 16.6427 21.0018 16.3332V15.1666H22.1685C22.4779 15.1666 22.7746 15.0437 22.9934 14.8249C23.2122 14.6061 23.3351 14.3093 23.3351 13.9999V12.8332H15.1685V13.9999C15.1685 14.6187 14.9226 15.2122 14.4851 15.6498C14.0475 16.0874 13.454 16.3332 12.8351 16.3332H10.5018C9.88297 16.3332 9.28948 16.0874 8.85189 15.6498C8.41431 15.2122 8.16848 14.6187 8.16848 13.9999V10.4999L5.83514 12.8332Z" fill="#324978"/>
</svg>
