<svg width="20" height="20" viewBox="0 0 20 20" fill="none" xmlns="http://www.w3.org/2000/svg">
<g clip-path="url(#clip0_2067_2901)">
<path d="M2.5 4.16683V1.66683H19.1667V13.3335H16.6667M9.16667 0.833496H12.5V2.50016H9.16667V0.833496Z" stroke="white" stroke-width="1.66667"/>
<path d="M5.41732 11.6663C11.6673 11.6663 14.584 7.91634 14.584 7.91634L15.834 9.16634C12.5007 14.9997 10.0007 13.7497 10.0007 15.833V19.1663H0.833984V15.833C0.833984 12.4997 3.75065 11.6663 5.41732 11.6663C4.64377 11.6663 3.9019 11.3591 3.35492 10.8121C2.80794 10.2651 2.50065 9.52322 2.50065 8.74967C2.50065 7.97613 2.80794 7.23426 3.35492 6.68728C3.9019 6.1403 4.64377 5.83301 5.41732 5.83301C6.19087 5.83301 6.93273 6.1403 7.47971 6.68728C8.02669 7.23426 8.33398 7.97613 8.33398 8.74967C8.33398 9.52322 8.02669 10.2651 7.47971 10.8121C6.93273 11.3591 6.19087 11.6663 5.41732 11.6663Z" fill="white"/>
</g>
<defs>
<clipPath id="clip0_2067_2901">
<rect width="20" height="20" fill="white"/>
</clipPath>
</defs>
</svg>
