<svg width="28" height="28" viewBox="0 0 28 28" fill="none" xmlns="http://www.w3.org/2000/svg">
<path d="M21.0007 17.5H18.6673V19.8333H21.0007M21.0007 12.8333H18.6673V15.1667H21.0007M23.334 22.1667H14.0007V19.8333H16.334V17.5H14.0007V15.1667H16.334V12.8333H14.0007V10.5H23.334M11.6673 8.16667H9.33398V5.83333H11.6673M11.6673 12.8333H9.33398V10.5H11.6673M11.6673 17.5H9.33398V15.1667H11.6673M11.6673 22.1667H9.33398V19.8333H11.6673M7.00065 8.16667H4.66732V5.83333H7.00065M7.00065 12.8333H4.66732V10.5H7.00065M7.00065 17.5H4.66732V15.1667H7.00065M7.00065 22.1667H4.66732V19.8333H7.00065M14.0007 8.16667V3.5H2.33398V24.5H25.6673V8.16667H14.0007Z" fill="#CDD9F1"/>
</svg>
