<svg width="28" height="28" viewBox="0 0 28 28" fill="none" xmlns="http://www.w3.org/2000/svg">
<path fill-rule="evenodd" clip-rule="evenodd" d="M11.568 4.25831L10.5763 3.18848L9.50652 4.18131L1.33985 11.7646L3.32552 13.902L10.4235 7.31031L17.014 14.4095L18.0442 15.5178L19.114 14.448L23.7807 9.78131L25.666 11.6666L26.8327 10.5V4.66664H20.9993L19.8327 5.83331L21.718 7.71864L18.1212 11.3166L11.568 4.25831ZM5.83268 26.8333V16.9166H1.16602V26.8333H5.83268ZM8.16602 26.8333V11.6666H12.8327V26.8333H8.16602ZM15.166 18.6666V26.8333H19.8327V18.6666H15.166ZM22.166 26.8333V14.5833H26.8327V26.8333H22.166Z" fill="#324978"/>
</svg>
