<svg width="28" height="28" viewBox="0 0 28 28" fill="none" xmlns="http://www.w3.org/2000/svg">
<path d="M15.1663 13.5336L18.6663 17.0336C18.8802 17.2475 18.9872 17.5197 18.9872 17.8503C18.9872 18.1808 18.8802 18.453 18.6663 18.6669C18.4525 18.8808 18.1802 18.9878 17.8497 18.9878C17.5191 18.9878 17.2469 18.8808 17.033 18.6669L13.183 14.8169C13.0663 14.7003 12.9788 14.5692 12.9205 14.4238C12.8622 14.2783 12.833 14.1274 12.833 13.9711V9.3336C12.833 9.00304 12.945 8.72615 13.169 8.50293C13.393 8.27971 13.6699 8.16771 13.9997 8.16693C14.3295 8.16615 14.6067 8.27815 14.8315 8.50293C15.0563 8.72771 15.1679 9.0046 15.1663 9.3336V13.5336ZM17.7913 5.8336C17.383 5.8336 17.0377 5.69282 16.7553 5.41126C16.473 5.12971 16.3322 4.78437 16.333 4.37526C16.3338 3.96615 16.475 3.62082 16.7565 3.33926C17.0381 3.05771 17.383 2.91693 17.7913 2.91693C18.1997 2.91693 18.545 3.0581 18.8273 3.34043C19.1097 3.62276 19.2505 3.96771 19.2497 4.37526C19.2489 4.78282 19.1077 5.12815 18.8262 5.41126C18.5446 5.69437 18.1997 5.83515 17.7913 5.8336ZM17.7913 25.0836C17.383 25.0836 17.0377 24.9424 16.7553 24.6601C16.473 24.3778 16.3322 24.0328 16.333 23.6253C16.3338 23.2177 16.475 22.8724 16.7565 22.5893C17.0381 22.3062 17.383 22.1654 17.7913 22.1669C18.1997 22.1685 18.545 22.3097 18.8273 22.5904C19.1097 22.8712 19.2505 23.2162 19.2497 23.6253C19.2489 24.0344 19.1077 24.3797 18.8262 24.6613C18.5446 24.9428 18.1997 25.0836 17.7913 25.0836ZM22.458 9.91693C22.0497 9.91693 21.7043 9.77576 21.422 9.49343C21.1397 9.2111 20.9989 8.86615 20.9997 8.4586C21.0005 8.05104 21.1416 7.70571 21.4232 7.4226C21.7047 7.13949 22.0497 6.99871 22.458 7.00026C22.8663 7.00182 23.2117 7.14299 23.494 7.42376C23.7763 7.70454 23.9171 8.04949 23.9163 8.4586C23.9156 8.86771 23.7744 9.21304 23.4928 9.4946C23.2113 9.77615 22.8663 9.91693 22.458 9.91693ZM22.458 21.0003C22.0497 21.0003 21.7043 20.8591 21.422 20.5768C21.1397 20.2944 20.9989 19.9495 20.9997 19.5419C21.0005 19.1344 21.1416 18.789 21.4232 18.5059C21.7047 18.2228 22.0497 18.082 22.458 18.0836C22.8663 18.0852 23.2117 18.2263 23.494 18.5071C23.7763 18.7879 23.9171 19.1328 23.9163 19.5419C23.9156 19.951 23.7744 20.2964 23.4928 20.5779C23.2113 20.8595 22.8663 21.0003 22.458 21.0003ZM24.208 15.4586C23.7997 15.4586 23.4543 15.3174 23.172 15.0351C22.8897 14.7528 22.7489 14.4078 22.7497 14.0003C22.7505 13.5927 22.8916 13.2474 23.1732 12.9643C23.4547 12.6812 23.7997 12.5404 24.208 12.5419C24.6163 12.5435 24.9617 12.6847 25.244 12.9654C25.5263 13.2462 25.6671 13.5912 25.6663 14.0003C25.6656 14.4094 25.5244 14.7547 25.2428 15.0363C24.9613 15.3178 24.6163 15.4586 24.208 15.4586ZM2.33301 14.0003C2.33301 10.9475 3.34917 8.32249 5.38151 6.12526C7.41384 3.92804 9.9074 2.6836 12.8622 2.39193C13.1733 2.35304 13.4408 2.4456 13.6648 2.6696C13.8888 2.8936 14.0005 3.17049 13.9997 3.50026C13.9997 3.81137 13.8978 4.0836 13.694 4.31693C13.4902 4.55026 13.2324 4.68637 12.9205 4.72526C10.5677 4.99749 8.60384 6.0086 7.02884 7.7586C5.45384 9.5086 4.66634 11.5892 4.66634 14.0003C4.66634 16.4308 5.45384 18.5164 7.02884 20.2571C8.60384 21.9978 10.5677 23.0038 12.9205 23.2753C13.2316 23.3142 13.4895 23.4503 13.694 23.6836C13.8986 23.9169 14.0005 24.1891 13.9997 24.5003C13.9997 24.8308 13.8877 25.1081 13.6637 25.3321C13.4397 25.5561 13.1725 25.6483 12.8622 25.6086C9.88717 25.3169 7.38856 24.0725 5.36634 21.8753C3.34412 19.678 2.33301 17.053 2.33301 14.0003Z" fill="#324978"/>
</svg>
