<svg width="20" height="20" viewBox="0 0 20 20" fill="none" xmlns="http://www.w3.org/2000/svg">
<path fill-rule="evenodd" clip-rule="evenodd" d="M8.26399 3.04151L7.55565 2.27734L6.79148 2.98651L0.958151 8.40318L2.37648 9.92984L7.44649 5.22151L12.154 10.2923L12.8898 11.084L13.654 10.3198L16.9873 6.98651L18.334 8.33318L19.1673 7.49984V3.33318H15.0007L14.1673 4.16651L15.514 5.51318L12.9448 8.08318L8.26399 3.04151ZM4.16732 19.1665V12.0832H0.833984V19.1665H4.16732ZM5.83398 19.1665V8.33318H9.16732V19.1665H5.83398ZM10.834 13.3332V19.1665H14.1673V13.3332H10.834ZM15.834 19.1665V10.4165H19.1673V19.1665H15.834Z" fill="white"/>
</svg>
