<svg width="28" height="28" viewBox="0 0 28 28" fill="none" xmlns="http://www.w3.org/2000/svg">
<g clip-path="url(#clip0_2067_2794)">
<path fill-rule="evenodd" clip-rule="evenodd" d="M20.4261 5.07598C18.6431 3.79274 16.5168 3.07281 14.321 3.00897C12.1252 2.94514 9.96065 3.54031 8.10619 4.7178C6.25173 5.89529 4.79237 7.60114 3.91617 9.61553C3.03996 11.6299 2.78707 13.8606 3.19006 16.02C3.25646 16.4079 3.1677 16.8064 2.94294 17.1296C2.71818 17.4527 2.37542 17.6745 1.9886 17.7472C1.60177 17.8199 1.20186 17.7376 0.875137 17.5182C0.548409 17.2987 0.321039 16.9596 0.242064 16.574C-0.279125 13.7847 0.0596881 10.9029 1.21359 8.31055C2.36749 5.71821 4.28199 3.53776 6.70331 2.05825C9.12462 0.578742 11.9384 -0.129968 14.7717 0.0260691C17.6049 0.182106 20.3239 1.19552 22.5681 2.93198L23.7921 1.70798C23.9318 1.56788 24.11 1.4724 24.304 1.4336C24.498 1.3948 24.6992 1.41444 24.8821 1.49003C25.0649 1.56561 25.2213 1.69375 25.3313 1.85822C25.4413 2.02269 25.5 2.21611 25.5001 2.41398V6.99998C25.5001 7.26519 25.3947 7.51955 25.2072 7.70708C25.0196 7.89462 24.7653 7.99998 24.5001 7.99998H19.9141C19.7166 7.99954 19.5237 7.94065 19.3596 7.83074C19.1956 7.72083 19.0678 7.56482 18.9923 7.38236C18.9168 7.19991 18.897 6.99918 18.9354 6.80549C18.9738 6.6118 19.0687 6.43382 19.2081 6.29398L20.4261 5.07598ZM26.0081 10.23C26.399 10.1562 26.8032 10.2408 27.1318 10.4651C27.4603 10.6894 27.6863 11.035 27.7601 11.426C28.2817 14.2156 27.9431 17.0979 26.7891 19.6906C25.6352 22.2834 23.7204 24.4642 21.2987 25.9438C18.877 27.4234 16.0627 28.132 13.229 27.9756C10.3954 27.8192 7.67622 26.8052 5.43206 25.068L4.20806 26.294C4.0682 26.4342 3.88986 26.5297 3.69565 26.5685C3.50143 26.6072 3.30008 26.5874 3.11714 26.5115C2.93419 26.4357 2.77788 26.3073 2.66802 26.1425C2.55817 25.9777 2.49971 25.784 2.50006 25.586V21C2.50006 20.7348 2.60542 20.4804 2.79296 20.2929C2.98049 20.1053 3.23485 20 3.50006 20H8.08606C8.28411 19.9996 8.47779 20.0581 8.64257 20.1679C8.80735 20.2778 8.9358 20.4341 9.01163 20.6171C9.08747 20.8 9.10727 21.0013 9.06854 21.1956C9.02981 21.3898 8.93428 21.5681 8.79406 21.708L7.57406 22.926C9.35698 24.2092 11.4833 24.9291 13.6791 24.993C15.8749 25.0568 18.0395 24.4616 19.8939 23.2842C21.7484 22.1067 23.2078 20.4008 24.084 18.3864C24.9602 16.372 25.2131 14.1414 24.8101 11.982C24.7736 11.7881 24.7757 11.589 24.8163 11.396C24.8569 11.2029 24.9352 11.0198 25.0467 10.8571C25.1581 10.6943 25.3006 10.5552 25.4659 10.4476C25.6312 10.34 25.8161 10.266 26.0101 10.23H26.0081ZM15.2541 7.31398C15.2541 6.91615 15.096 6.53462 14.8147 6.25332C14.5334 5.97201 14.1519 5.81398 13.7541 5.81398C13.3562 5.81398 12.9747 5.97201 12.6934 6.25332C12.4121 6.53462 12.2541 6.91615 12.2541 7.31398V7.99998C11.4721 8.12934 10.7598 8.52719 10.2395 9.12506C9.71922 9.72292 9.42358 10.4834 9.40346 11.2757C9.38333 12.068 9.63997 12.8425 10.1292 13.4661C10.6185 14.0896 11.3097 14.5231 12.0841 14.692L14.6041 15.242C14.7535 15.2799 14.8842 15.3705 14.9722 15.497C15.0602 15.6236 15.0996 15.7777 15.083 15.931C15.0665 16.0843 14.9952 16.2264 14.8822 16.3313C14.7692 16.4362 14.6221 16.4968 14.4681 16.502H13.0401C12.9086 16.5015 12.7805 16.4605 12.6732 16.3846C12.5658 16.3088 12.4844 16.2017 12.4401 16.078C12.3744 15.8922 12.2728 15.7211 12.141 15.5745C12.0092 15.428 11.8499 15.3088 11.6721 15.2239C11.4942 15.1389 11.3014 15.0898 11.1046 15.0793C10.9078 15.0689 10.7109 15.0973 10.5251 15.163C10.3392 15.2286 10.1682 15.3303 10.0216 15.462C9.87508 15.5938 9.75592 15.7531 9.67095 15.931C9.58599 16.1088 9.53688 16.3016 9.52643 16.4984C9.51599 16.6952 9.5444 16.8922 9.61006 17.078C9.81585 17.6601 10.1663 18.1802 10.6285 18.5896C11.0907 18.9989 11.6494 19.284 12.2521 19.418V20.142C12.2521 20.5398 12.4101 20.9213 12.6914 21.2026C12.9727 21.4839 13.3542 21.642 13.7521 21.642C14.1499 21.642 14.5314 21.4839 14.8127 21.2026C15.094 20.9213 15.2521 20.5398 15.2521 20.142V19.418C16.06 19.2369 16.782 18.7858 17.299 18.1392C17.816 17.4925 18.0972 16.6889 18.096 15.861C18.0948 15.033 17.8115 14.2302 17.2926 13.585C16.7738 12.9398 16.0505 12.4908 15.2421 12.312L12.7221 11.76C12.6243 11.7379 12.538 11.6806 12.4798 11.5991C12.4215 11.5175 12.3954 11.4173 12.4062 11.3177C12.4171 11.218 12.4643 11.1259 12.5388 11.0588C12.6133 10.9917 12.7098 10.9544 12.8101 10.954H14.4661C14.5975 10.9545 14.7256 10.9954 14.833 11.0713C14.9403 11.1472 15.0217 11.2542 15.0661 11.378C15.1987 11.7533 15.4749 12.0605 15.8341 12.2321C16.0119 12.3171 16.2047 12.3662 16.4015 12.3766C16.5983 12.3871 16.7952 12.3586 16.9811 12.293C17.1669 12.2273 17.3379 12.1257 17.4845 11.9939C17.631 11.8622 17.7502 11.7028 17.8352 11.525C17.9201 11.3472 17.9692 11.1543 17.9797 10.9575C17.9901 10.7607 17.9617 10.5638 17.8961 10.378C17.6901 9.79564 17.3393 9.2753 16.8768 8.86593C16.4142 8.45657 15.8551 8.17164 15.2521 8.03798V7.31798L15.2541 7.31398Z" fill="#324978"/>
</g>
<defs>
<clipPath id="clip0_2067_2794">
<rect width="28" height="28" fill="white"/>
</clipPath>
</defs>
</svg>
