<svg width="20" height="20" viewBox="0 0 20 20" fill="none" xmlns="http://www.w3.org/2000/svg">
<path d="M13.3327 14.1667V15.8334H1.66602V14.1667C1.66602 14.1667 1.66602 10.8334 7.49935 10.8334C13.3327 10.8334 13.3327 14.1667 13.3327 14.1667ZM10.416 6.25007C10.416 5.67321 10.245 5.1093 9.92447 4.62966C9.60398 4.15001 9.14846 3.77618 8.61551 3.55542C8.08256 3.33467 7.49611 3.27691 6.93034 3.38945C6.36456 3.50199 5.84486 3.77977 5.43695 4.18768C5.02905 4.59558 4.75127 5.11528 4.63873 5.68106C4.52619 6.24684 4.58394 6.83328 4.8047 7.36623C5.02546 7.89918 5.39929 8.3547 5.87894 8.67519C6.35858 8.99568 6.92249 9.16674 7.49935 9.16674C8.2729 9.16674 9.01476 8.85945 9.56174 8.31247C10.1087 7.76548 10.416 7.02362 10.416 6.25007ZM13.2827 10.8334C13.795 11.2299 14.2142 11.7338 14.5107 12.3097C14.8073 12.8856 14.9741 13.5195 14.9993 14.1667V15.8334H18.3327V14.1667C18.3327 14.1667 18.3327 11.1417 13.2827 10.8334ZM12.4993 3.3334C11.9258 3.33074 11.365 3.50218 10.891 3.82507C11.3972 4.53235 11.6694 5.38031 11.6694 6.25007C11.6694 7.11983 11.3972 7.96779 10.891 8.67507C11.365 8.99796 11.9258 9.16941 12.4993 9.16674C13.2729 9.16674 14.0148 8.85945 14.5617 8.31247C15.1087 7.76548 15.416 7.02362 15.416 6.25007C15.416 5.47652 15.1087 4.73466 14.5617 4.18768C14.0148 3.6407 13.2729 3.3334 12.4993 3.3334Z" fill="black"/>
</svg>
