<svg width="20" height="20" viewBox="0 0 20 20" fill="none" xmlns="http://www.w3.org/2000/svg">
<path d="M8.33398 9.41309V16.6664C8.33398 17.1264 8.33398 17.4998 9.16732 17.4998H10.834C11.6673 17.4998 11.6673 17.1264 11.6673 16.6664V11.0314C10.3867 10.9508 9.18934 10.3695 8.33398 9.41309Z" fill="white"/>
<path fill-rule="evenodd" clip-rule="evenodd" d="M8.6661 7.66763C8.88212 8.13731 9.1955 8.55571 9.58546 8.89512C9.97541 9.23452 10.4331 9.48718 10.928 9.63633C11.423 9.78549 11.9441 9.82775 12.4566 9.76031C12.9692 9.69286 13.4616 9.51726 13.9011 9.24513L16.0786 11.4226L17.2569 10.2443L15.0794 8.06679C15.4113 7.53092 15.5985 6.91816 15.6229 6.28833C15.6473 5.65849 15.508 5.03309 15.2185 4.47316C14.9291 3.91324 14.4995 3.43791 13.9715 3.09358C13.4436 2.74924 12.8354 2.54766 12.2063 2.50851C11.5772 2.46935 10.9487 2.59396 10.3821 2.87017C9.81558 3.14639 9.33031 3.56477 8.97368 4.08448C8.61705 4.6042 8.40125 5.20749 8.34734 5.83549C8.29344 6.46349 8.40326 7.09474 8.6661 7.66763ZM11.9803 8.12513C11.8619 8.12513 11.7461 8.11513 11.6328 8.09513C11.2128 8.02034 10.8284 7.81159 10.5369 7.50013C10.2255 7.16817 10.038 6.739 10.006 6.28494C9.97407 5.83088 10.0996 5.37968 10.3615 5.00736C10.6233 4.63504 11.0055 4.36437 11.4437 4.24094C11.8818 4.11752 12.3491 4.14888 12.7668 4.32976C13.1845 4.51064 13.5271 4.82997 13.7368 5.23394C13.9466 5.63792 14.0107 6.10185 13.9183 6.54757C13.8259 6.99328 13.5828 7.39354 13.2297 7.68089C12.8767 7.96825 12.4355 8.12514 11.9803 8.12513Z" fill="white"/>
<path d="M3.33398 3.33333C3.33398 2.87333 3.33398 2.5 4.16732 2.5H5.83398C6.66732 2.5 6.66732 2.87333 6.66732 3.33333V16.6667C6.66732 17.1267 6.66732 17.5 5.83398 17.5H4.16732C3.33398 17.5 3.33398 17.1267 3.33398 16.6667V3.33333ZM14.1673 12.5C13.334 12.5 13.334 12.8733 13.334 13.3333V16.6667C13.334 17.1267 13.334 17.5 14.1673 17.5H15.834C16.294 17.5 16.6673 17.5 16.6673 16.6667V13.3333C16.6673 12.8733 16.6673 12.5 15.834 12.5H14.1673Z" fill="white"/>
</svg>
