<svg width="28" height="28" viewBox="0 0 28 28" fill="none" xmlns="http://www.w3.org/2000/svg">
<g clip-path="url(#clip0_319_9610)">
<path d="M24.1744 15.0265C24.1781 14.9831 24.1715 14.9393 24.1553 14.8988C24.1391 14.8583 24.1137 14.8221 24.081 14.7932L23.3344 13.9999C23.2856 13.9687 23.2289 13.9521 23.171 13.9521C23.1131 13.9521 23.0565 13.9687 23.0077 13.9999C22.0107 14.4194 20.9394 14.6336 19.8577 14.6299C18.9933 14.6332 18.1342 14.4953 17.3144 14.2215C17.2446 14.1981 17.1685 14.2019 17.1015 14.2322C17.0344 14.2625 16.9813 14.317 16.9527 14.3849C16.6486 15.0706 16.2564 15.7138 15.786 16.2982C15.7687 16.3388 15.7598 16.3824 15.7598 16.4265C15.7598 16.4707 15.7687 16.5143 15.786 16.5549C15.8654 16.8408 15.9628 17.1213 16.0777 17.3949C16.1099 17.4651 16.1687 17.5196 16.241 17.5465C19.0877 18.5965 22.786 20.3349 22.786 25.7132V27.4632C22.7907 27.5487 22.7907 27.6344 22.786 27.7199C22.7802 27.7615 22.7834 27.8039 22.7955 27.8442C22.8076 27.8845 22.8282 27.9217 22.856 27.9532C22.9147 28.0124 22.9944 28.046 23.0777 28.0465H27.4177C27.5724 28.0465 27.7208 27.9851 27.8302 27.8757C27.9396 27.7663 28.001 27.6179 28.001 27.4632V26.4715C28.001 22.8549 25.481 21.9565 23.2527 21.1632L22.681 20.9532C22.6087 20.9263 22.5499 20.8717 22.5177 20.8015C22.4823 20.7269 22.4549 20.6487 22.436 20.5682C22.3317 20.0916 22.3317 19.5981 22.436 19.1215C23.4888 18.0098 24.1059 16.5561 24.1744 15.0265Z" fill="#324978"/>
<path d="M11.6667 6.41676C11.6667 5.60209 11.7886 4.79202 12.0283 4.01343C12.0582 3.93852 12.0582 3.855 12.0283 3.78009C11.981 3.71126 11.9107 3.6616 11.83 3.64009C11.3932 3.54456 10.9471 3.4976 10.5 3.50009C7.735 3.50009 4.95833 5.32009 4.95833 9.33343C4.95833 14.1868 6.93 15.3534 7.16333 15.8434C7.39728 16.5646 7.42156 17.3373 7.23333 18.0718C7.15167 18.3751 7.035 18.5034 6.95333 18.5384L6.06667 18.8534C3.22 19.9034 0 21.0001 0 25.6668V27.4168C0 27.5715 0.0614582 27.7198 0.170854 27.8292C0.280251 27.9386 0.428624 28.0001 0.583333 28.0001H20.4167C20.5714 28.0001 20.7197 27.9386 20.8291 27.8292C20.9385 27.7198 21 27.5715 21 27.4168V25.6668C21 21.0584 17.7683 19.9151 14.91 18.8884L14 18.5851C13.9183 18.5851 13.8017 18.4218 13.72 18.1184C13.5164 17.3896 13.5164 16.6189 13.72 15.8901C14.3678 15.2075 14.8927 14.4181 15.2717 13.5568C15.2955 13.4932 15.2981 13.4237 15.2792 13.3585C15.2602 13.2933 15.2208 13.236 15.1667 13.1951C14.0756 12.4355 13.1865 11.421 12.5766 10.2397C11.9666 9.05845 11.6543 7.74614 11.6667 6.41676Z" fill="#324978"/>
<path d="M23.335 11.83C23.3873 11.7912 23.4507 11.7703 23.5159 11.7703C23.581 11.7703 23.6444 11.7912 23.6967 11.83L26.03 14.1634C26.1385 14.2727 26.2675 14.3595 26.4097 14.4188C26.5519 14.478 26.7043 14.5085 26.8584 14.5085C27.0124 14.5085 27.1649 14.478 27.307 14.4188C27.4492 14.3595 27.5782 14.2727 27.6867 14.1634C27.796 14.0549 27.8828 13.9259 27.9421 13.7837C28.0013 13.6416 28.0318 13.4891 28.0318 13.335C28.0318 13.181 28.0013 13.0285 27.9421 12.8864C27.8828 12.7442 27.796 12.6152 27.6867 12.5067L25.3534 10.1734C25.3145 10.1211 25.2936 10.0577 25.2936 9.99255C25.2936 9.92741 25.3145 9.86401 25.3534 9.81171C26.1928 8.47613 26.5108 6.87813 26.2467 5.32294C25.9826 3.76774 25.1548 2.36432 23.9216 1.38072C22.6883 0.397126 21.136 -0.0977247 19.561 -0.00931742C17.986 0.0790898 16.4987 0.74456 15.3833 1.86C14.2679 2.97543 13.6024 4.46266 13.514 6.03765C13.4256 7.61263 13.9204 9.165 14.904 10.3983C15.8876 11.6315 17.2911 12.4592 18.8463 12.7234C20.4015 12.9875 21.9994 12.6695 23.335 11.83ZM15.7517 6.41671C15.7517 5.60911 15.9912 4.81964 16.4399 4.14814C16.8885 3.47664 17.5263 2.95326 18.2724 2.64421C19.0185 2.33515 19.8396 2.25429 20.6316 2.41184C21.4237 2.5694 22.1513 2.9583 22.7224 3.52936C23.2934 4.10043 23.6823 4.82801 23.8399 5.6201C23.9975 6.41218 23.9166 7.23321 23.6075 7.97934C23.2985 8.72547 22.7751 9.3632 22.1036 9.81188C21.4321 10.2606 20.6426 10.5 19.835 10.5C18.7521 10.5 17.7135 10.0698 16.9477 9.30407C16.1819 8.53829 15.7517 7.49968 15.7517 6.41671Z" fill="#324978"/>
</g>
<defs>
<clipPath id="clip0_319_9610">
<rect width="28" height="28" fill="white"/>
</clipPath>
</defs>
</svg>
