<svg width="20" height="20" viewBox="0 0 20 20" fill="none" xmlns="http://www.w3.org/2000/svg">
<path d="M9.16629 5.0004H11.6663L14.408 2.2504C14.4854 2.1723 14.5776 2.1103 14.6791 2.068C14.7807 2.02569 14.8896 2.00391 14.9996 2.00391C15.1096 2.00391 15.2185 2.02569 15.3201 2.068C15.4216 2.1103 15.5138 2.1723 15.5913 2.2504L17.7413 4.40874C17.8965 4.56487 17.9836 4.77608 17.9836 4.99624C17.9836 5.21639 17.8965 5.4276 17.7413 5.58374L15.833 7.5004H9.16629V9.16707C9.16629 9.38809 9.07849 9.60005 8.92221 9.75633C8.76593 9.91261 8.55397 10.0004 8.33295 10.0004C8.11194 10.0004 7.89998 9.91261 7.7437 9.75633C7.58742 9.60005 7.49962 9.38809 7.49962 9.16707V6.66707C7.49962 6.22504 7.67521 5.80112 7.98777 5.48856C8.30033 5.176 8.72426 5.0004 9.16629 5.0004ZM4.16629 9.16707V12.5004L2.25795 14.4087C2.10274 14.5649 2.01563 14.7761 2.01562 14.9962C2.01563 15.2164 2.10274 15.4276 2.25795 15.5837L4.40795 17.7421C4.48542 17.8202 4.57759 17.8822 4.67914 17.9245C4.78069 17.9668 4.88961 17.9886 4.99962 17.9886C5.10963 17.9886 5.21855 17.9668 5.3201 17.9245C5.42165 17.8822 5.51382 17.8202 5.59129 17.7421L9.16629 14.1671H12.4996C12.7206 14.1671 12.9326 14.0793 13.0889 13.923C13.2452 13.7667 13.333 13.5548 13.333 13.3337V12.5004H14.1663C14.3873 12.5004 14.5993 12.4126 14.7555 12.2563C14.9118 12.1 14.9996 11.8881 14.9996 11.6671V10.8337H15.833C16.054 10.8337 16.2659 10.7459 16.4222 10.5897C16.5785 10.4334 16.6663 10.2214 16.6663 10.0004V9.16707H10.833V10.0004C10.833 10.4424 10.6574 10.8664 10.3448 11.1789C10.0322 11.4915 9.60831 11.6671 9.16629 11.6671H7.49962C7.05759 11.6671 6.63367 11.4915 6.32111 11.1789C6.00855 10.8664 5.83295 10.4424 5.83295 10.0004V7.5004L4.16629 9.16707Z" fill="black"/>
</svg>
