<svg width="28" height="28" viewBox="0 0 28 28" fill="none" xmlns="http://www.w3.org/2000/svg">
<path d="M17.5003 3.5C17.8097 3.5 18.1065 3.62292 18.3253 3.84171C18.5441 4.0605 18.667 4.35725 18.667 4.66667V7H23.3337C23.6431 7 23.9398 7.12292 24.1586 7.34171C24.3774 7.5605 24.5003 7.85725 24.5003 8.16667V22.1667H26.8337V24.5H1.16699V22.1667H3.50033V8.16667C3.50033 7.85725 3.62324 7.5605 3.84203 7.34171C4.06083 7.12292 4.35757 7 4.66699 7H9.33366V4.66667C9.33366 4.35725 9.45658 4.0605 9.67537 3.84171C9.89416 3.62292 10.1909 3.5 10.5003 3.5H17.5003ZM11.667 9.33333H9.33366V22.1667H11.667V9.33333ZM18.667 9.33333H16.3337V22.1667H18.667V9.33333ZM16.3337 5.83333H11.667V7H16.3337V5.83333Z" fill="#324978"/>
</svg>
