<svg width="20" height="20" viewBox="0 0 20 20" fill="none" xmlns="http://www.w3.org/2000/svg">
<path fill-rule="evenodd" clip-rule="evenodd" d="M3.33268 5.00033C3.77471 5.00033 4.19863 4.82473 4.51119 4.51217C4.82375 4.19961 4.99935 3.77569 4.99935 3.33366C4.99935 2.89163 4.82375 2.46771 4.51119 2.15515C4.19863 1.84259 3.77471 1.66699 3.33268 1.66699C2.89065 1.66699 2.46673 1.84259 2.15417 2.15515C1.84161 2.46771 1.66602 2.89163 1.66602 3.33366C1.66602 3.77569 1.84161 4.19961 2.15417 4.51217C2.46673 4.82473 2.89065 5.00033 3.33268 5.00033ZM4.16602 17.5003C4.82906 17.5003 5.46494 17.2369 5.93378 16.7681C6.40262 16.2993 6.66602 15.6634 6.66602 15.0003C6.66602 14.3373 6.40262 13.7014 5.93378 13.2326C5.46494 12.7637 4.82906 12.5003 4.16602 12.5003C3.50297 12.5003 2.86709 12.7637 2.39825 13.2326C1.92941 13.7014 1.66602 14.3373 1.66602 15.0003C1.66602 15.6634 1.92941 16.2993 2.39825 16.7681C2.86709 17.2369 3.50297 17.5003 4.16602 17.5003ZM15.8327 18.3337C16.4957 18.3337 17.1316 18.0703 17.6004 17.6014C18.0693 17.1326 18.3327 16.4967 18.3327 15.8337C18.3327 15.1706 18.0693 14.5347 17.6004 14.0659C17.1316 13.5971 16.4957 13.3337 15.8327 13.3337C15.1696 13.3337 14.5338 13.5971 14.0649 14.0659C13.5961 14.5347 13.3327 15.1706 13.3327 15.8337C13.3327 16.4967 13.5961 17.1326 14.0649 17.6014C14.5338 18.0703 15.1696 18.3337 15.8327 18.3337ZM9.16602 11.667C10.0501 11.667 10.8979 11.3158 11.523 10.6907C12.1482 10.0656 12.4993 9.21771 12.4993 8.33366C12.4993 7.4496 12.1482 6.60176 11.523 5.97664C10.8979 5.35151 10.0501 5.00033 9.16602 5.00033C8.28196 5.00033 7.43411 5.35151 6.80899 5.97664C6.18387 6.60176 5.83268 7.4496 5.83268 8.33366C5.83268 9.21771 6.18387 10.0656 6.80899 10.6907C7.43411 11.3158 8.28196 11.667 9.16602 11.667ZM14.166 5.00033C14.608 5.00033 15.032 4.82473 15.3445 4.51217C15.6571 4.19961 15.8327 3.77569 15.8327 3.33366C15.8327 2.89163 15.6571 2.46771 15.3445 2.15515C15.032 1.84259 14.608 1.66699 14.166 1.66699C13.724 1.66699 13.3001 1.84259 12.9875 2.15515C12.6749 2.46771 12.4993 2.89163 12.4993 3.33366C12.4993 3.77569 12.6749 4.19961 12.9875 4.51217C13.3001 4.82473 13.724 5.00033 14.166 5.00033Z" fill="white" stroke="white" stroke-linecap="round" stroke-linejoin="round"/>
<path d="M4.58203 4.58398L6.2487 6.25065M12.4987 5.00065L11.6654 5.83398M14.1654 13.959L11.6654 10.834M5.83203 12.9173L7.4987 11.2507" stroke="white" stroke-linecap="round" stroke-linejoin="round"/>
</svg>
