<svg width="20" height="20" viewBox="0 0 20 20" fill="none" xmlns="http://www.w3.org/2000/svg">
<g clip-path="url(#clip0_319_9378)">
<path d="M9.99935 18.3333C8.84657 18.3333 7.76324 18.1144 6.74935 17.6767C5.73546 17.2389 4.85352 16.6453 4.10352 15.8958C3.35352 15.1464 2.7599 14.2644 2.32268 13.25C1.88546 12.2356 1.66657 11.1522 1.66602 10C1.66602 8.41667 2.07935 6.955 2.90602 5.615C3.73268 4.275 4.85407 3.25056 6.27018 2.54167C6.28407 2.80556 6.31185 3.07306 6.35352 3.34417C6.39518 3.61528 6.46463 3.93111 6.56185 4.29167C5.56185 4.90278 4.77352 5.71194 4.19685 6.71917C3.62018 7.72639 3.33213 8.82 3.33268 10C3.33268 11.8611 3.97852 13.4375 5.27018 14.7292C6.56185 16.0208 8.13824 16.6667 9.99935 16.6667C11.8605 16.6667 13.4368 16.0208 14.7285 14.7292C16.0202 13.4375 16.666 11.8611 16.666 10C16.666 8.81944 16.378 7.72222 15.8018 6.70833C15.2257 5.69444 14.4305 4.88194 13.416 4.27083C13.5132 3.90972 13.5827 3.59389 13.6243 3.32333C13.666 3.05278 13.7007 2.79222 13.7285 2.54167C15.1452 3.25 16.2668 4.27083 17.0935 5.60417C17.9202 6.9375 18.3332 8.40278 18.3327 10C18.3327 11.1528 18.1138 12.2361 17.676 13.25C17.2382 14.2639 16.6446 15.1458 15.8952 15.8958C15.1457 16.6458 14.2638 17.2397 13.2493 17.6775C12.2349 18.1153 11.1516 18.3339 9.99935 18.3333ZM9.99935 15C8.61046 15 7.4299 14.5139 6.45768 13.5417C5.48546 12.5694 4.99935 11.3889 4.99935 10C4.99935 9.19444 5.17657 8.4375 5.53102 7.72917C5.88546 7.02083 6.38879 6.43056 7.04102 5.95833C7.11046 6.16667 7.18685 6.40639 7.27018 6.6775C7.35352 6.94861 7.46463 7.28528 7.60352 7.6875C7.29796 8.00695 7.06546 8.36111 6.90602 8.75C6.74657 9.13889 6.66657 9.55556 6.66602 10C6.66602 10.9167 6.9924 11.7014 7.64518 12.3542C8.29796 13.0069 9.08268 13.3333 9.99935 13.3333C10.916 13.3333 11.7007 13.0069 12.3535 12.3542C13.0063 11.7014 13.3327 10.9167 13.3327 10C13.3327 9.55556 13.2527 9.13889 13.0927 8.75C12.9327 8.36111 12.7002 8.00695 12.3952 7.6875C12.5063 7.35417 12.6071 7.04528 12.6977 6.76083C12.7882 6.47639 12.868 6.20889 12.9368 5.95833C13.5896 6.43056 14.0966 7.02083 14.4577 7.72917C14.8188 8.4375 14.9993 9.19444 14.9993 10C14.9993 11.3889 14.5132 12.5694 13.541 13.5417C12.5688 14.5139 11.3882 15 9.99935 15ZM9.16602 7.08333C8.65213 5.52778 8.31518 4.43417 8.15518 3.8025C7.99518 3.17083 7.91546 2.59778 7.91602 2.08333C7.91602 1.5 8.1174 1.00694 8.52018 0.604167C8.92296 0.201389 9.41602 0 9.99935 0C10.5827 0 11.0757 0.201389 11.4785 0.604167C11.8813 1.00694 12.0827 1.5 12.0827 2.08333C12.0827 2.59722 12.0027 3.17028 11.8427 3.8025C11.6827 4.43472 11.346 5.52833 10.8327 7.08333H9.16602ZM9.99935 11.6667C9.54102 11.6667 9.14879 11.5036 8.82268 11.1775C8.49657 10.8514 8.33324 10.4589 8.33268 10C8.33213 9.54111 8.49546 9.14889 8.82268 8.82333C9.1499 8.49778 9.54213 8.33444 9.99935 8.33333C10.4566 8.33222 10.8491 8.49556 11.1768 8.82333C11.5046 9.15111 11.6677 9.54333 11.666 10C11.6643 10.4567 11.5013 10.8492 11.1768 11.1775C10.8524 11.5058 10.4599 11.6689 9.99935 11.6667Z" fill="black"/>
</g>
<defs>
<clipPath id="clip0_319_9378">
<rect width="20" height="20" fill="white"/>
</clipPath>
</defs>
</svg>
