<svg width="20" height="20" viewBox="0 0 20 20" fill="none" xmlns="http://www.w3.org/2000/svg">
<path d="M14.5867 6.25082H6.25V14.5866H14.5858L14.5867 6.25082Z" fill="black"/>
<path d="M17.9208 4.58333V2.91667H16.2542V1.25H14.5867V2.91667H12.92V1.25H11.2525V2.91667H9.58583V1.25H7.9175V2.91667H6.25083V1.25H4.58333V2.91667H2.91667V4.58333H1.25V6.25083H2.91667V7.9175H1.25V9.585H2.91667V11.2517H1.25V12.9192H2.91667V14.5858H1.25V16.2533H2.91667V17.92H4.58333V19.5875H6.25083V17.9208H7.9175V19.5875H9.585V17.9208H11.2517V19.5875H12.9192V17.9208H14.5858V19.5875H16.2533V17.9208H17.92V16.2542H19.5875V14.5867H17.9208V12.92H19.5875V11.2525H17.9208V9.58583H19.5875V7.9175H17.9208V6.25083H19.5875V4.58333H17.9208ZM16.2542 16.2533H4.58333V4.58417H16.2525L16.2542 16.2533Z" fill="black"/>
</svg>
