<svg width="18" height="18" viewBox="0 0 18 18" fill="none" xmlns="http://www.w3.org/2000/svg">
<path d="M17.2059 9C17.2059 10.0776 16.9936 11.1447 16.5812 12.1403C16.1689 13.1358 15.5644 14.0404 14.8024 14.8024C14.0404 15.5644 13.1358 16.1689 12.1403 16.5812C11.1447 16.9936 10.0776 17.2059 9 17.2059C7.92239 17.2059 6.85533 16.9936 5.85974 16.5812C4.86416 16.1689 3.95955 15.5644 3.19756 14.8024C2.43558 14.0404 1.83114 13.1358 1.41875 12.1403C1.00637 11.1447 0.794117 10.0776 0.794118 9C0.794118 7.92239 1.00637 6.85533 1.41875 5.85974C1.83114 4.86416 2.43558 3.95955 3.19757 3.19756C3.95955 2.43558 4.86416 1.83114 5.85975 1.41875C6.85533 1.00637 7.92239 0.794117 9 0.794118C10.0776 0.794118 11.1447 1.00637 12.1403 1.41875C13.1358 1.83114 14.0404 2.43558 14.8024 3.19757C15.5644 3.95955 16.1689 4.86416 16.5812 5.85975C16.9936 6.85533 17.2059 7.92239 17.2059 9L17.2059 9Z" stroke="white" stroke-opacity="0.2" stroke-width="1.58824"/>
<path d="M0.941641 10.549C0.713444 9.36182 0.750367 8.13891 1.04977 6.96768C1.34917 5.79645 1.90366 4.70584 2.67358 3.77383C3.4435 2.84182 4.40983 2.09143 5.50349 1.57633C6.59715 1.06122 7.79111 0.794118 9 0.794118" stroke="white" stroke-width="1.58824"/>
</svg>
