<svg width="20" height="20" viewBox="0 0 20 20" fill="none" xmlns="http://www.w3.org/2000/svg">
<path d="M9.16629 4.99992H11.6663L14.408 2.24992C14.4854 2.17181 14.5776 2.10981 14.6791 2.06751C14.7807 2.0252 14.8896 2.00342 14.9996 2.00342C15.1096 2.00342 15.2185 2.0252 15.3201 2.06751C15.4216 2.10981 15.5138 2.17181 15.5913 2.24992L17.7413 4.40825C17.8965 4.56439 17.9836 4.77559 17.9836 4.99575C17.9836 5.2159 17.8965 5.42711 17.7413 5.58325L15.833 7.49992H9.16629V9.16658C9.16629 9.3876 9.07849 9.59956 8.92221 9.75584C8.76593 9.91212 8.55397 9.99992 8.33295 9.99992C8.11194 9.99992 7.89998 9.91212 7.7437 9.75584C7.58742 9.59956 7.49962 9.3876 7.49962 9.16658V6.66658C7.49962 6.22456 7.67521 5.80063 7.98777 5.48807C8.30033 5.17551 8.72426 4.99992 9.16629 4.99992ZM4.16629 9.16658V12.4999L2.25795 14.4083C2.10274 14.5644 2.01563 14.7756 2.01562 14.9958C2.01563 15.2159 2.10274 15.4271 2.25795 15.5833L4.40795 17.7416C4.48542 17.8197 4.57759 17.8817 4.67914 17.924C4.78069 17.9663 4.88961 17.9881 4.99962 17.9881C5.10963 17.9881 5.21855 17.9663 5.3201 17.924C5.42165 17.8817 5.51382 17.8197 5.59129 17.7416L9.16629 14.1666H12.4996C12.7206 14.1666 12.9326 14.0788 13.0889 13.9225C13.2452 13.7662 13.333 13.5543 13.333 13.3333V12.4999H14.1663C14.3873 12.4999 14.5993 12.4121 14.7555 12.2558C14.9118 12.0996 14.9996 11.8876 14.9996 11.6666V10.8333H15.833C16.054 10.8333 16.2659 10.7455 16.4222 10.5892C16.5785 10.4329 16.6663 10.2209 16.6663 9.99992V9.16658H10.833V9.99992C10.833 10.4419 10.6574 10.8659 10.3448 11.1784C10.0322 11.491 9.60831 11.6666 9.16629 11.6666H7.49962C7.05759 11.6666 6.63367 11.491 6.32111 11.1784C6.00855 10.8659 5.83295 10.4419 5.83295 9.99992V7.49992L4.16629 9.16658Z" fill="#1C274C"/>
</svg>
