<svg width="18" height="18" viewBox="0 0 18 18" fill="none" xmlns="http://www.w3.org/2000/svg">
<g clip-path="url(#clip0_2096_5647)">
<path d="M8.625 1.5C7.53098 1.5 6.48177 1.9346 5.70818 2.70818C4.9346 3.48177 4.5 4.53098 4.5 5.625C4.5 6.71902 4.9346 7.76823 5.70818 8.54182C6.48177 9.3154 7.53098 9.75 8.625 9.75C9.71902 9.75 10.7682 9.3154 11.5418 8.54182C12.3154 7.76823 12.75 6.71902 12.75 5.625C12.75 4.53098 12.3154 3.48177 11.5418 2.70818C10.7682 1.9346 9.71902 1.5 8.625 1.5ZM13.5 9.375C12.9583 9.375 12.4219 9.4817 11.9214 9.689C11.421 9.8963 10.9662 10.2001 10.5832 10.5832C10.2001 10.9662 9.8963 11.421 9.689 11.9214C9.4817 12.4219 9.375 12.9583 9.375 13.5C9.375 14.0417 9.4817 14.5781 9.689 15.0786C9.8963 15.579 10.2001 16.0338 10.5832 16.4168C10.9662 16.7999 11.421 17.1037 11.9214 17.311C12.4219 17.5183 12.9583 17.625 13.5 17.625C14.594 17.625 15.6432 17.1904 16.4168 16.4168C17.1904 15.6432 17.625 14.594 17.625 13.5C17.625 12.406 17.1904 11.3568 16.4168 10.5832C15.6432 9.8096 14.594 9.375 13.5 9.375ZM14.25 15.3105L12.75 13.8105V11.814H14.25V13.1895L15.3105 14.25L14.25 15.3105Z" fill="#1C274C"/>
<path d="M9.19125 10.5C8.57707 11.3797 8.24845 12.4271 8.25 13.5C8.25 14.6153 8.598 15.6495 9.19125 16.5H1.5V15C1.5 13.8065 1.97411 12.6619 2.81802 11.818C3.66193 10.9741 4.80653 10.5 6 10.5H9.19125Z" fill="#1C274C"/>
</g>
<defs>
<clipPath id="clip0_2096_5647">
<rect width="18" height="18" fill="white"/>
</clipPath>
</defs>
</svg>
