<svg width="18" height="18" viewBox="0 0 18 18" fill="none" xmlns="http://www.w3.org/2000/svg">
<path d="M15.0003 1.5H3.00781C2.18281 1.5 1.50781 2.175 1.50781 3V16.5L4.50031 13.5H15.0003C15.8253 13.5 16.5003 12.825 16.5003 12V3C16.5003 2.175 15.8253 1.5 15.0003 1.5ZM9.75031 10.5H8.25031V9H9.75031V10.5ZM9.75031 6.75C9.75031 7.1625 9.41281 7.5 9.00031 7.5C8.58781 7.5 8.25031 7.1625 8.25031 6.75V5.25C8.25031 4.8375 8.58781 4.5 9.00031 4.5C9.41281 4.5 9.75031 4.8375 9.75031 5.25V6.75Z" fill="#1C274C"/>
</svg>
