<svg width="18" height="19" viewBox="0 0 18 19" fill="none" xmlns="http://www.w3.org/2000/svg">
<g clip-path="url(#clip0_2096_5643)">
<path d="M7.42578 3.65005H10.5758C10.6995 3.65005 10.8008 3.7513 10.8008 3.87505V5.00005H7.20078V3.87505C7.20078 3.7513 7.30203 3.65005 7.42578 3.65005ZM5.85078 3.87505V5.00005H3.60078C2.60797 5.00005 1.80078 5.80724 1.80078 6.80005V9.50005H10.3789C11.3295 8.65911 12.5811 8.15005 13.9508 8.15005C14.7552 8.15005 15.5145 8.32442 16.2008 8.63942V6.80005C16.2008 5.80724 15.3936 5.00005 14.4008 5.00005H12.1508V3.87505C12.1508 3.00599 11.4448 2.30005 10.5758 2.30005H7.42578C6.55672 2.30005 5.85078 3.00599 5.85078 3.87505ZM8.10078 12.2C7.60297 12.2 7.20078 11.7979 7.20078 11.3V10.85H1.80078V14C1.80078 14.9929 2.60797 15.8 3.60078 15.8H9.04016C8.72516 15.1138 8.55078 14.3544 8.55078 13.55C8.55078 13.0832 8.60984 12.6304 8.71953 12.2H8.10078ZM18.0008 13.55C18.0008 12.4759 17.5741 11.4458 16.8146 10.6863C16.055 9.92674 15.0249 9.50005 13.9508 9.50005C12.8767 9.50005 11.8465 9.92674 11.087 10.6863C10.3275 11.4458 9.90078 12.4759 9.90078 13.55C9.90078 14.6242 10.3275 15.6543 11.087 16.4138C11.8465 17.1734 12.8767 17.6 13.9508 17.6C15.0249 17.6 16.055 17.1734 16.8146 16.4138C17.5741 15.6543 18.0008 14.6242 18.0008 13.55ZM13.9508 11.3C14.1983 11.3 14.4008 11.5025 14.4008 11.75V13.1H15.3008C15.5483 13.1 15.7508 13.3025 15.7508 13.55C15.7508 13.7975 15.5483 14 15.3008 14H13.9508C13.7033 14 13.5008 13.7975 13.5008 13.55V11.75C13.5008 11.5025 13.7033 11.3 13.9508 11.3Z" fill="#1C274C"/>
</g>
<defs>
<clipPath id="clip0_2096_5643">
<rect width="18" height="19" fill="white"/>
</clipPath>
</defs>
</svg>
