<svg width="18" height="18" viewBox="0 0 18 18" fill="none" xmlns="http://www.w3.org/2000/svg">
<path d="M15 12.75C15 12.9489 14.921 13.1397 14.7803 13.2803C14.6397 13.421 14.4489 13.5 14.25 13.5C14.0511 13.5 13.8603 13.421 13.7197 13.2803C13.579 13.1397 13.5 12.9489 13.5 12.75V3.75C13.5 3.55109 13.421 3.36032 13.2803 3.21967C13.1397 3.07902 12.9489 3 12.75 3H2.25C2.05109 3 1.86032 3.07902 1.71967 3.21967C1.57902 3.36032 1.5 3.55109 1.5 3.75V13.5C1.5 13.8978 1.65804 14.2794 1.93934 14.5607C2.22064 14.842 2.60218 15 3 15H14.25C15.4905 15 16.5 13.9905 16.5 12.75V5.25H15V12.75ZM9 5.25H11.25V6.75H9V5.25ZM9 8.25H11.25V9.75H9V8.25ZM3.75 5.25H7.5V9.75H3.75V5.25ZM3.75 12.75V11.25H11.25V12.75H3.75Z" fill="#1C274C"/>
</svg>
