<svg width="18" height="18" viewBox="0 0 18 18" fill="none" xmlns="http://www.w3.org/2000/svg">
<path d="M6.18757 3.9375C6.18757 3.19158 6.48388 2.47621 7.01133 1.94876C7.53877 1.42132 8.25415 1.125 9.00007 1.125C9.74599 1.125 10.4614 1.42132 10.9888 1.94876C11.5163 2.47621 11.8126 3.19158 11.8126 3.9375C11.8126 4.68342 11.5163 5.39879 10.9888 5.92624C10.4614 6.45368 9.74599 6.75 9.00007 6.75C8.25415 6.75 7.53877 6.45368 7.01133 5.92624C6.48388 5.39879 6.18757 4.68342 6.18757 3.9375ZM7.31257 7.875C6.86501 7.875 6.43579 8.05279 6.11932 8.36926C5.80286 8.68572 5.62507 9.11495 5.62507 9.5625V12.375C5.62507 13.2701 5.98065 14.1286 6.61358 14.7615C7.24652 15.3944 8.10496 15.75 9.00007 15.75C9.89517 15.75 10.7536 15.3944 11.3866 14.7615C12.0195 14.1286 12.3751 13.2701 12.3751 12.375V9.5625C12.3751 9.11495 12.1973 8.68572 11.8808 8.36926C11.5643 8.05279 11.1351 7.875 10.6876 7.875H7.31257ZM4.56307 8.96625C4.52088 9.16219 4.49976 9.36207 4.50007 9.5625V12.375C4.49995 12.9771 4.62067 13.5731 4.85508 14.1277C5.08948 14.6823 5.43279 15.1842 5.86469 15.6038L5.75219 15.6353C4.88783 15.8665 3.967 15.7451 3.19215 15.2976C2.41729 14.8502 1.85183 14.1134 1.62007 13.2491L1.18244 11.6179C1.12511 11.4038 1.11051 11.1805 1.13947 10.9608C1.16843 10.7411 1.24038 10.5292 1.35122 10.3373C1.46206 10.1454 1.60962 9.97724 1.78546 9.84237C1.9613 9.70749 2.16199 9.60857 2.37607 9.55125L4.56307 8.96625ZM12.1343 15.6038C12.5664 15.1843 12.9099 14.6824 13.1445 14.1278C13.3791 13.5732 13.5 12.9772 13.5001 12.375V9.5625C13.4993 9.357 13.4783 9.15825 13.4371 8.96625L15.6229 9.55125C15.8371 9.60856 16.0379 9.70752 16.2139 9.84247C16.3898 9.97743 16.5374 10.1457 16.6483 10.3378C16.7591 10.5298 16.831 10.7418 16.8599 10.9616C16.8888 11.1815 16.8741 11.4049 16.8166 11.619L16.3801 13.2491C16.2628 13.6866 16.0587 14.0961 15.7799 14.453C15.5011 14.81 15.1533 15.1072 14.7573 15.3269C14.3612 15.5466 13.9249 15.6843 13.4745 15.7319C13.0241 15.7795 12.5675 15.7359 12.1343 15.6038ZM1.12507 5.625C1.12507 5.02826 1.36212 4.45597 1.78408 4.03401C2.20603 3.61205 2.77833 3.375 3.37507 3.375C3.9718 3.375 4.5441 3.61205 4.96606 4.03401C5.38801 4.45597 5.62507 5.02826 5.62507 5.625C5.62507 6.22174 5.38801 6.79403 4.96606 7.21599C4.5441 7.63795 3.9718 7.875 3.37507 7.875C2.77833 7.875 2.20603 7.63795 1.78408 7.21599C1.36212 6.79403 1.12507 6.22174 1.12507 5.625ZM12.3751 5.625C12.3751 5.02826 12.6121 4.45597 13.0341 4.03401C13.456 3.61205 14.0283 3.375 14.6251 3.375C15.2218 3.375 15.7941 3.61205 16.2161 4.03401C16.638 4.45597 16.8751 5.02826 16.8751 5.625C16.8751 6.22174 16.638 6.79403 16.2161 7.21599C15.7941 7.63795 15.2218 7.875 14.6251 7.875C14.0283 7.875 13.456 7.63795 13.0341 7.21599C12.6121 6.79403 12.3751 6.22174 12.3751 5.625Z" fill="#1C274C"/>
</svg>
