<svg width="18" height="18" viewBox="0 0 18 18" fill="none" xmlns="http://www.w3.org/2000/svg">
<path d="M15.75 7.5H9.4875C9.17855 6.62286 8.60501 5.86322 7.84601 5.32587C7.08701 4.78853 6.17996 4.49997 5.25 4.5C2.7675 4.5 0.75 6.5175 0.75 9C0.75 11.4825 2.7675 13.5 5.25 13.5C6.17996 13.5 7.08701 13.2115 7.84601 12.6741C8.60501 12.1368 9.17855 11.3771 9.4875 10.5H9.75L11.25 12L12.75 10.5L14.25 12L17.25 8.97L15.75 7.5ZM5.25 11.25C4.0125 11.25 3 10.2375 3 9C3 7.7625 4.0125 6.75 5.25 6.75C6.4875 6.75 7.5 7.7625 7.5 9C7.5 10.2375 6.4875 11.25 5.25 11.25Z" fill="#1C274C"/>
</svg>
