<svg width="20" height="20" viewBox="0 0 20 20" fill="none" xmlns="http://www.w3.org/2000/svg">
<g clip-path="url(#clip0_2096_5794)">
<path fill-rule="evenodd" clip-rule="evenodd" d="M8.23896 1.34653L7.71442 0.821995C7.59727 0.704838 7.40732 0.704838 7.29016 0.821995L6.76562 1.34653L0.727757 7.3844C0.6106 7.50156 0.6106 7.6915 0.727757 7.80866L1.77683 8.85773C1.89398 8.97489 2.08393 8.97489 2.20109 8.85773L7.29016 3.76866C7.40732 3.65151 7.59727 3.6515 7.71442 3.76866L12.1823 8.23653L12.7068 8.76106C12.824 8.87822 13.0139 8.87822 13.1311 8.76106L13.6556 8.23653L17.1935 4.69866C17.3107 4.58151 17.5006 4.5815 17.6178 4.69866L18.9568 6.03773C19.074 6.15489 19.2639 6.15489 19.3811 6.03773L19.4978 5.92106C19.554 5.8648 19.5856 5.7885 19.5856 5.70893V1.1332C19.5856 0.967512 19.4513 0.833197 19.2856 0.833197H14.7099C14.6303 0.833197 14.554 0.864804 14.4978 0.921065L14.3811 1.03773C14.2639 1.15489 14.2639 1.34484 14.3811 1.462L15.7202 2.80106C15.8373 2.91822 15.8373 3.10817 15.7202 3.22533L13.1311 5.8144C13.0139 5.93156 12.824 5.93156 12.7068 5.8144L8.23896 1.34653ZM3.24396 12.0832C3.40964 12.0832 3.54396 12.2175 3.54396 12.3832V19.2832C3.54396 19.4489 3.40964 19.5832 3.24396 19.5832H0.927292C0.761606 19.5832 0.627292 19.4489 0.627292 19.2832V12.3832C0.627292 12.2175 0.761606 12.0832 0.927292 12.0832H3.24396ZM6.20479 8.74986C6.03911 8.74986 5.90479 8.88418 5.90479 9.04986V19.2832C5.90479 19.4489 6.03911 19.5832 6.20479 19.5832H8.52146C8.68714 19.5832 8.82146 19.4489 8.82146 19.2832V9.04986C8.82146 8.88418 8.68714 8.74986 8.52146 8.74986H6.20479ZM11.4831 19.5832C11.3174 19.5832 11.1831 19.4489 11.1831 19.2832V14.0499C11.1831 13.8842 11.3174 13.7499 11.4831 13.7499H13.7998C13.9655 13.7499 14.0998 13.8842 14.0998 14.0499V19.2832C14.0998 19.4489 13.9655 19.5832 13.7998 19.5832H11.4831ZM16.7606 10.4165C16.5949 10.4165 16.4606 10.5508 16.4606 10.7165V19.2832C16.4606 19.4489 16.5949 19.5832 16.7606 19.5832H19.0773C19.243 19.5832 19.3773 19.4489 19.3773 19.2832V10.7165C19.3773 10.5508 19.243 10.4165 19.0773 10.4165H16.7606Z" fill="#1C274C"/>
</g>
<defs>
<clipPath id="clip0_2096_5794">
<rect width="20" height="20" fill="white"/>
</clipPath>
</defs>
</svg>
