<svg width="18" height="19" viewBox="0 0 18 19" fill="none" xmlns="http://www.w3.org/2000/svg">
<g clip-path="url(#clip0_2096_5703)">
<path d="M14.5668 16.4602C14.5246 16.1895 14.5211 16.193 14.2293 16.193C10.7207 16.2 10.2988 16.1086 10.2672 16.1016C9.83474 16.0418 9.54294 15.7324 9.52888 15.2895C9.52536 15.2332 9.52185 12.7723 9.49372 10.7508C9.4902 10.5855 9.54997 10.5258 9.70114 10.4871C10.1406 10.3816 10.5765 10.2727 11.0125 10.1461C11.1636 10.1004 11.2515 10.1391 11.3078 10.2691C11.466 10.6313 11.6172 10.9934 11.7718 11.3555C11.8281 11.4855 11.7754 11.5102 11.6523 11.5102C11.3008 11.5031 10.9492 11.5066 10.5836 11.5066V12.4559H14.6617C14.6125 12.1219 14.5668 11.8195 14.5211 11.4891C14.275 11.4891 14.0359 11.5031 13.8039 11.4855C13.0093 11.4293 13.1605 11.3309 10.8508 5.90977C10.5414 5.20312 9.86989 3.72656 9.56755 2.77383C9.41286 2.28164 9.76091 1.88086 10.232 1.83867C10.8859 1.77891 11.5504 1.78242 12.2078 1.76836C12.932 1.7543 13.6562 1.7543 14.3804 1.75078C14.4894 1.75078 14.5211 1.70156 14.5316 1.59961C14.5738 1.25508 14.6265 0.914062 14.6722 0.573047C14.7004 0.386719 14.7285 0.196875 14.7566 0.00703125L2.83513 0C2.70856 0 2.6488 0.0386719 2.67341 0.186328C2.75075 0.650391 2.64528 0.214453 2.89841 1.77891C5.12731 1.77891 5.42263 1.81055 6.47731 1.79648C6.90974 1.78945 7.7781 1.91953 7.8027 2.57344C7.81677 2.97422 7.76403 2.9707 6.65661 5.64609C4.7652 10.2094 4.87419 9.87539 4.2906 11.3063C4.23083 11.4504 4.16403 11.4891 4.02341 11.4891C3.72458 11.482 3.42575 11.4785 3.13044 11.4926C3.06364 11.4961 2.94763 11.5559 2.93708 11.6051C2.88435 11.8898 2.85974 12.1781 2.82458 12.4805H6.84294V11.5102C6.60036 11.5102 5.6652 11.5242 5.60192 11.4082C5.78825 10.9758 5.96755 10.5504 6.15388 10.118C6.72692 10.2586 7.27536 10.3922 7.82731 10.5293C7.94685 10.5609 7.98903 10.6348 7.98903 10.7684C7.98552 12.2766 7.99255 13.7883 7.99606 15.2965C7.99606 15.6551 7.8027 15.968 7.47224 16.1086C7.24372 16.2035 7.35622 16.2281 3.20427 16.193C3.01794 16.193 2.95466 16.2633 2.93708 16.432C2.88435 16.8855 2.83513 17.3426 2.7613 17.7961C2.73317 17.9719 2.807 17.9965 2.94763 17.9965C9.38825 18.0176 1.86833 17.9965 14.7988 17.9965C14.7109 17.4691 14.6441 16.9629 14.5668 16.4602ZM8.41794 9.22852C7.95036 9.08086 7.48278 8.94023 7.0152 8.78906C6.94485 8.76008 6.8767 8.72601 6.8113 8.68711C7.41599 7.12969 8.01364 5.58984 8.61481 4.04297C8.87849 4.12734 8.89255 4.01484 8.94528 4.04297C9.27224 4.83398 9.58161 6.15586 9.8945 6.95391C10.1265 7.54102 10.3515 8.13164 10.5871 8.74336C10.5429 8.77076 10.4971 8.79542 10.45 8.81719C9.98942 8.9543 9.52185 9.08086 9.06481 9.22852C8.85551 9.30234 8.62725 9.30234 8.41794 9.22852Z" fill="#1C274C"/>
</g>
<defs>
<clipPath id="clip0_2096_5703">
<rect width="13.5" height="18" fill="white" transform="translate(2)"/>
</clipPath>
</defs>
</svg>
