<svg width="18" height="18" viewBox="0 0 18 18" fill="none" xmlns="http://www.w3.org/2000/svg">
<path d="M17.5876 6.22933C17.7381 4.11433 11.8186 0.156907 11.8186 1.94276V4.01919C10.771 4.00752 9.72323 4.02252 8.67636 4.06419C8.38247 4.07111 8.10135 4.18571 7.88638 4.38622C7.6714 4.58674 7.53754 4.85921 7.51021 5.15191C7.45493 5.85519 7.45493 6.54048 7.51021 7.24376C7.53754 7.53646 7.6714 7.80893 7.88638 8.00945C8.10135 8.20996 8.38247 8.32456 8.67636 8.33148C9.29864 8.35633 9.91236 8.37176 10.5175 8.37776C10.8616 8.37945 11.1912 8.51672 11.4348 8.75981C11.6784 9.0029 11.8163 9.33222 11.8186 9.67633V10.4529C11.8186 12.2015 17.7586 8.27362 17.5851 6.22933" fill="#1C274C"/>
<path d="M0.409927 11.848C0.258212 9.73298 6.17764 5.77555 6.17764 7.56012V8.3354C6.17764 9.05155 6.76264 9.62755 7.4775 9.63397C8.08435 9.64083 8.69807 9.65626 9.31864 9.68026C9.92807 9.70469 10.4372 10.1611 10.4848 10.768C10.5414 11.4713 10.5414 12.1565 10.4848 12.8598C10.4575 13.1525 10.3236 13.425 10.1086 13.6255C9.89365 13.826 9.61253 13.9406 9.31864 13.9475C8.2515 13.99 7.21907 14.0054 6.17764 13.9925V16.0715C6.17764 17.8201 0.237641 13.891 0.409927 11.848Z" fill="#1C274C"/>
</svg>
