<svg width="20" height="20" viewBox="0 0 20 20" fill="none" xmlns="http://www.w3.org/2000/svg">
<path d="M7.5487 1.60831C5.9737 1.59998 4.44036 3.11664 5.14036 4.99998H2.4987C2.05667 4.99998 1.63275 5.17557 1.32019 5.48813C1.00763 5.80069 0.832031 6.22462 0.832031 6.66664V8.33331C0.832031 8.55432 0.919829 8.76629 1.07611 8.92257C1.23239 9.07885 1.44435 9.16664 1.66536 9.16664H9.16537V6.66664H10.832V9.16664H18.332C18.553 9.16664 18.765 9.07885 18.9213 8.92257C19.0776 8.76629 19.1654 8.55432 19.1654 8.33331V6.66664C19.1654 6.22462 18.9898 5.80069 18.6772 5.48813C18.3646 5.17557 17.9407 4.99998 17.4987 4.99998H14.857C15.832 2.27498 12.1654 0.349977 10.4737 2.69998L9.9987 3.33331L9.5237 2.68331C8.9987 1.94164 8.2737 1.61664 7.5487 1.60831ZM7.4987 3.33331C8.24037 3.33331 8.61537 4.23331 8.09036 4.75831C7.56536 5.28331 6.66536 4.90831 6.66536 4.16664C6.66536 3.94563 6.75316 3.73367 6.90944 3.57739C7.06572 3.42111 7.27768 3.33331 7.4987 3.33331ZM12.4987 3.33331C13.2404 3.33331 13.6154 4.23331 13.0904 4.75831C12.5654 5.28331 11.6654 4.90831 11.6654 4.16664C11.6654 3.94563 11.7532 3.73367 11.9094 3.57739C12.0657 3.42111 12.2777 3.33331 12.4987 3.33331ZM1.66536 9.99998V16.6666C1.66536 17.1087 1.84096 17.5326 2.15352 17.8452C2.46608 18.1577 2.89 18.3333 3.33203 18.3333H16.6654C17.1074 18.3333 17.5313 18.1577 17.8439 17.8452C18.1564 17.5326 18.332 17.1087 18.332 16.6666V9.99998H10.832V16.6666H9.16537V9.99998H1.66536Z" fill="#1C274C"/>
</svg>
