<svg width="18" height="18" viewBox="0 0 18 18" fill="none" xmlns="http://www.w3.org/2000/svg">
<g clip-path="url(#clip0_2096_5708)">
<path fill-rule="evenodd" clip-rule="evenodd" d="M2.31904 5.76904C2.47914 4.44646 3.02777 3.20104 3.89557 2.19021C4.76337 1.17938 5.91137 0.448528 7.19447 0.0900388C6.03861 1.9119 5.38804 3.80575 5.28904 5.76904H2.31904ZM2.31904 7.37618H5.33018C5.52304 9.2739 6.22118 11.1845 7.40018 13.1079C6.07139 12.7815 4.87348 12.0583 3.96581 11.0344C3.05814 10.0105 2.48374 8.73452 2.31904 7.37618ZM15.6776 7.37618C15.5137 8.7275 14.9443 9.99747 14.0443 11.0188C13.1444 12.0401 11.9563 12.7649 10.6363 13.0976C11.8269 11.2063 12.5289 9.29704 12.7063 7.37618H15.6776ZM9.01118 12.6489C10.2249 10.8399 10.905 9.08361 11.0915 7.37618H6.94761C7.14818 9.0579 7.81933 10.8129 9.01118 12.6489ZM6.89875 5.76904H11.1198C10.9899 3.95875 10.2969 2.1369 8.99447 0.295753C7.6959 2.10861 7.00933 3.92918 6.89875 5.76904ZM15.6763 5.76904H12.732C12.6112 3.82761 11.9529 1.93247 10.7855 0.0861816C12.0717 0.442536 13.2232 1.17293 14.0937 2.18469C14.9642 3.19645 15.5146 4.44399 15.675 5.76904H15.6763ZM8.03404 14.85V16.002H2.56975C2.31401 16.002 2.06874 16.1036 1.8879 16.2845C1.70706 16.4653 1.60547 16.7106 1.60547 16.9663C1.60547 17.2221 1.70706 17.4673 1.8879 17.6482C2.06874 17.829 2.31401 17.9306 2.56975 17.9306H15.4269C15.6826 17.9306 15.9279 17.829 16.1087 17.6482C16.2896 17.4673 16.3912 17.2221 16.3912 16.9663C16.3912 16.7106 16.2896 16.4653 16.1087 16.2845C15.9279 16.1036 15.6826 16.002 15.4269 16.002H9.96261V14.85C9.32184 14.9233 8.67481 14.9233 8.03404 14.85Z" fill="#1C274C"/>
</g>
<defs>
<clipPath id="clip0_2096_5708">
<rect width="18" height="18" fill="white"/>
</clipPath>
</defs>
</svg>
