<svg width="20" height="20" viewBox="0 0 20 20" fill="none" xmlns="http://www.w3.org/2000/svg">
<path d="M14.918 14.4917C14.7013 13.8251 14.0763 13.3334 13.3346 13.3334H12.5013V10.8334C12.5013 10.6124 12.4135 10.4004 12.2572 10.2442C12.1009 10.0879 11.889 10.0001 11.668 10.0001H6.66797V8.33341H8.33464C8.55565 8.33341 8.76761 8.24562 8.92389 8.08934C9.08017 7.93306 9.16797 7.7211 9.16797 7.50008V5.83341H10.8346C11.2767 5.83341 11.7006 5.65782 12.0131 5.34526C12.3257 5.0327 12.5013 4.60878 12.5013 4.16675V3.82508C13.4984 4.22705 14.3832 4.86464 15.08 5.68328C15.7768 6.50191 16.2649 7.4772 16.5024 8.52567C16.74 9.57414 16.7199 10.6646 16.444 11.7036C16.168 12.7426 15.6444 13.6993 14.918 14.4917ZM9.16797 16.6084C5.8763 16.2001 3.33464 13.4001 3.33464 10.0001C3.33464 9.48341 3.4013 8.98341 3.50964 8.50841L7.5013 12.5001V13.3334C7.5013 13.7754 7.6769 14.1994 7.98946 14.5119C8.30202 14.8245 8.72594 15.0001 9.16797 15.0001M10.0013 1.66675C8.90695 1.66675 7.82332 1.8823 6.81227 2.30109C5.80123 2.71987 4.88257 3.3337 4.10875 4.10752C2.54594 5.67033 1.66797 7.78994 1.66797 10.0001C1.66797 12.2102 2.54594 14.3298 4.10875 15.8926C4.88257 16.6665 5.80123 17.2803 6.81227 17.6991C7.82332 18.1179 8.90695 18.3334 10.0013 18.3334C12.2114 18.3334 14.3311 17.4554 15.8939 15.8926C17.4567 14.3298 18.3346 12.2102 18.3346 10.0001C18.3346 8.90573 18.1191 7.8221 17.7003 6.81105C17.2815 5.80001 16.6677 4.88135 15.8939 4.10752C15.12 3.3337 14.2014 2.71987 13.1903 2.30109C12.1793 1.8823 11.0957 1.66675 10.0013 1.66675Z" fill="#1C274C"/>
</svg>
