<svg width="18" height="18" viewBox="0 0 18 18" fill="none" xmlns="http://www.w3.org/2000/svg">
<path d="M15.822 4.5C15.5706 4.50008 15.3227 4.55877 15.098 4.6714C14.8732 4.78403 14.6778 4.9475 14.5273 5.14884C14.3768 5.35018 14.2753 5.58384 14.2308 5.83127C14.1864 6.0787 14.2002 6.33308 14.2713 6.57422L11.7622 9.08297C11.4313 8.97274 11.0735 8.97274 10.7426 9.08297L8.88251 7.22285C8.94372 6.984 8.9495 6.73433 8.89942 6.4929C8.84934 6.25148 8.74472 6.0247 8.59355 5.82991C8.44239 5.63512 8.24868 5.47747 8.02725 5.36902C7.80581 5.26057 7.56251 5.2042 7.31595 5.2042C7.06938 5.2042 6.82608 5.26057 6.60465 5.36902C6.38321 5.47747 6.18951 5.63512 6.03834 5.82991C5.88718 6.0247 5.78255 6.25148 5.73247 6.4929C5.68239 6.73433 5.68817 6.984 5.74938 7.22285L2.63841 10.3317C2.29302 10.2295 1.92341 10.2453 1.588 10.3766C1.25259 10.5079 0.97051 10.7473 0.786346 11.0568C0.602182 11.3664 0.52644 11.7285 0.571091 12.0859C0.615742 12.4433 0.77824 12.7757 1.0329 13.0304C1.28756 13.2852 1.61985 13.4478 1.97726 13.4925C2.33467 13.5373 2.6968 13.4617 3.00642 13.2776C3.31604 13.0935 3.55549 12.8115 3.68691 12.4762C3.81834 12.1408 3.83424 11.7712 3.73212 11.4258L6.80372 8.35453C7.13461 8.46484 7.49236 8.46484 7.82325 8.35453L9.68372 10.215C9.62251 10.4538 9.61672 10.7035 9.66681 10.945C9.71689 11.1864 9.82151 11.4132 9.97268 11.6079C10.1238 11.8027 10.3175 11.9604 10.539 12.0688C10.7604 12.1773 11.0037 12.2337 11.2503 12.2337C11.4968 12.2337 11.7401 12.1773 11.9616 12.0688C12.183 11.9604 12.3767 11.8027 12.5279 11.6079C12.6791 11.4132 12.7837 11.1864 12.8338 10.945C12.8838 10.7035 12.8781 10.4538 12.8168 10.215L15.365 7.66828C15.5874 7.73391 15.8214 7.75092 16.051 7.71816C16.2806 7.6854 16.5005 7.60364 16.6957 7.47842C16.8909 7.35319 17.0569 7.18744 17.1825 6.99241C17.308 6.79738 17.3901 6.57764 17.4232 6.34808C17.4563 6.11852 17.4397 5.88453 17.3744 5.66198C17.3091 5.43942 17.1967 5.23351 17.0448 5.05822C16.8929 4.88293 16.7051 4.74236 16.4942 4.64604C16.2832 4.54972 16.0539 4.49992 15.822 4.5Z" fill="#1C274C"/>
</svg>
