<svg width="20" height="20" viewBox="0 0 20 20" fill="none" xmlns="http://www.w3.org/2000/svg">
<g clip-path="url(#clip0_2096_5803)">
<path fill-rule="evenodd" clip-rule="evenodd" d="M19.0624 5.64854C18.8714 5.71707 18.6649 5.72995 18.4669 5.68569C18.2689 5.64143 18.0875 5.54186 17.9439 5.39854L17.1553 4.60854L11.1596 10.6043C11.0601 10.7038 10.9419 10.7828 10.8119 10.8367C10.6819 10.8906 10.5425 10.9183 10.4017 10.9183C10.261 10.9183 10.1216 10.8906 9.99154 10.8367C9.8615 10.7828 9.74336 10.7038 9.64386 10.6043L7.35672 8.31712L1.90814 13.7657C1.80926 13.868 1.691 13.9495 1.56025 14.0056C1.42951 14.0617 1.2889 14.0912 1.14664 14.0924C1.00437 14.0935 0.863301 14.0664 0.731652 14.0124C0.600004 13.9585 0.480415 13.8789 0.379863 13.7782C0.279312 13.6776 0.199812 13.5579 0.146001 13.4262C0.092191 13.2945 0.0651483 13.1534 0.0664512 13.0112C0.067754 12.8689 0.0973763 12.7283 0.15359 12.5976C0.209803 12.4669 0.291481 12.3488 0.393859 12.25L6.59672 6.04283C6.69622 5.94327 6.81436 5.86428 6.9444 5.8104C7.07443 5.75651 7.21381 5.72877 7.35457 5.72877C7.49533 5.72877 7.63471 5.75651 7.76475 5.8104C7.89479 5.86428 8.01293 5.94327 8.11243 6.04283L10.401 8.3314L15.6396 3.09283L14.851 2.30426C14.7074 2.16084 14.6075 1.97958 14.5629 1.78158C14.5183 1.58359 14.5309 1.377 14.5991 1.18586C14.6674 0.994729 14.7885 0.82691 14.9484 0.701943C15.1083 0.576975 15.3005 0.499999 15.5024 0.479974C16.8067 0.351402 17.5567 0.351402 18.8124 0.479974C19.0575 0.505312 19.2863 0.614333 19.4604 0.788672C19.6345 0.963011 19.7432 1.19202 19.7681 1.43712C19.8981 2.6914 19.8967 3.44283 19.7681 4.74569C19.7481 4.94755 19.6711 5.13956 19.5461 5.29939C19.4212 5.45922 19.2535 5.5803 19.0624 5.64854ZM16.7439 7.80283C16.9057 7.64587 17.113 7.54397 17.3361 7.51165C17.5593 7.47933 17.787 7.51824 17.9867 7.62283L19.3753 8.3514C19.555 8.44596 19.7041 8.58963 19.8052 8.76566C19.9064 8.94169 19.9555 9.14284 19.9467 9.34569L19.5524 18.7571C19.541 19.0335 19.4231 19.2948 19.2234 19.4863C19.0237 19.6777 18.7577 19.7845 18.481 19.7843H15.6639C15.5691 19.7843 15.4783 19.7466 15.4113 19.6797C15.3443 19.6127 15.3067 19.5218 15.3067 19.4271V9.34712C15.3066 9.29916 15.3162 9.25168 15.3348 9.2075C15.3535 9.16332 15.3809 9.12335 15.4153 9.08997L16.7439 7.80283ZM13.521 19.4271C13.521 19.5218 13.4834 19.6127 13.4164 19.6797C13.3494 19.7466 13.2586 19.7843 13.1639 19.7843H7.80672C7.712 19.7843 7.62115 19.7466 7.55418 19.6797C7.4872 19.6127 7.44957 19.5218 7.44957 19.4271V11.1214C7.44957 11.0928 7.471 11.07 7.49957 11.0728C7.73243 11.0843 7.961 11.1728 8.14957 11.3371L10.4996 13.4C10.567 13.4593 10.6542 13.491 10.7439 13.4889C10.8337 13.4868 10.9193 13.451 10.9839 13.3885L12.9153 11.5143C12.9657 11.4654 13.0294 11.4325 13.0985 11.4196C13.1675 11.4067 13.2388 11.4145 13.3034 11.442C13.3681 11.4694 13.4232 11.5153 13.4619 11.5739C13.5006 11.6325 13.5211 11.7012 13.521 11.7714V19.4271ZM5.051 13.0514L0.608145 17.5885C0.411513 17.7887 0.301234 18.058 0.301002 18.3385V18.7128C0.301002 19.3043 0.781002 19.7843 1.37243 19.7843H5.30672C5.40144 19.7843 5.49228 19.7466 5.55925 19.6797C5.62623 19.6127 5.66386 19.5218 5.66386 19.4271V13.3014C5.66399 13.2303 5.64292 13.1608 5.60332 13.1018C5.56373 13.0428 5.50743 12.9969 5.44161 12.97C5.3758 12.9432 5.30347 12.9366 5.23389 12.9511C5.1643 12.9656 5.10062 13.0005 5.051 13.0514Z" fill="#1C274C"/>
</g>
<defs>
<clipPath id="clip0_2096_5803">
<rect width="20" height="20" fill="white"/>
</clipPath>
</defs>
</svg>
