<svg width="20" height="20" viewBox="0 0 20 20" fill="none" xmlns="http://www.w3.org/2000/svg">
<path d="M9.9962 12.8999C9.62509 12.8999 9.30842 12.768 9.0462 12.5041C8.78398 12.2402 8.65286 11.9227 8.65286 11.5516C8.65286 11.1805 8.78481 10.8638 9.0487 10.6016C9.31259 10.3394 9.63036 10.2083 10.002 10.2083C10.3737 10.2083 10.6904 10.3405 10.952 10.6049C11.2137 10.8694 11.3448 11.1869 11.3454 11.5574C11.3459 11.928 11.2137 12.2446 10.9487 12.5074C10.6837 12.7702 10.3662 12.9013 9.9962 12.9008M6.97786 6.45825H13.0195L14.082 4.30075C14.1998 4.07686 14.1948 3.85964 14.067 3.64909C13.9393 3.43853 13.7476 3.33325 13.492 3.33325H6.50536C6.24981 3.33325 6.05814 3.43853 5.93036 3.64909C5.80259 3.85964 5.79759 4.07714 5.91536 4.30159L6.97786 6.45825ZM7.1912 16.6666H12.8062C13.8784 16.6666 14.7895 16.2913 15.5395 15.5408C16.2901 14.7902 16.6654 13.8774 16.6654 12.8024C16.6654 12.3535 16.5884 11.9163 16.4345 11.4908C16.2806 11.0652 16.0584 10.6777 15.7679 10.3283L13.2329 7.29159H6.76453L4.22953 10.3283C3.93898 10.6777 3.71675 11.0652 3.56286 11.4908C3.40898 11.9158 3.33203 12.353 3.33203 12.8024C3.33203 13.8774 3.70731 14.7902 4.45786 15.5408C5.20842 16.2913 6.11953 16.6666 7.1912 16.6666Z" fill="#1C274C"/>
</svg>
