<svg width="18" height="18" viewBox="0 0 18 18" fill="none" xmlns="http://www.w3.org/2000/svg">
<path d="M3.00001 9.75C2.99828 8.2716 3.54243 6.84461 4.52809 5.74274C5.51375 4.64086 6.87152 3.94168 8.34097 3.77929C9.81043 3.61691 11.2881 4.00276 12.4906 4.86283C13.693 5.7229 14.5356 6.99665 14.8568 8.43975C15.2762 8.60883 15.6449 8.88342 15.927 9.2369C16.2091 9.59037 16.3951 10.0107 16.467 10.4572C16.489 10.2248 16.5 9.989 16.5 9.75C16.5 5.60775 13.1423 2.25 9.00001 2.25C4.85776 2.25 1.50001 5.60775 1.50001 9.75C1.4987 10.734 1.6916 11.7085 2.06766 12.6178C2.44373 13.5271 2.99555 14.3532 3.69151 15.0487C3.83204 15.1896 4.02276 15.2688 4.22171 15.269C4.42066 15.2692 4.61155 15.1904 4.75238 15.0499C4.89321 14.9093 4.97245 14.7186 4.97266 14.5197C4.97287 14.3207 4.89404 14.1298 4.75351 13.989C4.19649 13.4327 3.75484 12.7719 3.45393 12.0444C3.15301 11.317 2.99875 10.5372 3.00001 9.75ZM13.2675 8.3205C13.0516 7.67749 12.6931 7.0916 12.2189 6.60664C11.7447 6.12168 11.167 5.7502 10.5289 5.51997C9.89092 5.28975 9.2091 5.20673 8.53448 5.27713C7.85985 5.34754 7.20986 5.56953 6.63312 5.92653C6.05638 6.28352 5.5678 6.76628 5.20392 7.3387C4.84003 7.91112 4.61026 8.5584 4.53177 9.23213C4.45329 9.90587 4.52812 10.5886 4.75068 11.2294C4.97324 11.8701 5.33777 12.4522 5.81701 12.9323C5.88669 13.002 5.96942 13.0573 6.06049 13.0951C6.15155 13.1328 6.24916 13.1523 6.34774 13.1523C6.44632 13.1523 6.54394 13.133 6.63504 13.0953C6.72613 13.0576 6.8089 13.0023 6.87863 12.9326C6.94836 12.8629 7.00369 12.7802 7.04145 12.6891C7.0792 12.5981 7.09865 12.5005 7.09869 12.4019C7.09872 12.3033 7.07934 12.2057 7.04165 12.1146C7.00395 12.0235 6.94869 11.9407 6.87901 11.871C6.54952 11.5414 6.30136 11.1395 6.15422 10.6973C6.00708 10.255 5.965 9.7846 6.03132 9.32327C6.09764 8.86194 6.27053 8.42241 6.53629 8.03953C6.80204 7.65666 7.15335 7.34097 7.56235 7.11749C7.97135 6.89402 8.42679 6.76892 8.89256 6.7521C9.35833 6.73529 9.8216 6.82722 10.2457 7.02062C10.6697 7.21402 11.0429 7.50355 11.3355 7.86627C11.6282 8.22899 11.8323 8.65491 11.9318 9.11025C12.2874 8.71828 12.7526 8.44298 13.2675 8.3205ZM7.50001 9.75C7.50001 9.35218 7.65804 8.97064 7.93935 8.68934C8.22065 8.40804 8.60218 8.25 9.00001 8.25C9.39783 8.25 9.77936 8.40804 10.0607 8.68934C10.342 8.97064 10.5 9.35218 10.5 9.75C10.5 10.1478 10.342 10.5294 10.0607 10.8107C9.77936 11.092 9.39783 11.25 9.00001 11.25C8.60218 11.25 8.22065 11.092 7.93935 10.8107C7.65804 10.5294 7.50001 10.1478 7.50001 9.75ZM15.75 10.875C15.75 11.3723 15.5525 11.8492 15.2008 12.2008C14.8492 12.5525 14.3723 12.75 13.875 12.75C13.3777 12.75 12.9008 12.5525 12.5492 12.2008C12.1976 11.8492 12 11.3723 12 10.875C12 10.3777 12.1976 9.90081 12.5492 9.54917C12.9008 9.19754 13.3777 9 13.875 9C14.3723 9 14.8492 9.19754 15.2008 9.54917C15.5525 9.90081 15.75 10.3777 15.75 10.875ZM17.25 14.9062C17.25 16.0732 16.2855 17.25 13.875 17.25C11.4645 17.25 10.5 16.0778 10.5 14.9062V14.829C10.5 14.094 11.0955 13.5 11.8298 13.5H15.9203C16.6553 13.5 17.25 14.0947 17.25 14.829V14.9062Z" fill="#1C274C"/>
</svg>
