<svg width="18" height="18" viewBox="0 0 18 18" fill="none" xmlns="http://www.w3.org/2000/svg">
<g clip-path="url(#clip0_2096_5742)">
<path d="M17.4939 11.9782L15.0247 9.51169C14.6965 9.18354 14.2508 9.00033 13.7859 9.00033H11.6174C11.1334 9.00033 10.7424 9.39137 10.7424 9.87538V12.0411C10.7424 12.506 10.9256 12.949 11.2537 13.2771L13.723 15.7437C14.0648 16.0855 14.6199 16.0855 14.9618 15.7437L17.4912 13.2142C17.8357 12.8724 17.8357 12.32 17.4939 11.9782ZM12.4952 11.404C12.1315 11.404 11.8389 11.1114 11.8389 10.7477C11.8389 10.384 12.1315 10.0914 12.4952 10.0914C12.8589 10.0914 13.1515 10.384 13.1515 10.7477C13.1515 11.1087 12.8589 11.404 12.4952 11.404ZM6.37534 8.99759C8.30865 8.99759 9.87554 7.43071 9.87554 5.4974C9.87554 3.56682 8.30865 1.99994 6.37534 1.99994C4.44203 1.99994 2.87515 3.56682 2.87515 5.50013C2.87515 7.43071 4.44203 8.99759 6.37534 8.99759ZM9.87007 12.0384V10.0394C9.53645 9.94101 9.18917 9.86991 8.82548 9.86991H8.36881C7.76175 10.1488 7.08632 10.3074 6.37534 10.3074C5.66436 10.3074 4.99167 10.1488 4.38187 9.86991H3.9252C1.89619 9.87264 0.25 11.5188 0.25 13.5478V14.6854C0.25 15.4101 0.837923 15.998 1.56257 15.998H11.1881C11.612 15.998 11.9839 15.7929 12.2245 15.4812L10.6385 13.8951C10.1435 13.4002 9.87007 12.7412 9.87007 12.0384Z" fill="#1C274C"/>
</g>
<defs>
<clipPath id="clip0_2096_5742">
<rect width="18" height="18" fill="white"/>
</clipPath>
</defs>
</svg>
