<svg width="18" height="18" viewBox="0 0 18 18" fill="none" xmlns="http://www.w3.org/2000/svg">
<path d="M2.25 15.75C1.8375 15.75 1.4845 15.6033 1.191 15.3097C0.8975 15.0162 0.7505 14.663 0.75 14.25V5.25C0.75 5.0375 0.822 4.8595 0.966 4.716C1.11 4.5725 1.288 4.5005 1.5 4.5C1.712 4.4995 1.89025 4.5715 2.03475 4.716C2.17925 4.8605 2.251 5.0385 2.25 5.25V14.25H14.25C14.4625 14.25 14.6407 14.322 14.7847 14.466C14.9287 14.61 15.0005 14.788 15 15C14.9995 15.212 14.9275 15.3902 14.784 15.5347C14.6405 15.6792 14.4625 15.751 14.25 15.75H2.25ZM5.25 12.75C4.8375 12.75 4.4845 12.6033 4.191 12.3097C3.8975 12.0162 3.7505 11.663 3.75 11.25V3C3.75 2.5875 3.897 2.2345 4.191 1.941C4.485 1.6475 4.838 1.5005 5.25 1.5H8.38125C8.58125 1.5 8.772 1.5375 8.9535 1.6125C9.135 1.6875 9.29425 1.79375 9.43125 1.93125L10.5 3H15.75C16.1625 3 16.5157 3.147 16.8097 3.441C17.1038 3.735 17.2505 4.088 17.25 4.5V11.25C17.25 11.6625 17.1033 12.0157 16.8097 12.3097C16.5162 12.6038 16.163 12.7505 15.75 12.75H5.25ZM9.9375 8.625L9.075 7.5C9 7.4 8.9 7.35 8.775 7.35C8.65 7.35 8.55 7.4 8.475 7.5L7.21875 9.15C7.11875 9.275 7.103 9.40625 7.1715 9.54375C7.24 9.68125 7.35575 9.75 7.51875 9.75H13.4813C13.6438 9.75 13.7593 9.68125 13.8278 9.54375C13.8962 9.40625 13.8807 9.275 13.7812 9.15L11.9625 6.76875C11.8875 6.66875 11.7875 6.61875 11.6625 6.61875C11.5375 6.61875 11.4375 6.66875 11.3625 6.76875L9.9375 8.625Z" fill="#1C274C"/>
</svg>
