<svg width="18" height="18" viewBox="0 0 18 18" fill="none" xmlns="http://www.w3.org/2000/svg">
<path d="M8.24891 4.5C10.3189 4.5 11.9989 6.18 11.9989 8.25C11.9989 10.32 10.3189 12 8.24891 12C6.17891 12 4.49891 10.32 4.49891 8.25C4.49891 6.18 6.17891 4.5 8.24891 4.5ZM8.24891 0.75L10.0414 3.315C9.48641 3.1125 8.87891 3 8.24891 3C7.61891 3 7.01141 3.1125 6.45641 3.315L8.24891 0.75ZM1.75391 4.5L4.87391 4.2375C4.40842 4.63068 4.01283 5.0998 3.70391 5.625C3.37391 6.18 3.18641 6.75 3.08141 7.3425L1.75391 4.5ZM1.76891 12L3.08891 9.1725C3.30932 10.3819 3.93969 11.4784 4.87391 12.2775L1.76891 12ZM14.7364 4.5L13.4089 7.3425C13.1967 6.12801 12.565 5.0265 11.6239 4.23L14.7364 4.5ZM17.2489 9.75H15.7489C15.7489 11.2875 15.1639 12.825 13.9939 13.995C13.4373 14.5533 12.7756 14.9959 12.047 15.2971C11.3184 15.5983 10.5373 15.7523 9.74891 15.75V17.25C11.6689 17.25 13.5889 16.5 15.0514 15.0525C16.5139 13.605 17.2489 11.67 17.2489 9.75ZM14.2489 9.75H12.7489C12.7489 10.5 12.4564 11.2875 11.8714 11.8725C11.2864 12.4575 10.4989 12.75 9.74891 12.75V14.25C10.3401 14.251 10.9257 14.1353 11.4721 13.9095C12.0186 13.6837 12.515 13.3522 12.9331 12.9342C13.3512 12.5161 13.6826 12.0197 13.9084 11.4732C14.1342 10.9268 14.2499 10.3412 14.2489 9.75Z" fill="#1C274C"/>
</svg>
