<svg width="20" height="20" viewBox="0 0 20 20" fill="none" xmlns="http://www.w3.org/2000/svg">
<path d="M16.7446 11.9384L16.9055 10.3601C16.9913 9.51758 17.0471 8.96175 17.003 8.61091H17.0196C17.7455 8.61091 18.3346 7.98925 18.3346 7.22258C18.3346 6.45591 17.7455 5.83341 17.0188 5.83341C16.2921 5.83341 15.703 6.45508 15.703 7.22258C15.703 7.56925 15.8238 7.88675 16.023 8.13008C15.7371 8.31591 15.363 8.70925 14.7996 9.30091C14.3663 9.75675 14.1496 9.98425 13.908 10.0201C13.7737 10.0392 13.6368 10.019 13.5138 9.96175C13.2905 9.85841 13.1413 9.57675 12.8438 9.01258L11.2738 6.04175C11.0905 5.69425 10.9363 5.40341 10.7971 5.16925C11.3663 4.86258 11.7555 4.23841 11.7555 3.51925C11.7555 2.49508 10.9705 1.66675 10.0013 1.66675C9.03214 1.66675 8.24714 2.49591 8.24714 3.51841C8.24714 4.23841 8.6363 4.86258 9.20547 5.16841C9.0663 5.40341 8.91297 5.69425 8.7288 6.04175L7.15964 9.01341C6.8613 9.57675 6.71214 9.85841 6.4888 9.96258C6.36584 10.0198 6.2289 10.0401 6.09464 10.0209C5.85297 9.98508 5.6363 9.75675 5.20297 9.30091C4.63964 8.70925 4.26547 8.31591 3.97964 8.13008C4.17964 7.88675 4.29964 7.56925 4.29964 7.22175C4.29964 6.45591 3.70964 5.83341 2.98297 5.83341C2.25797 5.83341 1.66797 6.45508 1.66797 7.22258C1.66797 7.98925 2.25714 8.61091 2.9838 8.61091H2.99964C2.95464 8.96091 3.0113 9.51758 3.09714 10.3601L3.25797 11.9384C3.34714 12.8142 3.4213 13.6476 3.51297 14.3984H16.4896C16.5813 13.6484 16.6555 12.8142 16.7446 11.9384ZM9.04713 18.3334H10.9555C13.443 18.3334 14.6871 18.3334 15.5171 17.5501C15.8788 17.2067 16.1088 16.5901 16.2738 15.7867H3.7288C3.8938 16.5901 4.12297 17.2067 4.48547 17.5492C5.31547 18.3334 6.55964 18.3334 9.04713 18.3334Z" fill="#1C274C"/>
</svg>
