<svg width="18" height="18" viewBox="0 0 18 18" fill="none" xmlns="http://www.w3.org/2000/svg">
<g clip-path="url(#clip0_2096_5757)">
<path d="M13.7256 7.20005H9.45064V8.77505C9.45064 9.89161 8.5422 10.8001 7.42564 10.8001C6.30908 10.8001 5.40064 9.89161 5.40064 8.77505V5.35505L3.57533 6.45193C3.03252 6.77536 2.70064 7.36318 2.70064 7.99318V9.32349L0.450641 10.6229C0.020329 10.8704 -0.128734 11.4216 0.121579 11.8519L2.37158 15.7501C2.61908 16.1804 3.17033 16.3266 3.60064 16.0791L6.50877 14.4001H10.3506C11.3435 14.4001 12.1506 13.5929 12.1506 12.6H12.6006C13.0985 12.6 13.5006 12.1979 13.5006 11.7001V9.90005H13.7256C14.0997 9.90005 14.4006 9.59911 14.4006 9.22505V7.87505C14.4006 7.50099 14.0997 7.20005 13.7256 7.20005ZM17.8797 6.14818L15.6297 2.25005C15.3822 1.81974 14.831 1.67349 14.4006 1.92099L11.4925 3.60005H8.61814C8.28064 3.60005 7.95158 3.69568 7.6647 3.87286L6.72252 4.46068C6.45814 4.6238 6.30064 4.91349 6.30064 5.22286V8.77505C6.30064 9.39661 6.80408 9.90005 7.42564 9.90005C8.0472 9.90005 8.55064 9.39661 8.55064 8.77505V6.30005H13.7256C14.5947 6.30005 15.3006 7.00599 15.3006 7.87505V8.67661L17.5506 7.37724C17.981 7.12693 18.1272 6.57849 17.8797 6.14818Z" fill="#1C274C"/>
</g>
<defs>
<clipPath id="clip0_2096_5757">
<rect width="18" height="18" fill="white"/>
</clipPath>
</defs>
</svg>
