<svg width="20" height="20" viewBox="0 0 20 20" fill="none" xmlns="http://www.w3.org/2000/svg">
<path d="M13.081 9.23229C12.146 8.11447 11.679 7.55555 11.1409 7.64081C10.6038 7.72702 10.3528 8.4015 9.85071 9.75046L9.71998 10.0991C9.57788 10.4827 9.50589 10.6741 9.36663 10.8152C9.22833 10.9564 9.03697 11.0312 8.65616 11.1809L8.30849 11.3164C6.96616 11.8421 6.29452 12.1055 6.21779 12.6426C6.14106 13.1797 6.71039 13.6363 7.8481 14.5476L8.14177 14.7844C8.46575 15.0431 8.62774 15.1728 8.72057 15.35C8.8153 15.5271 8.82951 15.7327 8.85888 16.1429L8.88635 16.5161C8.99055 17.9589 9.0436 18.6807 9.53336 18.927C10.0231 19.1733 10.6266 18.7802 11.8325 17.9958L12.1441 17.7921C12.4871 17.5695 12.6585 17.4577 12.8546 17.4255C13.0517 17.3943 13.2525 17.4464 13.6513 17.5506L14.016 17.6453C15.4228 18.011 16.1266 18.1947 16.5065 17.8092C16.8864 17.4236 16.6893 16.7255 16.2971 15.3273L16.1948 14.9673C16.084 14.5694 16.0281 14.3705 16.0556 14.1744C16.084 13.9773 16.1929 13.8049 16.4099 13.4582L16.6088 13.1437C17.3733 11.9264 17.755 11.3183 17.4993 10.8342C17.2444 10.3501 16.5207 10.3103 15.0723 10.2326L14.6971 10.2118C14.286 10.19 14.0795 10.1786 13.9004 10.0887C13.7205 9.99866 13.5878 9.83951 13.3226 9.52122L13.081 9.23229Z" fill="#1C274C"/>
<path d="M12.7231 4.00104L12.8964 4.49553C13.0868 5.03834 13.1825 5.31022 13.3672 5.50915C13.5529 5.70998 13.8068 5.81608 14.3155 6.02733L14.7787 6.22058C16.5691 6.96516 17.4643 7.3384 17.5657 8.09908C17.6083 8.41548 17.5022 8.71294 17.2531 9.0445C17.1735 9.02294 17.0933 9.00398 17.0125 8.98766C16.5142 8.8863 15.8804 8.85219 15.2344 8.81714L14.7702 8.79251L14.5523 8.7802L14.4093 8.60968L14.1099 8.25255C13.6931 7.75237 13.2858 7.26451 12.9049 6.92537C12.5004 6.5635 11.8241 6.09174 10.9128 6.23763C9.99198 6.38541 9.50127 7.05515 9.23603 7.5326C8.99067 7.97594 8.76995 8.56895 8.54639 9.16859L8.38534 9.60246L8.31714 9.78529C8.26662 9.80424 8.20567 9.82823 8.13431 9.85728L7.70234 10.0259C7.10553 10.2599 6.51536 10.4901 6.07581 10.743C5.60405 11.0149 4.93905 11.517 4.80737 12.4415C4.67759 13.3576 5.16545 14.0264 5.53395 14.4233C5.80867 14.7179 6.17907 15.0296 6.5741 15.3498C5.08777 15.7524 4.29772 15.903 3.8487 15.418C3.34283 14.8723 3.60429 13.8833 4.12815 11.9035L4.26267 11.3919C4.4114 10.8283 4.48623 10.5479 4.44929 10.2684C4.4114 9.98991 4.26646 9.74456 3.97658 9.2548L3.71323 8.80956C2.69298 7.08452 2.18333 6.22247 2.52247 5.53567C2.8635 4.84983 3.8288 4.79393 5.76036 4.6831L6.25959 4.65468C6.80903 4.62247 7.0828 4.60731 7.32247 4.47943C7.56119 4.35154 7.73833 4.12703 8.09263 3.67611L8.41471 3.26688C9.66137 1.68203 10.2847 0.890086 11.0009 1.01229C11.717 1.13449 12.0524 2.08938 12.7221 4.00009" fill="#1C274C"/>
</svg>
