<svg width="18" height="18" viewBox="0 0 18 18" fill="none" xmlns="http://www.w3.org/2000/svg">
<g clip-path="url(#clip0_2096_5734)">
<path d="M11.9485 13.905C11.8736 13.7213 11.7289 13.5747 11.5462 13.4974C11.3634 13.42 11.1575 13.4183 10.9735 13.4925C9.70978 13.9986 8.29969 13.9986 7.03598 13.4925C6.94488 13.4551 6.8473 13.436 6.7488 13.4362C6.65031 13.4365 6.55284 13.4562 6.46195 13.4942C6.37107 13.5321 6.28855 13.5876 6.21911 13.6575C6.14967 13.7273 6.09466 13.8101 6.05723 13.9012C6.01981 13.9924 6.00069 14.0899 6.00098 14.1884C6.00126 14.2869 6.02095 14.3844 6.0589 14.4753C6.09686 14.5662 6.15234 14.6487 6.22219 14.7181C6.29204 14.7876 6.37488 14.8426 6.46598 14.88C8.09178 15.5388 9.91019 15.5388 11.536 14.88C11.7197 14.8051 11.8663 14.6604 11.9436 14.4777C12.0209 14.295 12.0227 14.089 11.9485 13.905ZM11.956 4.2825C12.6636 4.76435 13.2426 5.41193 13.6426 6.16882C14.0426 6.9257 14.2515 7.76892 14.251 8.625C14.2493 8.84548 14.2368 9.06574 14.2135 9.285C14.2017 9.38349 14.2094 9.48335 14.2361 9.57886C14.2629 9.67438 14.3082 9.76369 14.3695 9.84169C14.4308 9.91969 14.5069 9.98486 14.5933 10.0335C14.6798 10.0821 14.775 10.1132 14.8735 10.125C14.972 10.1368 15.0718 10.1291 15.1673 10.1024C15.2629 10.0756 15.3522 10.0303 15.4302 9.96897C15.5082 9.90768 15.5733 9.83163 15.622 9.74516C15.6706 9.65869 15.7017 9.56349 15.7135 9.465C15.7456 9.18622 15.7581 8.90553 15.751 8.625C15.7515 7.52515 15.4832 6.44185 14.9695 5.46934C14.4558 4.49683 13.7122 3.66458 12.8035 3.045C12.7223 2.98791 12.6305 2.94751 12.5336 2.92614C12.4367 2.90478 12.3365 2.90286 12.2388 2.92052C12.1411 2.93817 12.0479 2.97504 11.9646 3.02898C11.8812 3.08293 11.8094 3.15288 11.7534 3.23478C11.6973 3.31668 11.658 3.4089 11.6378 3.50609C11.6176 3.60328 11.617 3.70351 11.6358 3.80097C11.6546 3.89843 11.6927 3.99117 11.7476 4.07383C11.8026 4.15649 11.8734 4.22742 11.956 4.2825ZM3.13598 10.1175C3.33267 10.0931 3.51172 9.99185 3.63398 9.83586C3.75624 9.67987 3.81179 9.48182 3.78848 9.285C3.77772 9.06513 3.77772 8.84487 3.78848 8.625C3.7838 7.77226 3.98692 6.93121 4.38025 6.17459C4.77359 5.41797 5.34531 4.76856 6.04598 4.2825C6.12856 4.22742 6.19939 4.15649 6.25435 4.07383C6.30931 3.99117 6.34732 3.89843 6.36617 3.80097C6.38502 3.70351 6.38433 3.60328 6.36415 3.50609C6.34397 3.4089 6.3047 3.31668 6.24861 3.23478C6.19252 3.15288 6.12073 3.08293 6.03741 3.02898C5.95408 2.97504 5.86087 2.93817 5.76319 2.92052C5.66551 2.90286 5.56529 2.90478 5.46836 2.92614C5.37142 2.94751 5.27969 2.98791 5.19848 3.045C4.28976 3.66458 3.54619 4.49683 3.03249 5.46934C2.51879 6.44185 2.2505 7.52515 2.25098 8.625C2.2488 8.90588 2.26634 9.18657 2.30348 9.465C2.32787 9.66169 2.42913 9.84073 2.58512 9.963C2.74111 10.0853 2.93916 10.1408 3.13598 10.1175ZM11.7535 7.125C11.782 7.12589 11.8103 7.12027 11.8363 7.10858C11.8623 7.09688 11.8853 7.07941 11.9035 7.0575C11.9202 7.03524 11.9322 7.00976 11.9387 6.98266C11.9451 6.95556 11.9459 6.92742 11.941 6.9C11.7894 6.22596 11.4132 5.62349 10.874 5.19152C10.3349 4.75955 9.66484 4.52377 8.97398 4.5229C8.28312 4.52203 7.61249 4.75611 7.07224 5.18672C6.53199 5.61732 6.15422 6.21884 6.00098 6.8925C5.9884 6.91818 5.98186 6.9464 5.98186 6.975C5.98186 7.0036 5.9884 7.03182 6.00098 7.0575C6.03791 7.09766 6.08902 7.12186 6.14348 7.125H11.7535ZM7.12598 1.875C7.12598 2.37228 7.32353 2.84919 7.67516 3.20083C8.02679 3.55246 8.5037 3.75 9.00098 3.75C9.49827 3.75 9.97518 3.55246 10.3268 3.20083C10.6784 2.84919 10.876 2.37228 10.876 1.875C10.876 1.37772 10.6784 0.900805 10.3268 0.549175C9.97518 0.197544 9.49827 0 9.00098 0C8.5037 0 8.02679 0.197544 7.67516 0.549175C7.32353 0.900805 7.12598 1.37772 7.12598 1.875ZM15.001 15.375C14.3013 15.3695 13.6211 15.6051 13.0747 16.0422C12.5283 16.4793 12.1492 17.0912 12.001 17.775C11.9955 17.8019 11.996 17.8298 12.0024 17.8565C12.0089 17.8832 12.0211 17.9082 12.0383 17.9297C12.0555 17.9511 12.0771 17.9686 12.1018 17.9807C12.1265 17.9929 12.1535 17.9995 12.181 18H17.776C17.8327 17.9972 17.8863 17.9731 17.926 17.9325C17.9371 17.9064 17.9429 17.8784 17.9429 17.85C17.9429 17.8216 17.9371 17.7936 17.926 17.7675C17.7791 17.0976 17.4104 16.4969 16.8795 16.0626C16.3486 15.6284 15.6867 15.3861 15.001 15.375ZM13.1485 12.75C13.1485 13.2473 13.346 13.7242 13.6977 14.0758C14.0493 14.4275 14.5262 14.625 15.0235 14.625C15.5208 14.625 15.9977 14.4275 16.3493 14.0758C16.7009 13.7242 16.8985 13.2473 16.8985 12.75C16.8985 12.2527 16.7009 11.7758 16.3493 11.4242C15.9977 11.0725 15.5208 10.875 15.0235 10.875C14.5262 10.875 14.0493 11.0725 13.6977 11.4242C13.346 11.7758 13.1485 12.2527 13.1485 12.75ZM3.00098 15.375C2.30131 15.3695 1.62108 15.6051 1.07471 16.0422C0.528342 16.4793 0.149173 17.0912 0.000983752 17.775C-0.00996828 17.7998 -0.015625 17.8266 -0.015625 17.8538C-0.015625 17.8809 -0.00996828 17.9077 0.000983752 17.9325C0.0251883 17.9677 0.0606866 17.9936 0.101603 18.0059C0.142519 18.0181 0.186401 18.0161 0.225984 18H5.81348C5.8424 18.0008 5.87111 17.995 5.89739 17.9829C5.92366 17.9708 5.94678 17.9528 5.96494 17.9303C5.98309 17.9078 5.9958 17.8814 6.00205 17.8531C6.0083 17.8249 6.00794 17.7956 6.00098 17.7675C5.85002 17.0857 5.46986 16.4763 4.92392 16.0409C4.37798 15.6055 3.69926 15.3705 3.00098 15.375ZM1.17848 12.75C1.17848 13.2473 1.37603 13.7242 1.72766 14.0758C2.07929 14.4275 2.5562 14.625 3.05348 14.625C3.55076 14.625 4.02768 14.4275 4.37931 14.0758C4.73094 13.7242 4.92848 13.2473 4.92848 12.75C4.92848 12.2527 4.73094 11.7758 4.37931 11.4242C4.02768 11.0725 3.55076 10.875 3.05348 10.875C2.5562 10.875 2.07929 11.0725 1.72766 11.4242C1.37603 11.7758 1.17848 12.2527 1.17848 12.75Z" fill="#1C274C"/>
</g>
<defs>
<clipPath id="clip0_2096_5734">
<rect width="18" height="18" fill="white"/>
</clipPath>
</defs>
</svg>
