<svg width="18" height="18" viewBox="0 0 18 18" fill="none" xmlns="http://www.w3.org/2000/svg">
<g clip-path="url(#clip0_2096_5765)">
<path fill-rule="evenodd" clip-rule="evenodd" d="M7.995 0.14475C7.82475 0.21075 7.63125 0.347625 7.41863 0.5925C7.09238 0.96825 6.77288 1.5435 6.49313 2.2995C6.195 3.10462 5.95463 4.0815 5.79488 5.172H10.7048C10.545 4.0815 10.3043 3.10462 10.0065 2.2995C9.72675 1.5435 9.40725 0.96825 9.081 0.5925C8.86838 0.347625 8.6745 0.21075 8.50463 0.14475C8.33467 0.139494 8.16496 0.139494 7.995 0.14475ZM4.65825 5.172H0.745126C1.69875 2.85 3.69825 1.06837 6.1575 0.41325C5.88525 0.841875 5.64525 1.34888 5.43788 1.90913C5.09475 2.83687 4.82738 3.948 4.65863 5.17163M0.377251 10.203H4.53375C4.47939 9.55342 4.45236 8.90185 4.45275 8.25C4.45275 7.5825 4.48088 6.9285 4.53413 6.297H0.377251C0.219686 6.93604 0.14023 7.59183 0.140626 8.25C0.140626 8.9235 0.222751 9.5775 0.377251 10.203ZM4.65788 11.328C4.75875 12.063 4.89525 12.7568 5.06213 13.3954V15.7091C3.10531 14.8697 1.55547 13.2967 0.745126 11.3276L4.65788 11.328ZM11.0618 1.90913C10.8544 1.34888 10.614 0.841875 10.3418 0.412875C12.8018 1.068 14.8013 2.84963 15.7545 5.17163H11.841C11.6723 3.948 11.4049 2.83687 11.0618 1.90913ZM16.1228 6.29663H11.9655C12.0086 6.81 12.0353 7.33762 12.0435 7.87537C12.4255 7.87991 12.8044 7.94523 13.1659 8.06888C13.7149 8.25638 14.5879 8.57288 15.7849 9.05888C15.9644 9.13188 16.1348 9.20187 16.296 9.26888C16.4206 8.276 16.3619 7.2683 16.1228 6.29663ZM10.8364 6.297C10.8874 6.87691 10.9156 7.45862 10.9208 8.04075L10.8338 8.06925C10.2844 8.25675 9.41138 8.57325 8.21475 9.05925C7.4685 9.36263 6.88275 9.61537 6.43313 9.81825C6.21546 9.91613 6.01362 10.0459 5.83425 10.2034H5.66288C5.60573 9.55382 5.57733 8.90206 5.57775 8.25C5.57775 7.57762 5.60775 6.92362 5.66325 6.297H10.8364ZM11.1979 8.94637C11.7179 8.76818 12.2825 8.76818 12.8025 8.94637C13.3313 9.12712 14.1844 9.43575 15.3619 9.91388C15.9473 10.1505 16.5283 10.398 17.1045 10.6564C17.5493 10.857 17.8133 11.2684 17.8133 11.715C17.8133 12.1616 17.5493 12.573 17.1045 12.7736C16.5283 13.0318 15.9473 13.2793 15.3619 13.5157C14.1844 13.9943 13.3313 14.3029 12.8025 14.4833C12.2824 14.6615 11.7176 14.6615 11.1975 14.4833C10.6691 14.3029 9.816 13.9943 8.6385 13.5157C8.19411 13.3357 7.75208 13.15 7.3125 12.9585V16.2375C7.3125 16.3867 7.25324 16.5298 7.14775 16.6352C7.04226 16.7407 6.89919 16.8 6.75 16.8C6.60082 16.8 6.45774 16.7407 6.35225 16.6352C6.24677 16.5298 6.1875 16.3867 6.1875 16.2375V11.7551L6.18675 11.7146C6.18675 11.268 6.45113 10.8566 6.8955 10.656C7.47182 10.3976 8.05292 10.1501 8.6385 9.9135C9.816 9.43538 10.6691 9.12712 11.1979 8.94637ZM10.8341 15.5475C10.2904 15.3619 9.429 15.0499 8.25 14.5718C8.25188 15.3008 8.28975 15.7792 8.33063 16.0868C8.35749 16.3005 8.43598 16.5046 8.55933 16.6812C8.68268 16.8579 8.84718 17.0019 9.03863 17.1007C9.55013 17.3651 10.5109 17.7146 12 17.7146C13.4891 17.7146 14.4495 17.3651 14.9614 17.1007C15.1528 17.0018 15.3173 16.8577 15.4405 16.681C15.5638 16.5043 15.6422 16.3002 15.669 16.0864C15.7103 15.7793 15.7478 15.3008 15.75 14.5721C14.571 15.0503 13.71 15.3619 13.1663 15.5475C12.4088 15.8062 11.5913 15.8062 10.8338 15.5475" fill="#1C274C"/>
</g>
<defs>
<clipPath id="clip0_2096_5765">
<rect width="18" height="18" fill="white"/>
</clipPath>
</defs>
</svg>
