<svg width="20" height="20" viewBox="0 0 20 20" fill="none" xmlns="http://www.w3.org/2000/svg">
<path fill-rule="evenodd" clip-rule="evenodd" d="M3.33464 3.33325C2.89261 3.33325 2.46868 3.50885 2.15612 3.82141C1.84356 4.13397 1.66797 4.55789 1.66797 4.99992V14.9999C1.66797 15.4419 1.84356 15.8659 2.15612 16.1784C2.46868 16.491 2.89261 16.6666 3.33464 16.6666H16.668C17.11 16.6666 17.5339 16.491 17.8465 16.1784C18.159 15.8659 18.3346 15.4419 18.3346 14.9999V4.99992C18.3346 4.55789 18.159 4.13397 17.8465 3.82141C17.5339 3.50885 17.11 3.33325 16.668 3.33325H3.33464ZM11.668 7.49992C11.668 7.2789 11.7558 7.06694 11.912 6.91066C12.0683 6.75438 12.2803 6.66659 12.5013 6.66659H15.0013C15.2223 6.66659 15.4343 6.75438 15.5906 6.91066C15.7468 7.06694 15.8346 7.2789 15.8346 7.49992C15.8346 7.72093 15.7468 7.93289 15.5906 8.08917C15.4343 8.24545 15.2223 8.33325 15.0013 8.33325H12.5013C12.2803 8.33325 12.0683 8.24545 11.912 8.08917C11.7558 7.93289 11.668 7.72093 11.668 7.49992ZM11.668 9.99992C11.668 9.7789 11.7558 9.56694 11.912 9.41066C12.0683 9.25438 12.2803 9.16658 12.5013 9.16658H15.0013C15.2223 9.16658 15.4343 9.25438 15.5906 9.41066C15.7468 9.56694 15.8346 9.7789 15.8346 9.99992C15.8346 10.2209 15.7468 10.4329 15.5906 10.5892C15.4343 10.7455 15.2223 10.8333 15.0013 10.8333H12.5013C12.2803 10.8333 12.0683 10.7455 11.912 10.5892C11.7558 10.4329 11.668 10.2209 11.668 9.99992ZM11.668 12.4999C11.668 12.2789 11.7558 12.0669 11.912 11.9107C12.0683 11.7544 12.2803 11.6666 12.5013 11.6666H15.0013C15.2223 11.6666 15.4343 11.7544 15.5906 11.9107C15.7468 12.0669 15.8346 12.2789 15.8346 12.4999C15.8346 12.7209 15.7468 12.9329 15.5906 13.0892C15.4343 13.2455 15.2223 13.3333 15.0013 13.3333H12.5013C12.2803 13.3333 12.0683 13.2455 11.912 13.0892C11.7558 12.9329 11.668 12.7209 11.668 12.4999ZM5.0013 8.33325C5.0013 7.67021 5.26469 7.03433 5.73354 6.56549C6.20238 6.09664 6.83826 5.83325 7.5013 5.83325C8.16434 5.83325 8.80023 6.09664 9.26907 6.56549C9.73791 7.03433 10.0013 7.67021 10.0013 8.33325C10.0013 8.99629 9.73791 9.63218 9.26907 10.101C8.80023 10.5699 8.16434 10.8333 7.5013 10.8333C6.83826 10.8333 6.20238 10.5699 5.73354 10.101C5.26469 9.63218 5.0013 8.99629 5.0013 8.33325ZM6.61964 11.6666C6.09483 11.6664 5.58327 11.8314 5.15745 12.1381C4.73163 12.4449 4.41315 12.8779 4.24714 13.3758L4.21047 13.4866L4.20714 13.4966C4.17214 13.6016 4.1613 13.6358 4.17214 13.6591C4.17714 13.6699 4.1888 13.6783 4.2038 13.6916C4.23047 13.7124 4.27047 13.7449 4.32547 13.8208C4.40268 13.9278 4.50422 14.015 4.62172 14.0751C4.73921 14.1352 4.86931 14.1666 5.0013 14.1666H10.0013C10.1333 14.1666 10.2634 14.1352 10.3809 14.0751C10.4984 14.015 10.5999 13.9278 10.6771 13.8208C10.7109 13.7717 10.7519 13.7282 10.7988 13.6916C10.8146 13.6783 10.8246 13.6699 10.8305 13.6583C10.8421 13.6358 10.8305 13.6016 10.7955 13.4966L10.7921 13.4866L10.7555 13.3758C10.5895 12.878 10.2711 12.4451 9.84549 12.1384C9.41984 11.8316 8.90847 11.6666 8.3838 11.6666H6.61964Z" fill="#1C274C"/>
</svg>
