<svg width="32" height="32" viewBox="0 0 32 32" fill="none" xmlns="http://www.w3.org/2000/svg">
<path fill-rule="evenodd" clip-rule="evenodd" d="M15.3346 4C16.6455 3.99966 17.9203 4.4286 18.9643 5.22124C20.0084 6.01389 20.7641 7.12662 21.116 8.38933L21.1853 8.66267L23.6786 8.04C23.8609 7.99464 24.0506 7.98829 24.2355 8.02136C24.4204 8.05444 24.5962 8.1262 24.7514 8.23194C24.9066 8.33767 25.0377 8.47501 25.1362 8.63494C25.2346 8.79487 25.2981 8.9738 25.3226 9.16L25.3346 9.33333V11.7467C26.0867 12.467 26.7028 13.3171 27.1533 14.256L27.3373 14.6667H28.0013C28.3279 14.6667 28.6431 14.7866 28.8871 15.0036C29.1312 15.2206 29.2871 15.5197 29.3253 15.844L29.3346 16V20C29.3347 20.2195 29.2805 20.4355 29.177 20.629C29.0735 20.8226 28.9239 20.9875 28.7413 21.1093L28.5973 21.192L27.04 21.972C26.4035 23.2062 25.4798 24.2694 24.3466 25.072L24.0013 25.304V26.6667C24.0013 26.9932 23.8814 27.3084 23.6643 27.5525C23.4473 27.7965 23.1483 27.9525 22.824 27.9907L22.668 28H18.668C18.3414 28 18.0262 27.8801 17.7821 27.663C17.5381 27.446 17.3822 27.147 17.344 26.8227L17.3346 26.6667H16.0013C16.0013 26.9932 15.8814 27.3084 15.6643 27.5525C15.4473 27.7965 15.1483 27.9525 14.824 27.9907L14.668 28H10.668C10.3414 28 10.0262 27.8801 9.78214 27.663C9.53809 27.446 9.38218 27.147 9.34397 26.8227L9.33463 26.6667V25.304C8.37102 24.6886 7.53869 23.8887 6.8856 22.9502C6.23251 22.0118 5.77156 20.9534 5.5293 19.836C4.74288 19.6023 4.04732 19.1325 3.53691 18.4902C3.02651 17.8479 2.72595 17.0642 2.67597 16.2453L2.66797 16V15.3333C2.66835 14.9935 2.79847 14.6666 3.03177 14.4195C3.26506 14.1724 3.58391 14.0237 3.92316 14.0038C4.26242 13.9839 4.59647 14.0942 4.85708 14.3124C5.11768 14.5305 5.28516 14.8399 5.3253 15.1773L5.33464 15.3333V16C5.33641 16.1991 5.37641 16.3836 5.45464 16.5533C5.65783 15.3528 6.11169 14.2086 6.78665 13.1953C7.46161 12.1819 8.34252 11.3222 9.37197 10.672C9.27737 9.83265 9.36105 8.98278 9.61755 8.17799C9.87405 7.37321 10.2976 6.63166 10.8604 6.00185C11.4233 5.37203 12.1128 4.86816 12.8838 4.52319C13.6548 4.17823 14.49 3.99994 15.3346 4ZM21.3346 14.6667C20.981 14.6667 20.6419 14.8071 20.3918 15.0572C20.1418 15.3072 20.0013 15.6464 20.0013 16C20.0013 16.3536 20.1418 16.6928 20.3918 16.9428C20.6419 17.1929 20.981 17.3333 21.3346 17.3333C21.6883 17.3333 22.0274 17.1929 22.2774 16.9428C22.5275 16.6928 22.668 16.3536 22.668 16C22.668 15.6464 22.5275 15.3072 22.2774 15.0572C22.0274 14.8071 21.6883 14.6667 21.3346 14.6667ZM15.3346 6.66667C14.527 6.66666 13.7469 6.95987 13.1392 7.49179C12.5315 8.02371 12.1376 8.75817 12.0306 9.55867C12.6767 9.40839 13.338 9.33278 14.0013 9.33333H18.504L18.5973 9.31067C18.4392 8.56261 18.0287 7.89165 17.4347 7.41027C16.8407 6.92889 16.0992 6.66635 15.3346 6.66667Z" fill="#1C274C"/>
</svg>
