<svg width="20" height="20" viewBox="0 0 20 20" fill="none" xmlns="http://www.w3.org/2000/svg">
<path d="M5.21536 17.8233H4.9987C4.21286 17.8233 3.82036 17.8233 3.5762 17.5791C3.33203 17.3366 3.33203 16.9433 3.33203 16.1575V15.2308C3.33203 14.7991 3.33203 14.5833 3.44286 14.39C3.5537 14.1966 3.7212 14.1 4.0562 13.905C6.2612 12.6225 9.39203 11.9008 11.4812 13.1467C11.6218 13.2305 11.7468 13.3328 11.8562 13.4533C11.9683 13.5759 12.0547 13.7197 12.1103 13.8762C12.1658 14.0328 12.1894 14.1989 12.1796 14.3647C12.1698 14.5305 12.1269 14.6927 12.0533 14.8416C11.9797 14.9905 11.877 15.1231 11.7512 15.2316C11.651 15.3268 11.5287 15.3955 11.3954 15.4316C11.4954 15.42 11.5912 15.4069 11.6829 15.3925C12.442 15.2717 13.0795 14.865 13.6629 14.4242L15.1695 13.2867C15.4385 13.0915 15.7622 12.9864 16.0945 12.9864C16.4268 12.9864 16.7506 13.0915 17.0195 13.2867C17.497 13.6475 17.6437 14.2417 17.3412 14.7267C16.9887 15.2917 16.492 16.0141 16.0154 16.4558C15.5387 16.8975 14.827 17.2925 14.247 17.5725C13.6037 17.8833 12.8937 18.0616 12.1712 18.1791C10.7062 18.4158 9.17953 18.3792 7.72953 18.0808C6.9023 17.9105 6.05994 17.8237 5.21536 17.8233ZM5.48703 2.15498C5.1812 2.46082 5.06703 2.88248 5.02453 3.54165C5.51302 3.53496 5.97962 3.33788 6.32499 2.99235C6.67036 2.64683 6.86723 2.18015 6.8737 1.69165C6.21536 1.73498 5.79286 1.84915 5.48703 2.15498ZM14.5104 2.15498C14.2045 1.84915 13.7829 1.73498 13.1237 1.69248C13.1304 2.18098 13.3275 2.64757 13.673 2.99294C14.0185 3.33831 14.4852 3.53518 14.9737 3.54165C14.9304 2.88332 14.8162 2.46082 14.5104 2.15498ZM14.5104 7.84498C14.2045 8.15082 13.7829 8.26498 13.1237 8.30748C13.1304 7.81899 13.3275 7.3524 13.673 7.00703C14.0185 6.66166 14.4852 6.46479 14.9737 6.45832C14.9304 7.11665 14.8162 7.53915 14.5104 7.84498ZM5.48703 7.84498C5.79286 8.15082 6.21453 8.26498 6.8737 8.30748C6.86701 7.81899 6.66993 7.3524 6.3244 7.00703C5.97887 6.66166 5.51219 6.46479 5.0237 6.45832C5.06703 7.11665 5.1812 7.53915 5.48703 7.84498Z" fill="#1C274C"/>
<path fill-rule="evenodd" clip-rule="evenodd" d="M5 4.79166C5.8288 4.79166 6.62366 4.46242 7.20971 3.87637C7.79576 3.29031 8.125 2.49546 8.125 1.66666H11.875C11.875 2.49546 12.2042 3.29031 12.7903 3.87637C13.3763 4.46242 14.1712 4.79166 15 4.79166V5.20832C14.1712 5.20832 13.3763 5.53756 12.7903 6.12361C12.2042 6.70967 11.875 7.50452 11.875 8.33332H8.125C8.125 7.50452 7.79576 6.70967 7.20971 6.12361C6.62366 5.53756 5.8288 5.20832 5 5.20832V4.79166ZM10 5.83332C10.221 5.83332 10.433 5.74553 10.5893 5.58925C10.7455 5.43296 10.8333 5.221 10.8333 4.99999C10.8333 4.77898 10.7455 4.56701 10.5893 4.41073C10.433 4.25445 10.221 4.16666 10 4.16666C9.77899 4.16666 9.56702 4.25445 9.41074 4.41073C9.25446 4.56701 9.16667 4.77898 9.16667 4.99999C9.16667 5.221 9.25446 5.43296 9.41074 5.58925C9.56702 5.74553 9.77899 5.83332 10 5.83332Z" fill="#1C274C"/>
</svg>
