<svg width="24" height="24" viewBox="0 0 24 24" fill="none" xmlns="http://www.w3.org/2000/svg">
<g clip-path="url(#clip0_2096_5859)">
<path fill-rule="evenodd" clip-rule="evenodd" d="M19.7073 23.2869C19.5198 23.4745 19.2655 23.5799 19.0003 23.5799H5.00032C4.7351 23.5799 4.48075 23.4746 4.29321 23.287C4.10568 23.0995 4.00032 22.8451 4.00032 22.5799C4.00032 22.3147 4.10568 22.0604 4.29321 21.8728C4.48075 21.6853 4.7351 21.5799 5.00032 21.5799H8.82032L9.35732 19.9199H3.00032C2.20467 19.9199 1.44161 19.6039 0.879 19.0412C0.31639 18.4786 0.000319904 17.7156 0.000319904 16.9199V2.99992C-0.00497452 2.66635 0.0554945 2.33501 0.178274 2.02481C0.301053 1.71462 0.483736 1.43165 0.715891 1.19206C0.948045 0.952481 1.22512 0.760977 1.5313 0.628492C1.83747 0.496006 2.16675 0.425134 2.50032 0.419922H21.5003C21.8339 0.425134 22.1632 0.496006 22.4693 0.628492C22.7755 0.760977 23.0526 0.952481 23.2847 1.19206C23.5169 1.43165 23.6996 1.71462 23.8224 2.02481C23.9451 2.33501 24.0056 2.66635 24.0003 2.99992V16.9199C24.0003 17.7156 23.6842 18.4786 23.1216 19.0412C22.559 19.6039 21.796 19.9199 21.0003 19.9199H14.6433L15.1813 21.5799H19.0003C19.1981 21.58 19.3914 21.6386 19.5558 21.7485C19.7202 21.8584 19.8483 22.0146 19.924 22.1973C19.9997 22.38 20.0195 22.581 19.9809 22.775C19.9423 22.9689 19.8471 23.1471 19.7073 23.2869ZM2.02532 2.78992C2.00211 2.85734 1.99358 2.92894 2.00032 2.99992V14.9199C2.00032 15.0525 2.053 15.1797 2.14677 15.2735C2.24053 15.3672 2.36771 15.4199 2.50032 15.4199H21.5003C21.6329 15.4199 21.7601 15.3672 21.8539 15.2735C21.9476 15.1797 22.0003 15.0525 22.0003 14.9199V2.99992C22.0058 2.92897 21.9971 2.85764 21.9749 2.79003C21.9527 2.72242 21.9174 2.65987 21.8709 2.60597C21.8244 2.55207 21.7678 2.50788 21.7042 2.47595C21.6406 2.44403 21.5713 2.42498 21.5003 2.41992H2.50032C2.39336 2.42746 2.29106 2.46668 2.20647 2.53258C2.12187 2.59847 2.05881 2.68806 2.02532 2.78992ZM4.79332 4.71292C4.98081 4.52537 5.23513 4.41998 5.50032 4.41992H10.0003C10.2655 4.41992 10.5199 4.52528 10.7074 4.71281C10.895 4.90035 11.0003 5.15471 11.0003 5.41992C11.0003 5.68514 10.895 5.93949 10.7074 6.12703C10.5199 6.31456 10.2655 6.41992 10.0003 6.41992H5.50032C5.30257 6.41988 5.10927 6.36121 4.94486 6.25132C4.78045 6.14144 4.65231 5.98528 4.57664 5.80258C4.50097 5.61988 4.48117 5.41884 4.51974 5.22489C4.5583 5.03094 4.65351 4.85277 4.79332 4.71292ZM5.50032 7.91992C5.2351 7.91992 4.98075 8.02528 4.79321 8.21282C4.60568 8.40035 4.50032 8.65471 4.50032 8.91992C4.50032 9.18514 4.60568 9.43949 4.79321 9.62703C4.98075 9.81456 5.2351 9.91992 5.50032 9.91992H10.0003C10.2655 9.91992 10.5199 9.81456 10.7074 9.62703C10.895 9.43949 11.0003 9.18514 11.0003 8.91992C11.0003 8.65471 10.895 8.40035 10.7074 8.21282C10.5199 8.02528 10.2655 7.91992 10.0003 7.91992H5.50032ZM4.79332 11.7129C4.98081 11.5254 5.23513 11.42 5.50032 11.4199H7.00032C7.26554 11.4199 7.51989 11.5253 7.70743 11.7128C7.89496 11.9004 8.00032 12.1547 8.00032 12.4199C8.00032 12.6851 7.89496 12.9395 7.70743 13.127C7.51989 13.3146 7.26554 13.4199 7.00032 13.4199H5.50032C5.30257 13.4199 5.10927 13.3612 4.94486 13.2513C4.78045 13.1414 4.65231 12.9853 4.57664 12.8026C4.50097 12.6199 4.48117 12.4188 4.51974 12.2249C4.5583 12.0309 4.65351 11.8528 4.79332 11.7129ZM16.4103 6.88992C16.621 6.88106 16.8307 6.92358 17.0213 7.01383C17.2119 7.10407 17.3777 7.23932 17.5043 7.40792C17.6663 7.61363 17.9025 7.7476 18.1622 7.78107C18.4218 7.81454 18.6843 7.74484 18.8931 7.58693C19.1019 7.42902 19.2405 7.19551 19.2791 6.93654C19.3176 6.67758 19.2531 6.41382 19.0993 6.20192C18.6672 5.62914 18.0603 5.21279 17.3703 5.01592V4.85292C17.3703 4.58771 17.265 4.33335 17.0774 4.14581C16.8899 3.95828 16.6355 3.85292 16.3703 3.85292C16.1051 3.85292 15.8507 3.95828 15.6632 4.14581C15.4757 4.33335 15.3703 4.58771 15.3703 4.85292V5.02892C14.9533 5.14692 14.5703 5.33792 14.2443 5.58992C13.6743 6.03192 13.2313 6.71092 13.2313 7.53192C13.2313 8.35692 13.6793 9.03192 14.2543 9.46592C14.8293 9.89992 15.5803 10.1409 16.3703 10.1409C16.7703 10.1409 17.0903 10.2619 17.2863 10.4079C17.4803 10.5519 17.5093 10.6779 17.5093 10.7409C17.5093 10.8049 17.4783 10.9339 17.2833 11.0809C17.0863 11.2289 16.7673 11.3509 16.3703 11.3509H16.3303C16.1198 11.3596 15.9103 11.317 15.7199 11.2268C15.5295 11.1365 15.3639 11.0014 15.2373 10.8329C15.1581 10.7281 15.0591 10.64 14.9458 10.5734C14.8326 10.5069 14.7073 10.4634 14.5772 10.4453C14.4471 10.4272 14.3147 10.4349 14.1876 10.4679C14.0605 10.501 13.9411 10.5587 13.8363 10.6379C13.7315 10.7171 13.6434 10.8162 13.5768 10.9294C13.5103 11.0427 13.4668 11.1679 13.4487 11.298C13.4121 11.5608 13.4814 11.8273 13.6413 12.0389C14.0737 12.6119 14.681 13.0283 15.3713 13.2249V13.4199C15.3713 13.6851 15.4767 13.9395 15.6642 14.127C15.8517 14.3146 16.1061 14.4199 16.3713 14.4199C16.6365 14.4199 16.8909 14.3146 17.0784 14.127C17.266 13.9395 17.3713 13.6851 17.3713 13.4199V13.2169C17.7732 13.1097 18.1511 12.9275 18.4853 12.6799C19.0633 12.2449 19.5093 11.5699 19.5093 10.7399C19.5093 9.90992 19.0613 9.23592 18.4813 8.80392C17.9033 8.37392 17.1533 8.14092 16.3713 8.14092C15.9763 8.14092 15.6583 8.01892 15.4593 7.86992C15.2603 7.72092 15.2313 7.58892 15.2313 7.53192C15.2313 7.46992 15.2653 7.32892 15.4693 7.17092C15.7427 6.97467 16.0741 6.87506 16.4103 6.88992Z" fill="#1C274C"/>
</g>
<defs>
<clipPath id="clip0_2096_5859">
<rect width="24" height="24" fill="#1C274C"/>
</clipPath>
</defs>
</svg>
