<svg width="32" height="32" viewBox="0 0 32 32" fill="none" xmlns="http://www.w3.org/2000/svg">
<path d="M29.3346 10.8826V10.98C29.3346 12.1266 29.3346 12.7013 29.0586 13.1706C28.7826 13.64 28.28 13.9186 27.2773 14.4773L26.22 15.064C26.948 12.6 27.192 9.95197 27.2813 7.68797L27.2946 7.39331L27.2973 7.32397C28.1653 7.62531 28.6533 7.85064 28.9573 8.27197C29.3346 8.79597 29.3346 9.49197 29.3346 10.8826ZM2.66797 10.8826V10.98C2.66797 12.1266 2.66797 12.7013 2.94397 13.1706C3.21997 13.64 3.72264 13.9186 4.7253 14.4773L5.78397 15.064C5.05464 12.6 4.81064 9.95197 4.7213 7.68797L4.70797 7.39331L4.70664 7.32397C3.8373 7.62531 3.3493 7.85064 3.0453 8.27197C2.66797 8.79597 2.66797 9.49331 2.66797 10.8826Z" fill="#1C274C"/>
<path fill-rule="evenodd" clip-rule="evenodd" d="M21.8352 3.12923C19.9061 2.81322 17.954 2.65847 15.9992 2.66656C13.6219 2.66656 11.6619 2.87589 10.1632 3.12923C8.64453 3.38523 7.88586 3.51323 7.25119 4.29456C6.61786 5.0759 6.65119 5.91989 6.71786 7.60789C6.94853 13.4052 8.19919 20.6479 14.9992 21.2879V25.9999H13.0925C12.7844 26.0001 12.4859 26.107 12.2476 26.3024C12.0094 26.4978 11.8463 26.7698 11.7859 27.0719L11.5325 28.3332H7.99919C7.73398 28.3332 7.47962 28.4386 7.29209 28.6261C7.10455 28.8137 6.99919 29.068 6.99919 29.3332C6.99919 29.5984 7.10455 29.8528 7.29209 30.0403C7.47962 30.2279 7.73398 30.3332 7.99919 30.3332H23.9992C24.2644 30.3332 24.5188 30.2279 24.7063 30.0403C24.8938 29.8528 24.9992 29.5984 24.9992 29.3332C24.9992 29.068 24.8938 28.8137 24.7063 28.6261C24.5188 28.4386 24.2644 28.3332 23.9992 28.3332H20.4659L20.2125 27.0719C20.1521 26.7698 19.989 26.4978 19.7507 26.3024C19.5125 26.107 19.214 26.0001 18.9059 25.9999H16.9992V21.2879C23.7992 20.6479 25.0512 13.4066 25.2805 7.60789C25.3472 5.91989 25.3819 5.07456 24.7472 4.29456C24.1125 3.51323 23.3539 3.38523 21.8352 3.12923Z" fill="#1C274C"/>
</svg>
