<svg width="32" height="32" viewBox="0 0 32 32" fill="none" xmlns="http://www.w3.org/2000/svg">
<path d="M26.668 22.6666C26.668 23.0202 26.5275 23.3593 26.2774 23.6094C26.0274 23.8594 25.6883 23.9999 25.3346 23.9999C24.981 23.9999 24.6419 23.8594 24.3918 23.6094C24.1418 23.3593 24.0013 23.0202 24.0013 22.6666V6.66659C24.0013 6.31296 23.8608 5.97383 23.6108 5.72378C23.3607 5.47373 23.0216 5.33325 22.668 5.33325H4.0013C3.64768 5.33325 3.30854 5.47373 3.05849 5.72378C2.80844 5.97383 2.66797 6.31296 2.66797 6.66659V23.9999C2.66797 24.7072 2.94892 25.3854 3.44902 25.8855C3.94911 26.3856 4.62739 26.6666 5.33464 26.6666H25.3346C27.54 26.6666 29.3346 24.8719 29.3346 22.6666V9.33325H26.668V22.6666ZM16.0013 9.33325H20.0013V11.9999H16.0013V9.33325ZM16.0013 14.6666H20.0013V17.3333H16.0013V14.6666ZM6.66797 9.33325H13.3346V17.3333H6.66797V9.33325ZM6.66797 22.6666V19.9999H20.0013V22.6666H6.66797Z" fill="#1C274C"/>
</svg>
