<svg width="20" height="20" viewBox="0 0 20 20" fill="none" xmlns="http://www.w3.org/2000/svg">
<path d="M17.5013 2.5C17.7223 2.5 17.9343 2.5878 18.0906 2.74408C18.2468 2.90036 18.3346 3.11232 18.3346 3.33333C18.3346 3.55435 18.2468 3.76631 18.0906 3.92259C17.9343 4.07887 17.7223 4.16667 17.5013 4.16667V11.6667C17.5013 12.3297 17.2379 12.9656 16.7691 13.4344C16.3002 13.9033 15.6643 14.1667 15.0013 14.1667H10.8346V15.8333H12.5013C12.7223 15.8333 12.9343 15.9211 13.0906 16.0774C13.2468 16.2337 13.3346 16.4457 13.3346 16.6667C13.3346 16.8877 13.2468 17.0996 13.0906 17.2559C12.9343 17.4122 12.7223 17.5 12.5013 17.5H7.5013C7.28029 17.5 7.06833 17.4122 6.91205 17.2559C6.75577 17.0996 6.66797 16.8877 6.66797 16.6667C6.66797 16.4457 6.75577 16.2337 6.91205 16.0774C7.06833 15.9211 7.28029 15.8333 7.5013 15.8333H9.16797V14.1667H5.0013C4.33826 14.1667 3.70238 13.9033 3.23354 13.4344C2.76469 12.9656 2.5013 12.3297 2.5013 11.6667V4.16667C2.28029 4.16667 2.06833 4.07887 1.91205 3.92259C1.75577 3.76631 1.66797 3.55435 1.66797 3.33333C1.66797 3.11232 1.75577 2.90036 1.91205 2.74408C2.06833 2.5878 2.28029 2.5 2.5013 2.5H17.5013ZM13.9238 6.0775C13.7675 5.92127 13.5556 5.83351 13.3346 5.83351C13.1137 5.83351 12.9017 5.92127 12.7455 6.0775L10.8346 7.9875L9.75714 6.91083C9.60086 6.75461 9.38894 6.66684 9.16797 6.66684C8.947 6.66684 8.73507 6.75461 8.5788 6.91083L6.0788 9.41083C5.92258 9.56711 5.83481 9.77903 5.83481 10C5.83481 10.221 5.92258 10.4329 6.0788 10.5892L6.15714 10.6583C6.31747 10.7827 6.51768 10.8443 6.7202 10.8316C6.92272 10.8188 7.11364 10.7326 7.25713 10.5892L9.16797 8.67917L10.2455 9.75583C10.4017 9.91206 10.6137 9.99982 10.8346 9.99982C11.0556 9.99982 11.2675 9.91206 11.4238 9.75583L13.9238 7.25583C14.08 7.09956 14.1678 6.88764 14.1678 6.66667C14.1678 6.4457 14.08 6.23377 13.9238 6.0775Z" fill="#1C274C"/>
</svg>
