<svg width="32" height="32" viewBox="0 0 32 32" fill="none" xmlns="http://www.w3.org/2000/svg">
<g clip-path="url(#clip0_2096_5607)">
<path fill-rule="evenodd" clip-rule="evenodd" d="M5.23558 11.2944C5.49352 9.16356 6.37742 7.15705 7.77554 5.52849C9.17366 3.89994 11.0232 2.72245 13.0904 2.14489C11.2282 5.0801 10.1801 8.13131 10.0206 11.2944H5.23558ZM5.23558 13.8837H10.0869C10.3976 16.9411 11.5224 20.0192 13.4219 23.1181C11.281 22.5923 9.35106 21.427 7.88871 19.7775C6.42635 18.1279 5.50093 16.0721 5.23558 13.8837ZM26.7577 13.8837C26.4936 16.0608 25.5762 18.1069 24.1264 19.7523C22.6765 21.3978 20.7622 22.5655 18.6357 23.1015C20.5538 20.0545 21.6848 16.9784 21.9707 13.8837H26.7577ZM16.0174 22.3786C17.9728 19.4641 19.0686 16.6345 19.3689 13.8837H12.6927C13.0159 16.5931 14.0972 19.4206 16.0174 22.3786ZM12.614 11.2944H19.4145C19.2053 8.37781 18.0888 5.4426 15.9904 2.47631C13.8983 5.39703 12.7922 8.33017 12.614 11.2944ZM26.7557 11.2944H22.0121C21.8174 8.16653 20.7568 5.11324 18.8759 2.13867C20.9483 2.7128 22.8034 3.88954 24.2059 5.5196C25.6084 7.14966 26.4951 9.15959 26.7536 11.2944H26.7557ZM14.4431 25.9249V27.7809H5.63951C5.22748 27.7809 4.83232 27.9446 4.54097 28.2359C4.24962 28.5273 4.08594 28.9224 4.08594 29.3345C4.08594 29.7465 4.24962 30.1416 4.54097 30.433C4.83232 30.7243 5.22748 30.888 5.63951 30.888H26.3538C26.7658 30.888 27.161 30.7243 27.4523 30.433C27.7437 30.1416 27.9074 29.7465 27.9074 29.3345C27.9074 28.9224 27.7437 28.5273 27.4523 28.2359C27.161 27.9446 26.7658 27.7809 26.3538 27.7809H17.5502V25.9249C16.5179 26.043 15.4754 26.043 14.4431 25.9249Z" fill="#1C274C"/>
</g>
<defs>
<clipPath id="clip0_2096_5607">
<rect width="29" height="29" fill="white" transform="translate(1.5 2)"/>
</clipPath>
</defs>
</svg>
