<svg width="20" height="20" viewBox="0 0 20 20" fill="none" xmlns="http://www.w3.org/2000/svg">
<g clip-path="url(#clip0_2096_5843)">
<path d="M4.36167 6.44166C4.96258 5.48961 5.7948 4.70525 6.78073 4.16172C7.76666 3.61819 8.87418 3.3332 10 3.33332C11.126 3.33306 12.2337 3.61799 13.2197 4.16152C14.2058 4.70506 15.0382 5.48949 15.6392 6.44166L17.0475 5.54999C16.2962 4.36038 15.2558 3.38038 14.0235 2.70134C12.7912 2.02231 11.407 1.66635 10 1.66666C8.59313 1.66649 7.20911 2.02252 5.97695 2.70155C4.74479 3.38057 3.7046 4.3605 2.95333 5.54999L4.36167 6.44166ZM10 16.6667C8.87418 16.6668 7.76666 16.3818 6.78073 15.8383C5.7948 15.2947 4.96258 14.5104 4.36167 13.5583L2.95333 14.45C3.7046 15.6395 4.74479 16.6194 5.97695 17.2984C7.20911 17.9775 8.59313 18.3335 10 18.3333C11.407 18.3336 12.7912 17.9777 14.0235 17.2986C15.2558 16.6196 16.2962 15.6396 17.0475 14.45L15.6392 13.5583C15.0382 14.5105 14.2058 15.2949 13.2197 15.8385C12.2337 16.382 11.126 16.6669 10 16.6667ZM10 9.99999C10.663 9.99999 11.2989 9.7366 11.7678 9.26776C12.2366 8.79892 12.5 8.16303 12.5 7.49999C12.5 6.83695 12.2366 6.20106 11.7678 5.73222C11.2989 5.26338 10.663 4.99999 10 4.99999C9.33696 4.99999 8.70107 5.26338 8.23223 5.73222C7.76339 6.20106 7.5 6.83695 7.5 7.49999C7.5 8.16303 7.76339 8.79892 8.23223 9.26776C8.70107 9.7366 9.33696 9.99999 10 9.99999ZM10 10.8333C10.8841 10.8333 11.7319 11.1845 12.357 11.8096C12.9821 12.4348 13.3333 13.2826 13.3333 14.1667H6.66667C6.66667 13.2826 7.01786 12.4348 7.64298 11.8096C8.2681 11.1845 9.11594 10.8333 10 10.8333ZM5 9.99999C5 10.663 4.73661 11.2989 4.26777 11.7678C3.79893 12.2366 3.16304 12.5 2.5 12.5C1.83696 12.5 1.20107 12.2366 0.732233 11.7678C0.263392 11.2989 0 10.663 0 9.99999C0 9.33695 0.263392 8.70106 0.732233 8.23222C1.20107 7.76338 1.83696 7.49999 2.5 7.49999C3.16304 7.49999 3.79893 7.76338 4.26777 8.23222C4.73661 8.70106 5 9.33695 5 9.99999ZM17.5 12.5C18.163 12.5 18.7989 12.2366 19.2678 11.7678C19.7366 11.2989 20 10.663 20 9.99999C20 9.33695 19.7366 8.70106 19.2678 8.23222C18.7989 7.76338 18.163 7.49999 17.5 7.49999C16.837 7.49999 16.2011 7.76338 15.7322 8.23222C15.2634 8.70106 15 9.33695 15 9.99999C15 10.663 15.2634 11.2989 15.7322 11.7678C16.2011 12.2366 16.837 12.5 17.5 12.5Z" fill="#1C274C"/>
</g>
<defs>
<clipPath id="clip0_2096_5843">
<rect width="20" height="20" fill="white"/>
</clipPath>
</defs>
</svg>
