<svg width="46" height="46" viewBox="0 0 46 46" fill="none" xmlns="http://www.w3.org/2000/svg">
<path d="M6.48047 22.9998C6.48053 22.7245 6.57614 22.459 6.74902 22.2478L6.82812 22.1609L18.334 10.655C18.4427 10.5384 18.5741 10.4445 18.7197 10.3796C18.8653 10.3148 19.0223 10.2799 19.1816 10.2771C19.3411 10.2743 19.4996 10.3033 19.6475 10.363C19.7953 10.4228 19.9293 10.512 20.042 10.6248C20.1547 10.7375 20.244 10.8715 20.3037 11.0193C20.3634 11.1671 20.3925 11.3257 20.3896 11.4851C20.3868 11.6444 20.3519 11.8014 20.2871 11.947C20.2222 12.0927 20.1284 12.224 20.0117 12.3328L10.5322 21.8123L38.333 21.8123C38.6478 21.8123 38.9502 21.9374 39.1729 22.1599C39.3955 22.3825 39.5204 22.6849 39.5205 22.9998C39.5205 23.3147 39.3955 23.6169 39.1729 23.8396C38.9502 24.0623 38.6479 24.1873 38.333 24.1873L10.5322 24.1873L20.0117 33.6667C20.1284 33.7754 20.2222 33.9069 20.2871 34.0525C20.352 34.1982 20.3868 34.3559 20.3896 34.5154C20.3924 34.6745 20.3633 34.8326 20.3037 34.9802C20.244 35.1281 20.1548 35.263 20.042 35.3757C19.9293 35.4883 19.7951 35.5768 19.6475 35.6365C19.4996 35.6962 19.3411 35.7262 19.1816 35.7234C19.0224 35.7206 18.8653 35.6856 18.7197 35.6208C18.5741 35.556 18.4427 35.4621 18.334 35.3455L18.3281 35.3386L6.82812 23.8386L6.82715 23.8396C6.60483 23.617 6.48047 23.3144 6.48047 22.9998Z" fill="white" stroke="#131D2F" stroke-width="0.5"/>
</svg>
