<svg width="32" height="32" viewBox="0 0 32 32" fill="none" xmlns="http://www.w3.org/2000/svg">
<path d="M19.5082 9.19742C19.4167 9.31475 19.2731 9.43919 19.0775 9.57075L16.5015 8.34542C16.8082 8.25208 17.2522 8.19208 17.7015 8.17742C18.2042 8.14408 18.7082 8.20942 19.1855 8.37208C19.5455 8.52275 19.7775 8.83742 19.5082 9.19742ZM12.9055 7.21875L15.1655 8.28942C14.6971 8.43786 14.218 8.52853 13.7282 8.56142C13.3229 8.56142 12.6709 8.44142 12.4682 8.03608C12.3135 7.71608 12.6082 7.42542 12.9055 7.21875Z" fill="#1C274C"/>
<path fill-rule="evenodd" clip-rule="evenodd" d="M13.2671 4.60266L6.8351 7.54133C6.66661 7.61661 6.5232 7.73855 6.42179 7.89273C6.32039 8.04691 6.26524 8.22689 6.26286 8.41142C6.26047 8.59594 6.31096 8.77729 6.40834 8.93404C6.50573 9.09079 6.64595 9.21639 6.81243 9.296L13.1391 12.3387C14.0517 12.777 15.0515 13.0035 16.064 13.0012C17.0764 12.9989 18.0752 12.7678 18.9858 12.3253L25.2004 9.288C25.3665 9.20902 25.5064 9.08408 25.6035 8.928C25.7007 8.77192 25.7511 8.59125 25.7487 8.4074C25.7463 8.22355 25.6913 8.04425 25.5901 7.89074C25.4889 7.73724 25.3458 7.61597 25.1778 7.54133L18.8671 4.61866C17.9897 4.21348 17.0353 4.0023 16.0688 3.99954C15.1024 3.99678 14.1468 4.2025 13.2671 4.60266ZM19.9311 10.548L19.2058 10.204C18.2524 10.6213 17.0271 10.7347 16.2271 10.7507L15.9284 10.248L16.1218 10.2413C16.9178 10.2187 17.7898 10.192 18.5258 9.88133L15.7978 8.588C15.0098 8.84933 14.2071 9.06533 13.3711 9.01866C12.7951 8.97333 11.9618 8.764 11.6471 8.216C11.4604 7.87866 11.6178 7.564 11.8724 7.30133C12.012 7.16266 12.16 7.04133 12.3164 6.93733L11.5044 6.552L12.1044 6.252L12.8991 6.62933C13.7164 6.29466 14.6618 6.252 15.5298 6.252L15.5831 6.64933H15.5018C15.0218 6.64933 14.1044 6.64666 13.4698 6.90266L15.8791 8.04933C16.4285 7.89046 16.992 7.78552 17.5618 7.736C18.3484 7.676 19.1511 7.736 19.7578 8.00666C20.2684 8.23066 20.6951 8.74 20.3578 9.30266C20.2014 9.53825 19.9997 9.74039 19.7644 9.89733L20.5004 10.248L19.9311 10.548ZM4.00977 20.7413V11.92C4.00977 10.848 5.13377 10.136 6.1231 10.5853L12.6378 13.5693C13.4163 13.9237 14.0767 14.4942 14.5404 15.213C15.0041 15.9318 15.2517 16.7686 15.2538 17.624V26.5C15.2538 27.58 14.1204 28.292 13.1324 27.8333L6.6111 24.7907C5.83635 24.4346 5.17971 23.8642 4.71875 23.1469C4.25779 22.4296 4.01178 21.5953 4.00977 20.7427M11.8204 23.988C11.5204 24.176 11.2204 24.244 10.7858 24.244C9.48843 24.244 8.10177 23.0747 7.4271 21.44C7.16597 20.7813 7.00942 20.0858 6.9631 19.3787L6.25777 19.0787L6.61777 18.3667L6.93243 18.5013C6.94043 18.1413 6.96976 17.7747 7.0071 17.4147L6.25777 17.092L6.61777 16.3867L7.1351 16.6133L7.14977 16.5067C7.39777 15.2627 7.93643 14.4987 9.0991 14.4987C10.0218 14.4987 11.0191 15.1733 11.7898 16.192C11.6962 16.5337 11.5577 16.8615 11.3778 17.1667C10.9138 16.1933 10.2084 15.5173 9.3991 15.5173C8.52977 15.5173 8.10177 16.0507 7.89243 16.9347L10.9884 18.2613L10.6284 18.9733L7.74977 17.736C7.70443 18.0893 7.6751 18.456 7.6751 18.824L10.3364 19.9707L9.97643 20.6747L7.7351 19.708C7.7951 20.1573 7.8991 20.608 8.07243 21.012C8.59643 22.3093 9.64576 23.2533 10.6724 23.2533C10.9804 23.2533 11.2204 23.1933 11.4004 23.0893C11.5124 23.276 11.6631 23.5827 11.8204 23.988ZM25.8831 10.608C26.8724 10.1573 27.9964 10.8693 27.9964 11.9493V20.772C27.9945 21.6245 27.7487 22.4587 27.288 23.176C26.8273 23.8933 26.1709 24.4637 25.3964 24.82L18.8738 27.856C18.6481 27.9629 18.399 28.0113 18.1497 27.9964C17.9004 27.9816 17.6588 27.9042 17.4473 27.7713C17.2359 27.6384 17.0613 27.4543 16.9399 27.236C16.8184 27.0178 16.7539 26.7724 16.7524 26.5227V17.6467C16.7557 16.7924 17.0039 15.957 17.4676 15.2395C17.9313 14.5221 18.5909 13.9526 19.3684 13.5987L25.8831 10.608ZM23.8298 14.5333L24.6831 14.2413L22.7498 19.624V20.096L24.2484 19.3467V20.096L22.7498 20.8453V21.7973L24.2484 21.056V21.8053L22.7498 22.5547V23.8373L21.9991 24.2413V22.9213L20.5004 23.672V22.9227L21.9991 22.1733V21.2133L20.5004 21.9627V21.2133L21.9991 20.4707V20.096L19.8178 16.4907L20.6431 16.0107L22.3071 18.86L23.8298 14.5333Z" fill="#1C274C"/>
</svg>
