<svg width="32" height="32" viewBox="0 0 32 32" fill="none" xmlns="http://www.w3.org/2000/svg">
<path d="M26.6663 18.3334C26.6663 17.7811 26.2186 17.3334 25.6663 17.3334H21.6663C21.1141 17.3334 20.6663 17.7811 20.6663 18.3334V27.3334H18.6663V5.66675C18.6663 4.69567 18.6642 4.06796 18.602 3.60545C18.5437 3.17171 18.4496 3.03577 18.3734 2.95964C18.2973 2.88352 18.1614 2.78937 17.7276 2.73105C17.2651 2.66887 16.6374 2.66675 15.6663 2.66675C14.6953 2.66675 14.0676 2.66887 13.605 2.73105C13.1713 2.78937 13.0354 2.88352 12.9592 2.95964C12.8831 3.03577 12.789 3.17171 12.7306 3.60545C12.6685 4.06796 12.6663 4.69567 12.6663 5.66675V27.3334H10.6663V11.6667C10.6663 11.1145 10.2186 10.6667 9.66634 10.6667H5.66634C5.11406 10.6667 4.66634 11.1145 4.66634 11.6667V27.3334H2.66634H2.33301C1.78072 27.3334 1.33301 27.7811 1.33301 28.3334C1.33301 28.8857 1.78072 29.3334 2.33301 29.3334H28.9997C29.552 29.3334 29.9997 28.8857 29.9997 28.3334C29.9997 27.7811 29.552 27.3334 28.9997 27.3334H28.6663H26.6663V18.3334Z" fill="#1C274C"/>
</svg>
