<svg width="32" height="32" viewBox="0 0 32 32" fill="none" xmlns="http://www.w3.org/2000/svg">
<path fill-rule="evenodd" clip-rule="evenodd" d="M15.332 2.6665C9.80918 2.6665 5.33203 7.24778 5.33203 12.8991C5.33203 15.9289 6.62006 18.6521 8.66348 20.5244C9.34456 21.1484 9.84913 21.6107 10.2067 21.9462C10.3855 22.1139 10.5222 22.2449 10.6231 22.3455C10.6734 22.3956 10.7118 22.4353 10.7405 22.466C10.7547 22.4812 10.7654 22.4931 10.7731 22.5019C10.7807 22.5106 10.7843 22.5151 10.7843 22.5151C11.0996 22.9133 11.1679 23.016 11.2085 23.1091C11.2492 23.2022 11.2785 23.3227 11.358 23.8288C11.3894 24.0286 11.3926 24.3708 11.3926 25.3022L11.3926 25.3421C11.3926 25.8876 11.3926 26.3581 11.4268 26.7442C11.463 27.1525 11.543 27.5568 11.758 27.9378C11.9974 28.3621 12.3417 28.7144 12.7563 28.9593C13.1287 29.1793 13.5237 29.2612 13.9228 29.2982C14.3001 29.3332 14.7599 29.3332 15.2929 29.3332H15.3711C15.9042 29.3332 16.364 29.3332 16.7413 29.2982C17.1403 29.2612 17.5354 29.1793 17.9078 28.9593C18.3224 28.7144 18.6667 28.3621 18.906 27.9378C19.121 27.5568 19.2011 27.1525 19.2373 26.7442C19.2715 26.3581 19.2714 25.8876 19.2714 25.3421V25.3022C19.2714 24.3708 19.2746 24.0286 19.306 23.8288C19.3856 23.3227 19.4149 23.2022 19.4555 23.1091C19.4962 23.016 19.5644 22.9133 19.8798 22.5151C19.8798 22.5151 19.8811 22.5134 19.8841 22.5099C19.8841 22.5099 19.8881 22.5053 19.891 22.5019C19.8987 22.4931 19.9094 22.4812 19.9236 22.466C19.9522 22.4353 19.9907 22.3956 20.041 22.3455C20.1419 22.2449 20.2786 22.1139 20.4574 21.9462C20.8149 21.6107 21.3195 21.1484 22.0006 20.5244C24.044 18.6521 25.332 15.9289 25.332 12.8991C25.332 7.24778 20.8549 2.6665 15.332 2.6665ZM17.4265 26.5763C17.4355 26.4746 17.4415 26.3617 17.4454 26.2324H13.2186C13.2226 26.3617 13.2286 26.4746 13.2376 26.5763C13.2623 26.8555 13.304 26.9569 13.3326 27.0076C13.4124 27.149 13.5272 27.2664 13.6654 27.3481C13.7149 27.3773 13.814 27.42 14.0869 27.4453C14.3723 27.4718 14.7489 27.4727 15.332 27.4727C15.9152 27.4727 16.2918 27.4718 16.5772 27.4453C16.8501 27.42 16.9492 27.3773 16.9987 27.3481C17.1369 27.2664 17.2517 27.149 17.3314 27.0076C17.36 26.9569 17.4018 26.8555 17.4265 26.5763Z" fill="#CDD9F1"/>
<path fill-rule="evenodd" clip-rule="evenodd" d="M12.3637 17.8009C12.8418 17.5244 13.4535 17.6877 13.73 18.1658C14.0197 18.6666 14.5587 18.9998 15.1743 18.9998C15.79 18.9998 16.329 18.6665 16.6186 18.1658C16.8952 17.6877 17.5069 17.5244 17.985 17.8009C18.463 18.0774 18.6264 18.6892 18.3499 19.1672C17.8788 19.9815 17.1016 20.5994 16.1743 20.8617V22.6665C16.1743 23.2188 15.7266 23.6665 15.1743 23.6665C14.622 23.6665 14.1743 23.2188 14.1743 22.6665V20.8617C13.2471 20.5994 12.4698 19.9815 11.9988 19.1672C11.7223 18.6892 11.8856 18.0774 12.3637 17.8009Z" fill="#324978"/>
</svg>
