<svg width="32" height="32" viewBox="0 0 32 32" fill="none" xmlns="http://www.w3.org/2000/svg">
<path fill-rule="evenodd" clip-rule="evenodd" d="M21.5539 3.7484C20.7741 3.8591 19.7 4.25174 19.0465 4.66496C18.6525 4.91411 17.8497 5.64111 17.57 6.00212C16.2766 7.67142 16.0931 9.84661 17.0912 11.677C17.3994 12.2423 17.6007 12.502 18.1104 12.9926C19.9773 14.789 22.755 15.2352 25.161 14.1251C25.7496 13.8535 26.0481 13.6562 26.5661 13.1962C27.5634 12.3106 28.1533 11.2922 28.3665 10.0882C28.8657 7.26886 26.9168 4.56918 23.8627 3.84933C23.3305 3.72389 22.1043 3.67029 21.5539 3.7484ZM23.5461 5.09188C24.7495 5.39377 25.6681 5.99719 26.3183 6.91295C26.8314 7.6355 27.0348 8.28832 27.0348 9.21262C27.0348 10.4062 26.599 11.391 25.7085 12.2097C24.818 13.0284 23.7469 13.429 22.4485 13.429C21.4432 13.429 20.7331 13.242 19.9471 12.7703C18.6945 12.0186 17.9454 10.8326 17.8488 9.44818C17.7004 7.32331 19.3168 5.45183 21.6693 5.0247C22.0583 4.95407 23.153 4.99328 23.5461 5.09188ZM21.9868 6.71209V7.18322L21.8116 7.24992C21.4236 7.39766 21.0632 7.934 21.0632 8.36357C21.0632 9.01877 21.7334 9.63715 22.4434 9.63715C22.686 9.63715 22.9103 9.84114 22.9103 10.0617C22.9103 10.2798 22.6858 10.4862 22.4485 10.4862C22.2559 10.4862 21.9868 10.2866 21.9868 10.1437C21.9868 10.0765 21.903 10.0617 21.525 10.0617C21.0096 10.0617 21.0074 10.0638 21.1311 10.4434C21.214 10.6977 21.5738 11.0847 21.8116 11.1753L21.9868 11.242V11.7132V12.1843H22.4485H22.9103V11.7132V11.242L23.0854 11.1753C23.4734 11.0276 23.8338 10.4913 23.8338 10.0617C23.8338 9.40648 23.1637 8.7881 22.4537 8.7881C22.2111 8.7881 21.9868 8.58411 21.9868 8.36357C21.9868 8.26019 22.0391 8.15141 22.1285 8.06931C22.2178 7.98717 22.3361 7.93904 22.4485 7.93904C22.6412 7.93904 22.9103 8.13867 22.9103 8.28158C22.9103 8.34871 22.9941 8.36357 23.3721 8.36357C23.8875 8.36357 23.8897 8.3615 23.766 7.98186C23.6831 7.72752 23.3232 7.3405 23.0854 7.24992L22.9103 7.18322V6.71209V6.24092H22.4485H21.9868V6.71209ZM9.26826 10.6056C9.07761 10.7662 3.58425 18.5327 3.32843 19.0033C2.80756 19.9617 2.62539 20.7017 2.62309 21.8689C2.6213 22.7902 2.68179 23.1778 2.94326 23.9201C3.27839 24.8715 3.83753 25.7028 4.63651 26.4373C5.61632 27.3381 6.72918 27.8953 8.14311 28.1928C8.75345 28.3213 10.2456 28.3192 10.9044 28.189C12.1719 27.9384 13.3208 27.3832 14.282 26.5565C14.7759 26.1318 14.7973 26.0915 14.6873 25.7937C14.6104 25.5855 14.5985 25.0028 14.5985 21.4502V17.3471L12.255 14.0361C10.9661 12.215 9.84778 10.6713 9.7698 10.6056C9.69187 10.5399 9.57903 10.4862 9.51906 10.4862C9.45909 10.4862 9.34624 10.5399 9.26826 10.6056ZM17.0212 13.899C16.4748 14.1183 15.9743 14.4218 15.7543 14.6671C15.4332 15.0253 15.4559 15.341 15.8295 15.713C16.4826 16.3634 18.3436 16.9546 20.4572 17.1831C21.3913 17.2841 23.7972 17.2674 24.6997 17.1537C26.7223 16.8987 28.3419 16.3781 29.0027 15.7705C29.4819 15.33 29.4909 14.9922 29.0347 14.5728C28.7428 14.3044 28.2111 14.0093 27.6892 13.826L27.3598 13.7102L26.9965 14.0003C24.3949 16.0773 20.5856 16.1004 17.9703 14.0549C17.7371 13.8725 17.5259 13.7235 17.501 13.7239C17.4761 13.7243 17.2601 13.8031 17.0212 13.899ZM15.522 17.6554C15.522 18.4577 15.5406 18.7048 15.6109 18.8409C15.9966 19.5884 18.0265 20.3165 20.4572 20.5793C21.3913 20.6803 23.7972 20.6636 24.6997 20.5499C27.0668 20.2515 28.9113 19.5675 29.2812 18.8508C29.3577 18.7024 29.375 18.481 29.375 17.651C29.375 17.0911 29.3555 16.641 29.3318 16.6507C29.3079 16.6605 29.1057 16.7696 28.8823 16.8933C27.5537 17.6288 24.958 18.1264 22.4485 18.1267C19.9099 18.127 17.2481 17.6057 15.9372 16.8514C15.7369 16.7362 15.5616 16.6419 15.5475 16.6419C15.5335 16.6419 15.522 17.0979 15.522 17.6554ZM15.522 21.0516C15.522 21.8539 15.5406 22.101 15.6109 22.2372C15.9966 22.9846 18.0265 23.7127 20.4572 23.9755C21.3913 24.0766 23.7972 24.0598 24.6997 23.9461C27.0668 23.6477 28.9113 22.9637 29.2812 22.247C29.3577 22.0987 29.375 21.8772 29.375 21.0472C29.375 20.4873 29.3555 20.0372 29.3318 20.047C29.3079 20.0567 29.1057 20.1658 28.8823 20.2895C27.5537 21.025 24.958 21.5226 22.4485 21.523C19.9099 21.5233 17.2481 21.0019 15.9372 20.2476C15.7369 20.1324 15.5616 20.0381 15.5475 20.0381C15.5335 20.0381 15.522 20.4942 15.522 21.0516ZM4.26969 20.258C4.47425 20.3205 4.64834 20.3764 4.65653 20.3822C4.66473 20.388 4.62894 20.5658 4.577 20.7773L4.48256 21.1617L4.30236 21.1333C4.20325 21.1176 3.99996 21.0891 3.85064 21.0699C3.58379 21.0357 3.57969 21.0322 3.61052 20.8682C3.6687 20.5592 3.80758 20.1443 3.85283 20.1443C3.87753 20.1443 4.06513 20.1954 4.26969 20.258ZM4.43962 22.1273C4.43962 22.4734 4.61873 23.2446 4.79154 23.6424C5.31484 24.8471 6.36617 25.8137 7.67661 26.2948C8.10923 26.4537 8.94808 26.6183 9.3246 26.6183H9.51906V27.0429V27.4674L9.30261 27.4672C8.93989 27.4668 8.0705 27.3188 7.64313 27.1846C7.08272 27.0087 6.38112 26.6757 5.96536 26.3884C5.55848 26.1071 4.83091 25.4215 4.57128 25.0746C3.97248 24.2744 3.51609 23.001 3.51609 22.1304V21.9485H3.97785H4.43962V22.1273ZM15.522 24.4479C15.522 25.2501 15.5406 25.4972 15.6109 25.6334C15.9966 26.3809 18.0265 27.109 20.4572 27.3718C21.3913 27.4728 23.7972 27.4561 24.6997 27.3424C27.0668 27.044 28.9113 26.3599 29.2812 25.6432C29.3577 25.4949 29.375 25.2735 29.375 24.4435C29.375 23.8836 29.3555 23.4335 29.3318 23.4432C29.3079 23.4529 29.1057 23.5621 28.8823 23.6857C27.5537 24.4213 24.958 24.9189 22.4485 24.9192C19.9099 24.9195 17.2481 24.3981 15.9372 23.6439C15.7369 23.5287 15.5616 23.4344 15.5475 23.4344C15.5335 23.4344 15.522 23.8904 15.522 24.4479Z" fill="#1C274C"/>
</svg>
