<svg width="28" height="28" viewBox="0 0 28 28" fill="none" xmlns="http://www.w3.org/2000/svg">
<path fill-rule="evenodd" clip-rule="evenodd" d="M18.2788 8.16663C18.2788 7.68338 18.6706 7.29163 19.1538 7.29163H25.6663C26.1496 7.29163 26.5413 7.68338 26.5413 8.16663V14.6368C26.5413 15.12 26.1496 15.5118 25.6663 15.5118C25.1831 15.5118 24.7913 15.12 24.7913 14.6368V10.27L17.6329 17.3848C17.0857 17.9286 16.6142 18.3974 16.1859 18.7223C15.7268 19.0706 15.2168 19.334 14.5889 19.3339C13.961 19.3339 13.4509 19.0703 12.992 18.7219C12.5638 18.3969 12.0923 17.9281 11.5453 17.3841L11.2254 17.066C10.6255 16.4695 10.2366 16.0854 9.91279 15.8396C9.60918 15.6092 9.46725 15.5835 9.37325 15.5836C9.27925 15.5836 9.13734 15.6094 8.8339 15.84C8.51025 16.086 8.12162 16.4704 7.52221 17.0673L2.95043 21.62C2.608 21.961 2.05399 21.9598 1.71299 21.6174C1.372 21.275 1.37316 20.7209 1.71559 20.3799L6.32806 15.7868C6.87515 15.2419 7.34666 14.7723 7.77495 14.4468C8.23403 14.0979 8.74426 13.8338 9.37261 13.8336C10.001 13.8333 10.5114 14.097 10.9707 14.4456C11.3992 14.7708 11.8711 15.2401 12.4186 15.7845L12.7385 16.1027C13.3379 16.6987 13.7264 17.0824 14.05 17.328C14.3533 17.5582 14.4951 17.5839 14.5891 17.5839C14.683 17.5839 14.8249 17.5582 15.1282 17.3281C15.4518 17.0826 15.8405 16.6989 16.4399 16.1031L23.5447 9.04163H19.1538C18.6706 9.04163 18.2788 8.64988 18.2788 8.16663Z" fill="#E8EEF9"/>
</svg>
