<svg width="28" height="28" viewBox="0 0 28 28" fill="none" xmlns="http://www.w3.org/2000/svg">
<path d="M23.334 14.0001C23.0535 14.0021 22.7757 14.0546 22.5138 14.1552L19.7162 11.8651C19.785 11.6154 19.834 11.3564 19.834 11.0834C19.834 9.46641 18.5343 8.16675 16.9173 8.16675C15.3003 8.16675 14.0007 9.46641 14.0007 11.0834C14.0007 11.5454 14.1173 11.9759 14.3063 12.3632L10.9125 16.3742C10.7767 16.3485 10.6389 16.3348 10.5007 16.3334C10.2918 16.3334 10.0947 16.3684 9.90332 16.4197L6.91315 13.4296C6.96565 13.2394 7.00065 13.0422 7.00065 12.8334C7.00065 11.5407 5.95998 10.5001 4.66732 10.5001C3.37465 10.5001 2.33398 11.5407 2.33398 12.8334C2.33398 14.1261 3.37465 15.1667 4.66732 15.1667C4.87615 15.1667 5.07332 15.1317 5.26465 15.0804L8.25482 18.0706C8.20001 18.2647 8.1706 18.4651 8.16732 18.6667C8.16732 19.9594 9.20798 21.0001 10.5007 21.0001C11.7933 21.0001 12.834 19.9594 12.834 18.6667C12.834 18.3902 12.778 18.1301 12.6905 17.8839L16.089 13.8682C16.3538 13.9452 16.628 14.0001 16.9173 14.0001C17.3776 13.9966 17.8306 13.8843 18.2392 13.6722L21.038 15.9624C21.0157 16.0849 21.0032 16.209 21.0007 16.3334C21.0007 17.6261 22.0413 18.6667 23.334 18.6667C24.6267 18.6667 25.6673 17.6261 25.6673 16.3334C25.6673 15.0407 24.6267 14.0001 23.334 14.0001Z" fill="#324978"/>
</svg>
