<svg width="28" height="28" viewBox="0 0 28 28" fill="none" xmlns="http://www.w3.org/2000/svg">
<path d="M7.25878 5.36793C7.77743 5.02137 8.32202 4.72079 8.88629 4.46809C10.4868 3.75132 11.2871 3.39294 12.3517 4.08268C13.4163 4.77242 13.4163 5.90385 13.4163 8.16671V9.91671C13.4163 12.1166 13.4163 13.2165 14.0998 13.9C14.7832 14.5834 15.8831 14.5834 18.083 14.5834H19.833C22.0959 14.5834 23.2273 14.5834 23.917 15.648C24.6068 16.7127 24.2484 17.5129 23.5316 19.1134C23.2789 19.6777 22.9784 20.2223 22.6318 20.7409C21.4139 22.5636 19.683 23.9842 17.6578 24.823C15.6325 25.6619 13.4041 25.8814 11.2541 25.4538C9.10414 25.0261 7.12928 23.9705 5.57925 22.4205C4.02921 20.8704 2.97363 18.8956 2.54598 16.7456C2.11832 14.5957 2.33781 12.3672 3.17668 10.342C4.01555 8.31676 5.43613 6.58578 7.25878 5.36793Z" fill="#E8EEF9"/>
<path d="M25.0201 8.24713C24.0729 5.84299 22.1567 3.92671 19.7525 2.9796C17.954 2.2711 16.333 3.90031 16.333 5.83331V10.5C16.333 11.1443 16.8553 11.6666 17.4997 11.6666H22.1663C24.0993 11.6666 25.7286 10.0456 25.0201 8.24713Z" fill="#E8EEF9"/>
</svg>
