<svg width="28" height="28" viewBox="0 0 28 28" fill="none" xmlns="http://www.w3.org/2000/svg">
<path fill-rule="evenodd" clip-rule="evenodd" d="M3.94043 5.92952C3.5 6.55703 3.5 8.42229 3.5 12.1528V13.99C3.5 20.5677 8.44546 23.7598 11.5483 25.1152C12.39 25.4829 12.8109 25.6667 14 25.6667C15.1891 25.6667 15.61 25.4829 16.4517 25.1152C19.5545 23.7598 24.5 20.5677 24.5 13.99V12.1528C24.5 8.42229 24.5 6.55703 24.0596 5.92952C23.6191 5.302 21.8653 4.70166 18.3576 3.50097L17.6893 3.27221C15.8609 2.64632 14.9466 2.33337 14 2.33337C13.0534 2.33337 12.1391 2.64632 10.3107 3.27221L9.6424 3.50097C6.13471 4.70166 4.38087 5.302 3.94043 5.92952ZM12.6715 9.75728L12.5186 10.0316C12.3506 10.3329 12.2666 10.4836 12.1356 10.583C12.0047 10.6824 11.8416 10.7193 11.5154 10.7931L11.2185 10.8603C10.0706 11.12 9.49668 11.2499 9.36013 11.689C9.22359 12.1281 9.61485 12.5856 10.3974 13.5007L10.5998 13.7374C10.8222 13.9974 10.9334 14.1275 10.9834 14.2883C11.0334 14.4492 11.0166 14.6226 10.983 14.9696L10.9524 15.2854C10.8341 16.5063 10.7749 17.1168 11.1324 17.3881C11.4899 17.6595 12.0272 17.4121 13.102 16.9173L13.38 16.7892C13.6854 16.6486 13.8381 16.5783 14 16.5783C14.1619 16.5783 14.3146 16.6486 14.62 16.7892L14.898 16.9173C15.9728 17.4121 16.5101 17.6595 16.8676 17.3881C17.2251 17.1168 17.1659 16.5063 17.0476 15.2854L17.017 14.9696C16.9834 14.6226 16.9666 14.4492 17.0166 14.2883C17.0666 14.1275 17.1778 13.9974 17.4002 13.7374L17.6026 13.5007C18.3852 12.5856 18.7764 12.1281 18.6399 11.689C18.5033 11.2499 17.9294 11.12 16.7815 10.8603L16.4846 10.7931C16.1584 10.7193 15.9953 10.6824 15.8644 10.583C15.7334 10.4836 15.6494 10.3329 15.4815 10.0316L15.3285 9.75728C14.7374 8.6969 14.4419 8.16671 14 8.16671C13.5581 8.16671 13.2626 8.6969 12.6715 9.75728Z" fill="#E8EEF9"/>
</svg>
