<svg width="32" height="32" viewBox="0 0 32 32" fill="none" xmlns="http://www.w3.org/2000/svg">
<path d="M18.986 14.0801C18.5727 15.7334 15.9994 14.8934 15.1994 14.6667L15.9327 11.7601C16.7594 12.0001 19.4127 12.3467 18.986 14.0801ZM14.8394 16.1601L14.0394 19.3734C15.026 19.6267 18.0794 20.6001 18.5327 18.7867C19.0127 16.8934 15.826 16.4001 14.8394 16.1601ZM28.9327 19.2267C27.146 26.3734 19.9194 30.7201 12.7727 28.9334C5.62602 27.1467 1.28335 19.9201 3.06602 12.7734C3.48954 11.0748 4.24353 9.47636 5.28491 8.06925C6.32629 6.66214 7.63468 5.47397 9.13533 4.57258C10.636 3.6712 12.2995 3.07428 14.0309 2.8159C15.7623 2.55752 17.5276 2.64275 19.226 3.06672C26.3594 4.85339 30.706 12.0801 28.9327 19.2267ZM18.946 10.7334L19.546 8.33339L18.0794 8.00006L17.4927 10.3067C17.106 10.2134 16.7194 10.1201 16.3194 10.0401L16.906 7.68006L15.4527 7.33339L14.8527 9.72006C14.5327 9.64006 14.2127 9.57339 13.9193 9.49339L11.906 8.98672L11.506 10.5467C11.506 10.5467 12.5994 10.8001 12.5727 10.8134C13.1727 10.9601 13.2794 11.3334 13.2527 11.6667L11.6127 18.2401C11.546 18.4267 11.3327 18.6667 10.946 18.6001C10.9594 18.6134 9.87935 18.3334 9.87935 18.3334L9.15935 20.0001L11.0527 20.4801C11.4127 20.5734 11.7594 20.6667 12.106 20.7467L11.4927 23.1734L12.9594 23.5467L13.5594 21.1334C13.9594 21.2401 14.346 21.3334 14.7194 21.4401L14.1194 23.8267L15.586 24.2001L16.1994 21.7734C18.666 22.2401 20.5594 22.0534 21.3327 19.8001C21.9994 18.0001 21.3327 16.9334 19.9994 16.2534C20.9594 16.0001 21.6793 15.4001 21.8794 14.0934C22.146 12.3201 20.786 11.3734 18.946 10.7334Z" fill="#1C274C"/>
</svg>
