<svg width="24" height="24" viewBox="0 0 24 24" fill="none" xmlns="http://www.w3.org/2000/svg">
<g clip-path="url(#clip0_287_1069)">
<path d="M15 21C14.45 21 13.9793 20.8043 13.588 20.413C13.1967 20.0217 13.0007 19.5507 13 19V17.55C13 17.3667 13.0583 17.1957 13.175 17.037C13.2917 16.8783 13.4417 16.7743 13.625 16.725C14.625 16.375 15.4377 15.771 16.063 14.913C16.6883 14.055 17.0007 13.084 17 12C16.9993 10.916 16.687 9.94533 16.063 9.088C15.439 8.23067 14.6263 7.62633 13.625 7.275C13.4417 7.20833 13.2917 7.1 13.175 6.95C13.0583 6.8 13 6.63333 13 6.45V5C13 4.45 13.196 3.97933 13.588 3.588C13.98 3.19667 14.4507 3.00067 15 3H19C19.55 3 20.021 3.196 20.413 3.588C20.805 3.98 21.0007 4.45067 21 5V19C21 19.55 20.8043 20.021 20.413 20.413C20.0217 20.805 19.5507 21.0007 19 21H15ZM5 21C4.45 21 3.97933 20.8043 3.588 20.413C3.19667 20.0217 3.00067 19.5507 3 19V5C3 4.45 3.196 3.97933 3.588 3.588C3.98 3.19667 4.45067 3.00067 5 3H9C9.55 3 10.021 3.196 10.413 3.588C10.805 3.98 11.0007 4.45067 11 5V6.45C11 6.63333 10.9417 6.8 10.825 6.95C10.7083 7.1 10.5583 7.20833 10.375 7.275C9.375 7.625 8.56267 8.22933 7.938 9.088C7.31333 9.94667 7.00067 10.9173 7 12C6.99933 13.0827 7.312 14.0537 7.938 14.913C8.564 15.7723 9.37633 16.3763 10.375 16.725C10.5583 16.7917 10.7083 16.9 10.825 17.05C10.9417 17.2 11 17.3667 11 17.55V19C11 19.55 10.8043 20.021 10.413 20.413C10.0217 20.805 9.55067 21.0007 9 21H5ZM12 15C11.7167 15 11.4793 14.904 11.288 14.712C11.0967 14.52 11.0007 14.2827 11 14V13H10C9.71667 13 9.47933 12.904 9.288 12.712C9.09667 12.52 9.00067 12.2827 9 12C8.99933 11.7173 9.09533 11.48 9.288 11.288C9.48067 11.096 9.718 11 10 11H11V10C11 9.71667 11.096 9.47933 11.288 9.288C11.48 9.09667 11.7173 9.00067 12 9C12.2827 8.99933 12.5203 9.09533 12.713 9.288C12.9057 9.48067 13.0013 9.718 13 10V11H14C14.2833 11 14.521 11.096 14.713 11.288C14.905 11.48 15.0007 11.7173 15 12C14.9993 12.2827 14.9033 12.5203 14.712 12.713C14.5207 12.9057 14.2833 13.0013 14 13H13V14C13 14.2833 12.904 14.521 12.712 14.713C12.52 14.905 12.2827 15.0007 12 15Z" fill="#324978"/>
</g>
<defs>
<clipPath id="clip0_287_1069">
<rect width="24" height="24" fill="white"/>
</clipPath>
</defs>
</svg>
