<svg width="16" height="13" viewBox="0 0 16 13" fill="none" xmlns="http://www.w3.org/2000/svg">
<path d="M14.3554 3.22066C14.3655 3.362 14.3655 3.50337 14.3655 3.64471C14.3655 7.95575 11.066 12.9231 5.03555 12.9231C3.17767 12.9231 1.45179 12.388 0 11.4591C0.26397 11.4894 0.517752 11.4995 0.791878 11.4995C2.32485 11.4995 3.73605 10.9846 4.86296 10.1063C3.42132 10.076 2.2132 9.13703 1.79694 7.84471C2.00001 7.87498 2.20304 7.89518 2.41626 7.89518C2.71067 7.89518 3.00511 7.85478 3.2792 7.78414C1.77666 7.48123 0.649721 6.16874 0.649721 4.58365V4.54328C1.08625 4.78559 1.59391 4.93703 2.13195 4.9572C1.24869 4.37161 0.670034 3.3721 0.670034 2.24132C0.670034 1.63557 0.832441 1.08028 1.11672 0.595658C2.73095 2.5745 5.15736 3.86679 7.87815 4.00816C7.8274 3.76585 7.79694 3.51347 7.79694 3.26106C7.79694 1.46393 9.25888 0 11.0761 0C12.0203 0 12.8731 0.393749 13.4721 1.02981C14.2132 0.888468 14.9238 0.615858 15.5533 0.242309C15.3096 0.999538 14.7919 1.6356 14.1117 2.03941C14.7716 1.96878 15.4112 1.78701 16 1.53463C15.5534 2.18075 14.995 2.75621 14.3554 3.22066Z" fill="#324978"/>
</svg>
