<svg width="16" height="11" viewBox="0 0 16 11" fill="none" xmlns="http://www.w3.org/2000/svg">
<path d="M15.6657 1.69878C15.4816 1.0301 14.9395 0.503472 14.2511 0.324753C13.0033 0 8 0 8 0C8 0 2.99669 0 1.7489 0.324753C1.06052 0.5035 0.518349 1.0301 0.334336 1.69878C0 2.91079 0 5.43954 0 5.43954C0 5.43954 0 7.96829 0.334336 9.18031C0.518349 9.84898 1.06052 10.3537 1.7489 10.5324C2.99669 10.8571 8 10.8571 8 10.8571C8 10.8571 13.0033 10.8571 14.2511 10.5324C14.9395 10.3537 15.4816 9.84898 15.6657 9.18031C16 7.9683 16 5.43954 16 5.43954C16 5.43954 16 2.91079 15.6657 1.69878V1.69878ZM6.36362 7.73546V3.14362L10.5454 5.4396L6.36362 7.73546V7.73546Z" fill="#324978"/>
</svg>
