<svg width="473" height="479" viewBox="0 0 473 479" fill="none" xmlns="http://www.w3.org/2000/svg">
<path opacity="0.1" d="M29.9427 439.114L30.1092 438.948L30.9132 438.144L70.3127 398.744L71.1167 397.94L71.2832 397.774L69.7419 357.97L90.4144 378.642L91.2185 377.838L69.6772 356.297L68.1225 316.147L110.516 358.541L111.32 357.737L111.487 357.57L108.326 275.943L150.72 318.337L151.524 317.533L170.821 298.235L171.626 297.431L230.96 238.097L231.127 237.93L231.931 237.126L232.097 236.96L231.751 236.946L145.481 150.676L224.515 71.6413L227.698 153.859C227.701 153.936 227.719 154.013 227.752 154.086C227.784 154.159 227.83 154.226 227.888 154.284L271.33 197.727L272.134 196.923L229.74 154.529L269.89 156.084L291.432 177.625L292.236 176.821L271.563 156.148L311.367 157.69L311.534 157.523L312.338 156.719L312.504 156.553L391.941 77.116L392.911 76.1455L472.181 -3.12456L472.75 -3.69306L472.135 -4.30761L386.3 -90.1431L385.431 -91.0121L385.251 -91.192L299.415 -177.028L298.366 -178.077L212.71 -263.732L212.53 -263.912L211.662 -264.781L168.219 -308.224L125.826 -350.617L124.597 -351.846L38.7612 -437.682L37.8923 -438.551L37.7123 -438.731L-2.09125 -440.272L17.04 -459.403L16.1712 -460.272L-3.76417 -440.336L-43.9142 -441.891L-4.68113 -481.124L-5.54998 -481.993L-5.72983 -482.173L-87.3565 -485.333L-48.1234 -524.566L-48.5579 -525.001L-88.1929 -485.366L-89.3301 -484.228L-128.563 -444.996L-129.367 -444.192L-129.533 -444.025L-208.97 -364.589L-209.774 -363.785L-209.94 -363.618L-209.594 -363.605L-123.938 -277.949L-164.088 -279.503L-229.072 -344.487L-229.876 -343.683L-165.761 -279.568L-205.911 -281.123L-249.173 -324.385L-249.977 -323.581L-207.584 -281.188L-289.21 -284.348L-289.377 -284.182L-290.181 -283.378L-309.479 -264.08L-310.283 -263.276L-369.617 -203.941L-369.784 -203.775L-370.588 -202.971L-284.752 -117.135L-366.725 -120.309L-409.808 -163.391L-409.821 -163.737L-409.987 -163.571L-410.792 -162.767L-368.398 -120.374L-408.548 -121.928L-430.089 -143.469L-430.893 -142.665L-410.221 -121.993L-450.025 -123.534L-450.191 -123.368L-450.995 -122.564L-451.162 -122.397L-531 -42.5586L-530.566 -42.1242L-451.129 -121.561L-447.955 -39.5878L-487.826 0.282846L-488.172 0.269437L-487.992 0.449289L-487.123 1.31813L-447.89 -37.9147L-446.336 2.23533L-466.271 22.1704L-465.402 23.0393L-446.271 3.90824L-444.73 43.7115L-444.55 43.8916L-443.681 44.7604L-357.845 130.596L-357.665 130.776L-356.796 131.645L-270.781 217.661L-269.732 218.71L-184.076 304.365L-183.896 304.545L-183.027 305.414L-182.847 305.594L-53.7492 434.692L-52.5204 435.921L-9.69232 478.749L29.9427 439.114ZM-272.134 135.096L-231.984 136.651L-146.328 222.307L-186.478 220.752L-272.134 135.096ZM-405.799 -38.3013L-446.786 -39.8883L-449.946 -121.515L-386.266 -57.8345L-405.799 -38.3013ZM-364.746 -78.1261L-366.333 -119.113L-284.706 -115.952L-343.639 -57.0192L-364.746 -78.1261ZM-246.168 -199.161L-285.972 -200.703L-287.513 -240.506L-246.168 -199.161ZM-244.939 -197.933L-201.857 -154.85L-200.302 -114.7L-285.089 -199.487L-244.939 -197.933ZM-123.023 -275.897L-119.863 -194.271L-160.849 -195.858L-181.956 -216.964L-123.023 -275.897ZM-124.275 -360.301L-84.1254 -358.747L1.53067 -273.091L-38.6193 -274.645L-124.275 -360.301ZM-86.5277 -442.36L-46.724 -440.819L-84.9865 -402.556L-86.5277 -442.36ZM126.249 -309.187L127.803 -269.037L43.0162 -353.824L83.1663 -352.269L126.249 -309.187ZM84.8391 -352.204L124.643 -350.663L126.184 -310.86L84.8391 -352.204ZM390.123 34.6229L310.853 113.893L309.298 73.7429L388.568 -5.52718L390.123 34.6229ZM107.511 233.316L147.314 234.858L148.855 274.661L107.511 233.316ZM106.282 232.088L63.1994 189.005L61.6448 148.855L146.432 233.642L106.282 232.088ZM-190.161 138.27L-104.505 223.926L-144.655 222.372L-230.311 136.715L-190.161 138.27ZM-42.3025 -357.127L43.3536 -271.471L3.2036 -273.026L-82.4525 -358.682L-42.3025 -357.127ZM141.941 65.5926L140.387 25.4427L180.257 -14.428L220.407 -12.8734L141.941 65.5926ZM-20.8595 227.165L-61.0095 225.61L-146.666 139.954L-106.516 141.509L-20.8595 227.165ZM-74.1643 -107.8L-32.9328 -106.203L-29.7722 -24.577L-72.1654 -66.9702L-114.559 -109.364L-74.1643 -107.8ZM127.868 -267.364L129.455 -226.377L88.8153 -227.951L85.6545 -309.577L127.868 -267.364ZM170.488 -223.608L131.657 -184.776L89.6975 -226.736L170.488 -223.608ZM263.021 -12.4043L223.217 -13.9455L261.48 -52.208L263.021 -12.4043ZM79.4483 84.6435L58.5962 63.7914L137.63 -15.2429L139.185 24.9067L79.4483 84.6435ZM-102.832 223.991L-188.488 138.335L-148.338 139.89L-62.6824 225.546L-102.832 223.991ZM-234.733 53.0239L-193.746 54.6109L-190.586 136.237L-254.266 72.5572L-234.733 53.0239ZM-195.802 -28.9893L-155.999 -27.4479L-194.261 10.8144L-195.802 -28.9893ZM-154.326 -27.3831L-114.176 -25.8285L-192.642 52.6373L-194.196 12.4873L-154.326 -27.3831ZM179.207 -56.8191L218.606 -96.2186L261.179 -53.6453L221.78 -14.2459L179.207 -56.8191ZM-112.503 -25.7638L-71.5165 -24.1768L-69.9429 16.4634L-151.569 13.3026L-112.503 -25.7638ZM-71.9207 -65.1174L-29.9618 -23.1584L-68.7926 15.6723L-71.9207 -65.1174ZM-26.9046 18.9653L52.3654 -60.3048L53.92 -20.1548L-25.35 59.1153L-26.9046 18.9653ZM87.6781 -226.814L90.8388 -145.187L48.625 -187.401L47.038 -228.387L87.6781 -226.814ZM55.1352 -19.2726L136.761 -16.1119L58.2958 62.3537L55.1352 -19.2726ZM48.69 -185.728L133.477 -100.94L93.3272 -102.495L50.2446 -145.578L48.69 -185.728ZM94.5558 -101.267L134.359 -99.7254L135.9 -59.9219L94.5558 -101.267ZM137.129 -58.6931L135.542 -99.6796L217.168 -96.519L177.936 -57.2862L158.236 -37.5865L137.129 -58.6931ZM91.6541 -102.56L51.8504 -104.101L50.3092 -143.905L91.6541 -102.56ZM92.8828 -101.331L157.432 -36.7824L138.134 -17.4847L52.7329 -102.886L92.8828 -101.331ZM135.15 -100.876L92.0673 -143.959L88.8933 -225.931L217.123 -97.7019L135.15 -100.876ZM47.3965 -188.629L6.05199 -229.974L45.8555 -228.433L47.3965 -188.629ZM49.0712 -145.379L50.6352 -104.984L8.67606 -146.943L47.507 -185.774L49.0712 -145.379ZM72.1668 -81.8439L53.4376 -63.1147L51.9288 -102.082L72.1668 -81.8439ZM73.0357 -80.975L136.716 -17.2947L55.0894 -20.4553L53.5024 -61.4417L73.0357 -80.975ZM-25.8636 61.1115C-25.7864 61.1147 -25.7101 61.1018 -25.6391 61.0747C-25.5679 61.0474 -25.5041 61.0071 -25.4519 60.9548L53.9846 -18.4817L57.1586 63.4908L17.1216 103.528L-22.6799 143.329L-108.081 57.9283L-25.8636 61.1115ZM86.7959 -228.029L46.4012 -229.593C46.4014 -229.593 46.401 -229.593 46.4012 -229.593L6.00615 -231.157L44.8369 -269.988L86.7959 -228.029ZM47.2067 -187.211L7.80723 -147.812L-34.766 -190.385L4.63341 -229.784L47.2067 -187.211ZM52.3006 -61.9777L-26.9694 17.2924L-28.524 -22.8576L50.746 -102.128L52.3006 -61.9777ZM-28.0971 18.6742L-26.5006 59.9057L-108.127 56.7451L-29.6612 -21.7209L-28.0971 18.6742ZM-71.5623 -25.3599L-111.366 -26.9009L-73.1033 -65.1634L-71.5623 -25.3599ZM-193.792 53.4277L-233.596 51.8867L-195.333 13.6242L-193.792 53.4277ZM-188.534 137.152L-169.805 118.423L-149.567 138.661L-188.534 137.152ZM-189.403 136.283L-192.577 54.3102L-152.706 14.4396L-70.7334 17.6136L-109.966 56.8466L-189.403 136.283ZM138.781 -16.034L178.584 -14.4928L140.322 23.7697L138.781 -16.034ZM179.967 -15.6202L139.572 -17.1843L178.403 -56.0151L220.362 -14.0561L179.967 -15.6202ZM-115.977 -109.174L-73.4039 -66.6005L-112.803 -27.2013L-155.377 -69.7748L-115.977 -109.174ZM-114.222 -27.0117L-154.616 -28.5758L-195.012 -30.1397L-156.181 -68.9707L-114.222 -27.0117ZM-195.398 11.9515L-255.135 71.6881L-275.987 50.8358L-196.953 -28.1987L-195.398 11.9515ZM-101.604 225.219L-61.2092 226.784L-19.9772 228.38L-16.8166 310.007L-101.604 225.219ZM-147.894 138.726L-169.001 117.619L-110.068 58.6861L-106.908 140.313L-147.894 138.726ZM-108.885 58.7321L-24.0982 143.519L-105.725 140.359L-108.885 58.7321ZM-21.8109 144.198L17.5886 104.799L60.1618 147.372L20.7624 186.772L-21.8109 144.198ZM19.0067 104.609L58.8104 106.15L60.3516 145.954L19.0067 104.609ZM61.5802 147.182L59.9932 106.196L100.633 107.77L103.794 189.396L61.5802 147.182ZM18.9613 103.426L57.7921 64.5954L99.7511 106.554L18.9613 103.426ZM80.3171 85.5123L99.8504 65.9791L140.837 67.5661L143.997 149.193L80.3171 85.5123ZM100.987 64.8421L139.25 26.5796L140.791 66.3833L100.987 64.8421ZM222.08 -12.8086L263.067 -11.2216L264.64 29.4186L183.014 26.258L222.08 -12.8086ZM262.662 -52.1622L304.622 -10.203L265.791 28.6279L262.662 -52.1622ZM220.025 -96.4086L301.651 -93.248L304.812 -11.6213L220.025 -96.4086ZM130.638 -226.331L129.097 -266.135L170.442 -224.79L130.638 -226.331ZM84.4257 -310.806L87.5997 -228.833L-40.6296 -357.062L41.3434 -353.888L84.4257 -310.806ZM43.3994 -270.288L24.6702 -251.559L4.43215 -271.797L43.3994 -270.288ZM-37.0536 -191.064L-118.68 -194.225L-121.84 -275.851L-37.0536 -191.064ZM-35.8249 -189.836L7.43756 -146.573L50.4455 -103.565L-28.589 -24.5308L-31.7728 -106.749C-31.7755 -106.826 -31.7944 -106.903 -31.8271 -106.977C-31.8598 -107.05 -31.9056 -107.117 -31.9621 -107.173L-117.798 -193.009L-35.8249 -189.836ZM-33.8148 -107.419L-73.9648 -108.973L-159.621 -194.629L-119.471 -193.074L-33.8148 -107.419ZM-75.6378 -109.038L-115.788 -110.593L-201.444 -196.249L-161.294 -194.694L-75.6378 -109.038ZM-116.846 -110.043L-156.246 -70.6434L-198.819 -113.217L-159.42 -152.616L-116.846 -110.043ZM-157.664 -70.4538L-197.468 -71.9948L-199.009 -111.799L-157.664 -70.4538ZM-200.238 -113.027L-198.651 -72.0408L-239.291 -73.6142L-242.451 -155.241L-200.238 -113.027ZM-157.618 -69.2706L-196.449 -30.4399L-238.408 -72.399L-157.618 -69.2706ZM-218.974 -51.357L-238.508 -31.8237L-279.494 -33.4107L-282.655 -115.037L-218.974 -51.357ZM-218.106 -50.4881L-197.867 -30.2501L-236.835 -31.7589L-218.106 -50.4881ZM-197.822 -29.0673L-277.092 50.2027L-317.242 48.6481L-237.972 -30.622L-197.822 -29.0673ZM-104.46 225.109L-123.189 243.838L-143.427 223.6L-104.46 225.109ZM-59.4436 309.191L-99.2473 307.65L-100.788 267.846L-59.4436 309.191ZM-122.32 244.707L-103.022 225.409L-17.6207 310.811L-57.7707 309.256L-122.32 244.707ZM-16.7386 312.026L-15.1975 351.829L-56.5423 310.484L-16.7386 312.026ZM-13.9594 353.303L-15.5233 312.908L26.4359 354.867L-12.395 393.698L-13.9594 353.303ZM-15.3335 311.49L24.0659 272.09L66.6394 314.664L27.24 354.063L-15.3335 311.49ZM25.4843 271.901L65.288 273.442L66.829 313.245L25.4843 271.901ZM23.5991 270.819L-15.6339 310.052L-18.8173 227.835C-18.8201 227.758 -18.839 227.68 -18.8717 227.607C-18.9046 227.533 -18.9502 227.466 -19.0067 227.41L-104.843 141.574L-22.8695 144.748L20.3925 188.01L63.4004 231.018L23.5991 270.819ZM21.6312 187.641L60.4622 148.81L62.0263 189.204L63.5904 229.6L21.6312 187.641ZM63.2643 190.678L104.609 232.023L64.8055 230.482L63.2643 190.678ZM105.022 190.625L101.848 108.652L144.242 151.045L230.078 236.881L148.105 233.707L105.022 190.625ZM142.006 67.2656L181.877 27.3949L263.85 30.5689L224.617 69.8017L145.18 149.238L142.006 67.2656ZM290.182 134.563L226.502 70.8828L308.128 74.0436L309.715 115.03L290.182 134.563ZM309.78 116.703L311.289 155.67L291.051 135.432L309.78 116.703ZM308.083 72.8604L226.456 69.7001L304.922 -8.76593L308.083 72.8604ZM365.731 -71.3124L345.493 -91.5502L384.46 -90.0414L365.731 -71.3124ZM364.927 -70.5083L305.995 -11.576L302.834 -93.202L343.82 -91.615L364.927 -70.5083ZM302.442 -94.3983L216.785 -180.054L256.935 -178.5L342.592 -92.8437L302.442 -94.3983ZM214.744 -180.724C214.746 -180.647 214.765 -180.569 214.798 -180.496C214.831 -180.423 214.876 -180.356 214.933 -180.299L300.769 -94.4631L218.796 -97.6371L132.525 -183.907L211.56 -262.942L214.744 -180.724ZM129.287 -267.553L168.686 -306.953L211.26 -264.379L171.86 -224.98L129.287 -267.553ZM42.1342 -355.039L40.5928 -394.842L81.9377 -353.498L42.1342 -355.039ZM39.364 -396.071L40.951 -355.085L-40.6752 -358.245L-1.44238 -397.478L18.2574 -417.178L39.364 -396.071ZM-2.71322 -397.945L-42.1127 -358.546L-84.6862 -401.119L-45.2867 -440.518L-2.71322 -397.945ZM-85.9249 -400.75L-43.5313 -358.356L-83.9257 -359.92C-83.9261 -359.92 -83.9265 -359.92 -83.9269 -359.92L-125.158 -361.516L-128.318 -443.143L-85.9249 -400.75ZM2.75922 -271.862L23.8661 -250.755L-35.0666 -191.822L-38.2272 -273.449L2.75922 -271.862ZM-36.2496 -191.868L-121.036 -276.655L-39.41 -273.495L-36.2496 -191.868ZM-162.522 -195.923L-201.489 -197.431L-182.76 -216.161L-162.522 -195.923ZM-160.288 -153.485L-199.119 -114.654L-200.684 -155.048C-200.684 -155.049 -200.684 -155.049 -200.684 -155.05L-202.248 -195.444L-160.288 -153.485ZM-201.922 -156.523L-243.267 -197.868L-203.463 -196.327L-201.922 -156.523ZM-243.68 -156.47L-240.506 -74.4967L-282.899 -116.89L-368.735 -202.726L-286.762 -199.552L-243.68 -156.47ZM-283.837 -115.083L-280.677 -33.4567L-362.303 -36.6171L-283.837 -115.083ZM-239.645 -30.6867L-318.915 48.5833L-359.065 47.0287L-279.795 -32.2414L-239.645 -30.6867ZM-359.855 48.1791L-318.624 49.7753C-318.624 49.7754 -318.624 49.7754 -318.623 49.7754L-278.229 51.3399L-356.695 129.806L-359.855 48.1791ZM-191.39 137.041L-231.785 135.477L-273.017 133.881L-276.177 52.2543L-191.39 137.041ZM-145.1 223.535L-123.993 244.642L-182.925 303.575L-186.086 221.948L-145.1 223.535ZM-123.124 245.511L-102.017 266.618L-100.43 307.604L-182.057 304.444L-123.124 245.511ZM-58.215 310.42L-15.1324 353.503L-13.5778 393.653L-98.365 308.865L-58.215 310.42ZM-13.5133 395.325L-11.9263 436.312L-52.5662 434.738L-55.7268 353.112L-13.5133 395.325ZM-12.2845 396.554L29.0604 437.899L-10.7433 436.358L-12.2845 396.554ZM69.8782 398.31L30.4788 437.709L-12.0947 395.136L27.3047 355.736L69.8782 398.31ZM70.0678 396.891L28.1088 354.932L66.9398 316.101L68.5039 356.496L70.0678 396.891ZM110.271 356.688L68.0575 314.474L66.4705 273.487L107.111 275.061L110.271 356.688ZM25.4385 270.718L64.2695 231.887L106.229 273.846L25.4385 270.718ZM65.6878 231.697L105.838 233.252L170.387 297.801L151.089 317.099L65.6878 231.697ZM171.191 296.997L150.084 275.89L148.497 234.903L230.124 238.064L171.191 296.997ZM270.09 154.91L228.858 153.314L225.698 71.6869L310.485 156.474L270.09 154.91ZM312.472 155.716L310.917 115.566L390.187 36.2957L391.742 76.4458L312.472 155.716ZM392.879 75.3089L391.315 34.9142L389.718 -6.3173L471.345 -3.15719L392.879 75.3089ZM471.299 -4.34L389.081 -7.52344C389.004 -7.52664 388.928 -7.51367 388.857 -7.48656C388.786 -7.45945 388.722 -7.41899 388.67 -7.36673L309.233 72.0698L306.059 -9.90268L385.898 -89.7412L471.299 -4.34ZM344.264 -92.7789L258.608 -178.435L298.758 -176.88L384.414 -91.2243L344.264 -92.7789ZM297.53 -178.109L257.135 -179.673L215.904 -181.27L212.743 -262.896L297.53 -178.109ZM167.817 -307.822L128.986 -268.991L127.422 -309.385L125.858 -349.781L167.817 -307.822ZM123.76 -351.878L83.6104 -353.433L19.0614 -417.982L38.3591 -437.28L123.76 -351.878ZM-1.90919 -398.749L-43.8684 -440.708L-3.4737 -439.144C-3.47328 -439.144 -3.4729 -439.144 -3.47248 -439.144L36.9216 -437.58L-1.90919 -398.749ZM-45.5873 -441.956L-86.5737 -443.543L-88.1471 -484.183L-6.52051 -481.022L-45.5873 -441.956ZM-89.2975 -483.392L-87.7334 -442.997L-86.1695 -402.602L-128.128 -444.561L-89.2975 -483.392ZM-129.501 -443.189L-126.318 -360.972C-126.315 -360.894 -126.296 -360.817 -126.263 -360.743C-126.23 -360.67 -126.184 -360.603 -126.128 -360.546L-40.292 -274.71L-122.265 -277.884L-208.535 -364.154L-129.501 -443.189ZM-123.892 -276.766L-142.621 -258.037L-162.859 -278.275L-123.892 -276.766ZM-143.426 -257.233L-202.358 -198.3L-205.519 -279.927L-164.532 -278.34L-143.426 -257.233ZM-206.702 -279.973L-203.541 -198.346L-288.328 -283.133L-206.702 -279.973ZM-289.747 -282.943L-204.345 -197.542L-244.495 -199.096L-309.044 -263.646L-289.747 -282.943ZM-309.848 -262.841L-288.741 -241.735L-287.154 -200.748L-368.781 -203.909L-309.848 -262.841ZM-367.516 -119.159L-365.975 -79.3549L-407.319 -120.7L-367.516 -119.159ZM-408.992 -120.764L-344.443 -56.2151L-363.741 -36.9175L-449.142 -122.319L-408.992 -120.764ZM-446.74 -38.7055L-406.936 -37.1641L-445.199 1.09817L-446.74 -38.7055ZM-445.134 2.77109L-385.397 -56.9657L-364.545 -36.1134L-443.579 42.9211L-445.134 2.77109ZM-443.279 44.3584L-363.44 -35.4801L-281.467 -32.3061L-360.904 47.1304C-360.956 47.1827 -360.997 47.2464 -361.024 47.3174C-361.051 47.3888 -361.064 47.4652 -361.061 47.5423L-357.878 129.76L-443.279 44.3584ZM-277.36 52.2087L-274.177 134.426C-274.174 134.503 -274.155 134.581 -274.122 134.654C-274.089 134.728 -274.044 134.795 -273.987 134.851L-188.151 220.687L-270.124 217.513L-356.394 131.243L-277.36 52.2087ZM-268.895 218.742L-187.269 221.903L-184.108 303.529L-268.895 218.742ZM-182.011 305.627L-100.038 308.801L-56.9553 351.883L-53.7813 433.856L-182.011 305.627ZM29.1061 439.082L-9.72471 477.913L-51.6839 435.953L29.1061 439.082Z" fill="#475F91"/>
</svg>
