<svg width="273" height="166" viewBox="0 0 273 166" fill="none" xmlns="http://www.w3.org/2000/svg">
<path opacity="0.2" d="M306.791 220.619L306.889 220.521L307.361 220.049L330.514 196.896L330.986 196.424L331.084 196.326L331.084 173.842L342.326 185.084L342.799 184.611L331.084 172.897L331.084 150.217L354.139 173.271L354.611 172.799L354.709 172.701L354.709 126.592L377.764 149.646L378.236 149.174L389.576 137.834L390.049 137.361L424.916 102.494L425.014 102.396L425.486 101.924L425.584 101.826H425.388L378.472 54.9101L424.916 8.46668L424.916 54.91C424.916 54.9533 424.924 54.9965 424.941 55.0371C424.958 55.0776 424.982 55.115 425.014 55.1465L448.639 78.7715L449.111 78.299L426.056 55.2443L448.736 55.2443L460.451 66.959L460.924 66.4865L449.681 55.2443H472.166L472.264 55.1464L472.736 54.6739L472.834 54.5761L519.514 7.89641L520.084 7.32609L566.666 -39.2558L567 -39.5898L566.666 -39.924L519.986 -86.6035L519.514 -87.0761L519.416 -87.1739L472.736 -133.854L472.166 -134.424L425.584 -181.006L425.486 -181.104L425.014 -181.576L401.389 -205.201L378.334 -228.256L377.666 -228.924L330.986 -275.604L330.514 -276.076L330.416 -276.174L307.931 -276.174L319.174 -287.416L318.701 -287.889L306.986 -276.174L284.307 -276.174L307.361 -299.229L306.889 -299.701L306.791 -299.799L260.682 -299.799L283.736 -322.854L283.5 -323.09L260.209 -299.799L259.541 -299.131L236.486 -276.076L236.014 -275.604L235.916 -275.506L189.236 -228.826L188.764 -228.354L188.666 -228.256L188.862 -228.256L235.443 -181.674L212.763 -181.674L177.424 -217.014L176.951 -216.541L211.818 -181.674L189.138 -181.674L165.611 -205.201L165.139 -204.729L188.193 -181.674L142.084 -181.674L141.986 -181.576L141.514 -181.104L130.174 -169.764L129.701 -169.291L94.834 -134.424L94.7362 -134.326L94.2637 -133.854L140.943 -87.174L94.6383 -87.174L71.209 -110.603L71.2089 -110.799L71.1112 -110.701L70.6387 -110.229L93.6933 -87.174L71.0133 -87.174L59.2987 -98.8886L58.8262 -98.4161L70.0683 -87.174L47.584 -87.1739L47.4862 -87.0761L47.0137 -86.6036L46.9158 -86.5057L0 -39.5898L0.23625 -39.3536L46.9159 -86.0333L46.9159 -39.7283L23.4866 -16.2989L23.2909 -16.2989L23.3887 -16.2011L23.8612 -15.7286L46.9158 -38.7832L46.9158 -16.1032L35.2012 -4.3886L35.6737 -3.9161L46.9158 -15.1582L46.9158 7.32597L47.0137 7.4239L47.4862 7.8964L94.1658 54.576L94.2637 54.6739L94.7362 55.1464L141.514 101.924L142.084 102.494L188.666 149.076L188.764 149.174L189.236 149.646L189.334 149.744L259.541 219.951L260.209 220.619L283.5 243.91L306.791 220.619ZM142.557 55.2442L165.237 55.2442L211.818 101.826L189.138 101.826L142.557 55.2442ZM70.7365 -39.9239L47.584 -39.9239L47.584 -86.0333L82.215 -51.4023L70.7365 -39.9239ZM94.834 -63.3533L94.834 -86.5058L140.943 -86.5058L106.312 -51.8748L94.834 -63.3533ZM164.568 -134.424L142.084 -134.424L142.084 -156.908L164.568 -134.424ZM165.237 -133.756L188.666 -110.326L188.666 -87.6464L142.557 -133.756L165.237 -133.756ZM235.916 -180.533L235.916 -134.424L212.763 -134.424L201.285 -145.902L235.916 -180.533ZM237.057 -228.256L259.737 -228.256L306.318 -181.674H283.638L237.057 -228.256ZM260.209 -275.506L282.693 -275.506L260.209 -253.021L260.209 -275.506ZM377.666 -204.826L377.666 -182.146L331.556 -228.256L354.236 -228.256L377.666 -204.826ZM355.181 -228.256L377.666 -228.256L377.666 -205.771L355.181 -228.256ZM519.416 -16.1034L472.834 30.4785L472.834 7.79848L519.416 -38.7834V-16.1034ZM355.181 102.494L377.666 102.494L377.666 124.978L355.181 102.494ZM354.513 101.826L331.084 78.3966L331.084 55.7166L377.193 101.826L354.513 101.826ZM188.862 55.2442L235.443 101.826L212.763 101.826L166.182 55.2442L188.862 55.2442ZM283.361 -228.256L329.943 -181.674H307.263L260.682 -228.256L283.361 -228.256ZM378.334 6.85359L378.334 -15.8264L401.763 -39.2558H424.443L378.334 6.85359ZM282.693 101.826L260.013 101.826L213.432 55.2442L236.111 55.2441L282.693 101.826ZM259.875 -86.5058L283.166 -86.5058V-40.3966L260.111 -63.4511L237.057 -86.5057L259.875 -86.5058ZM377.666 -181.202L377.666 -158.049L354.709 -158.049L354.709 -204.158L377.666 -181.202ZM400.819 -157.381L378 -134.562L355.182 -157.381L400.819 -157.381ZM448.541 -39.9239H426.056L448.541 -62.4083V-39.9239ZM342.562 19.0001L331.223 7.66027L377.666 -38.7831V-16.1033L342.562 19.0001ZM236.388 101.826L189.807 55.2442L212.487 55.2442L259.068 101.826L236.388 101.826ZM165.513 7.9942L188.666 7.9942L188.666 54.1036L154.035 19.4726L165.513 7.9942ZM189.334 -39.2559L211.818 -39.2558L189.334 -16.7715V-39.2559ZM212.763 -39.2558L235.443 -39.2558L189.334 6.85348V-15.8265L212.763 -39.2558ZM402.098 -63.2147L425.25 -86.3672L448.402 -63.2148L425.25 -40.0623L402.098 -63.2147ZM236.388 -39.2558L259.541 -39.2558V-16.2989L213.432 -16.299L236.388 -39.2558ZM260.209 -62.4083L283.027 -39.59L260.209 -16.7716L260.209 -62.4083ZM283.834 -15.8263L330.416 -62.4081V-39.7282L283.834 6.8537V-15.8263ZM354.041 -157.381V-111.271L331.084 -134.228L331.084 -157.381H354.041ZM331.084 -39.2557L377.193 -39.2557L331.084 6.85347V-39.2557ZM331.084 -133.283L377.193 -87.1738L354.513 -87.1738L331.084 -110.603L331.084 -133.283ZM355.182 -86.5057H377.666L377.666 -64.0214L355.182 -86.5057ZM378.334 -63.3532L378.334 -86.5057H424.443L401.389 -63.4511L389.812 -51.8748L378.334 -63.3532ZM353.568 -87.1739L331.084 -87.1739L331.084 -109.658L353.568 -87.1739ZM354.237 -86.5057L389.34 -51.4023L378 -40.0623L331.557 -86.5057H354.237ZM378.138 -87.1739L354.709 -110.603L354.709 -156.908L424.443 -87.1739L378.138 -87.1739ZM330.416 -134.896L307.932 -157.381L330.416 -157.381L330.416 -134.896ZM330.416 -110.465L330.416 -87.6464L307.597 -110.465L330.416 -133.283L330.416 -110.465ZM342.09 -75.0272L331.084 -64.0213L331.084 -86.0332L342.09 -75.0272ZM342.563 -74.5547L377.193 -39.9238H331.084L331.084 -63.0763L342.563 -74.5547ZM283.5 7.9943C283.543 7.99443 283.587 7.98545 283.628 7.96857C283.668 7.95154 283.705 7.92734 283.736 7.89663L330.416 -38.7831L330.416 7.52171L306.889 31.0489L283.5 54.4376L237.057 7.99443L283.5 7.9943ZM353.568 -158.049L330.75 -158.049C330.75 -158.049 330.75 -158.049 330.75 -158.049L307.932 -158.049L330.75 -180.867L353.568 -158.049ZM330.277 -134.09L307.125 -110.937L283.973 -134.09L307.125 -157.242L330.277 -134.09ZM330.416 -63.3532L283.834 -16.7713V-39.4513L330.416 -86.0332L330.416 -63.3532ZM283.166 -15.9649L283.166 7.32609L237.056 7.32608L283.166 -38.7833L283.166 -15.9649ZM259.541 -39.9241L237.057 -39.924L259.541 -62.4084L259.541 -39.9241ZM188.666 7.32586L166.182 7.32597L188.666 -15.1584L188.666 7.32586ZM189.807 54.576L200.813 43.57L211.819 54.576L189.807 54.576ZM189.334 54.1035L189.334 7.79847L212.764 -15.6309H259.069L236.014 7.42379L189.334 54.1035ZM378.334 -39.2558H400.818L378.334 -16.7714V-39.2558ZM401.625 -39.9239L378.807 -39.9239L401.625 -62.7422L424.443 -39.9239L401.625 -39.9239ZM236.25 -86.3673L259.402 -63.2148L236.25 -40.0625L213.098 -63.215L236.25 -86.3673ZM235.443 -39.9241H212.625L189.807 -39.924L212.625 -62.7425L235.443 -39.9241ZM188.666 -16.1033L153.563 19L142.223 7.66003L188.666 -38.7834L188.666 -16.1033ZM237.057 102.494L259.875 102.494L283.166 102.494L283.166 148.604L237.057 102.494ZM212.763 54.5761L201.285 43.0976L235.916 8.4667L235.916 54.576L212.763 54.5761ZM236.584 8.46682L282.693 54.5761L236.584 54.5761L236.584 8.46682ZM283.973 54.9102L307.125 31.7577L330.277 54.9101L307.125 78.0626L283.973 54.9102ZM307.932 31.6192L330.416 31.6192V54.1036L307.932 31.6192ZM331.084 54.7717V31.6192H354.041V77.7286L331.084 54.7717ZM307.932 30.9511L330.75 8.13275L353.568 30.9511H307.932ZM343.035 19.4726L354.513 7.9942L377.666 7.99421L377.666 54.1036L343.035 19.4726ZM355.181 7.32608L377.666 -15.1583L377.666 7.32608H355.181ZM425.388 -39.2558L448.541 -39.2558V-16.2989H402.431L425.388 -39.2558ZM449.209 -62.4083L472.027 -39.5898L449.209 -16.7714V-62.4083ZM426.057 -86.5058L472.166 -86.5058L472.166 -40.3964L426.057 -86.5058ZM378.334 -158.049V-180.533L400.818 -158.049L378.334 -158.049ZM354.041 -204.827L354.041 -158.521L284.306 -228.256L330.612 -228.256L354.041 -204.827ZM329.943 -181.006L318.937 -170L307.931 -181.006L329.943 -181.006ZM282.693 -134.424L236.584 -134.424L236.584 -180.533L282.693 -134.424ZM283.362 -133.756L306.889 -110.229L330.277 -86.8398L283.834 -40.3964L283.834 -86.8397C283.834 -86.8833 283.825 -86.9268 283.808 -86.9675C283.791 -87.0083 283.767 -87.0453 283.736 -87.076L237.057 -133.756L283.362 -133.756ZM282.693 -87.174L260.013 -87.174L213.432 -133.756L236.112 -133.756L282.693 -87.174ZM259.068 -87.174L236.388 -87.174L189.806 -133.756L212.486 -133.756L259.068 -87.174ZM235.777 -86.8398L212.625 -63.6873L189.472 -86.8398L212.625 -109.992L235.777 -86.8398ZM211.818 -63.549L189.334 -63.5489L189.334 -86.0333L211.818 -63.549ZM188.666 -86.7015V-63.549L165.709 -63.5489L165.709 -109.658L188.666 -86.7015ZM211.818 -62.8807L189 -40.0623L166.182 -62.8808L211.818 -62.8807ZM176.715 -51.4023L165.237 -39.9239H142.084V-86.0333L176.715 -51.4023ZM177.187 -50.9298L188.193 -39.9239L166.182 -39.9239L177.187 -50.9298ZM188.193 -39.2558L141.612 7.32609L118.932 7.32609L165.513 -39.2558L188.193 -39.2558ZM235.443 102.494L224.437 113.5L213.432 102.494L235.443 102.494ZM259.068 149.076L236.584 149.076L236.584 126.592L259.068 149.076ZM224.91 113.973L236.25 102.633L282.693 149.076L260.013 149.076L224.91 113.973ZM283.166 149.744L283.166 172.228L260.681 149.744L283.166 149.744ZM283.834 173.035L283.834 150.217L306.652 173.035L283.834 195.854L283.834 173.035ZM283.972 149.41L307.125 126.258L330.277 149.41L307.125 172.563L283.972 149.41ZM307.931 126.119L330.416 126.119L330.416 148.603L307.931 126.119ZM306.889 125.549L283.834 148.604V102.16C283.834 102.117 283.825 102.073 283.808 102.033C283.791 101.992 283.767 101.955 283.736 101.924L237.057 55.2444L283.362 55.2445L306.889 78.7715L330.277 102.16L306.889 125.549ZM307.597 78.5351L330.416 55.7167L330.416 78.5349L330.416 101.354L307.597 78.5351ZM331.084 79.3417L353.568 101.826L331.084 101.826L331.084 79.3417ZM354.709 78.3967V32.0917L377.764 55.1464L424.443 101.826L378.138 101.826L354.709 78.3967ZM378.334 7.7986L401.763 -15.6308L448.068 -15.6308L425.014 7.42378L378.334 54.1036L378.334 7.7986ZM460.688 42.625L426.057 7.9941L472.166 7.99418L472.166 31.1467L460.688 42.625ZM472.166 32.0917V54.1036L461.16 43.0976L472.166 32.0917ZM472.166 7.32583L426.057 7.32596L472.166 -38.7834L472.166 7.32583ZM507.937 -75.4998L496.932 -86.5056H518.943L507.937 -75.4998ZM507.465 -75.0274L472.834 -40.3966L472.834 -86.5056L495.987 -86.5057L507.465 -75.0274ZM472.638 -87.1739L426.056 -133.756L448.736 -133.756L495.318 -87.1739H472.638ZM424.916 -134.09C424.916 -134.046 424.925 -134.003 424.942 -133.962C424.959 -133.921 424.983 -133.884 425.014 -133.854L471.693 -87.1739L425.388 -87.1739L378.472 -134.09L424.916 -180.533L424.916 -134.09ZM378.472 -181.34L401.625 -204.492L424.777 -181.34L401.625 -158.187L378.472 -181.34ZM331.084 -228.924L331.084 -251.408L353.568 -228.924L331.084 -228.924ZM330.416 -252.076L330.416 -228.924L284.307 -228.924L307.361 -251.979L318.937 -263.555L330.416 -252.076ZM306.652 -252.215L283.5 -229.062L260.347 -252.215L283.5 -275.367L306.652 -252.215ZM259.639 -251.979L282.693 -228.924L259.875 -228.924C259.875 -228.924 259.875 -228.924 259.874 -228.924L236.584 -228.924L236.584 -275.033L259.639 -251.979ZM306.986 -181.006L318.465 -169.527L283.834 -134.896L283.834 -181.006L306.986 -181.006ZM283.166 -134.896L237.057 -181.006L283.166 -181.006L283.166 -134.896ZM211.818 -134.424L189.807 -134.424L200.813 -145.43L211.818 -134.424ZM212.152 -110.465L189.334 -87.6464L189.334 -110.464C189.334 -110.465 189.334 -110.465 189.334 -110.465L189.334 -133.283L212.152 -110.465ZM188.666 -111.272L166.182 -133.756L188.666 -133.756L188.666 -111.272ZM165.041 -110.327L165.041 -64.0215L141.986 -87.0761L95.3065 -133.756L141.612 -133.756L165.041 -110.327ZM141.416 -86.0333L141.416 -39.924L95.3065 -39.9239L141.416 -86.0333ZM164.568 -39.2558L117.987 7.32609H95.3065L141.888 -39.2558L164.568 -39.2558ZM94.834 7.9942L118.125 7.99408C118.125 7.99408 118.125 7.99408 118.125 7.99408L140.943 7.99433L94.834 54.1036L94.834 7.9942ZM188.193 54.576L165.375 54.576L142.084 54.5761L142.084 8.4667L188.193 54.576ZM212.487 102.494L223.965 113.973L189.334 148.604L189.334 102.494L212.487 102.494ZM224.437 114.445L235.916 125.924L235.916 149.076L189.807 149.076L224.437 114.445ZM259.736 149.744L283.166 173.174L283.166 195.854L237.057 149.744L259.736 149.744ZM283.166 196.798L283.166 219.951L260.209 219.951L260.209 173.842L283.166 196.798ZM283.834 197.467L306.318 219.951L283.834 219.951L283.834 197.467ZM330.277 196.66L307.125 219.813L283.972 196.66L307.125 173.508L330.277 196.66ZM330.416 195.853L307.597 173.035L330.416 150.217L330.416 173.035L330.416 195.853ZM354.041 172.228L331.084 149.272L331.084 126.119L354.041 126.119L354.041 172.228ZM307.931 125.451L330.75 102.633L353.568 125.451L307.931 125.451ZM331.556 102.494H354.236L389.34 137.598L378 148.938L331.556 102.494ZM389.812 137.125L378.334 125.647L378.334 102.494L424.443 102.494L389.812 137.125ZM448.875 54.5761L425.584 54.5761L425.584 8.46659L471.693 54.576L448.875 54.5761ZM472.834 54.1035L472.834 31.4235L519.416 -15.1585L519.416 7.5216L472.834 54.1035ZM520.084 6.85348V-15.9647V-39.2556L566.193 -39.2559L520.084 6.85348ZM566.193 -39.924L519.75 -39.924C519.706 -39.9241 519.663 -39.9151 519.622 -39.8983C519.581 -39.8814 519.544 -39.8571 519.514 -39.8264L472.834 6.85336L472.834 -39.4514L519.75 -86.3673L566.193 -39.924ZM496.263 -87.1739L449.681 -133.756L472.361 -133.756L518.943 -87.1739H496.263ZM471.693 -134.424H448.875L425.584 -134.424L425.584 -180.533L471.693 -134.424ZM401.152 -204.965L378.334 -182.146L378.334 -204.965V-227.783L401.152 -204.965ZM377.193 -228.924L354.513 -228.924L319.41 -264.027L330.75 -275.367L377.193 -228.924ZM307.125 -252.687L284.306 -275.506L307.125 -275.506C307.125 -275.506 307.125 -275.506 307.125 -275.506L329.943 -275.506L307.125 -252.687ZM283.361 -276.174L260.209 -276.174L260.209 -299.131L306.318 -299.131L283.361 -276.174ZM259.541 -298.658L259.541 -275.84L259.541 -253.021L236.722 -275.84L259.541 -298.658ZM235.916 -275.033L235.916 -228.59C235.916 -228.547 235.925 -228.503 235.942 -228.462C235.959 -228.421 235.983 -228.384 236.014 -228.354L282.693 -181.674L236.389 -181.674L189.472 -228.59L235.916 -275.033ZM235.443 -181.006L224.437 -170L213.432 -181.006L235.443 -181.006ZM223.965 -169.527L189.334 -134.896L189.334 -181.006L212.487 -181.006L223.965 -169.527ZM188.666 -181.006L188.666 -134.896L142.557 -181.006L188.666 -181.006ZM141.75 -180.867L188.193 -134.424L165.513 -134.424L130.41 -169.527L141.75 -180.867ZM129.937 -169.055L141.416 -157.576L141.416 -134.424L95.3065 -134.424L129.937 -169.055ZM94.1658 -86.5059L94.1658 -64.0215L71.6815 -86.5058L94.1658 -86.5059ZM70.7365 -86.5058L105.84 -51.4023L94.5 -40.0623L48.0565 -86.5058L70.7365 -86.5058ZM47.584 -39.2558L70.0683 -39.2557L47.584 -16.7714L47.584 -39.2558ZM47.584 -15.8264L82.6875 -50.9298L94.0275 -39.5898L47.584 6.85359L47.584 -15.8264ZM47.7225 7.66015L94.6384 -39.2558L140.943 -39.2558L94.2637 7.4239C94.233 7.45461 94.2086 7.49158 94.1917 7.53234C94.1748 7.57333 94.1658 7.61679 94.1659 7.66038L94.1658 54.1035L47.7225 7.66015ZM141.416 8.46683L141.416 54.91C141.416 54.9536 141.425 54.997 141.442 55.0378C141.459 55.0787 141.483 55.1155 141.514 55.1464L188.193 101.826L141.888 101.826L94.9725 54.9101L141.416 8.46683ZM142.557 102.494L188.666 102.494L188.666 148.604L142.557 102.494ZM189.807 149.744L236.112 149.744L259.541 173.174L259.541 219.479L189.807 149.744ZM306.318 220.619L283.5 243.438L260.682 220.619L306.318 220.619Z" fill="#475F91"/>
</svg>
