<svg width="305" height="178" viewBox="0 0 305 178" fill="none" xmlns="http://www.w3.org/2000/svg">
<path d="M472.006 474.339L472.157 474.188L472.884 473.461L508.505 437.841L509.232 437.114L509.382 436.963L509.382 402.37L526.678 419.667L527.405 418.94L509.382 400.916L509.382 366.023L544.852 401.493L545.579 400.766L545.73 400.616L545.73 329.675L581.2 365.145L581.927 364.418L599.374 346.971L600.101 346.244L653.745 292.6L653.896 292.45L654.622 291.723L654.773 291.572H654.472L582.29 219.391L653.745 147.936L653.745 219.391C653.745 219.457 653.758 219.524 653.784 219.586C653.809 219.649 653.847 219.706 653.895 219.755L690.243 256.102L690.97 255.375L655.5 219.905H690.393L708.417 237.928L709.144 237.201L691.847 219.905L726.44 219.905L726.591 219.754L727.318 219.027L727.468 218.877L799.286 147.059L800.164 146.182L871.831 74.514L872.345 74L871.831 73.4858L800.013 1.66817L799.286 0.941033L799.136 0.790583L727.318 -71.0274L726.44 -71.9051L654.773 -143.572L654.622 -143.723L653.896 -144.45L617.548 -180.798L582.077 -216.268L581.049 -217.296L509.232 -289.114L508.505 -289.841L508.354 -289.991L473.761 -289.991L491.058 -307.288L490.331 -308.015L472.307 -289.991L437.414 -289.991L472.884 -325.461L472.157 -326.188L472.006 -326.339L401.066 -326.339L436.536 -361.809L436.173 -362.173L400.339 -326.339L399.311 -325.311L363.841 -289.841L363.114 -289.114L362.963 -288.963L291.145 -217.145L290.418 -216.418L290.268 -216.268L290.569 -216.268L362.236 -144.6H327.342L272.971 -198.971L272.244 -198.244L325.888 -144.6L290.995 -144.6L254.798 -180.798L254.071 -180.071L289.541 -144.6L218.6 -144.6L218.45 -144.45L217.723 -143.723L200.276 -126.276L199.549 -125.549L145.905 -71.9048L145.754 -71.7543L145.027 -71.0274L216.845 0.790421L145.604 0.790424L109.557 -35.2562L109.557 -35.5569L109.407 -35.4066L108.68 -34.6797L144.15 0.790418L109.256 0.790424L91.2328 -17.2328L90.5058 -16.5058L107.802 0.790424L73.2094 0.790604L73.0589 0.941087L72.332 1.66804L72.1813 1.8187L0 74L0.363477 74.3635L72.1815 2.54548L72.1815 73.787L36.1347 109.834L35.8338 109.834L35.9842 109.984L36.7112 110.711L72.1813 75.2411V110.135L54.1581 128.158L54.8851 128.885L72.1813 111.589L72.1813 146.181L72.332 146.332L73.0589 147.059L144.877 218.877L145.027 219.027L145.754 219.754L217.723 291.723L218.6 292.6L290.268 364.268L290.418 364.418L291.145 365.145L291.296 365.296L399.311 473.311L400.339 474.339L436.173 510.173L472.006 474.339ZM219.327 219.905L254.221 219.905L325.889 291.572L290.995 291.572L219.327 219.905ZM108.83 73.486H73.2094L73.2094 2.54548L126.49 55.8261L108.83 73.486ZM145.905 37.4393L145.905 1.81851L216.845 1.81852L163.565 55.0992L145.905 37.4393ZM253.193 -71.905L218.6 -71.905L218.6 -106.498L253.193 -71.905ZM254.221 -70.8769L290.268 -34.8302L290.268 0.0636556L219.327 -70.8769L254.221 -70.8769ZM362.963 -142.845L362.963 -71.9049L327.342 -71.9048L309.683 -89.5647L362.963 -142.845ZM364.718 -216.268L399.612 -216.268L471.279 -144.6H436.386L364.718 -216.268ZM400.339 -288.963L434.932 -288.963L400.339 -254.37L400.339 -288.963ZM581.049 -180.221L581.049 -145.327L510.109 -216.268L545.003 -216.268L581.049 -180.221ZM546.457 -216.268L581.05 -216.268L581.049 -181.675L546.457 -216.268ZM799.136 110.135L727.469 181.802L727.469 146.908L799.136 75.2407V110.135ZM546.457 292.6L581.049 292.6L581.049 327.193L546.457 292.6ZM545.429 291.572L509.382 255.525L509.382 220.632L580.322 291.572L545.429 291.572ZM290.569 219.905L362.236 291.572L327.342 291.572L255.675 219.905H290.569ZM435.96 -216.268L507.627 -144.6L472.733 -144.6L401.066 -216.268L435.96 -216.268ZM582.077 145.455L582.077 110.561L618.124 74.514L653.018 74.514L582.077 145.455ZM434.932 291.572L400.038 291.572L328.37 219.905L363.264 219.905L434.932 291.572ZM399.825 1.81853L435.658 1.81851V72.7587L400.188 37.2888L364.718 1.81869L399.825 1.81853ZM581.049 -143.874L581.049 -108.253L545.73 -108.253L545.73 -179.193L581.049 -143.874ZM616.671 -107.225L581.564 -72.118L546.457 -107.225L616.671 -107.225ZM690.093 73.486H655.5L690.093 38.8932V73.486ZM527.042 164.142L509.595 146.696L581.05 75.2413V110.135L527.042 164.142ZM363.69 291.572L292.023 219.905L326.916 219.905L398.584 291.572L363.69 291.572ZM254.647 147.209L290.268 147.209V218.15L236.987 164.869L254.647 147.209ZM291.296 74.5138L325.889 74.514L291.296 109.107L291.296 74.5138ZM327.342 74.514H362.236L291.296 145.454V110.561L327.342 74.514ZM618.638 37.6525L654.259 2.03171L689.88 37.6523L654.259 73.273L618.638 37.6525ZM363.69 74.514H399.311V109.834L328.371 109.834L363.69 74.514ZM400.339 38.8932L435.446 73.9998L400.339 109.106L400.339 38.8932ZM436.687 110.561L508.354 38.8934L508.354 73.7872L436.687 145.455V110.561ZM544.702 -107.225V-36.2841L509.382 -71.6039L509.382 -107.225L544.702 -107.225ZM509.382 74.5141L580.322 74.5141L509.382 145.454L509.382 74.5141ZM509.382 -70.1498L580.323 0.790799L545.429 0.790777L509.382 -35.256V-70.1498ZM546.457 1.8187H581.05L581.05 36.4113L546.457 1.8187ZM582.078 37.4394L582.078 1.8187L653.018 1.81868L617.548 37.2888L599.737 55.0992L582.078 37.4394ZM543.975 0.790604L509.382 0.790626V-33.8022L543.975 0.790604ZM545.003 1.8187L599.01 55.8261L581.564 73.273L510.109 1.8187H545.003ZM581.777 0.790604L545.73 -35.2562L545.73 -106.498L653.018 0.790626L581.777 0.790604ZM508.354 -72.6318L473.762 -107.224L508.354 -107.224L508.354 -72.6318ZM508.354 -35.0432L508.354 0.0636448L473.247 -35.0432L508.354 -70.15L508.354 -35.0432ZM526.315 19.4786L509.382 36.4116V2.54566L526.315 19.4786ZM527.042 20.2056L580.323 73.4862H509.382L509.382 37.8655L527.042 20.2056ZM436.172 147.21C436.24 147.21 436.306 147.196 436.369 147.17C436.432 147.144 436.489 147.107 436.536 147.059L508.354 75.2413L508.354 146.482L472.157 182.68L436.173 218.664L364.718 147.21L436.172 147.21ZM543.975 -108.253L508.868 -108.253C508.868 -108.252 508.869 -108.252 508.868 -108.253L473.762 -108.253L508.868 -143.359L543.975 -108.253ZM508.141 -71.3909L472.52 -35.7701L436.9 -71.3907L472.521 -107.011L508.141 -71.3909ZM508.354 37.4395L436.687 109.107V74.2132L508.354 2.54566L508.354 37.4395ZM435.659 110.348L435.659 146.181L364.718 146.181L435.659 75.2409L435.659 110.348ZM399.311 73.4857L364.718 73.4859L399.311 38.893L399.311 73.4857ZM290.268 146.181L255.675 146.181L290.268 111.588L290.268 146.181ZM292.023 218.877L308.956 201.944L325.889 218.877H292.023ZM291.296 218.15L291.296 146.908L327.343 110.862L398.584 110.862L363.114 146.332L291.296 218.15ZM582.077 74.514H616.67L582.077 109.107V74.514ZM617.911 73.4861L582.805 73.486L617.911 38.3794L653.018 73.486L617.911 73.4861ZM363.477 2.03149L399.098 37.6523L363.477 73.2729L327.857 37.6521L363.477 2.03149ZM362.236 73.4857H327.13L292.023 73.4859L327.13 38.379L362.236 73.4857ZM290.268 110.135L236.26 164.142L218.813 146.695L290.268 75.2407L290.268 110.135ZM364.718 292.6H399.825H435.659V363.541L364.718 292.6ZM327.342 218.877L309.683 201.217L362.963 147.936L362.963 218.877L327.342 218.877ZM363.991 147.937L434.932 218.877L363.991 218.877L363.991 147.937ZM436.9 219.391L472.521 183.77L508.141 219.391L472.52 255.012L436.9 219.391ZM473.761 183.557H508.354V218.15L473.761 183.557ZM509.382 219.178V183.557H544.702V254.498L509.382 219.178ZM473.762 182.529L508.868 147.423L543.975 182.529H473.762ZM527.769 164.869L545.429 147.209H581.05V218.15L527.769 164.869ZM546.457 146.181L581.05 111.589L581.05 146.181H546.457ZM654.472 74.514L690.093 74.514V109.834H619.152L654.472 74.514ZM691.121 38.8932L726.227 74L691.121 109.107V38.8932ZM655.5 1.81853L726.441 1.81851L726.441 72.7591L655.5 1.81853ZM582.078 -108.253V-142.846L616.671 -108.253L582.078 -108.253ZM544.702 -180.221L544.702 -108.98L437.414 -216.268L508.655 -216.268L544.702 -180.221ZM507.627 -143.572L490.694 -126.639L473.761 -143.572L507.627 -143.572ZM434.932 -71.905L363.991 -71.9048L363.991 -142.845L434.932 -71.905ZM435.96 -70.8769L472.157 -34.6797L508.141 1.30458L436.687 72.7591L436.686 1.30475C436.687 1.23768 436.673 1.17081 436.647 1.1081C436.621 1.04541 436.583 0.988507 436.536 0.941249L364.718 -70.8767L435.96 -70.8769ZM434.932 0.79041L400.038 0.790432L328.37 -70.8769L363.264 -70.8769L434.932 0.79041ZM398.584 0.79041L363.69 0.790421L292.022 -70.8771L326.916 -70.8771L398.584 0.79041ZM362.75 1.30455L327.129 36.9253L291.509 1.30457L327.129 -34.3162L362.75 1.30455ZM325.888 37.1381L291.296 37.1383L291.296 2.54547L325.888 37.1381ZM290.268 1.51737V37.1382L254.948 37.1383L254.948 -33.8023L290.268 1.51737ZM325.888 38.1664L290.782 73.2731L255.675 38.1663L325.888 38.1664ZM271.881 55.8261L254.221 73.486H218.6L218.6 2.54547L271.881 55.8261ZM272.608 56.5531L289.541 73.486H255.675L272.608 56.5531ZM289.541 74.514L217.873 146.181H182.98L254.647 74.514L289.541 74.514ZM362.236 292.6L345.303 309.533L328.37 292.6L362.236 292.6ZM398.584 364.268L363.991 364.268L363.991 329.675L398.584 364.268ZM346.03 310.26L363.477 292.813L434.932 364.268L400.038 364.268L346.03 310.26ZM435.658 365.296L435.658 399.888L401.066 365.296L435.658 365.296ZM436.686 401.13L436.687 366.023L471.793 401.13L436.687 436.236L436.686 401.13ZM436.9 364.782L472.52 329.161L508.141 364.782L472.52 400.403L436.9 364.782ZM473.761 328.948L508.354 328.948L508.354 363.541L473.761 328.948ZM472.157 328.071L436.687 363.541L436.687 292.087C436.687 292.02 436.673 291.953 436.647 291.89C436.621 291.827 436.583 291.77 436.536 291.723L364.718 219.905L435.96 219.905L472.157 256.102L508.141 292.086L472.157 328.071ZM473.247 255.739L508.354 220.632L508.354 255.738L508.354 290.845L473.247 255.739ZM509.382 256.98L543.975 291.572L509.382 291.572L509.382 256.98ZM545.73 255.526L545.73 184.284L581.2 219.754L653.018 291.572L581.777 291.572L545.73 255.526ZM582.077 146.908L618.124 110.862L689.366 110.862L653.896 146.332L582.077 218.15L582.077 146.908ZM708.781 200.49L655.5 147.209L726.44 147.209L726.44 182.83L708.781 200.49ZM726.44 184.284L726.44 218.15L709.507 201.217L726.44 184.284ZM726.44 146.181L655.5 146.181L726.441 75.2407L726.44 146.181ZM781.476 18.7515L764.543 1.8187H798.409L781.476 18.7515ZM780.749 19.4784L727.469 72.7587L727.469 1.8187L763.089 1.81866L780.749 19.4784ZM727.167 0.790604L655.5 -70.8769L690.394 -70.877L762.061 0.790583L727.167 0.790604ZM653.745 -71.391C653.745 -71.324 653.759 -71.2571 653.785 -71.1944C653.811 -71.1315 653.848 -71.0747 653.896 -71.0274L725.714 0.790583L654.472 0.790604L582.29 -71.3909L653.745 -142.845L653.745 -71.391ZM582.29 -144.086L617.911 -179.707L653.532 -144.086L617.911 -108.466L582.29 -144.086ZM509.382 -217.296L509.382 -251.889L543.975 -217.296L509.382 -217.296ZM508.354 -252.917L508.354 -217.296L437.414 -217.296L472.884 -252.766L490.694 -270.576L508.354 -252.917ZM471.793 -253.13L436.173 -217.509L400.552 -253.129L436.173 -288.75L471.793 -253.13ZM399.461 -252.766L434.932 -217.296L399.825 -217.296C399.825 -217.296 399.825 -217.296 399.824 -217.296L363.991 -217.296L363.991 -288.236L399.461 -252.766ZM472.307 -143.572L489.967 -125.912L436.687 -72.6318L436.687 -143.572H472.307ZM435.658 -72.632L364.718 -143.572L435.659 -143.572L435.658 -72.632ZM325.888 -71.905L292.023 -71.905L308.956 -88.838L325.888 -71.905ZM326.403 -35.0432L291.296 0.0636448L291.296 -35.0424C291.296 -35.0428 291.296 -35.0432 291.296 -35.0435L291.296 -70.15L326.403 -35.0432ZM290.268 -36.2842L255.675 -70.8769L290.268 -70.8769L290.268 -36.2842ZM253.92 -34.8304L253.92 36.4112L218.45 0.941092L146.632 -70.8769L217.873 -70.8769L253.92 -34.8304ZM217.572 2.54548L217.572 73.4859L146.632 73.486L217.572 2.54548ZM253.193 74.514L181.526 146.181L146.632 146.181L218.299 74.514L253.193 74.514ZM145.905 147.209L181.738 147.209C181.738 147.209 181.739 147.209 181.739 147.209L216.845 147.21L145.905 218.15L145.905 147.209ZM289.541 218.877L254.434 218.877L218.6 218.877L218.6 147.936L289.541 218.877ZM326.916 292.6L344.576 310.26L291.296 363.541L291.296 292.6L326.916 292.6ZM345.303 310.987L362.963 328.647L362.963 364.268L292.023 364.268L345.303 310.987ZM399.612 365.296L435.659 401.342L435.659 436.236L364.718 365.296L399.612 365.296ZM435.658 437.69L435.658 473.311L400.339 473.311L400.339 402.37L435.658 437.69ZM436.687 438.718L471.279 473.311L436.687 473.311L436.687 438.718ZM508.141 437.477L472.52 473.098L436.9 437.477L472.52 401.856L508.141 437.477ZM508.354 436.236L473.247 401.129L508.354 366.023L508.354 401.129L508.354 436.236ZM544.702 399.888L509.382 364.569L509.382 328.948L544.702 328.948L544.702 399.888ZM473.761 327.92L508.868 292.813L543.975 327.92L473.761 327.92ZM510.109 292.6L545.003 292.6L599.01 346.608L581.564 364.055L510.109 292.6ZM599.737 345.881L582.077 328.221L582.077 292.6L653.018 292.6L599.737 345.881ZM690.607 218.877L654.773 218.877L654.773 147.936L725.714 218.877L690.607 218.877ZM727.469 218.15L727.469 183.256L799.136 111.588V146.482L727.469 218.15ZM800.164 145.454V110.348V74.5142L871.105 74.5138L800.164 145.454ZM871.104 73.4858L799.65 73.4859C799.583 73.4857 799.516 73.4995 799.453 73.5255C799.391 73.5515 799.334 73.5889 799.286 73.6361L727.468 145.454V74.213L799.65 2.03147L871.104 73.4858ZM763.515 0.790604L691.848 -70.8769L726.741 -70.877L798.409 0.790583L763.515 0.790604ZM725.714 -71.9049L690.607 -71.9048L654.773 -71.9049L654.773 -142.845L725.714 -71.9049ZM617.184 -180.434L582.077 -145.327V-180.434L582.077 -215.541L617.184 -180.434ZM580.322 -217.296L545.429 -217.296L491.421 -271.303L508.868 -288.75L580.322 -217.296ZM472.52 -253.856L437.414 -288.963L472.52 -288.963C472.52 -288.963 472.521 -288.963 472.521 -288.963L507.627 -288.963L472.52 -253.856ZM435.959 -289.991H400.339L400.339 -325.311L471.279 -325.311L435.959 -289.991ZM399.311 -324.584L399.311 -289.477L399.311 -254.371L364.204 -289.477L399.311 -324.584ZM362.963 -288.236L362.963 -216.782C362.963 -216.715 362.977 -216.648 363.003 -216.585C363.029 -216.523 363.067 -216.466 363.114 -216.418L434.932 -144.6L363.69 -144.6L291.509 -216.782L362.963 -288.236ZM362.236 -143.572L345.303 -126.639L328.37 -143.572L362.236 -143.572ZM344.576 -125.912L291.296 -72.6318L291.296 -143.572L326.916 -143.572L344.576 -125.912ZM290.268 -143.573L290.268 -72.632L219.327 -143.572L290.268 -143.573ZM218.086 -143.359L289.541 -71.9049L254.647 -71.9048L200.639 -125.912L218.086 -143.359ZM199.912 -125.186L217.572 -107.526L217.572 -71.9048L146.632 -71.9048L199.912 -125.186ZM144.877 1.81833L144.877 36.4112L110.284 1.81852L144.877 1.81833ZM108.83 1.81852L162.838 55.8261L145.391 73.273L73.9363 1.81852L108.83 1.81852ZM73.2094 74.514L107.802 74.5141L73.2094 109.107L73.2094 74.514ZM73.2094 110.561L127.217 56.5531L144.664 74L73.2094 145.455L73.2094 110.561ZM73.4224 146.695L145.604 74.514L216.845 74.514L145.027 146.332C144.98 146.379 144.943 146.436 144.917 146.499C144.891 146.562 144.877 146.629 144.877 146.696L144.877 218.15L73.4224 146.695ZM217.572 147.937L217.572 219.391C217.572 219.458 217.586 219.524 217.612 219.587C217.638 219.65 217.675 219.707 217.723 219.754L289.541 291.572L218.299 291.572L146.118 219.391L217.572 147.937ZM219.327 292.6L290.268 292.6L290.268 363.541L219.327 292.6ZM292.023 365.296L363.264 365.296L399.311 401.342L399.311 472.584L292.023 365.296ZM471.279 474.339L436.173 509.446L401.066 474.339L471.279 474.339Z" fill="#475F91"/>
</svg>
