<svg width="346" height="342" viewBox="0 0 346 342" fill="none" xmlns="http://www.w3.org/2000/svg">
<path d="M461.006 381.044L461.157 380.894L461.884 380.167L497.505 344.546L498.232 343.819L498.382 343.668L498.382 309.075L515.678 326.372L516.405 325.645L498.382 307.622L498.382 272.728L533.852 308.198L534.579 307.471L534.73 307.321L534.73 236.38L570.2 271.85L570.927 271.123L588.374 253.676L589.101 252.95L642.745 199.305L642.896 199.155L643.622 198.428L643.773 198.277H643.472L571.29 126.096L642.745 54.6414L642.745 126.096C642.745 126.162 642.758 126.229 642.784 126.291C642.809 126.354 642.847 126.411 642.895 126.46L679.243 162.807L679.97 162.08L644.5 126.61H679.393L697.417 144.634L698.144 143.907L680.847 126.61L715.44 126.61L715.591 126.459L716.318 125.733L716.468 125.582L788.286 53.764L789.164 52.8866L860.831 -18.7809L861.345 -19.2949L860.831 -19.8091L789.013 -91.6268L788.286 -92.3539L788.136 -92.5043L716.318 -164.322L715.44 -165.2L643.773 -236.867L643.622 -237.018L642.896 -237.745L606.548 -274.092L571.077 -309.563L570.049 -310.591L498.232 -382.409L497.505 -383.136L497.354 -383.286L462.761 -383.286L480.058 -400.583L479.331 -401.309L461.307 -383.286L426.414 -383.286L461.884 -418.756L461.157 -419.483L461.006 -419.634L390.066 -419.634L425.536 -455.104L425.173 -455.468L389.339 -419.634L388.311 -418.606L352.841 -383.136L352.114 -382.409L351.963 -382.258L280.145 -310.44L279.418 -309.713L279.268 -309.563L279.569 -309.563L351.236 -237.895H316.342L261.971 -292.266L261.244 -291.539L314.888 -237.895L279.995 -237.895L243.798 -274.092L243.071 -273.365L278.541 -237.895L207.6 -237.895L207.45 -237.745L206.723 -237.018L189.276 -219.571L188.549 -218.844L134.905 -165.2L134.754 -165.049L134.027 -164.322L205.845 -92.5045L134.604 -92.5045L98.5571 -128.551L98.5569 -128.852L98.4066 -128.702L97.6797 -127.975L133.15 -92.5045L98.256 -92.5045L80.2328 -110.528L79.5058 -109.801L96.8021 -92.5045L62.2094 -92.5043L62.0589 -92.3538L61.332 -91.6269L61.1813 -91.4762L-11 -19.2949L-10.6365 -18.9314L61.1815 -90.7494L61.1815 -19.5079L25.1347 16.5388L24.8338 16.5388L24.9842 16.6893L25.7112 17.4163L61.1813 -18.0538V16.84L43.1581 34.8632L43.8851 35.5901L61.1813 18.2939L61.1813 52.8864L61.332 53.037L62.0589 53.764L133.877 125.582L134.027 125.732L134.754 126.459L206.723 198.428L207.6 199.305L279.268 270.973L279.418 271.123L280.145 271.85L280.296 272.001L388.311 380.016L389.339 381.044L425.173 416.878L461.006 381.044ZM208.327 126.61L243.221 126.61L314.889 198.277L279.995 198.277L208.327 126.61ZM97.8302 -19.8089H62.2094L62.2094 -90.7494L115.49 -37.4688L97.8302 -19.8089ZM134.905 -55.8556L134.905 -91.4764L205.845 -91.4764L152.565 -38.1957L134.905 -55.8556ZM242.193 -165.2L207.6 -165.2L207.6 -199.793L242.193 -165.2ZM243.221 -164.172L279.268 -128.125L279.268 -93.2313L208.327 -164.172L243.221 -164.172ZM351.963 -236.14L351.963 -165.2L316.342 -165.2L298.683 -182.86L351.963 -236.14ZM353.718 -309.563L388.612 -309.563L460.279 -237.895H425.386L353.718 -309.563ZM389.339 -382.258L423.932 -382.258L389.339 -347.665L389.339 -382.258ZM570.049 -273.516L570.049 -238.622L499.109 -309.563L534.003 -309.563L570.049 -273.516ZM535.457 -309.563L570.05 -309.563L570.049 -274.97L535.457 -309.563ZM788.136 16.8396L716.469 88.5072L716.469 53.6133L788.136 -18.0542V16.8396ZM535.457 199.305L570.049 199.306L570.049 233.898L535.457 199.305ZM534.429 198.277L498.382 162.23L498.382 127.337L569.322 198.277L534.429 198.277ZM279.569 126.61L351.236 198.277L316.342 198.277L244.675 126.61H279.569ZM424.96 -309.563L496.627 -237.895L461.733 -237.895L390.066 -309.563L424.96 -309.563ZM571.077 52.1596L571.077 17.2658L607.124 -18.7809L642.018 -18.781L571.077 52.1596ZM423.932 198.277L389.038 198.277L317.37 126.61L352.264 126.61L423.932 198.277ZM388.825 -91.4764L424.658 -91.4764V-20.5362L389.188 -56.0061L353.718 -91.4762L388.825 -91.4764ZM570.049 -237.168L570.049 -201.548L534.73 -201.548L534.73 -272.488L570.049 -237.168ZM605.671 -200.52L570.564 -165.413L535.457 -200.52L605.671 -200.52ZM679.093 -19.8089H644.5L679.093 -54.4017V-19.8089ZM516.042 70.8474L498.595 53.4007L570.05 -18.0536V16.8398L516.042 70.8474ZM352.69 198.277L281.023 126.61L315.916 126.61L387.584 198.277L352.69 198.277ZM243.647 53.9145L279.268 53.9145V124.855L225.987 71.5744L243.647 53.9145ZM280.296 -18.7811L314.889 -18.781L280.296 15.8117L280.296 -18.7811ZM316.342 -18.781H351.236L280.296 52.1594V17.2656L316.342 -18.781ZM607.638 -55.6425L643.259 -91.2632L678.88 -55.6426L643.259 -20.0219L607.638 -55.6425ZM352.69 -18.781H388.311V16.5388L317.371 16.5387L352.69 -18.781ZM389.339 -54.4017L424.446 -19.2951L389.339 15.8115L389.339 -54.4017ZM425.687 17.266L497.354 -54.4015L497.354 -19.5077L425.687 52.1598V17.266ZM533.702 -200.52V-129.579L498.382 -164.899L498.382 -200.52L533.702 -200.52ZM498.382 -18.7808L569.322 -18.7808L498.382 52.1594L498.382 -18.7808ZM498.382 -163.445L569.323 -92.5041L534.429 -92.5041L498.382 -128.551V-163.445ZM535.457 -91.4762H570.05L570.05 -56.8836L535.457 -91.4762ZM571.078 -55.8555L571.078 -91.4762L642.018 -91.4762L606.548 -56.0061L588.737 -38.1957L571.078 -55.8555ZM532.975 -92.5043L498.382 -92.5043V-127.097L532.975 -92.5043ZM534.003 -91.4762L588.01 -37.4688L570.564 -20.0219L499.109 -91.4762H534.003ZM570.777 -92.5043L534.73 -128.551L534.73 -199.793L642.018 -92.5043L570.777 -92.5043ZM497.354 -165.927L462.762 -200.519L497.354 -200.519L497.354 -165.927ZM497.354 -128.338L497.354 -93.2313L462.247 -128.338L497.354 -163.445L497.354 -128.338ZM515.315 -73.8163L498.382 -56.8834V-90.7493L515.315 -73.8163ZM516.042 -73.0894L569.323 -19.8087H498.382L498.382 -55.4294L516.042 -73.0894ZM425.172 53.9146C425.24 53.9148 425.306 53.901 425.369 53.875C425.432 53.8489 425.489 53.8116 425.536 53.7644L497.354 -18.0536L497.354 53.1875L461.157 89.3848L425.173 125.369L353.718 53.9148L425.172 53.9146ZM532.975 -201.547L497.868 -201.547C497.868 -201.547 497.869 -201.547 497.868 -201.547L462.762 -201.547L497.868 -236.654L532.975 -201.547ZM497.141 -164.686L461.52 -129.065L425.9 -164.686L461.521 -200.306L497.141 -164.686ZM497.354 -55.8554L425.687 15.8121V-19.0817L497.354 -90.7493L497.354 -55.8554ZM424.659 17.0528L424.659 52.8866L353.718 52.8866L424.659 -18.054L424.659 17.0528ZM388.311 -19.8092L353.718 -19.8091L388.311 -54.4019L388.311 -19.8092ZM279.268 52.8862L244.675 52.8864L279.268 18.2935L279.268 52.8862ZM281.023 125.582L297.956 108.649L314.889 125.582H281.023ZM280.296 124.855L280.296 53.6133L316.343 17.5666L387.584 17.5666L352.114 53.0369L280.296 124.855ZM571.077 -18.781H605.67L571.077 15.8119V-18.781ZM606.911 -19.8089L571.805 -19.8089L606.911 -54.9155L642.018 -19.8089L606.911 -19.8089ZM352.477 -91.2634L388.098 -55.6426L352.477 -20.0221L316.857 -55.6428L352.477 -91.2634ZM351.236 -19.8092H316.13L281.023 -19.8091L316.13 -54.9159L351.236 -19.8092ZM279.268 16.8398L225.26 70.8472L207.813 53.4003L279.268 -18.0542L279.268 16.8398ZM353.718 199.305H388.825H424.659V270.246L353.718 199.305ZM316.342 125.582L298.683 107.922L351.963 54.6414L351.963 125.582L316.342 125.582ZM352.991 54.6416L423.932 125.582L352.991 125.582L352.991 54.6416ZM425.9 126.096L461.521 90.4754L497.141 126.096L461.52 161.717L425.9 126.096ZM462.761 90.2622H497.354V124.855L462.761 90.2622ZM498.382 125.883V90.2622H533.702V161.203L498.382 125.883ZM462.762 89.2343L497.868 54.1276L532.975 89.2343H462.762ZM516.769 71.5744L534.429 53.9145H570.05V124.855L516.769 71.5744ZM535.457 52.8865L570.05 18.2937L570.05 52.8865H535.457ZM643.472 -18.7809L679.093 -18.781V16.5388H608.152L643.472 -18.7809ZM680.121 -54.4017L715.227 -19.2949L680.121 15.8119V-54.4017ZM644.5 -91.4764L715.441 -91.4764L715.441 -20.5358L644.5 -91.4764ZM571.078 -201.548V-236.141L605.671 -201.548L571.078 -201.548ZM533.702 -273.516L533.702 -202.275L426.414 -309.563L497.655 -309.563L533.702 -273.516ZM496.627 -236.867L479.694 -219.934L462.761 -236.867L496.627 -236.867ZM423.932 -165.2L352.991 -165.2L352.991 -236.14L423.932 -165.2ZM424.96 -164.172L461.157 -127.975L497.141 -91.9903L425.687 -20.5358L425.686 -91.9902C425.687 -92.0572 425.673 -92.1241 425.647 -92.1868C425.621 -92.2495 425.583 -92.3064 425.536 -92.3537L353.718 -164.172L424.96 -164.172ZM423.932 -92.5045L389.038 -92.5045L317.37 -164.172L352.264 -164.172L423.932 -92.5045ZM387.584 -92.5045L352.69 -92.5045L281.022 -164.172L315.916 -164.172L387.584 -92.5045ZM351.75 -91.9904L316.129 -56.3696L280.509 -91.9904L316.129 -127.611L351.75 -91.9904ZM314.888 -56.1568L280.296 -56.1566L280.296 -90.7495L314.888 -56.1568ZM279.268 -91.7776V-56.1568L243.948 -56.1566L243.948 -127.097L279.268 -91.7776ZM314.888 -55.1285L279.782 -20.0219L244.675 -55.1287L314.888 -55.1285ZM260.881 -37.4688L243.221 -19.8089H207.6L207.6 -90.7494L260.881 -37.4688ZM261.608 -36.7418L278.541 -19.8089H244.675L261.608 -36.7418ZM278.541 -18.781L206.873 52.8866H171.98L243.647 -18.781L278.541 -18.781ZM351.236 199.306L334.303 216.238L317.37 199.305L351.236 199.306ZM387.584 270.973L352.991 270.973L352.991 236.38L387.584 270.973ZM335.03 216.965L352.477 199.518L423.932 270.973L389.038 270.973L335.03 216.965ZM424.658 272.001L424.658 306.593L390.066 272.001L424.658 272.001ZM425.686 307.835L425.687 272.728L460.793 307.835L425.687 342.941L425.686 307.835ZM425.9 271.487L461.52 235.866L497.141 271.487L461.52 307.108L425.9 271.487ZM462.761 235.653L497.354 235.653L497.354 270.246L462.761 235.653ZM461.157 234.776L425.687 270.246L425.687 198.792C425.687 198.725 425.673 198.658 425.647 198.595C425.621 198.532 425.583 198.476 425.536 198.428L353.718 126.61L424.96 126.61L461.157 162.807L497.141 198.792L461.157 234.776ZM462.247 162.444L497.354 127.337L497.354 162.443L497.354 197.55L462.247 162.444ZM498.382 163.685L532.975 198.277L498.382 198.277L498.382 163.685ZM534.73 162.231L534.73 90.9891L570.2 126.459L642.018 198.277L570.777 198.277L534.73 162.231ZM571.077 53.6135L607.124 17.5668L678.366 17.5667L642.896 53.0368L571.077 124.855L571.077 53.6135ZM697.781 107.195L644.5 53.9143L715.44 53.9145L715.44 89.5353L697.781 107.195ZM715.44 90.9891L715.44 124.855L698.507 107.922L715.44 90.9891ZM715.44 52.8862L644.5 52.8864L715.441 -18.0542L715.44 52.8862ZM770.476 -74.5435L753.543 -91.4762H787.409L770.476 -74.5435ZM769.749 -73.8165L716.469 -20.5362L716.469 -91.4762L752.089 -91.4763L769.749 -73.8165ZM716.167 -92.5043L644.5 -164.172L679.394 -164.172L751.061 -92.5043L716.167 -92.5043ZM642.745 -164.686C642.745 -164.619 642.759 -164.552 642.785 -164.489C642.811 -164.426 642.848 -164.37 642.896 -164.322L714.714 -92.5043L643.472 -92.5043L571.29 -164.686L642.745 -236.14L642.745 -164.686ZM571.29 -237.381L606.911 -273.002L642.532 -237.381L606.911 -201.76L571.29 -237.381ZM498.382 -310.591L498.382 -345.184L532.975 -310.591L498.382 -310.591ZM497.354 -346.212L497.354 -310.591L426.414 -310.591L461.884 -346.061L479.694 -363.871L497.354 -346.212ZM460.793 -346.424L425.173 -310.804L389.552 -346.424L425.173 -382.045L460.793 -346.424ZM388.461 -346.061L423.932 -310.591L388.825 -310.591C388.825 -310.591 388.825 -310.591 388.824 -310.591L352.991 -310.591L352.991 -381.531L388.461 -346.061ZM461.307 -236.867L478.967 -219.207L425.687 -165.927L425.687 -236.867H461.307ZM424.658 -165.927L353.718 -236.867L424.659 -236.867L424.658 -165.927ZM314.888 -165.2L281.023 -165.2L297.956 -182.133L314.888 -165.2ZM315.403 -128.338L280.296 -93.2313L280.296 -128.337C280.296 -128.338 280.296 -128.338 280.296 -128.338L280.296 -163.445L315.403 -128.338ZM279.268 -129.579L244.675 -164.172L279.268 -164.172L279.268 -129.579ZM242.92 -128.125L242.92 -56.8837L207.45 -92.3538L135.632 -164.172L206.873 -164.172L242.92 -128.125ZM206.572 -90.7494L206.572 -19.8091L135.632 -19.8089L206.572 -90.7494ZM242.193 -18.781L170.526 52.8866L135.632 52.8866L207.299 -18.781L242.193 -18.781ZM134.905 53.9145L170.738 53.9143C170.738 53.9143 170.739 53.9143 170.739 53.9143L205.845 53.9147L134.905 124.855L134.905 53.9145ZM278.541 125.582L243.434 125.582L207.6 125.582L207.6 54.6414L278.541 125.582ZM315.916 199.305L333.576 216.965L280.296 270.246L280.296 199.305L315.916 199.305ZM334.303 217.692L351.963 235.352L351.963 270.973L281.023 270.973L334.303 217.692ZM388.612 272.001L424.659 308.048L424.659 342.941L353.718 272.001L388.612 272.001ZM424.658 344.395L424.658 380.016L389.339 380.016L389.339 309.075L424.658 344.395ZM425.687 345.423L460.279 380.016L425.687 380.016L425.687 345.423ZM497.141 344.182L461.52 379.803L425.9 344.182L461.52 308.561L497.141 344.182ZM497.354 342.941L462.247 307.835L497.354 272.728L497.354 307.834L497.354 342.941ZM533.702 306.593L498.382 271.274L498.382 235.653L533.702 235.653L533.702 306.593ZM462.761 234.625L497.868 199.518L532.975 234.625L462.761 234.625ZM499.109 199.305L534.003 199.305L588.01 253.313L570.564 270.76L499.109 199.305ZM588.737 252.586L571.077 234.926L571.077 199.305L642.018 199.305L588.737 252.586ZM679.607 125.582L643.773 125.582L643.773 54.6413L714.714 125.582L679.607 125.582ZM716.469 124.855L716.469 89.9611L788.136 18.2935V53.1874L716.469 124.855ZM789.164 52.1595V17.053V-18.7807L860.105 -18.7812L789.164 52.1595ZM860.104 -19.8091L788.65 -19.8091C788.583 -19.8092 788.516 -19.7954 788.453 -19.7694C788.391 -19.7434 788.334 -19.706 788.286 -19.6588L716.468 52.1592V-19.0819L788.65 -91.2634L860.104 -19.8091ZM752.515 -92.5043L680.848 -164.172L715.741 -164.172L787.409 -92.5043L752.515 -92.5043ZM714.714 -165.2L679.607 -165.2L643.773 -165.2L643.773 -236.14L714.714 -165.2ZM606.184 -273.729L571.077 -238.622V-273.729L571.077 -308.836L606.184 -273.729ZM569.322 -310.591L534.429 -310.591L480.421 -364.598L497.868 -382.045L569.322 -310.591ZM461.52 -347.151L426.414 -382.258L461.52 -382.258C461.52 -382.258 461.521 -382.258 461.521 -382.258L496.627 -382.258L461.52 -347.151ZM424.959 -383.286H389.339L389.339 -418.606L460.279 -418.606L424.959 -383.286ZM388.311 -417.879L388.311 -382.772L388.311 -347.665L353.204 -382.772L388.311 -417.879ZM351.963 -381.531L351.963 -310.077C351.963 -310.01 351.977 -309.943 352.003 -309.88C352.029 -309.818 352.067 -309.761 352.114 -309.713L423.932 -237.895L352.69 -237.895L280.509 -310.077L351.963 -381.531ZM351.236 -236.867L334.303 -219.934L317.37 -236.867L351.236 -236.867ZM333.576 -219.207L280.296 -165.927L280.296 -236.867L315.916 -236.867L333.576 -219.207ZM279.268 -236.867L279.268 -165.927L208.327 -236.867L279.268 -236.867ZM207.086 -236.654L278.541 -165.2L243.647 -165.2L189.639 -219.207L207.086 -236.654ZM188.912 -218.48L206.572 -200.821L206.572 -165.2L135.632 -165.2L188.912 -218.48ZM133.877 -91.4766L133.877 -56.8837L99.2841 -91.4764L133.877 -91.4766ZM97.8302 -91.4764L151.838 -37.4688L134.391 -20.0219L62.9363 -91.4764L97.8302 -91.4764ZM62.2094 -18.781L96.8021 -18.7808L62.2094 15.8119L62.2094 -18.781ZM62.2094 17.2658L116.217 -36.7418L133.664 -19.2949L62.2094 52.1596L62.2094 17.2658ZM62.4224 53.4005L134.604 -18.781L205.845 -18.781L134.027 53.037C133.98 53.0843 133.943 53.1412 133.917 53.2039C133.891 53.2669 133.877 53.3338 133.877 53.4009L133.877 124.855L62.4224 53.4005ZM206.572 54.6416L206.572 126.096C206.572 126.163 206.586 126.23 206.612 126.292C206.638 126.355 206.675 126.412 206.723 126.459L278.541 198.277L207.299 198.277L135.118 126.096L206.572 54.6416ZM208.327 199.305L279.268 199.306L279.268 270.246L208.327 199.305ZM281.023 272.001L352.264 272.001L388.311 308.048L388.311 379.289L281.023 272.001ZM460.279 381.044L425.173 416.151L390.066 381.044L460.279 381.044Z" fill="#D3DCE4" fill-opacity="0.1"/>
</svg>
