<svg width="398" height="346" viewBox="0 0 398 346" fill="none" xmlns="http://www.w3.org/2000/svg">
<path d="M472.006 383.044L472.157 382.894L472.884 382.167L508.505 346.546L509.232 345.819L509.382 345.668L509.382 311.075L526.678 328.372L527.405 327.645L509.382 309.622L509.382 274.728L544.852 310.198L545.579 309.471L545.73 309.321L545.73 238.38L581.2 273.85L581.927 273.123L599.374 255.676L600.101 254.95L653.745 201.305L653.896 201.155L654.622 200.428L654.773 200.277H654.472L582.29 128.096L653.745 56.6414L653.745 128.096C653.745 128.162 653.758 128.229 653.784 128.291C653.809 128.354 653.847 128.411 653.895 128.46L690.243 164.807L690.97 164.08L655.5 128.61H690.393L708.417 146.634L709.144 145.907L691.847 128.61L726.44 128.61L726.591 128.459L727.318 127.733L727.468 127.582L799.286 55.764L800.164 54.8866L871.831 -16.7809L872.345 -17.2949L871.831 -17.8091L800.013 -89.6268L799.286 -90.3539L799.136 -90.5043L727.318 -162.322L726.44 -163.2L654.773 -234.867L654.622 -235.018L653.896 -235.745L617.548 -272.092L582.077 -307.563L581.049 -308.591L509.232 -380.409L508.505 -381.136L508.354 -381.286L473.761 -381.286L491.058 -398.583L490.331 -399.309L472.307 -381.286L437.414 -381.286L472.884 -416.756L472.157 -417.483L472.006 -417.634L401.066 -417.634L436.536 -453.104L436.173 -453.468L400.339 -417.634L399.311 -416.606L363.841 -381.136L363.114 -380.409L362.963 -380.258L291.145 -308.44L290.418 -307.713L290.268 -307.563L290.569 -307.563L362.236 -235.895H327.342L272.971 -290.266L272.244 -289.539L325.888 -235.895L290.995 -235.895L254.798 -272.092L254.071 -271.365L289.541 -235.895L218.6 -235.895L218.45 -235.745L217.723 -235.018L200.276 -217.571L199.549 -216.844L145.905 -163.2L145.754 -163.049L145.027 -162.322L216.845 -90.5045L145.604 -90.5045L109.557 -126.551L109.557 -126.852L109.407 -126.702L108.68 -125.975L144.15 -90.5045L109.256 -90.5045L91.2328 -108.528L90.5058 -107.801L107.802 -90.5045L73.2094 -90.5043L73.0589 -90.3538L72.332 -89.6269L72.1813 -89.4762L0 -17.2949L0.363477 -16.9314L72.1815 -88.7494L72.1815 -17.5079L36.1347 18.5388L35.8338 18.5388L35.9842 18.6893L36.7112 19.4163L72.1813 -16.0538V18.84L54.1581 36.8632L54.8851 37.5901L72.1813 20.2939L72.1813 54.8864L72.332 55.037L73.0589 55.764L144.877 127.582L145.027 127.732L145.754 128.459L217.723 200.428L218.6 201.305L290.268 272.973L290.418 273.123L291.145 273.85L291.296 274.001L399.311 382.016L400.339 383.044L436.173 418.878L472.006 383.044ZM219.327 128.61L254.221 128.61L325.889 200.277L290.995 200.277L219.327 128.61ZM108.83 -17.8089H73.2094L73.2094 -88.7494L126.49 -35.4688L108.83 -17.8089ZM145.905 -53.8556L145.905 -89.4764L216.845 -89.4764L163.565 -36.1957L145.905 -53.8556ZM253.193 -163.2L218.6 -163.2L218.6 -197.793L253.193 -163.2ZM254.221 -162.172L290.268 -126.125L290.268 -91.2313L219.327 -162.172L254.221 -162.172ZM362.963 -234.14L362.963 -163.2L327.342 -163.2L309.683 -180.86L362.963 -234.14ZM364.718 -307.563L399.612 -307.563L471.279 -235.895H436.386L364.718 -307.563ZM400.339 -380.258L434.932 -380.258L400.339 -345.665L400.339 -380.258ZM581.049 -271.516L581.049 -236.622L510.109 -307.563L545.003 -307.563L581.049 -271.516ZM546.457 -307.563L581.05 -307.563L581.049 -272.97L546.457 -307.563ZM799.136 18.8396L727.469 90.5072L727.469 55.6133L799.136 -16.0542V18.8396ZM546.457 201.305L581.049 201.306L581.049 235.898L546.457 201.305ZM545.429 200.277L509.382 164.23L509.382 129.337L580.322 200.277L545.429 200.277ZM290.569 128.61L362.236 200.277L327.342 200.277L255.675 128.61H290.569ZM435.96 -307.563L507.627 -235.895L472.733 -235.895L401.066 -307.563L435.96 -307.563ZM582.077 54.1596L582.077 19.2658L618.124 -16.7809L653.018 -16.781L582.077 54.1596ZM434.932 200.277L400.038 200.277L328.37 128.61L363.264 128.61L434.932 200.277ZM399.825 -89.4764L435.658 -89.4764V-18.5362L400.188 -54.0061L364.718 -89.4762L399.825 -89.4764ZM581.049 -235.168L581.049 -199.548L545.73 -199.548L545.73 -270.488L581.049 -235.168ZM616.671 -198.52L581.564 -163.413L546.457 -198.52L616.671 -198.52ZM690.093 -17.8089H655.5L690.093 -52.4017V-17.8089ZM527.042 72.8474L509.595 55.4007L581.05 -16.0536V18.8398L527.042 72.8474ZM363.69 200.277L292.023 128.61L326.916 128.61L398.584 200.277L363.69 200.277ZM254.647 55.9145L290.268 55.9145V126.855L236.987 73.5744L254.647 55.9145ZM291.296 -16.7811L325.889 -16.781L291.296 17.8117L291.296 -16.7811ZM327.342 -16.781H362.236L291.296 54.1594V19.2656L327.342 -16.781ZM618.638 -53.6425L654.259 -89.2632L689.88 -53.6426L654.259 -18.0219L618.638 -53.6425ZM363.69 -16.781H399.311V18.5388L328.371 18.5387L363.69 -16.781ZM400.339 -52.4017L435.446 -17.2951L400.339 17.8115L400.339 -52.4017ZM436.687 19.266L508.354 -52.4015L508.354 -17.5077L436.687 54.1598V19.266ZM544.702 -198.52V-127.579L509.382 -162.899L509.382 -198.52L544.702 -198.52ZM509.382 -16.7808L580.322 -16.7808L509.382 54.1594L509.382 -16.7808ZM509.382 -161.445L580.323 -90.5041L545.429 -90.5041L509.382 -126.551V-161.445ZM546.457 -89.4762H581.05L581.05 -54.8836L546.457 -89.4762ZM582.078 -53.8555L582.078 -89.4762L653.018 -89.4762L617.548 -54.0061L599.737 -36.1957L582.078 -53.8555ZM543.975 -90.5043L509.382 -90.5043V-125.097L543.975 -90.5043ZM545.003 -89.4762L599.01 -35.4688L581.564 -18.0219L510.109 -89.4762H545.003ZM581.777 -90.5043L545.73 -126.551L545.73 -197.793L653.018 -90.5043L581.777 -90.5043ZM508.354 -163.927L473.762 -198.519L508.354 -198.519L508.354 -163.927ZM508.354 -126.338L508.354 -91.2313L473.247 -126.338L508.354 -161.445L508.354 -126.338ZM526.315 -71.8163L509.382 -54.8834V-88.7493L526.315 -71.8163ZM527.042 -71.0894L580.323 -17.8087H509.382L509.382 -53.4294L527.042 -71.0894ZM436.172 55.9146C436.24 55.9148 436.306 55.901 436.369 55.875C436.432 55.8489 436.489 55.8116 436.536 55.7644L508.354 -16.0536L508.354 55.1875L472.157 91.3848L436.173 127.369L364.718 55.9148L436.172 55.9146ZM543.975 -199.547L508.868 -199.547C508.868 -199.547 508.869 -199.547 508.868 -199.547L473.762 -199.547L508.868 -234.654L543.975 -199.547ZM508.141 -162.686L472.52 -127.065L436.9 -162.686L472.521 -198.306L508.141 -162.686ZM508.354 -53.8554L436.687 17.8121V-17.0817L508.354 -88.7493L508.354 -53.8554ZM435.659 19.0528L435.659 54.8866L364.718 54.8866L435.659 -16.054L435.659 19.0528ZM399.311 -17.8092L364.718 -17.8091L399.311 -52.4019L399.311 -17.8092ZM290.268 54.8862L255.675 54.8864L290.268 20.2935L290.268 54.8862ZM292.023 127.582L308.956 110.649L325.889 127.582H292.023ZM291.296 126.855L291.296 55.6133L327.343 19.5666L398.584 19.5666L363.114 55.0369L291.296 126.855ZM582.077 -16.781H616.67L582.077 17.8119V-16.781ZM617.911 -17.8089L582.805 -17.8089L617.911 -52.9155L653.018 -17.8089L617.911 -17.8089ZM363.477 -89.2634L399.098 -53.6426L363.477 -18.0221L327.857 -53.6428L363.477 -89.2634ZM362.236 -17.8092H327.13L292.023 -17.8091L327.13 -52.9159L362.236 -17.8092ZM290.268 18.8398L236.26 72.8472L218.813 55.4003L290.268 -16.0542L290.268 18.8398ZM364.718 201.305H399.825H435.659V272.246L364.718 201.305ZM327.342 127.582L309.683 109.922L362.963 56.6414L362.963 127.582L327.342 127.582ZM363.991 56.6416L434.932 127.582L363.991 127.582L363.991 56.6416ZM436.9 128.096L472.521 92.4754L508.141 128.096L472.52 163.717L436.9 128.096ZM473.761 92.2622H508.354V126.855L473.761 92.2622ZM509.382 127.883V92.2622H544.702V163.203L509.382 127.883ZM473.762 91.2343L508.868 56.1276L543.975 91.2343H473.762ZM527.769 73.5744L545.429 55.9145H581.05V126.855L527.769 73.5744ZM546.457 54.8865L581.05 20.2937L581.05 54.8865H546.457ZM654.472 -16.7809L690.093 -16.781V18.5388H619.152L654.472 -16.7809ZM691.121 -52.4017L726.227 -17.2949L691.121 17.8119V-52.4017ZM655.5 -89.4764L726.441 -89.4764L726.441 -18.5358L655.5 -89.4764ZM582.078 -199.548V-234.141L616.671 -199.548L582.078 -199.548ZM544.702 -271.516L544.702 -200.275L437.414 -307.563L508.655 -307.563L544.702 -271.516ZM507.627 -234.867L490.694 -217.934L473.761 -234.867L507.627 -234.867ZM434.932 -163.2L363.991 -163.2L363.991 -234.14L434.932 -163.2ZM435.96 -162.172L472.157 -125.975L508.141 -89.9903L436.687 -18.5358L436.686 -89.9902C436.687 -90.0572 436.673 -90.1241 436.647 -90.1868C436.621 -90.2495 436.583 -90.3064 436.536 -90.3537L364.718 -162.172L435.96 -162.172ZM434.932 -90.5045L400.038 -90.5045L328.37 -162.172L363.264 -162.172L434.932 -90.5045ZM398.584 -90.5045L363.69 -90.5045L292.022 -162.172L326.916 -162.172L398.584 -90.5045ZM362.75 -89.9904L327.129 -54.3696L291.509 -89.9904L327.129 -125.611L362.75 -89.9904ZM325.888 -54.1568L291.296 -54.1566L291.296 -88.7495L325.888 -54.1568ZM290.268 -89.7776V-54.1568L254.948 -54.1566L254.948 -125.097L290.268 -89.7776ZM325.888 -53.1285L290.782 -18.0219L255.675 -53.1287L325.888 -53.1285ZM271.881 -35.4688L254.221 -17.8089H218.6L218.6 -88.7494L271.881 -35.4688ZM272.608 -34.7418L289.541 -17.8089H255.675L272.608 -34.7418ZM289.541 -16.781L217.873 54.8866H182.98L254.647 -16.781L289.541 -16.781ZM362.236 201.306L345.303 218.238L328.37 201.305L362.236 201.306ZM398.584 272.973L363.991 272.973L363.991 238.38L398.584 272.973ZM346.03 218.965L363.477 201.518L434.932 272.973L400.038 272.973L346.03 218.965ZM435.658 274.001L435.658 308.593L401.066 274.001L435.658 274.001ZM436.686 309.835L436.687 274.728L471.793 309.835L436.687 344.941L436.686 309.835ZM436.9 273.487L472.52 237.866L508.141 273.487L472.52 309.108L436.9 273.487ZM473.761 237.653L508.354 237.653L508.354 272.246L473.761 237.653ZM472.157 236.776L436.687 272.246L436.687 200.792C436.687 200.725 436.673 200.658 436.647 200.595C436.621 200.532 436.583 200.476 436.536 200.428L364.718 128.61L435.96 128.61L472.157 164.807L508.141 200.792L472.157 236.776ZM473.247 164.444L508.354 129.337L508.354 164.443L508.354 199.55L473.247 164.444ZM509.382 165.685L543.975 200.277L509.382 200.277L509.382 165.685ZM545.73 164.231L545.73 92.9891L581.2 128.459L653.018 200.277L581.777 200.277L545.73 164.231ZM582.077 55.6135L618.124 19.5668L689.366 19.5667L653.896 55.0368L582.077 126.855L582.077 55.6135ZM708.781 109.195L655.5 55.9143L726.44 55.9145L726.44 91.5353L708.781 109.195ZM726.44 92.9891L726.44 126.855L709.507 109.922L726.44 92.9891ZM726.44 54.8862L655.5 54.8864L726.441 -16.0542L726.44 54.8862ZM781.476 -72.5435L764.543 -89.4762H798.409L781.476 -72.5435ZM780.749 -71.8165L727.469 -18.5362L727.469 -89.4762L763.089 -89.4763L780.749 -71.8165ZM727.167 -90.5043L655.5 -162.172L690.394 -162.172L762.061 -90.5043L727.167 -90.5043ZM653.745 -162.686C653.745 -162.619 653.759 -162.552 653.785 -162.489C653.811 -162.426 653.848 -162.37 653.896 -162.322L725.714 -90.5043L654.472 -90.5043L582.29 -162.686L653.745 -234.14L653.745 -162.686ZM582.29 -235.381L617.911 -271.002L653.532 -235.381L617.911 -199.76L582.29 -235.381ZM509.382 -308.591L509.382 -343.184L543.975 -308.591L509.382 -308.591ZM508.354 -344.212L508.354 -308.591L437.414 -308.591L472.884 -344.061L490.694 -361.871L508.354 -344.212ZM471.793 -344.424L436.173 -308.804L400.552 -344.424L436.173 -380.045L471.793 -344.424ZM399.461 -344.061L434.932 -308.591L399.825 -308.591C399.825 -308.591 399.825 -308.591 399.824 -308.591L363.991 -308.591L363.991 -379.531L399.461 -344.061ZM472.307 -234.867L489.967 -217.207L436.687 -163.927L436.687 -234.867H472.307ZM435.658 -163.927L364.718 -234.867L435.659 -234.867L435.658 -163.927ZM325.888 -163.2L292.023 -163.2L308.956 -180.133L325.888 -163.2ZM326.403 -126.338L291.296 -91.2313L291.296 -126.337C291.296 -126.338 291.296 -126.338 291.296 -126.338L291.296 -161.445L326.403 -126.338ZM290.268 -127.579L255.675 -162.172L290.268 -162.172L290.268 -127.579ZM253.92 -126.125L253.92 -54.8837L218.45 -90.3538L146.632 -162.172L217.873 -162.172L253.92 -126.125ZM217.572 -88.7494L217.572 -17.8091L146.632 -17.8089L217.572 -88.7494ZM253.193 -16.781L181.526 54.8866L146.632 54.8866L218.299 -16.781L253.193 -16.781ZM145.905 55.9145L181.738 55.9143C181.738 55.9143 181.739 55.9143 181.739 55.9143L216.845 55.9147L145.905 126.855L145.905 55.9145ZM289.541 127.582L254.434 127.582L218.6 127.582L218.6 56.6414L289.541 127.582ZM326.916 201.305L344.576 218.965L291.296 272.246L291.296 201.305L326.916 201.305ZM345.303 219.692L362.963 237.352L362.963 272.973L292.023 272.973L345.303 219.692ZM399.612 274.001L435.659 310.048L435.659 344.941L364.718 274.001L399.612 274.001ZM435.658 346.395L435.658 382.016L400.339 382.016L400.339 311.075L435.658 346.395ZM436.687 347.423L471.279 382.016L436.687 382.016L436.687 347.423ZM508.141 346.182L472.52 381.803L436.9 346.182L472.52 310.561L508.141 346.182ZM508.354 344.941L473.247 309.835L508.354 274.728L508.354 309.834L508.354 344.941ZM544.702 308.593L509.382 273.274L509.382 237.653L544.702 237.653L544.702 308.593ZM473.761 236.625L508.868 201.518L543.975 236.625L473.761 236.625ZM510.109 201.305L545.003 201.305L599.01 255.313L581.564 272.76L510.109 201.305ZM599.737 254.586L582.077 236.926L582.077 201.305L653.018 201.305L599.737 254.586ZM690.607 127.582L654.773 127.582L654.773 56.6413L725.714 127.582L690.607 127.582ZM727.469 126.855L727.469 91.9611L799.136 20.2935V55.1874L727.469 126.855ZM800.164 54.1595V19.053V-16.7807L871.105 -16.7812L800.164 54.1595ZM871.104 -17.8091L799.65 -17.8091C799.583 -17.8092 799.516 -17.7954 799.453 -17.7694C799.391 -17.7434 799.334 -17.706 799.286 -17.6588L727.468 54.1592V-17.0819L799.65 -89.2634L871.104 -17.8091ZM763.515 -90.5043L691.848 -162.172L726.741 -162.172L798.409 -90.5043L763.515 -90.5043ZM725.714 -163.2L690.607 -163.2L654.773 -163.2L654.773 -234.14L725.714 -163.2ZM617.184 -271.729L582.077 -236.622V-271.729L582.077 -306.836L617.184 -271.729ZM580.322 -308.591L545.429 -308.591L491.421 -362.598L508.868 -380.045L580.322 -308.591ZM472.52 -345.151L437.414 -380.258L472.52 -380.258C472.52 -380.258 472.521 -380.258 472.521 -380.258L507.627 -380.258L472.52 -345.151ZM435.959 -381.286H400.339L400.339 -416.606L471.279 -416.606L435.959 -381.286ZM399.311 -415.879L399.311 -380.772L399.311 -345.665L364.204 -380.772L399.311 -415.879ZM362.963 -379.531L362.963 -308.077C362.963 -308.01 362.977 -307.943 363.003 -307.88C363.029 -307.818 363.067 -307.761 363.114 -307.713L434.932 -235.895L363.69 -235.895L291.509 -308.077L362.963 -379.531ZM362.236 -234.867L345.303 -217.934L328.37 -234.867L362.236 -234.867ZM344.576 -217.207L291.296 -163.927L291.296 -234.867L326.916 -234.867L344.576 -217.207ZM290.268 -234.867L290.268 -163.927L219.327 -234.867L290.268 -234.867ZM218.086 -234.654L289.541 -163.2L254.647 -163.2L200.639 -217.207L218.086 -234.654ZM199.912 -216.48L217.572 -198.821L217.572 -163.2L146.632 -163.2L199.912 -216.48ZM144.877 -89.4766L144.877 -54.8837L110.284 -89.4764L144.877 -89.4766ZM108.83 -89.4764L162.838 -35.4688L145.391 -18.0219L73.9363 -89.4764L108.83 -89.4764ZM73.2094 -16.781L107.802 -16.7808L73.2094 17.8119L73.2094 -16.781ZM73.2094 19.2658L127.217 -34.7418L144.664 -17.2949L73.2094 54.1596L73.2094 19.2658ZM73.4224 55.4005L145.604 -16.781L216.845 -16.781L145.027 55.037C144.98 55.0843 144.943 55.1412 144.917 55.2039C144.891 55.2669 144.877 55.3338 144.877 55.4009L144.877 126.855L73.4224 55.4005ZM217.572 56.6416L217.572 128.096C217.572 128.163 217.586 128.23 217.612 128.292C217.638 128.355 217.675 128.412 217.723 128.459L289.541 200.277L218.299 200.277L146.118 128.096L217.572 56.6416ZM219.327 201.305L290.268 201.306L290.268 272.246L219.327 201.305ZM292.023 274.001L363.264 274.001L399.311 310.048L399.311 381.289L292.023 274.001ZM471.279 383.044L436.173 418.151L401.066 383.044L471.279 383.044Z" fill="#D3DCE4"/>
</svg>
