<svg width="873" height="873" viewBox="0 0 873 873" fill="none" xmlns="http://www.w3.org/2000/svg">
<path opacity="0.1" d="M472.006 836.511L472.157 836.36L472.884 835.633L508.505 800.013L509.232 799.286L509.382 799.135L509.382 764.542L526.678 781.839L527.405 781.112L509.382 763.088L509.382 728.195L544.852 763.665L545.579 762.938L545.73 762.787L545.73 691.847L581.2 727.317L581.927 726.59L599.374 709.143L600.101 708.416L653.745 654.772L653.896 654.622L654.622 653.895L654.773 653.744H654.472L582.29 581.563L653.745 510.108L653.745 581.563C653.745 581.629 653.758 581.696 653.784 581.758C653.809 581.82 653.847 581.878 653.895 581.926L690.243 618.274L690.97 617.547L655.5 582.077L690.393 582.077L708.417 600.1L709.144 599.373L691.847 582.077L726.44 582.077L726.591 581.926L727.318 581.199L727.468 581.049L799.286 509.231L800.164 508.353L871.831 436.686L872.345 436.172L871.831 435.658L800.013 363.84L799.286 363.113L799.136 362.962L727.318 291.144L726.44 290.267L654.773 218.6L654.622 218.449L653.896 217.722L617.548 181.374L582.077 145.904L581.049 144.876L509.232 73.0581L508.505 72.3312L508.354 72.1805L473.761 72.1807L491.058 54.8843L490.331 54.1573L472.307 72.1807L437.414 72.1807L472.884 36.7104L472.157 35.9835L472.006 35.833L401.066 35.833L436.536 0.362696L436.173 -0.00078092L400.339 35.833L399.311 36.8611L363.841 72.3312L363.114 73.0582L362.963 73.2086L291.145 145.027L290.418 145.754L290.268 145.904L290.569 145.904L362.236 217.572L327.342 217.572L272.971 163.2L272.244 163.927L325.888 217.571L290.995 217.571L254.798 181.374L254.071 182.101L289.541 217.571L218.6 217.572L218.45 217.722L217.723 218.449L200.276 235.896L199.549 236.623L145.905 290.267L145.754 290.418L145.027 291.144L216.845 362.962L145.604 362.962L109.557 326.916L109.557 326.615L109.407 326.765L108.68 327.492L144.15 362.962L109.256 362.962L91.2328 344.939L90.5058 345.666L107.802 362.962L73.2094 362.962L73.0589 363.113L72.332 363.84L72.1813 363.991L0 436.172L0.363477 436.535L72.1815 364.717L72.1815 435.959L36.1347 472.006L35.8338 472.006L35.9842 472.156L36.7112 472.883L72.1813 437.413L72.1813 472.307L54.1581 490.33L54.8851 491.057L72.1813 473.761V508.353L72.332 508.504L73.0589 509.231L144.877 581.049L145.027 581.199L145.754 581.926L217.723 653.895L218.6 654.772L290.268 726.439L290.418 726.59L291.145 727.317L291.296 727.468L399.311 835.483L400.339 836.511L436.173 872.345L472.006 836.511ZM219.327 582.077L254.221 582.077L325.889 653.744L290.995 653.744L219.327 582.077ZM108.83 435.658H73.2094L73.2094 364.717L126.49 417.998L108.83 435.658ZM145.905 399.611L145.905 363.99L216.845 363.99L163.565 417.271L145.905 399.611ZM253.193 290.267L218.6 290.267L218.6 255.674L253.193 290.267ZM254.221 291.295L290.268 327.342L290.268 362.236L219.327 291.295L254.221 291.295ZM362.963 219.326L362.963 290.267L327.342 290.267L309.683 272.607L362.963 219.326ZM364.718 145.904L399.612 145.904L471.279 217.572H436.386L364.718 145.904ZM400.339 73.2087L434.932 73.2086L400.339 107.801L400.339 73.2087ZM581.049 181.951L581.049 216.844L510.109 145.904L545.003 145.904L581.049 181.951ZM546.457 145.904L581.05 145.904L581.049 180.497L546.457 145.904ZM799.136 472.306L727.469 543.974L727.469 509.08L799.136 437.413V472.306ZM546.457 654.772L581.049 654.772L581.049 689.365L546.457 654.772ZM545.429 653.744L509.382 617.697L509.382 582.803L580.322 653.744L545.429 653.744ZM290.569 582.077L362.236 653.744L327.342 653.744L255.675 582.077L290.569 582.077ZM435.96 145.904L507.627 217.572L472.733 217.572L401.066 145.904L435.96 145.904ZM582.077 507.626V472.733L618.124 436.686L653.018 436.686L582.077 507.626ZM434.932 653.744L400.038 653.744L328.37 582.077L363.264 582.077L434.932 653.744ZM399.825 363.99L435.658 363.99V434.931L400.188 399.461L364.718 363.991L399.825 363.99ZM581.049 218.298L581.049 253.919L545.73 253.919L545.73 182.979L581.049 218.298ZM616.671 254.947L581.564 290.054L546.457 254.947L616.671 254.947ZM690.093 435.658H655.5L690.093 401.065L690.093 435.658ZM527.042 526.314L509.595 508.868L581.05 437.413V472.307L527.042 526.314ZM363.69 653.744L292.023 582.077L326.916 582.077L398.584 653.744L363.69 653.744ZM254.647 509.381L290.268 509.381V580.322L236.987 527.041L254.647 509.381ZM291.296 436.686L325.889 436.686L291.296 471.279V436.686ZM327.342 436.686H362.236L291.296 507.626V472.732L327.342 436.686ZM618.638 399.824L654.259 364.204L689.88 399.824L654.259 435.445L618.638 399.824ZM363.69 436.686H399.311V472.006L328.371 472.005L363.69 436.686ZM400.339 401.065L435.446 436.172L400.339 471.278L400.339 401.065ZM436.687 472.733L508.354 401.065V435.959L436.687 507.627L436.687 472.733ZM544.702 254.947L544.702 325.888L509.382 290.568L509.382 254.947L544.702 254.947ZM509.382 436.686L580.322 436.686L509.382 507.626L509.382 436.686ZM509.382 292.022L580.323 362.963L545.429 362.963L509.382 326.916L509.382 292.022ZM546.457 363.991H581.05L581.05 398.583L546.457 363.991ZM582.078 399.611V363.991L653.018 363.991L617.548 399.461L599.737 417.271L582.078 399.611ZM543.975 362.962L509.382 362.962L509.382 328.37L543.975 362.962ZM545.003 363.991L599.01 417.998L581.564 435.445L510.109 363.991H545.003ZM581.777 362.962L545.73 326.916L545.73 255.674L653.018 362.963L581.777 362.962ZM508.354 289.54L473.762 254.948L508.354 254.947L508.354 289.54ZM508.354 327.129L508.354 362.236L473.247 327.129L508.354 292.022L508.354 327.129ZM526.315 381.65L509.382 398.583V364.718L526.315 381.65ZM527.042 382.377L580.323 435.658H509.382L509.382 400.037L527.042 382.377ZM436.172 509.381C436.24 509.382 436.306 509.368 436.369 509.342C436.432 509.316 436.489 509.278 436.536 509.231L508.354 437.413L508.354 508.654L472.157 544.852L436.173 580.836L364.718 509.382L436.172 509.381ZM543.975 253.919L508.868 253.919C508.869 253.919 508.868 253.919 508.868 253.919L473.762 253.919L508.868 218.813L543.975 253.919ZM508.141 290.781L472.52 326.402L436.9 290.781L472.521 255.16L508.141 290.781ZM508.354 399.611L436.687 471.279L436.687 436.385L508.354 364.718L508.354 399.611ZM435.659 472.52L435.659 508.353L364.718 508.353L435.659 437.413L435.659 472.52ZM399.311 435.658L364.718 435.658L399.311 401.065L399.311 435.658ZM290.268 508.353L255.675 508.353L290.268 473.76L290.268 508.353ZM292.023 581.049L308.956 564.116L325.889 581.049H292.023ZM291.296 580.322L291.296 509.08L327.343 473.033L398.584 473.033L363.114 508.504L291.296 580.322ZM582.077 436.686L616.67 436.686L582.077 471.279V436.686ZM617.911 435.658L582.805 435.658L617.911 400.551L653.018 435.658L617.911 435.658ZM363.477 364.203L399.098 399.824L363.477 435.445L327.857 399.824L363.477 364.203ZM362.236 435.658H327.13L292.023 435.658L327.13 400.551L362.236 435.658ZM290.268 472.307L236.26 526.314L218.813 508.867L290.268 437.413L290.268 472.307ZM364.718 654.772H399.825H435.659L435.659 725.713L364.718 654.772ZM327.342 581.049L309.683 563.389L362.963 510.108L362.963 581.049L327.342 581.049ZM363.991 510.108L434.932 581.049H363.991L363.991 510.108ZM436.9 581.563L472.521 545.942L508.141 581.563L472.52 617.184L436.9 581.563ZM473.761 545.729H508.354L508.354 580.322L473.761 545.729ZM509.382 581.35V545.729L544.702 545.729L544.702 616.67L509.382 581.35ZM473.762 544.701L508.868 509.594L543.975 544.701H473.762ZM527.769 527.041L545.429 509.381L581.05 509.381V580.322L527.769 527.041ZM546.457 508.353L581.05 473.761L581.05 508.353H546.457ZM654.472 436.686L690.093 436.686V472.006H619.152L654.472 436.686ZM691.121 401.065L726.227 436.172L691.121 471.279V401.065ZM655.5 363.99L726.441 363.99L726.441 434.931L655.5 363.99ZM582.078 253.919V219.326L616.671 253.919L582.078 253.919ZM544.702 181.951L544.702 253.192L437.414 145.904L508.655 145.904L544.702 181.951ZM507.627 218.6L490.694 235.532L473.761 218.6H507.627ZM434.932 290.267L363.991 290.267L363.991 219.327L434.932 290.267ZM435.96 291.295L472.157 327.492L508.141 363.476L436.687 434.931L436.686 363.477C436.687 363.41 436.673 363.343 436.647 363.28C436.621 363.217 436.583 363.16 436.536 363.113L364.718 291.295L435.96 291.295ZM434.932 362.962L400.038 362.962L328.37 291.295L363.264 291.295L434.932 362.962ZM398.584 362.962L363.69 362.962L292.022 291.295L326.916 291.295L398.584 362.962ZM362.75 363.476L327.129 399.097L291.509 363.476L327.129 327.856L362.75 363.476ZM325.888 399.31L291.296 399.31L291.296 364.717L325.888 399.31ZM290.268 363.689V399.31L254.948 399.31L254.948 328.37L290.268 363.689ZM325.888 400.338L290.782 435.445L255.675 400.338L325.888 400.338ZM271.881 417.998L254.221 435.658H218.6L218.6 364.717L271.881 417.998ZM272.608 418.725L289.541 435.658H255.675L272.608 418.725ZM289.541 436.686L217.873 508.353L182.98 508.353L254.647 436.686L289.541 436.686ZM362.236 654.772L345.303 671.705L328.37 654.772L362.236 654.772ZM398.584 726.44L363.991 726.44L363.991 691.847L398.584 726.44ZM346.03 672.432L363.477 654.985L434.932 726.44L400.038 726.44L346.03 672.432ZM435.658 727.468L435.658 762.06L401.066 727.467L435.658 727.468ZM436.686 763.302L436.687 728.195L471.793 763.301L436.687 798.408L436.686 763.302ZM436.9 726.954L472.52 691.333L508.141 726.954L472.52 762.574L436.9 726.954ZM473.761 691.12L508.354 691.12L508.354 725.713L473.761 691.12ZM472.157 690.242L436.687 725.713L436.687 654.259C436.687 654.191 436.673 654.125 436.647 654.062C436.621 653.999 436.583 653.942 436.536 653.895L364.718 582.077L435.96 582.077L472.157 618.274L508.141 654.258L472.157 690.242ZM473.247 617.91L508.354 582.804L508.354 617.91L508.354 653.017L473.247 617.91ZM509.382 619.151L543.975 653.744L509.382 653.744L509.382 619.151ZM545.73 617.697L545.73 546.456L581.2 581.926L653.018 653.744L581.777 653.744L545.73 617.697ZM582.077 509.08L618.124 473.034L689.366 473.034L653.896 508.504L582.077 580.322L582.077 509.08ZM708.781 562.662L655.5 509.381L726.44 509.381L726.44 545.002L708.781 562.662ZM726.44 546.456L726.44 580.322L709.507 563.389L726.44 546.456ZM726.44 508.353L655.5 508.353L726.441 437.413L726.44 508.353ZM781.476 380.923L764.543 363.991L798.409 363.991L781.476 380.923ZM780.749 381.65L727.469 434.931L727.469 363.991L763.089 363.991L780.749 381.65ZM727.167 362.962L655.5 291.295L690.394 291.295L762.061 362.962L727.167 362.962ZM653.745 290.781C653.745 290.848 653.759 290.915 653.785 290.977C653.811 291.04 653.848 291.097 653.896 291.144L725.714 362.962L654.472 362.962L582.29 290.781L653.745 219.326L653.745 290.781ZM582.29 218.086L617.911 182.465L653.532 218.086L617.911 253.706L582.29 218.086ZM509.382 144.876L509.382 110.283L543.975 144.876L509.382 144.876ZM508.354 109.255L508.354 144.876L437.414 144.876L472.884 109.406L490.694 91.5955L508.354 109.255ZM471.793 109.042L436.173 144.663L400.552 109.042L436.173 73.4216L471.793 109.042ZM399.461 109.406L434.932 144.876L399.825 144.876C399.825 144.876 399.825 144.876 399.824 144.876L363.991 144.876L363.991 73.9356L399.461 109.406ZM472.307 218.6L489.967 236.259L436.687 289.54V218.6H472.307ZM435.659 289.54L364.718 218.6L435.659 218.6L435.659 289.54ZM325.888 290.267L292.023 290.267L308.956 273.334L325.888 290.267ZM326.403 327.129L291.296 362.236L291.296 327.129C291.296 327.129 291.296 327.129 291.296 327.128L291.296 292.022L326.403 327.129ZM290.268 325.888L255.675 291.295L290.268 291.295L290.268 325.888ZM253.92 327.342L253.92 398.583L218.45 363.113L146.632 291.295L217.873 291.295L253.92 327.342ZM217.572 364.717L217.572 435.658L146.632 435.658L217.572 364.717ZM253.193 436.686L181.526 508.353L146.632 508.353L218.299 436.686L253.193 436.686ZM145.905 509.381L181.738 509.381C181.738 509.381 181.739 509.381 181.739 509.381L216.845 509.381L145.905 580.322L145.905 509.381ZM289.541 581.049H254.434L218.6 581.049L218.6 510.108L289.541 581.049ZM326.916 654.772L344.576 672.432L291.296 725.713L291.296 654.772L326.916 654.772ZM345.303 673.159L362.963 690.819L362.963 726.44L292.023 726.44L345.303 673.159ZM399.612 727.468L435.659 763.514L435.659 798.408L364.718 727.468L399.612 727.468ZM435.658 799.862L435.658 835.483L400.339 835.483L400.339 764.542L435.658 799.862ZM436.687 800.89L471.279 835.483L436.687 835.483L436.687 800.89ZM508.141 799.649L472.52 835.27L436.9 799.649L472.52 764.028L508.141 799.649ZM508.354 798.408L473.247 763.301L508.354 728.195L508.354 763.301L508.354 798.408ZM544.702 762.06L509.382 726.74L509.382 691.12L544.702 691.12L544.702 762.06ZM473.761 690.092L508.868 654.985L543.975 690.092L473.761 690.092ZM510.109 654.772L545.003 654.772L599.01 708.78L581.564 726.227L510.109 654.772ZM599.737 708.053L582.077 690.393L582.077 654.772L653.018 654.772L599.737 708.053ZM690.607 581.049L654.773 581.049L654.773 510.108L725.714 581.049L690.607 581.049ZM727.469 580.322L727.469 545.428L799.136 473.76V508.654L727.469 580.322ZM800.164 507.626V472.52V436.686L871.105 436.686L800.164 507.626ZM871.104 435.658L799.65 435.658C799.583 435.658 799.516 435.671 799.453 435.697C799.391 435.723 799.334 435.761 799.286 435.808L727.468 507.626V436.385L799.65 364.203L871.104 435.658ZM763.515 362.962L691.848 291.295L726.741 291.295L798.409 362.962L763.515 362.962ZM725.714 290.267L690.607 290.267L654.773 290.267L654.773 219.327L725.714 290.267ZM617.184 181.738L582.077 216.845V181.738L582.077 146.631L617.184 181.738ZM580.322 144.876L545.429 144.876L491.421 90.8686L508.868 73.4216L580.322 144.876ZM472.52 108.315L437.414 73.2087L472.52 73.2086C472.52 73.2086 472.521 73.2087 472.521 73.2087L507.627 73.2088L472.52 108.315ZM435.959 72.1805L400.339 72.1805L400.339 36.8609L471.279 36.8609L435.959 72.1805ZM399.311 37.5879L399.311 72.6947L399.311 107.801L364.204 72.6947L399.311 37.5879ZM362.963 73.9356L362.963 145.389C362.963 145.457 362.977 145.523 363.003 145.587C363.029 145.649 363.067 145.706 363.114 145.753L434.932 217.571L363.69 217.571L291.509 145.39L362.963 73.9356ZM362.236 218.6L345.303 235.532L328.37 218.6H362.236ZM344.576 236.259L291.296 289.54L291.296 218.6L326.916 218.6L344.576 236.259ZM290.268 218.599L290.268 289.54L219.327 218.6L290.268 218.599ZM218.086 218.813L289.541 290.267L254.647 290.267L200.639 236.259L218.086 218.813ZM199.912 236.986L217.572 254.646L217.572 290.267L146.632 290.267L199.912 236.986ZM144.877 363.99L144.877 398.583L110.284 363.99L144.877 363.99ZM108.83 363.99L162.838 417.998L145.391 435.445L73.9363 363.99L108.83 363.99ZM73.2094 436.686L107.802 436.686L73.2094 471.279L73.2094 436.686ZM73.2094 472.733L127.217 418.725L144.664 436.172L73.2094 507.626L73.2094 472.733ZM73.4224 508.867L145.604 436.686L216.845 436.686L145.027 508.504C144.98 508.551 144.943 508.608 144.917 508.671C144.891 508.734 144.877 508.801 144.877 508.868L144.877 580.322L73.4224 508.867ZM217.572 510.108L217.572 581.563C217.572 581.63 217.586 581.696 217.612 581.759C217.638 581.822 217.675 581.879 217.723 581.926L289.541 653.744L218.299 653.744L146.118 581.563L217.572 510.108ZM219.327 654.772L290.268 654.772L290.268 725.713L219.327 654.772ZM292.023 727.468L363.264 727.468L399.311 763.514L399.311 834.756L292.023 727.468ZM471.279 836.511L436.173 871.618L401.066 836.511L471.279 836.511Z" fill="white"/>
</svg>
