<svg width="887" height="569" viewBox="0 0 887 569" fill="none" xmlns="http://www.w3.org/2000/svg">
<path opacity="0.03" d="M-61.5585 69.222L-61.7757 69.4392L-62.8252 70.4887L-114.249 121.913L-115.299 122.962L-115.516 123.179L-115.516 173.12L-140.486 148.15L-141.536 149.199L-115.516 175.219L-115.516 225.593L-166.723 174.386L-167.772 175.436L-167.99 175.653L-167.989 278.067L-219.196 226.86L-220.246 227.909L-245.433 253.097L-246.483 254.146L-323.926 331.59L-324.143 331.807L-325.193 332.856L-325.41 333.074L-324.976 333.074L-220.771 437.279L-323.926 540.434L-323.926 437.279C-323.926 437.183 -323.945 437.087 -323.982 436.997C-324.019 436.907 -324.073 436.824 -324.143 436.754L-376.617 384.28L-377.666 385.33L-326.459 436.537H-376.834L-402.853 410.517L-403.903 411.566L-378.933 436.537L-428.873 436.536L-429.09 436.754L-430.14 437.803L-430.357 438.021L-534.038 541.701L-535.304 542.968L-638.767 646.431L-639.509 647.173L-638.767 647.915L-535.087 751.595L-534.038 752.645L-533.82 752.862L-430.14 856.542L-428.873 857.809L-325.41 961.272L-325.193 961.489L-324.143 962.539L-271.67 1015.01L-220.463 1066.22L-218.979 1067.7L-115.299 1171.38L-114.249 1172.43L-114.032 1172.65L-64.0919 1172.65L-89.062 1197.62L-88.0125 1198.67L-61.9929 1172.65L-11.6183 1172.65L-62.8252 1223.86L-61.7757 1224.91L-61.5585 1225.12L40.8552 1225.12L-10.3517 1276.33L-9.82695 1276.86L41.9047 1225.12L43.3889 1223.64L94.5954 1172.43L95.6449 1171.38L95.8621 1171.17L199.542 1067.49L200.592 1066.44L200.809 1066.22L200.375 1066.22L96.9116 962.756L147.286 962.756L225.779 1041.25L226.829 1040.2L149.385 962.756L199.76 962.756L252.016 1015.01L253.065 1013.96L201.859 962.756L304.272 962.756L304.49 962.539L305.539 961.489L330.726 936.302L331.776 935.253L409.219 857.809L409.437 857.592L410.486 856.542L306.806 752.862L409.654 752.862L461.693 804.901L461.693 805.335L461.91 805.118L462.96 804.069L411.753 752.862L462.128 752.862L488.147 778.881L489.196 777.832L464.227 752.862L514.166 752.862L514.384 752.645L515.433 751.595L515.651 751.378L619.855 647.173L619.331 646.648L515.65 750.328L515.65 647.48L567.689 595.441L568.124 595.441L567.907 595.224L566.857 594.175L515.651 645.381L515.651 595.007L541.67 568.987L540.62 567.938L515.651 592.908L515.651 542.968L515.433 542.751L514.384 541.701L410.704 438.021L410.486 437.803L409.437 436.754L305.539 332.856L304.272 331.59L200.809 228.127L200.592 227.909L199.542 226.86L199.325 226.643L43.3889 70.7063L41.9047 69.222L-9.82695 17.4904L-61.5585 69.222ZM303.223 436.537L252.848 436.537L149.385 333.074L199.76 333.074L303.223 436.537ZM462.742 647.915H514.166L514.166 750.328L437.248 673.41L462.742 647.915ZM409.219 699.954V751.378L306.806 751.378L383.725 674.459L409.219 699.954ZM254.332 857.809H304.273L304.272 907.749L254.332 857.809ZM252.848 856.325L200.809 804.286V753.911L303.223 856.325L252.848 856.325ZM95.8621 960.223L95.8621 857.809H147.286L172.781 883.304L95.8621 960.223ZM93.3287 1066.22L42.9541 1066.22L-60.509 962.756L-10.1344 962.756L93.3287 1066.22ZM41.9046 1171.17L-8.03551 1171.17L41.9046 1121.23L41.9046 1171.17ZM-218.979 1014.18V963.806L-116.565 1066.22L-166.94 1066.22L-218.979 1014.18ZM-169.039 1066.22L-218.979 1066.22L-218.979 1016.28L-169.039 1066.22ZM-533.821 595.007L-430.357 491.544V541.919L-533.821 645.382L-533.821 595.007ZM-169.039 331.59L-218.979 331.589L-218.979 281.65L-169.039 331.59ZM-167.555 333.074L-115.516 385.113L-115.516 435.488L-217.929 333.074L-167.555 333.074ZM200.375 436.537L96.9116 333.074L147.286 333.074L250.749 436.537H200.375ZM-9.51945 1066.22L-112.983 962.756L-62.608 962.756L40.8552 1066.22L-9.51945 1066.22ZM-220.463 544.017V594.392L-272.502 646.431L-322.877 646.431L-220.463 544.017ZM-8.03548 333.074L42.3391 333.074L145.802 436.537L95.4279 436.537L-8.03548 333.074ZM42.6471 751.378L42.6466 751.378L-9.08443 751.378V648.965L42.1219 700.171L93.3284 751.378L42.6471 751.378ZM-218.979 961.707V910.283L-167.99 910.283L-167.99 1012.7L-218.979 961.707ZM-270.403 908.799L-219.721 858.117L-169.039 908.799L-270.403 908.799ZM-376.4 647.915H-326.46L-376.4 697.855V647.915ZM-141.011 517.038L-115.824 542.226L-218.979 645.381L-218.979 595.007L-141.011 517.038ZM94.8126 333.074L198.276 436.537L147.901 436.537L44.438 333.074L94.8126 333.074ZM252.233 541.484H200.809V439.07L277.728 515.989L252.233 541.484ZM199.325 646.431L149.385 646.431L199.325 596.491V646.431ZM147.286 646.431L96.9116 646.431L199.325 544.018V594.392L147.286 646.431ZM-273.244 699.646L-324.668 751.07L-376.092 699.646L-324.668 648.222L-273.244 699.646ZM94.8126 646.431H43.3886V595.441L145.802 595.442L94.8126 646.431ZM41.9046 697.855L-8.77721 647.173L41.9046 596.491V697.855ZM-10.5692 594.392L-114.032 697.855V647.48L-10.5692 544.017L-10.5692 594.392ZM-166.506 908.799L-166.506 806.385L-115.516 857.374V908.799L-166.506 908.799ZM-115.516 646.431H-217.929L-115.516 544.018L-115.516 646.431ZM-115.516 855.275L-217.93 752.862H-167.555L-115.516 804.901L-115.516 855.275ZM-169.039 751.378L-218.979 751.378L-218.979 701.438L-169.039 751.378ZM-220.463 699.954V751.378L-322.876 751.378L-271.67 700.171L-245.958 674.459L-220.463 699.954ZM-165.456 752.862H-115.516V802.802L-165.456 752.862ZM-166.94 751.378L-244.908 673.41L-219.721 648.222L-116.566 751.378L-166.94 751.378ZM-220.029 752.862L-167.99 804.901V907.749L-322.877 752.862H-220.029ZM-114.032 858.858L-64.0925 908.798L-114.032 908.798L-114.032 858.858ZM-114.032 804.593L-114.032 804.593L-114.032 753.911L-63.3499 804.593L-114.032 855.276L-114.032 804.593ZM-139.962 725.883L-115.516 701.438L-115.516 750.328L-139.962 725.883ZM-141.011 724.833L-217.93 647.915H-115.516V699.339L-141.011 724.833ZM-9.82667 541.484C-9.92347 541.483 -10.02 541.503 -10.1105 541.541C-10.2013 541.579 -10.2834 541.632 -10.3516 541.701L-114.032 645.381L-114.032 542.533L-61.7757 490.277L-9.82691 438.328L93.3282 541.483L-9.82667 541.484ZM-165.456 910.282L-114.775 910.283C-114.775 910.283 -114.774 910.283 -114.774 910.282C-114.774 910.282 -114.774 910.282 -114.773 910.282L-64.0924 910.283L-114.774 960.964L-165.456 910.282ZM-113.725 857.067L-62.3005 805.643L-10.8766 857.067L-62.3007 908.491L-113.725 857.067ZM-114.032 699.954L-10.5692 596.491V646.865L-114.032 750.328L-114.032 699.954ZM-9.08499 594.699L-9.08495 594.699V542.968H93.3287L-9.08495 645.381L-9.08499 594.699ZM43.3886 647.915L93.3284 647.915L43.3883 697.855L43.3886 647.915ZM200.809 542.968L250.749 542.968L200.809 592.908L200.809 542.968ZM198.275 438.021L173.83 462.466L149.385 438.021L198.275 438.021ZM199.325 439.07L199.325 541.919L147.286 593.958H44.4378L95.6446 542.751L199.325 439.07ZM-220.463 646.431H-270.403L-220.463 596.491V646.431ZM-272.195 647.915L-272.194 647.915H-221.513L-272.195 698.597L-322.877 647.915L-272.195 647.915ZM95.1201 751.07L43.6961 699.646L95.1199 648.223L146.544 699.647L95.1201 751.07ZM96.9116 647.915L147.593 647.915L147.594 647.915L198.276 647.915L147.593 698.597L96.9116 647.915ZM200.809 595.007L278.777 517.039L303.965 542.226L200.809 645.382L200.809 595.007ZM93.3287 331.59H42.6471H42.6466L-9.08494 331.59L-9.08496 229.176L93.3287 331.59ZM147.286 438.021L172.781 463.515L95.8621 540.434L95.8624 438.021L147.286 438.021ZM94.3779 540.434L-8.03547 438.021L94.3782 438.021L94.3779 540.434ZM-10.8766 437.278L-62.3007 488.703L-113.725 437.279L-62.3005 385.855L-10.8766 437.278ZM-64.0919 489.01H-114.032V439.07L-64.0919 489.01ZM-115.516 437.586V489.01L-166.506 489.01L-166.506 386.597L-115.516 437.586ZM-64.0924 490.494L-114.774 541.176L-165.456 490.494H-64.0924ZM-142.06 515.989L-167.555 541.484H-218.979L-218.979 439.07L-142.06 515.989ZM-169.039 542.968L-218.979 592.908L-218.979 542.968L-169.039 542.968ZM-324.976 646.431H-376.4L-376.4 595.441H-273.986L-324.976 646.431ZM-377.884 697.855L-428.566 647.173L-377.884 596.491V697.855ZM-326.46 751.378L-428.874 751.378L-428.874 648.964L-326.46 751.378ZM-220.463 910.283L-220.463 960.223L-270.403 910.283L-220.463 910.283ZM-166.505 1014.18V911.332L-11.6184 1066.22H-114.467L-166.505 1014.18ZM-112.983 961.272L-88.5372 936.827L-64.0919 961.272L-112.983 961.272ZM-8.03521 857.809L94.3782 857.809L94.3779 960.222L-8.03521 857.809ZM-9.51943 856.325L-61.7757 804.069L-113.725 752.12L-10.5689 648.964L-10.5686 752.12C-10.5689 752.216 -10.549 752.313 -10.5114 752.404C-10.4739 752.494 -10.4196 752.576 -10.3514 752.644L93.3284 856.325L-9.51943 856.325ZM-8.03525 752.862H42.3394L145.802 856.325L95.4276 856.325L-8.03525 752.862ZM44.4383 752.862L94.8129 752.862L198.276 856.325L147.901 856.325L44.4383 752.862ZM96.1696 752.12L147.594 700.696L199.018 752.12L147.594 803.544L96.1696 752.12ZM149.385 700.389L199.325 700.388V750.328L149.385 700.389ZM200.809 751.813L200.809 700.389L251.799 700.388L251.799 802.802L200.809 751.813ZM149.385 698.904L200.067 648.222L250.749 698.904L149.385 698.904ZM227.353 673.41L252.848 647.915L304.272 647.915V750.328L227.353 673.41ZM226.304 672.36L201.859 647.915H250.749L226.304 672.36ZM201.859 646.431L305.322 542.968L355.696 542.968L252.233 646.431H201.859ZM96.9119 331.589L121.357 307.144L145.802 331.59L96.9119 331.589ZM44.438 228.127L94.3782 228.127L94.3782 278.067L44.438 228.127ZM120.307 306.095L95.1201 331.282L-8.03549 228.127L42.3391 228.127L120.307 306.095ZM-9.08468 226.642L-9.08469 176.703L40.8554 226.643L-9.08468 226.642ZM-10.5687 174.911L-10.5687 174.911L-10.5689 225.593L-61.251 174.911L-10.5689 124.229L-10.5687 174.911ZM-10.8764 227.385L-62.3005 278.809L-113.725 227.385L-62.3005 175.96L-10.8764 227.385ZM-64.0919 279.116H-114.032L-114.032 229.176L-64.0919 279.116ZM-61.7757 280.383L-10.5689 229.176L-10.5689 332.331C-10.5692 332.428 -10.5492 332.524 -10.5117 332.615C-10.4739 332.706 -10.4199 332.788 -10.3516 332.856L93.3287 436.536L-9.51968 436.536L-61.7755 384.28L-113.724 332.331L-61.7757 280.383ZM-63.3499 384.805L-114.032 435.487L-114.032 384.806L-114.032 384.805L-114.032 334.123L-63.3499 384.805ZM-115.516 383.014L-165.456 333.074L-115.516 333.074V383.014ZM-167.99 385.113V487.961L-219.196 436.754L-322.877 333.074H-220.029L-167.99 385.113ZM-220.463 541.918L-272.502 593.957H-375.35L-324.144 542.751L-220.463 439.07L-220.463 541.918ZM-403.379 464.565L-326.46 541.484L-428.873 541.484V490.06L-403.379 464.565ZM-428.873 487.961V439.07L-404.428 463.515L-428.873 487.961ZM-428.873 542.968L-326.46 542.968L-428.874 645.382L-428.873 542.968ZM-508.326 726.933L-483.88 751.378L-532.771 751.378L-508.326 726.933ZM-507.276 725.883L-430.358 648.965L-430.357 751.378H-481.781L-507.276 725.883ZM-429.923 752.862L-326.46 856.325H-376.834L-480.297 752.862H-429.923ZM-323.926 857.067C-323.926 856.97 -323.946 856.874 -323.984 856.783C-324.021 856.693 -324.075 856.611 -324.143 856.542L-427.824 752.862H-324.976L-220.771 857.067L-323.926 960.223L-323.926 857.067ZM-220.771 962.014L-272.195 1013.44L-323.619 962.014L-272.195 910.59L-220.771 962.014ZM-115.516 1067.7L-115.516 1117.64L-165.456 1067.7L-115.516 1067.7ZM-114.032 1119.13L-114.032 1067.7L-11.6186 1067.7L-62.8252 1118.91L-88.5372 1144.62L-114.032 1119.13ZM-61.251 1119.43L-9.82695 1068.01L41.5971 1119.43L-9.82696 1170.86L-61.251 1119.43ZM43.1716 1118.91L-8.03523 1067.7L42.6461 1067.7C42.6466 1067.7 42.6471 1067.7 42.6476 1067.7L94.3782 1067.7L94.3781 1170.12L43.1716 1118.91ZM-61.9929 961.272L-87.4877 935.777L-10.5689 858.858L-10.5689 961.272H-61.9929ZM-9.08469 858.859L93.3284 961.272L-9.08498 961.272L-9.08469 858.859ZM149.385 857.809L198.276 857.809L173.83 882.255L149.385 857.809ZM148.643 804.593L199.325 753.911L199.325 804.592C199.325 804.593 199.325 804.593 199.325 804.594V855.276L148.643 804.593ZM200.809 806.385L250.749 856.325L200.809 856.325L200.809 806.385ZM253.283 804.286L253.283 701.438L304.49 752.645L408.17 856.325L305.322 856.325L253.283 804.286ZM305.756 750.328L305.756 647.915L408.17 647.915L305.756 750.328ZM254.332 646.431L357.795 542.968L408.17 542.968L304.707 646.431H254.332ZM409.219 541.484L357.489 541.484C357.488 541.484 357.488 541.484 357.487 541.484L306.806 541.484L409.219 439.07L409.219 541.484ZM201.859 438.021L252.54 438.021L252.541 438.021L304.272 438.021L304.272 540.434L201.859 438.021ZM147.901 331.59L122.406 306.095L199.325 229.176L199.325 331.59H147.901ZM121.357 305.045L95.8621 279.551V228.127L198.276 228.127L121.357 305.045ZM42.9541 226.643L-9.085 174.604L-9.08498 124.229L93.3287 226.643L42.9541 226.643ZM-9.08469 122.13V70.7062L41.9046 70.706L41.9046 173.12L-9.08469 122.13ZM-10.5689 120.646L-60.5091 70.7059L-10.5689 70.706L-10.5689 120.646ZM-113.725 122.438L-62.3005 71.0135L-10.8764 122.438L-62.3005 173.862L-113.725 122.438ZM-114.032 124.229L-63.3499 174.911L-114.032 225.593L-114.032 174.912L-114.032 174.911L-114.032 124.229ZM-166.505 176.703L-115.516 227.692V279.116L-166.506 279.116L-166.505 176.703ZM-64.0919 280.6L-114.774 331.282L-165.456 280.6H-64.0919ZM-116.565 331.59L-166.94 331.59L-244.908 253.621L-219.721 228.434L-116.565 331.59ZM-245.958 254.671L-220.463 280.166V331.59L-322.877 331.59L-245.958 254.671ZM-377.142 438.021H-377.141H-325.41L-325.41 540.435L-427.824 438.021L-377.142 438.021ZM-430.357 439.07L-430.357 489.445L-533.821 592.908L-533.821 542.534L-430.357 439.07ZM-535.304 544.017L-535.305 594.699V594.7V646.431L-637.718 646.431L-535.304 544.017ZM-637.718 647.915H-534.563C-534.466 647.915 -534.369 647.895 -534.279 647.858C-534.188 647.82 -534.106 647.766 -534.038 647.698L-430.357 544.018V646.865L-534.562 751.07L-637.718 647.915ZM-482.396 752.862L-378.933 856.325H-429.308L-532.771 752.862L-482.396 752.862ZM-427.824 857.809H-377.142H-377.142L-325.411 857.809L-325.41 960.222L-427.824 857.809ZM-271.145 1014.49L-220.463 963.805L-220.463 1014.49C-220.463 1014.49 -220.463 1014.49 -220.463 1014.49L-220.463 1065.17L-271.145 1014.49ZM-217.929 1067.7L-167.555 1067.7L-89.5867 1145.67L-114.774 1170.86L-217.929 1067.7ZM-62.3005 1120.48L-11.6184 1171.17L-62.2999 1171.17C-62.3005 1171.17 -62.301 1171.17 -62.3015 1171.17L-112.982 1171.17L-62.3005 1120.48ZM-9.51916 1172.65L41.9049 1172.65L41.9046 1223.64L-60.5091 1223.64L-9.51942 1172.65L-9.51916 1172.65ZM43.3886 1222.59L43.3886 1171.91L43.3888 1121.23L94.0706 1171.91L43.3886 1222.59ZM95.8621 1170.12L95.8621 1066.96C95.8621 1066.87 95.8427 1066.77 95.8046 1066.68C95.7671 1066.59 95.7128 1066.5 95.6446 1066.44L-8.03574 962.756H94.8124L199.018 1066.96L95.8621 1170.12ZM96.9116 961.272L121.357 936.827L145.802 961.272L96.9116 961.272ZM122.406 935.777L199.325 858.858L199.325 961.272H147.901L122.406 935.777ZM200.809 961.272L200.809 858.859L303.223 961.272L200.809 961.272ZM305.014 960.965L201.859 857.809H252.233L330.202 935.777L305.014 960.965ZM331.251 934.728L305.756 909.233V857.809L408.17 857.809L331.251 934.728ZM410.704 751.378V701.438L460.643 751.378L410.704 751.378ZM462.742 751.378L384.774 673.41L409.961 648.222L513.117 751.378L462.742 751.378ZM514.166 646.431L464.227 646.431L514.166 596.491L514.166 646.431ZM514.166 594.392L436.198 672.36L411.011 647.173L514.166 544.017L514.166 594.392ZM513.859 542.226L409.654 646.431H306.806L410.486 542.751C410.554 542.682 410.609 542.6 410.646 542.51C410.684 542.419 410.704 542.322 410.703 542.225L410.704 439.07L513.859 542.226ZM305.757 540.434L305.757 437.279C305.757 437.182 305.737 437.086 305.699 436.995C305.662 436.904 305.607 436.822 305.539 436.754L201.859 333.074L304.707 333.074L408.912 437.279L305.757 540.434ZM303.223 331.59L200.809 331.589L200.809 229.176L303.223 331.59ZM198.276 226.643L95.4276 226.643L43.3886 174.604L43.3886 71.7554L198.276 226.643ZM-60.5087 69.2218L-9.82692 18.5399L40.8552 69.2221L-60.5087 69.2218Z" fill="white"/>
</svg>
