<svg width="887" height="569" viewBox="0 0 887 569" fill="none" xmlns="http://www.w3.org/2000/svg">
<path opacity="0.03" d="M-61.5546 69.222L-61.7718 69.4392L-62.8213 70.4887L-114.245 121.913L-115.295 122.962L-115.512 123.179L-115.512 173.12L-140.482 148.15L-141.532 149.199L-115.512 175.219L-115.512 225.593L-166.719 174.386L-167.768 175.436L-167.986 175.653L-167.986 278.067L-219.192 226.86L-220.242 227.909L-245.429 253.097L-246.479 254.146L-323.922 331.59L-324.14 331.807L-325.189 332.856L-325.406 333.074L-324.972 333.074L-220.767 437.279L-323.922 540.434L-323.922 437.279C-323.922 437.183 -323.941 437.087 -323.978 436.997C-324.015 436.907 -324.069 436.824 -324.139 436.754L-376.613 384.28L-377.662 385.33L-326.455 436.537H-376.83L-402.85 410.517L-403.899 411.566L-378.929 436.537L-428.869 436.536L-429.087 436.754L-430.136 437.803L-430.353 438.021L-534.034 541.701L-535.3 542.968L-638.763 646.431L-639.505 647.173L-638.763 647.915L-535.083 751.595L-534.034 752.645L-533.816 752.862L-430.136 856.542L-428.869 857.809L-325.406 961.272L-325.189 961.489L-324.14 962.539L-271.666 1015.01L-220.459 1066.22L-218.975 1067.7L-115.295 1171.38L-114.245 1172.43L-114.028 1172.65L-64.088 1172.65L-89.0581 1197.62L-88.0086 1198.67L-61.989 1172.65L-11.6144 1172.65L-62.8213 1223.86L-61.7718 1224.91L-61.5546 1225.12L40.8591 1225.12L-10.3478 1276.33L-9.82304 1276.86L41.9086 1225.12L43.3928 1223.64L94.5993 1172.43L95.6488 1171.38L95.866 1171.17L199.546 1067.49L200.596 1066.44L200.813 1066.22L200.379 1066.22L96.9155 962.756L147.29 962.756L225.783 1041.25L226.833 1040.2L149.389 962.756L199.764 962.756L252.02 1015.01L253.069 1013.96L201.863 962.756L304.276 962.756L304.493 962.539L305.543 961.489L330.73 936.302L331.78 935.253L409.223 857.809L409.441 857.592L410.49 856.542L306.81 752.862L409.658 752.862L461.697 804.901L461.697 805.335L461.914 805.118L462.964 804.069L411.757 752.862L462.132 752.862L488.151 778.881L489.2 777.832L464.23 752.862L514.17 752.862L514.388 752.645L515.437 751.595L515.655 751.378L619.859 647.173L619.335 646.648L515.654 750.328L515.654 647.48L567.693 595.441L568.128 595.441L567.911 595.224L566.861 594.175L515.655 645.381L515.655 595.007L541.674 568.987L540.624 567.938L515.655 592.908L515.655 542.968L515.437 542.751L514.388 541.701L410.707 438.021L410.49 437.803L409.441 436.754L305.543 332.856L304.276 331.59L200.813 228.127L200.596 227.909L199.546 226.86L199.329 226.643L43.3928 70.7063L41.9086 69.222L-9.82304 17.4904L-61.5546 69.222ZM303.227 436.537L252.852 436.537L149.389 333.074L199.764 333.074L303.227 436.537ZM462.746 647.915H514.17L514.17 750.328L437.251 673.41L462.746 647.915ZM409.223 699.954V751.378L306.81 751.378L383.728 674.459L409.223 699.954ZM254.336 857.809H304.276L304.276 907.749L254.336 857.809ZM252.852 856.325L200.813 804.286V753.911L303.227 856.325L252.852 856.325ZM95.866 960.223L95.866 857.809H147.29L172.785 883.304L95.866 960.223ZM93.3326 1066.22L42.958 1066.22L-60.5051 962.756L-10.1305 962.756L93.3326 1066.22ZM41.9085 1171.17L-8.0316 1171.17L41.9085 1121.23L41.9085 1171.17ZM-218.975 1014.18V963.806L-116.562 1066.22L-166.936 1066.22L-218.975 1014.18ZM-169.035 1066.22L-218.975 1066.22L-218.975 1016.28L-169.035 1066.22ZM-533.817 595.007L-430.354 491.544V541.919L-533.817 645.382L-533.817 595.007ZM-169.035 331.59L-218.975 331.589L-218.975 281.65L-169.035 331.59ZM-167.551 333.074L-115.512 385.113L-115.512 435.488L-217.925 333.074L-167.551 333.074ZM200.379 436.537L96.9155 333.074L147.29 333.074L250.753 436.537H200.379ZM-9.51554 1066.22L-112.979 962.756L-62.604 962.756L40.8591 1066.22L-9.51554 1066.22ZM-220.459 544.017V594.392L-272.498 646.431L-322.873 646.431L-220.459 544.017ZM-8.03157 333.074L42.343 333.074L145.806 436.537L95.4318 436.537L-8.03157 333.074ZM42.651 751.378L42.6505 751.378L-9.08053 751.378V648.965L42.1258 700.171L93.3323 751.378L42.651 751.378ZM-218.975 961.707V910.283L-167.986 910.283L-167.986 1012.7L-218.975 961.707ZM-270.4 908.799L-219.717 858.117L-169.035 908.799L-270.4 908.799ZM-376.396 647.915H-326.456L-376.396 697.855V647.915ZM-141.007 517.038L-115.82 542.226L-218.975 645.381L-218.975 595.007L-141.007 517.038ZM94.8166 333.074L198.28 436.537L147.905 436.537L44.4419 333.074L94.8166 333.074ZM252.237 541.484H200.813V439.07L277.732 515.989L252.237 541.484ZM199.329 646.431L149.389 646.431L199.329 596.491V646.431ZM147.29 646.431L96.9155 646.431L199.329 544.018V594.392L147.29 646.431ZM-273.24 699.646L-324.664 751.07L-376.088 699.646L-324.664 648.222L-273.24 699.646ZM94.8165 646.431H43.3925V595.441L145.806 595.442L94.8165 646.431ZM41.9085 697.855L-8.7733 647.173L41.9085 596.491V697.855ZM-10.5653 594.392L-114.028 697.855V647.48L-10.5653 544.017L-10.5653 594.392ZM-166.502 908.799L-166.502 806.385L-115.512 857.374V908.799L-166.502 908.799ZM-115.512 646.431H-217.925L-115.512 544.018L-115.512 646.431ZM-115.512 855.275L-217.926 752.862H-167.551L-115.512 804.901L-115.512 855.275ZM-169.035 751.378L-218.975 751.378L-218.975 701.438L-169.035 751.378ZM-220.459 699.954V751.378L-322.873 751.378L-271.666 700.171L-245.954 674.459L-220.459 699.954ZM-165.452 752.862H-115.512V802.802L-165.452 752.862ZM-166.936 751.378L-244.904 673.41L-219.717 648.222L-116.562 751.378L-166.936 751.378ZM-220.025 752.862L-167.986 804.901V907.749L-322.873 752.862H-220.025ZM-114.028 858.858L-64.0885 908.798L-114.028 908.798L-114.028 858.858ZM-114.028 804.593L-114.028 804.593L-114.028 753.911L-63.346 804.593L-114.028 855.276L-114.028 804.593ZM-139.958 725.883L-115.512 701.438L-115.512 750.328L-139.958 725.883ZM-141.007 724.833L-217.926 647.915H-115.512V699.339L-141.007 724.833ZM-9.82276 541.484C-9.91957 541.483 -10.0161 541.503 -10.1066 541.541C-10.1974 541.579 -10.2795 541.632 -10.3477 541.701L-114.028 645.381L-114.028 542.533L-61.7718 490.277L-9.823 438.328L93.3321 541.483L-9.82276 541.484ZM-165.452 910.282L-114.771 910.283C-114.771 910.283 -114.77 910.283 -114.77 910.282C-114.77 910.282 -114.77 910.282 -114.77 910.282L-64.0885 910.283L-114.77 960.964L-165.452 910.282ZM-113.721 857.067L-62.2965 805.643L-10.8727 857.067L-62.2968 908.491L-113.721 857.067ZM-114.028 699.954L-10.5653 596.491V646.865L-114.028 750.328L-114.028 699.954ZM-9.08109 594.699L-9.08104 594.699V542.968H93.3326L-9.08104 645.381L-9.08109 594.699ZM43.3925 647.915L93.3323 647.915L43.3922 697.855L43.3925 647.915ZM200.813 542.968L250.753 542.968L200.813 592.908L200.813 542.968ZM198.279 438.021L173.834 462.466L149.389 438.021L198.279 438.021ZM199.329 439.07L199.329 541.919L147.29 593.958H44.4417L95.6485 542.751L199.329 439.07ZM-220.459 646.431H-270.399L-220.459 596.491V646.431ZM-272.191 647.915L-272.19 647.915H-221.509L-272.191 698.597L-322.873 647.915L-272.191 647.915ZM95.124 751.07L43.7 699.646L95.1238 648.223L146.548 699.647L95.124 751.07ZM96.9155 647.915L147.597 647.915L147.598 647.915L198.279 647.915L147.597 698.597L96.9155 647.915ZM200.813 595.007L278.781 517.039L303.968 542.226L200.813 645.382L200.813 595.007ZM93.3326 331.59H42.651H42.6505L-9.08103 331.59L-9.08105 229.176L93.3326 331.59ZM147.29 438.021L172.785 463.515L95.866 540.434L95.8663 438.021L147.29 438.021ZM94.3818 540.434L-8.03156 438.021L94.3821 438.021L94.3818 540.434ZM-10.8727 437.278L-62.2968 488.703L-113.721 437.279L-62.2965 385.855L-10.8727 437.278ZM-64.088 489.01H-114.028V439.07L-64.088 489.01ZM-115.512 437.586V489.01L-166.502 489.01L-166.502 386.597L-115.512 437.586ZM-64.0885 490.494L-114.77 541.176L-165.452 490.494H-64.0885ZM-142.056 515.989L-167.551 541.484H-218.975L-218.975 439.07L-142.056 515.989ZM-169.035 542.968L-218.975 592.908L-218.975 542.968L-169.035 542.968ZM-324.972 646.431H-376.396L-376.396 595.441H-273.982L-324.972 646.431ZM-377.88 697.855L-428.562 647.173L-377.88 596.491V697.855ZM-326.456 751.378L-428.87 751.378L-428.87 648.964L-326.456 751.378ZM-220.459 910.283L-220.459 960.223L-270.399 910.283L-220.459 910.283ZM-166.501 1014.18V911.332L-11.6145 1066.22H-114.463L-166.501 1014.18ZM-112.979 961.272L-88.5333 936.827L-64.088 961.272L-112.979 961.272ZM-8.0313 857.809L94.3821 857.809L94.3818 960.222L-8.0313 857.809ZM-9.51552 856.325L-61.7718 804.069L-113.721 752.12L-10.565 648.964L-10.5647 752.12C-10.565 752.216 -10.5451 752.313 -10.5075 752.404C-10.47 752.494 -10.4157 752.576 -10.3475 752.644L93.3323 856.325L-9.51552 856.325ZM-8.03135 752.862H42.3433L145.806 856.325L95.4315 856.325L-8.03135 752.862ZM44.4422 752.862L94.8168 752.862L198.28 856.325L147.905 856.325L44.4422 752.862ZM96.1735 752.12L147.598 700.696L199.022 752.12L147.598 803.544L96.1735 752.12ZM149.389 700.389L199.329 700.388V750.328L149.389 700.389ZM200.813 751.813L200.813 700.389L251.803 700.388L251.803 802.802L200.813 751.813ZM149.389 698.904L200.071 648.222L250.753 698.904L149.389 698.904ZM227.357 673.41L252.852 647.915L304.276 647.915V750.328L227.357 673.41ZM226.308 672.36L201.863 647.915H250.753L226.308 672.36ZM201.863 646.431L305.326 542.968L355.7 542.968L252.237 646.431H201.863ZM96.9158 331.589L121.361 307.144L145.806 331.59L96.9158 331.589ZM44.4419 228.127L94.3821 228.127L94.3821 278.067L44.4419 228.127ZM120.311 306.095L95.124 331.282L-8.03158 228.127L42.343 228.127L120.311 306.095ZM-9.08077 226.642L-9.08078 176.703L40.8593 226.643L-9.08077 226.642ZM-10.5648 174.911L-10.5648 174.911L-10.565 225.593L-61.2471 174.911L-10.565 124.229L-10.5648 174.911ZM-10.8725 227.385L-62.2966 278.809L-113.721 227.385L-62.2966 175.96L-10.8725 227.385ZM-64.088 279.116H-114.028L-114.028 229.176L-64.088 279.116ZM-61.7718 280.383L-10.565 229.176L-10.565 332.331C-10.5653 332.428 -10.5453 332.524 -10.5078 332.615C-10.47 332.706 -10.416 332.788 -10.3477 332.856L93.3326 436.536L-9.51578 436.536L-61.7715 384.28L-113.72 332.331L-61.7718 280.383ZM-63.346 384.805L-114.028 435.487L-114.028 384.806L-114.028 384.805L-114.028 334.123L-63.346 384.805ZM-115.512 383.014L-165.452 333.074L-115.512 333.074V383.014ZM-167.986 385.113V487.961L-219.192 436.754L-322.873 333.074H-220.025L-167.986 385.113ZM-220.459 541.918L-272.498 593.957H-375.346L-324.14 542.751L-220.459 439.07L-220.459 541.918ZM-403.375 464.565L-326.456 541.484L-428.869 541.484V490.06L-403.375 464.565ZM-428.869 487.961V439.07L-404.424 463.515L-428.869 487.961ZM-428.869 542.968L-326.456 542.968L-428.87 645.382L-428.869 542.968ZM-508.322 726.933L-483.877 751.378L-532.767 751.378L-508.322 726.933ZM-507.272 725.883L-430.354 648.965L-430.354 751.378H-481.778L-507.272 725.883ZM-429.919 752.862L-326.456 856.325H-376.83L-480.293 752.862H-429.919ZM-323.922 857.067C-323.922 856.97 -323.942 856.874 -323.98 856.783C-324.018 856.693 -324.071 856.611 -324.14 856.542L-427.82 752.862H-324.972L-220.767 857.067L-323.922 960.223L-323.922 857.067ZM-220.767 962.014L-272.191 1013.44L-323.615 962.014L-272.191 910.59L-220.767 962.014ZM-115.512 1067.7L-115.512 1117.64L-165.452 1067.7L-115.512 1067.7ZM-114.028 1119.13L-114.028 1067.7L-11.6147 1067.7L-62.8213 1118.91L-88.5333 1144.62L-114.028 1119.13ZM-61.2471 1119.43L-9.82304 1068.01L41.601 1119.43L-9.82305 1170.86L-61.2471 1119.43ZM43.1755 1118.91L-8.03132 1067.7L42.65 1067.7C42.6505 1067.7 42.651 1067.7 42.6515 1067.7L94.3821 1067.7L94.3821 1170.12L43.1755 1118.91ZM-61.989 961.272L-87.4838 935.777L-10.565 858.858L-10.565 961.272H-61.989ZM-9.08078 858.859L93.3323 961.272L-9.08108 961.272L-9.08078 858.859ZM149.389 857.809L198.279 857.809L173.834 882.255L149.389 857.809ZM148.647 804.593L199.329 753.911L199.329 804.592C199.329 804.593 199.329 804.593 199.329 804.594V855.276L148.647 804.593ZM200.813 806.385L250.753 856.325L200.813 856.325L200.813 806.385ZM253.287 804.286L253.287 701.438L304.493 752.645L408.174 856.325L305.326 856.325L253.287 804.286ZM305.76 750.328L305.76 647.915L408.174 647.915L305.76 750.328ZM254.336 646.431L357.799 542.968L408.174 542.968L304.711 646.431H254.336ZM409.223 541.484L357.493 541.484C357.492 541.484 357.491 541.484 357.491 541.484L306.81 541.484L409.223 439.07L409.223 541.484ZM201.863 438.021L252.544 438.021L252.545 438.021L304.276 438.021L304.276 540.434L201.863 438.021ZM147.905 331.59L122.41 306.095L199.329 229.176L199.329 331.59H147.905ZM121.361 305.045L95.866 279.551V228.127L198.28 228.127L121.361 305.045ZM42.958 226.643L-9.0811 174.604L-9.08107 124.229L93.3326 226.643L42.958 226.643ZM-9.08078 122.13V70.7062L41.9085 70.706L41.9085 173.12L-9.08078 122.13ZM-10.565 120.646L-60.5051 70.7059L-10.565 70.706L-10.565 120.646ZM-113.721 122.438L-62.2966 71.0135L-10.8725 122.438L-62.2965 173.862L-113.721 122.438ZM-114.028 124.229L-63.346 174.911L-114.028 225.593L-114.028 174.912L-114.028 174.911L-114.028 124.229ZM-166.501 176.703L-115.512 227.692V279.116L-166.502 279.116L-166.501 176.703ZM-64.088 280.6L-114.77 331.282L-165.452 280.6H-64.088ZM-116.562 331.59L-166.936 331.59L-244.904 253.621L-219.717 228.434L-116.562 331.59ZM-245.954 254.671L-220.459 280.166V331.59L-322.873 331.59L-245.954 254.671ZM-377.138 438.021H-377.137H-325.406L-325.406 540.435L-427.82 438.021L-377.138 438.021ZM-430.354 439.07L-430.354 489.445L-533.817 592.908L-533.817 542.534L-430.354 439.07ZM-535.301 544.017L-535.301 594.699V594.7V646.431L-637.714 646.431L-535.301 544.017ZM-637.714 647.915H-534.559C-534.462 647.915 -534.365 647.895 -534.275 647.858C-534.184 647.82 -534.102 647.766 -534.034 647.698L-430.353 544.018V646.865L-534.558 751.07L-637.714 647.915ZM-482.392 752.862L-378.929 856.325H-429.304L-532.767 752.862L-482.392 752.862ZM-427.82 857.809H-377.138H-377.138L-325.407 857.809L-325.406 960.222L-427.82 857.809ZM-271.141 1014.49L-220.459 963.805L-220.459 1014.49C-220.459 1014.49 -220.459 1014.49 -220.459 1014.49L-220.459 1065.17L-271.141 1014.49ZM-217.925 1067.7L-167.551 1067.7L-89.5828 1145.67L-114.77 1170.86L-217.925 1067.7ZM-62.2965 1120.48L-11.6145 1171.17L-62.296 1171.17C-62.2965 1171.17 -62.2971 1171.17 -62.2976 1171.17L-112.978 1171.17L-62.2965 1120.48ZM-9.51525 1172.65L41.9088 1172.65L41.9085 1223.64L-60.5051 1223.64L-9.51551 1172.65L-9.51525 1172.65ZM43.3925 1222.59L43.3925 1171.91L43.3927 1121.23L94.0745 1171.91L43.3925 1222.59ZM95.866 1170.12L95.866 1066.96C95.866 1066.87 95.8466 1066.77 95.8085 1066.68C95.771 1066.59 95.7167 1066.5 95.6485 1066.44L-8.03183 962.756H94.8163L199.022 1066.96L95.866 1170.12ZM96.9155 961.272L121.361 936.827L145.806 961.272L96.9155 961.272ZM122.41 935.777L199.329 858.858L199.329 961.272H147.905L122.41 935.777ZM200.813 961.272L200.813 858.859L303.227 961.272L200.813 961.272ZM305.018 960.965L201.863 857.809H252.237L330.205 935.777L305.018 960.965ZM331.255 934.728L305.76 909.233V857.809L408.174 857.809L331.255 934.728ZM410.707 751.378V701.438L460.647 751.378L410.707 751.378ZM462.746 751.378L384.778 673.41L409.965 648.222L513.121 751.378L462.746 751.378ZM514.17 646.431L464.23 646.431L514.17 596.491L514.17 646.431ZM514.17 594.392L436.202 672.36L411.015 647.173L514.17 544.017L514.17 594.392ZM513.863 542.226L409.658 646.431H306.81L410.49 542.751C410.558 542.682 410.613 542.6 410.65 542.51C410.688 542.419 410.707 542.322 410.707 542.225L410.707 439.07L513.863 542.226ZM305.76 540.434L305.76 437.279C305.761 437.182 305.741 437.086 305.703 436.995C305.665 436.904 305.611 436.822 305.543 436.754L201.863 333.074L304.711 333.074L408.916 437.279L305.76 540.434ZM303.227 331.59L200.813 331.589L200.813 229.176L303.227 331.59ZM198.28 226.643L95.4315 226.643L43.3925 174.604L43.3925 71.7554L198.28 226.643ZM-60.5048 69.2218L-9.82302 18.5399L40.8591 69.2221L-60.5048 69.2218Z" fill="white"/>
</svg>
