<svg width="1440" height="761" viewBox="0 0 1440 761" fill="none" xmlns="http://www.w3.org/2000/svg">
<path opacity="0.03" d="M793.506 1198.15L793.816 1197.84L795.31 1196.34L868.551 1123.1L870.046 1121.61L870.355 1121.3L870.355 1050.17L905.919 1085.74L907.414 1084.24L870.355 1047.18L870.355 975.436L943.287 1048.37L944.781 1046.87L945.091 1046.56L945.091 900.701L1018.02 973.632L1019.52 972.137L1055.39 936.264L1056.88 934.77L1167.18 824.47L1167.49 824.161L1168.99 822.666L1169.3 822.357L1168.68 822.357L1020.26 673.942L1167.18 527.023L1167.18 673.942C1167.18 674.079 1167.21 674.216 1167.26 674.344C1167.32 674.472 1167.39 674.59 1167.49 674.69L1242.23 749.426L1243.72 747.931L1170.79 674.999L1242.54 675L1279.6 712.058L1281.09 710.563L1245.53 674.999L1316.65 675L1316.96 674.69L1318.46 673.195L1318.77 672.886L1466.44 525.218L1468.24 523.414L1615.6 376.057L1616.65 375L1615.6 373.943L1467.93 226.277L1466.44 224.782L1466.13 224.472L1318.46 76.805L1316.65 75.0005L1169.3 -72.3565L1168.99 -72.6663L1167.49 -74.161L1092.76 -148.897L1019.83 -221.828L1017.71 -223.942L870.046 -371.609L868.551 -373.103L868.241 -373.413L797.114 -373.413L832.678 -408.976L831.183 -410.471L794.125 -373.413L722.379 -373.413L795.31 -446.344L793.816 -447.839L793.506 -448.148L647.643 -448.148L720.575 -521.08L719.827 -521.827L646.148 -448.148L644.035 -446.035L571.103 -373.103L569.609 -371.609L569.299 -371.299L421.632 -223.632L420.138 -222.138L419.828 -221.828L420.447 -221.828L567.805 -74.4704L496.058 -74.4704L384.264 -186.264L382.77 -184.77L493.069 -74.4708L421.322 -74.4708L346.897 -148.897L345.402 -147.402L418.333 -74.4708L272.47 -74.4704L272.161 -74.161L270.666 -72.6663L234.793 -36.7932L233.298 -35.2985L122.999 75.0008L122.69 75.3102L121.195 76.8049L268.862 224.472L122.38 224.472L48.2636 150.355L48.2632 149.737L47.9542 150.046L46.4595 151.541L119.391 224.472L47.6444 224.472L10.5864 187.414L9.09167 188.908L44.655 224.472L-26.472 224.472L-26.7814 224.781L-28.2761 226.276L-28.5859 226.586L-177 375L-176.253 375.747L-28.5856 228.08L-28.5855 374.562L-102.702 448.679L-103.321 448.679L-103.012 448.988L-101.517 450.483L-28.5859 377.552L-28.5859 449.298L-65.6439 486.356L-64.1492 487.851L-28.5859 452.287L-28.5859 523.414L-28.2761 523.724L-26.7814 525.219L120.885 672.885L121.195 673.195L122.69 674.69L270.666 822.666L272.47 824.47L419.828 971.828L420.138 972.138L421.632 973.632L421.942 973.942L644.035 1196.03L646.148 1198.15L719.827 1271.83L793.506 1198.15ZM273.965 674.999L345.711 674.999L493.069 822.357L421.323 822.357L273.965 674.999ZM46.7689 373.943L-26.472 373.943L-26.472 228.08L83.0799 337.632L46.7689 373.943ZM122.999 299.826L122.999 226.586L268.862 226.586L159.31 336.137L122.999 299.826ZM343.597 75.0004L272.47 75.0004L272.47 3.87344L343.597 75.0004ZM345.711 77.1143L419.828 151.231L419.828 222.977L273.965 77.1144L345.711 77.1143ZM569.299 -70.8622L569.299 75.0008H496.058L459.747 38.6898L569.299 -70.8622ZM572.908 -221.828L644.654 -221.828L792.011 -74.4704L720.265 -74.4704L572.908 -221.828ZM646.148 -371.299L717.276 -371.299L646.148 -300.172L646.148 -371.299ZM1017.71 -147.712L1017.71 -75.9655L871.85 -221.828L943.596 -221.828L1017.71 -147.712ZM946.586 -221.828L1017.71 -221.828L1017.71 -150.701L946.586 -221.828ZM1466.13 449.297L1318.77 596.655L1318.77 524.909L1466.13 377.551V449.297ZM946.586 824.47L1017.71 824.471L1017.71 895.597L946.586 824.47ZM944.472 822.356L870.355 748.24L870.355 676.494L1016.22 822.357L944.472 822.356ZM420.447 674.999L567.805 822.357L496.058 822.357L348.701 674.999L420.447 674.999ZM719.389 -221.828L866.747 -74.4704L795.001 -74.4704L647.643 -221.828L719.389 -221.828ZM1019.83 521.92V450.174L1093.94 376.057H1165.69L1019.83 521.92ZM717.276 822.357L645.53 822.357L498.172 674.999L569.918 674.999L717.276 822.357ZM645.091 226.586L645.092 226.586H718.77V372.448L645.839 299.517L572.908 226.586L645.091 226.586ZM1017.71 -72.976L1017.71 0.264789L945.091 0.264832L945.091 -145.598L1017.71 -72.976ZM1090.95 2.37834L1018.77 74.5625L946.586 2.37838L1090.95 2.37834ZM1241.92 373.943L1170.79 373.943L1241.92 302.816L1241.92 373.943ZM906.666 560.344L870.794 524.472L1017.71 377.552V449.298L906.666 560.344ZM570.794 822.357L423.436 674.999L495.183 674.999L642.54 822.357L570.794 822.357ZM346.587 525.528L419.828 525.528L419.828 671.391L310.276 561.839L346.587 525.528ZM421.942 376.056L493.069 376.057L421.942 447.184V376.056ZM496.058 376.057L567.805 376.057L421.942 521.919V450.173L496.058 376.057ZM1095 300.265L1168.24 227.024L1241.48 300.264L1168.24 373.505L1095 300.265ZM570.794 376.057L644.035 376.057V448.679L498.172 448.678L570.794 376.057ZM646.148 302.816L718.332 375L646.148 447.183V302.816ZM720.884 450.174L868.242 302.816L868.242 374.562L720.884 521.92V450.174ZM942.977 2.37873V148.242L870.355 75.6196V2.37873H942.977ZM870.356 376.057H1016.22L870.356 521.919V376.057ZM870.356 78.6094L1016.22 224.472L944.472 224.472L870.356 150.356L870.356 78.6094ZM946.586 226.586H1017.71L1017.71 297.713L946.586 226.586ZM1019.83 299.827V226.586L1165.69 226.586L1092.76 299.517L1056.14 336.137L1019.83 299.827ZM941.483 224.472H870.355L870.355 153.345L941.483 224.472ZM943.597 226.586L1054.64 337.632L1018.77 373.505L871.85 226.586H943.597ZM1019.21 224.472L945.091 150.355V3.87339L1165.69 224.472L1019.21 224.472ZM868.242 73.5061L797.115 2.37946L868.242 2.3791L868.242 73.5061ZM868.242 150.793V150.794L868.242 222.977L796.058 150.793L868.242 78.609L868.242 150.793ZM905.172 262.897L870.356 297.713V228.081L905.172 262.897ZM906.667 264.392L1016.22 373.944L870.356 373.944V300.703L906.667 264.392ZM719.827 525.528C719.965 525.529 720.102 525.5 720.231 525.447C720.36 525.393 720.477 525.316 720.575 525.219L868.242 377.552V524.033L793.816 598.459L719.827 672.448L572.908 525.529L719.827 525.528ZM941.483 0.265177L869.299 0.265155C869.299 0.265155 869.299 0.264832 869.298 0.26522C869.298 0.265565 869.298 0.265587 869.298 0.26522L797.115 0.265199L869.299 -71.9186L941.483 0.265177ZM867.804 76.0575L794.563 149.298L721.322 76.0579L794.563 2.81702L867.804 76.0575ZM868.242 299.827L720.884 447.184V375.438L868.242 228.081L868.242 299.827ZM718.771 449.736L718.771 449.736V523.414L572.908 523.414L718.771 377.551L718.771 449.736ZM644.035 373.942L572.908 373.943L644.035 302.815L644.035 373.942ZM419.828 523.414L348.701 523.414L419.828 452.287L419.828 523.414ZM423.437 672.885L458.253 638.069L493.069 672.885L423.437 672.885ZM421.942 671.391L421.942 524.909L496.059 450.792L642.541 450.792L569.609 523.724L421.942 671.391ZM1019.83 376.057L1090.95 376.057L1019.83 447.184V376.057ZM1093.51 373.943H1093.5H1021.32L1093.51 301.759L1165.69 373.943L1093.51 373.943ZM570.356 227.023L643.597 300.264L570.356 373.505L497.116 300.264L570.356 227.023ZM567.805 373.942L495.621 373.942L495.62 373.943L423.437 373.943L495.621 301.759L567.805 373.942ZM419.828 449.298L308.782 560.344L272.909 524.471L419.828 377.551L419.828 449.298ZM572.908 824.47L645.091 824.47L645.092 824.47H718.771L718.771 970.333L572.908 824.47ZM496.058 672.886L459.747 636.575L569.299 527.023L569.299 672.885L496.058 672.886ZM571.413 527.023L717.276 672.886H571.413L571.413 527.023ZM721.322 673.943L794.563 600.702L867.804 673.942L794.563 747.183L721.322 673.943ZM797.114 600.264L868.242 600.264V671.391L797.114 600.264ZM870.355 673.504L870.355 600.264H942.977V746.127L870.355 673.504ZM797.115 598.15L869.299 525.966L941.483 598.15H797.115ZM908.161 561.839L944.472 525.528H1017.71L1017.71 671.391L908.161 561.839ZM946.586 523.414L1017.71 452.287V523.414L946.586 523.414ZM1168.68 376.057H1241.92V448.679H1096.06L1168.68 376.057ZM1244.03 302.816L1316.22 375L1244.03 447.184V302.816ZM1170.79 226.586L1316.66 226.585L1316.66 372.449L1170.79 226.586ZM1019.83 0.264832V-70.8626L1090.95 0.264789L1019.83 0.264832ZM942.977 -147.712L942.977 -1.22987L722.379 -221.828L868.861 -221.828L942.977 -147.712ZM866.747 -72.3569L831.931 -37.5406L797.114 -72.3569L866.747 -72.3569ZM717.275 75.0004L571.413 75.0008L571.413 -70.8618L717.275 75.0004ZM719.389 77.1143L793.816 151.541L867.804 225.529L720.884 372.449L720.884 225.529C720.884 225.391 720.856 225.254 720.802 225.125C720.749 224.996 720.671 224.879 720.574 224.782L572.908 77.1147L719.389 77.1143ZM717.275 224.472L645.529 224.472L498.172 77.1143L569.918 77.1144L717.275 224.472ZM642.54 224.472H570.794L423.436 77.114L495.182 77.1139L642.54 224.472ZM568.861 225.529L495.62 298.77L422.38 225.529L495.62 152.288L568.861 225.529ZM493.069 299.207L421.942 299.208L421.942 228.08L493.069 299.207ZM419.828 225.966L419.828 299.207L347.206 299.208V153.345L419.828 225.966ZM493.069 301.322L420.885 373.505L348.701 301.321L493.069 301.322ZM382.022 337.632L345.711 373.943L272.47 373.943V228.08L382.022 337.632ZM383.517 339.127L418.333 373.943L348.701 373.943L383.517 339.127ZM418.333 376.057L270.976 523.414H199.23L346.587 376.057H418.333ZM567.804 824.471L532.988 859.287L498.172 824.47L567.804 824.471ZM642.54 971.828L571.413 971.828L571.413 900.701L642.54 971.828ZM534.483 860.781L570.356 824.908L717.276 971.828L645.53 971.828L534.483 860.781ZM718.77 973.942L718.77 1045.07L647.643 973.941L718.77 973.942ZM720.884 1047.62L720.884 1047.62L720.884 975.436L793.068 1047.62L720.884 1119.8L720.884 1047.62ZM721.322 972.885L794.563 899.644L867.804 972.885L794.563 1046.13L721.322 972.885ZM797.114 899.206L868.242 899.206L868.241 970.333L797.114 899.206ZM793.816 897.402L720.884 970.333L720.884 823.414C720.884 823.277 720.856 823.139 720.803 823.01C720.749 822.881 720.672 822.764 720.575 822.667L572.908 675L719.39 675L793.815 749.426L867.803 823.414L793.816 897.402ZM796.058 748.678L868.242 676.494L868.242 748.677L868.242 748.678V820.862L796.058 748.678ZM870.355 751.23L941.483 822.357L870.355 822.357L870.355 751.23ZM945.091 748.24L945.091 601.758L1018.02 674.69L1165.69 822.357L1019.21 822.357L945.091 748.24ZM1019.83 524.909L1093.94 450.792H1240.43L1167.49 523.724L1019.83 671.391L1019.83 524.909ZM1280.34 635.08L1170.79 525.528L1316.66 525.528L1316.66 598.769L1280.34 635.08ZM1316.66 601.758L1316.66 671.391L1281.84 636.575L1316.66 601.758ZM1316.66 523.414L1170.79 523.414L1316.66 377.551L1316.66 523.414ZM1429.82 261.402L1395 226.586L1464.63 226.586L1429.82 261.402ZM1428.32 262.897L1318.77 372.448L1318.77 226.586L1392.01 226.586L1428.32 262.897ZM1318.15 224.472L1170.79 77.1143L1242.54 77.1144L1389.9 224.472L1318.15 224.472ZM1167.18 76.0573C1167.18 76.1952 1167.21 76.3325 1167.27 76.4615C1167.32 76.5908 1167.4 76.7078 1167.49 76.805L1315.16 224.472L1168.68 224.472L1020.26 76.0576L1167.18 -70.8622L1167.18 76.0573ZM1020.26 -73.4137L1093.51 -146.655L1166.75 -73.4136L1093.51 -0.172751L1020.26 -73.4137ZM870.356 -223.942L870.355 -295.069L941.483 -223.942L870.356 -223.942ZM868.241 -297.183L868.241 -223.942L722.379 -223.942L795.31 -296.873L831.931 -333.494L868.241 -297.183ZM793.068 -297.62L719.827 -224.38L646.586 -297.62L719.827 -370.861L793.068 -297.62ZM644.344 -296.874L717.275 -223.942L645.092 -223.942C645.092 -223.942 645.091 -223.942 645.09 -223.942L571.413 -223.942L571.413 -369.805L644.344 -296.874ZM794.125 -72.3569L830.436 -36.0458L720.884 73.5061V-72.3569H794.125ZM718.77 73.5057L572.908 -72.3565L718.771 -72.3569L718.77 73.5057ZM493.069 75.0004L423.437 75.0004L458.253 40.1841L493.069 75.0004ZM494.126 150.793L421.942 222.977V150.795C421.942 150.794 421.942 150.793 421.942 150.792L421.942 78.609L494.126 150.793ZM419.828 148.241L348.701 77.1143L419.828 77.1143L419.828 148.241ZM345.092 151.231L345.092 297.713L272.161 224.781L124.494 77.1143L270.976 77.1143L345.092 151.231ZM270.357 228.08L270.357 373.943L124.494 373.943L270.357 228.08ZM343.598 376.057L196.24 523.414L124.494 523.414L271.852 376.057H343.598ZM122.999 525.528L196.677 525.528C196.678 525.528 196.678 525.528 196.679 525.528L268.862 525.528L122.999 671.391L122.999 525.528ZM418.333 672.885L346.15 672.885L346.149 672.885L272.47 672.886L272.47 527.023L418.333 672.885ZM495.183 824.47L531.494 860.781L421.942 970.333L421.942 824.47L495.183 824.47ZM532.988 862.276L569.299 898.587L569.299 971.828L423.436 971.828L532.988 862.276ZM644.654 973.942L718.771 1048.06L718.771 1119.8L572.908 973.942L644.654 973.942ZM718.77 1122.79L718.77 1196.03L646.148 1196.03L646.148 1050.17L718.77 1122.79ZM720.884 1124.91L792.011 1196.03L720.884 1196.03L720.884 1124.91ZM867.804 1122.36L794.563 1195.6L721.322 1122.36L794.563 1049.12L867.804 1122.36ZM868.241 1119.8L796.058 1047.62L868.242 975.436L868.242 1047.62L868.242 1047.62L868.241 1119.8ZM942.977 1045.07L870.355 972.446L870.355 899.206L942.977 899.206L942.977 1045.07ZM797.114 897.092L869.298 824.908L941.483 897.093L797.114 897.092ZM871.85 824.47L943.596 824.47L1054.64 935.517L1018.77 971.39L871.85 824.47ZM1056.14 934.022L1019.83 897.711L1019.83 824.47L1165.69 824.47L1056.14 934.022ZM1242.98 672.886H1242.98H1169.3L1169.3 527.022L1315.16 672.885L1242.98 672.886ZM1318.77 671.391L1318.77 599.644L1466.13 452.287V524.033L1318.77 671.391ZM1468.24 521.919V449.736L1468.24 449.735V376.057L1614.1 376.056L1468.24 521.919ZM1614.1 373.943L1467.18 373.943C1467.05 373.942 1466.91 373.971 1466.78 374.024C1466.65 374.078 1466.53 374.155 1466.44 374.252L1318.77 521.919L1318.77 375.438L1467.18 227.023L1614.1 373.943ZM1392.89 224.472L1245.53 77.1143L1317.27 77.1144L1464.63 224.472L1392.89 224.472ZM1315.16 75.0008L1242.98 75.0008L1242.98 75.0008L1169.3 75.0008L1169.3 -70.8618L1315.16 75.0008ZM1092.01 -148.149L1019.83 -75.9651L1019.83 -148.149C1019.83 -148.149 1019.83 -148.15 1019.83 -148.15V-220.333L1092.01 -148.149ZM1016.22 -223.942L944.472 -223.942L833.425 -334.988L869.299 -370.861L1016.22 -223.942ZM794.563 -299.115L722.379 -371.299L794.562 -371.299C794.563 -371.299 794.564 -371.299 794.564 -371.299L866.747 -371.299L794.563 -299.115ZM719.389 -373.413L646.148 -373.413L646.148 -446.035L792.011 -446.035L719.389 -373.413L719.389 -373.413ZM644.035 -444.54L644.035 -372.356L644.035 -300.172L571.851 -372.356L644.035 -444.54ZM569.299 -369.805L569.299 -222.886C569.299 -222.748 569.327 -222.611 569.381 -222.481C569.435 -222.352 569.512 -222.235 569.609 -222.138L717.276 -74.4708L570.794 -74.4708L422.38 -222.885L569.299 -369.805ZM567.805 -72.3569L532.988 -37.5405L498.172 -72.3569L567.805 -72.3569ZM531.494 -36.0458L421.942 73.5061L421.942 -72.3569L495.183 -72.3569L531.494 -36.0458ZM419.828 -72.3572L419.828 73.5057L273.965 -72.3569L419.828 -72.3572ZM271.414 -71.9189L418.333 75.0008L346.587 75.0008L235.541 -36.0458L271.414 -71.9189ZM234.046 -34.5511L270.357 1.75991L270.357 75.0008L124.494 75.0008L234.046 -34.5511ZM120.885 226.585L120.885 297.713L49.7583 226.586L120.885 226.585ZM46.7689 226.586L157.816 337.632L121.942 373.505L-24.9773 226.586L46.7689 226.586ZM-26.472 376.057L44.655 376.057L-26.472 447.184L-26.472 376.057ZM-26.472 450.174L84.5746 339.127L120.448 375L-26.472 521.92L-26.472 450.174ZM-26.0341 524.471L122.38 376.057L268.862 376.057L121.195 523.724C121.098 523.821 121.021 523.938 120.967 524.067C120.914 524.197 120.885 524.334 120.886 524.472L120.885 671.391L-26.0341 524.471ZM270.357 527.023L270.357 673.942C270.356 674.08 270.384 674.217 270.438 674.346C270.492 674.476 270.569 674.592 270.666 674.69L418.333 822.357L271.852 822.357L123.437 673.942L270.357 527.023ZM273.965 824.47L419.828 824.471L419.828 970.333L273.965 824.47ZM423.436 973.942L569.918 973.942L644.035 1048.06L644.035 1194.54L423.436 973.942ZM792.011 1198.15L719.827 1270.33L647.643 1198.15L792.011 1198.15Z" fill="white"/>
</svg>
