<svg width="1440" height="1360" viewBox="0 0 1440 1360" fill="none" xmlns="http://www.w3.org/2000/svg">
<path opacity="0.05" d="M793.506 1286.15L793.816 1285.84L795.31 1284.34L868.551 1211.1L870.046 1209.61L870.355 1209.3L870.355 1138.17L905.919 1173.74L907.414 1172.24L870.355 1135.18L870.355 1063.44L943.287 1136.37L944.781 1134.87L945.091 1134.56L945.091 988.701L1018.02 1061.63L1019.52 1060.14L1055.39 1024.26L1056.88 1022.77L1167.18 912.47L1167.49 912.161L1168.99 910.666L1169.3 910.357L1168.68 910.357L1020.26 761.942L1167.18 615.023L1167.18 761.942C1167.18 762.079 1167.21 762.216 1167.26 762.344C1167.32 762.472 1167.39 762.59 1167.49 762.69L1242.23 837.426L1243.72 835.931L1170.79 762.999L1242.54 763L1279.6 800.058L1281.09 798.563L1245.53 762.999L1316.65 763L1316.96 762.69L1318.46 761.195L1318.77 760.886L1466.44 613.218L1468.24 611.414L1615.6 464.057L1616.65 463L1615.6 461.943L1467.93 314.277L1466.44 312.782L1466.13 312.472L1318.46 164.805L1316.65 163L1169.3 15.6435L1168.99 15.3337L1167.49 13.839L1092.76 -60.8966L1019.83 -133.828L1017.71 -135.942L870.046 -283.609L868.551 -285.103L868.241 -285.413L797.114 -285.413L832.678 -320.976L831.183 -322.471L794.125 -285.413L722.379 -285.413L795.31 -358.344L793.816 -359.839L793.506 -360.148L647.643 -360.148L720.575 -433.08L719.827 -433.827L646.148 -360.148L644.035 -358.035L571.103 -285.103L569.609 -283.609L569.299 -283.299L421.632 -135.632L420.138 -134.138L419.828 -133.828L420.447 -133.828L567.805 13.5296L496.058 13.5296L384.264 -98.2644L382.77 -96.7697L493.069 13.5292L421.322 13.5292L346.897 -60.8966L345.402 -59.4019L418.333 13.5292L272.47 13.5296L272.161 13.839L270.666 15.3337L234.793 51.2068L233.298 52.7015L122.999 163.001L122.69 163.31L121.195 164.805L268.862 312.472L122.38 312.472L48.2636 238.355L48.2632 237.737L47.9542 238.046L46.4595 239.541L119.391 312.472L47.6444 312.472L10.5864 275.414L9.09167 276.908L44.655 312.472L-26.472 312.472L-26.7814 312.781L-28.2761 314.276L-28.5859 314.586L-177 463L-176.253 463.747L-28.5856 316.08L-28.5855 462.562L-102.702 536.679L-103.321 536.679L-103.012 536.988L-101.517 538.483L-28.5859 465.552L-28.5859 537.298L-65.6439 574.356L-64.1492 575.851L-28.5859 540.287L-28.5859 611.414L-28.2761 611.724L-26.7814 613.219L120.885 760.885L121.195 761.195L122.69 762.69L270.666 910.666L272.47 912.47L419.828 1059.83L420.138 1060.14L421.632 1061.63L421.942 1061.94L644.035 1284.03L646.148 1286.15L719.827 1359.83L793.506 1286.15ZM273.965 762.999L345.711 762.999L493.069 910.357L421.323 910.357L273.965 762.999ZM46.7689 461.943L-26.472 461.943L-26.472 316.08L83.0799 425.632L46.7689 461.943ZM122.999 387.826L122.999 314.586L268.862 314.586L159.31 424.137L122.999 387.826ZM343.597 163L272.47 163L272.47 91.8734L343.597 163ZM345.711 165.114L419.828 239.231L419.828 310.977L273.965 165.114L345.711 165.114ZM569.299 17.1378L569.299 163.001H496.058L459.747 126.69L569.299 17.1378ZM572.908 -133.828L644.654 -133.828L792.011 13.5296L720.265 13.5296L572.908 -133.828ZM646.148 -283.299L717.276 -283.299L646.148 -212.172L646.148 -283.299ZM1017.71 -59.7117L1017.71 12.0345L871.85 -133.828L943.596 -133.828L1017.71 -59.7117ZM946.586 -133.828L1017.71 -133.828L1017.71 -62.7011L946.586 -133.828ZM1466.13 537.297L1318.77 684.655L1318.77 612.909L1466.13 465.551V537.297ZM946.586 912.47L1017.71 912.471L1017.71 983.597L946.586 912.47ZM944.472 910.356L870.355 836.24L870.355 764.494L1016.22 910.357L944.472 910.356ZM420.447 762.999L567.805 910.357L496.058 910.357L348.701 762.999L420.447 762.999ZM719.389 -133.828L866.747 13.5296L795.001 13.5296L647.643 -133.828L719.389 -133.828ZM1019.83 609.92V538.174L1093.94 464.057H1165.69L1019.83 609.92ZM717.276 910.357L645.53 910.357L498.172 762.999L569.918 762.999L717.276 910.357ZM645.091 314.586L645.092 314.586H718.77V460.448L645.839 387.517L572.908 314.586L645.091 314.586ZM1017.71 15.024L1017.71 88.2648L945.091 88.2648L945.091 -57.5978L1017.71 15.024ZM1090.95 90.3783L1018.77 162.563L946.586 90.3784L1090.95 90.3783ZM1241.92 461.943L1170.79 461.943L1241.92 390.816L1241.92 461.943ZM906.666 648.344L870.794 612.472L1017.71 465.552V537.298L906.666 648.344ZM570.794 910.357L423.436 762.999L495.183 762.999L642.54 910.357L570.794 910.357ZM346.587 613.528L419.828 613.528L419.828 759.391L310.276 649.839L346.587 613.528ZM421.942 464.056L493.069 464.057L421.942 535.184V464.056ZM496.058 464.057L567.805 464.057L421.942 609.919V538.173L496.058 464.057ZM1095 388.265L1168.24 315.024L1241.48 388.264L1168.24 461.505L1095 388.265ZM570.794 464.057L644.035 464.057V536.679L498.172 536.678L570.794 464.057ZM646.148 390.816L718.332 463L646.148 535.183V390.816ZM720.884 538.174L868.242 390.816L868.242 462.562L720.884 609.92V538.174ZM942.977 90.3787V236.242L870.355 163.62V90.3787H942.977ZM870.356 464.057H1016.22L870.356 609.919V464.057ZM870.356 166.609L1016.22 312.472L944.472 312.472L870.356 238.356L870.356 166.609ZM946.586 314.586H1017.71L1017.71 385.713L946.586 314.586ZM1019.83 387.827V314.586L1165.69 314.586L1092.76 387.517L1056.14 424.137L1019.83 387.827ZM941.483 312.472H870.355L870.355 241.345L941.483 312.472ZM943.597 314.586L1054.64 425.632L1018.77 461.505L871.85 314.586H943.597ZM1019.21 312.472L945.091 238.355V91.8734L1165.69 312.472L1019.21 312.472ZM868.242 161.506L797.115 90.3795L868.242 90.3791L868.242 161.506ZM868.242 238.793V238.794L868.242 310.977L796.058 238.793L868.242 166.609L868.242 238.793ZM905.172 350.897L870.356 385.713V316.081L905.172 350.897ZM906.667 352.392L1016.22 461.944L870.356 461.944V388.703L906.667 352.392ZM719.827 613.528C719.965 613.529 720.102 613.5 720.231 613.447C720.36 613.393 720.477 613.316 720.575 613.219L868.242 465.552V612.033L793.816 686.459L719.827 760.448L572.908 613.529L719.827 613.528ZM941.483 88.2652L869.299 88.2652C869.299 88.2652 869.299 88.2648 869.298 88.2652C869.298 88.2656 869.298 88.2656 869.298 88.2652L797.115 88.2652L869.299 16.0814L941.483 88.2652ZM867.804 164.058L794.563 237.298L721.322 164.058L794.563 90.817L867.804 164.058ZM868.242 387.827L720.884 535.184V463.438L868.242 316.081L868.242 387.827ZM718.771 537.736L718.771 537.736V611.414L572.908 611.414L718.771 465.551L718.771 537.736ZM644.035 461.942L572.908 461.943L644.035 390.815L644.035 461.942ZM419.828 611.414L348.701 611.414L419.828 540.287L419.828 611.414ZM423.437 760.885L458.253 726.069L493.069 760.885L423.437 760.885ZM421.942 759.391L421.942 612.909L496.059 538.792L642.541 538.792L569.609 611.724L421.942 759.391ZM1019.83 464.057L1090.95 464.057L1019.83 535.184V464.057ZM1093.51 461.943H1093.5H1021.32L1093.51 389.759L1165.69 461.943L1093.51 461.943ZM570.356 315.023L643.597 388.264L570.356 461.505L497.116 388.264L570.356 315.023ZM567.805 461.942L495.621 461.942L495.62 461.943L423.437 461.943L495.621 389.759L567.805 461.942ZM419.828 537.298L308.782 648.344L272.909 612.471L419.828 465.551L419.828 537.298ZM572.908 912.47L645.091 912.47L645.092 912.47H718.771L718.771 1058.33L572.908 912.47ZM496.058 760.886L459.747 724.575L569.299 615.023L569.299 760.885L496.058 760.886ZM571.413 615.023L717.276 760.886H571.413L571.413 615.023ZM721.322 761.943L794.563 688.702L867.804 761.942L794.563 835.183L721.322 761.943ZM797.114 688.264L868.242 688.264V759.391L797.114 688.264ZM870.355 761.504L870.355 688.264H942.977V834.127L870.355 761.504ZM797.115 686.15L869.299 613.966L941.483 686.15H797.115ZM908.161 649.839L944.472 613.528H1017.71L1017.71 759.391L908.161 649.839ZM946.586 611.414L1017.71 540.287V611.414L946.586 611.414ZM1168.68 464.057H1241.92V536.679H1096.06L1168.68 464.057ZM1244.03 390.816L1316.22 463L1244.03 535.184V390.816ZM1170.79 314.586L1316.66 314.585L1316.66 460.449L1170.79 314.586ZM1019.83 88.2648V17.1374L1090.95 88.2648L1019.83 88.2648ZM942.977 -59.7117L942.977 86.7701L722.379 -133.828L868.861 -133.828L942.977 -59.7117ZM866.747 15.6431L831.931 50.4594L797.114 15.6431L866.747 15.6431ZM717.275 163L571.413 163.001L571.413 17.1382L717.275 163ZM719.389 165.114L793.816 239.541L867.804 313.529L720.884 460.449L720.884 313.529C720.884 313.391 720.856 313.254 720.802 313.125C720.749 312.996 720.671 312.879 720.574 312.782L572.908 165.115L719.389 165.114ZM717.275 312.472L645.529 312.472L498.172 165.114L569.918 165.114L717.275 312.472ZM642.54 312.472H570.794L423.436 165.114L495.182 165.114L642.54 312.472ZM568.861 313.529L495.62 386.77L422.38 313.529L495.62 240.288L568.861 313.529ZM493.069 387.207L421.942 387.208L421.942 316.08L493.069 387.207ZM419.828 313.966L419.828 387.207L347.206 387.208V241.345L419.828 313.966ZM493.069 389.322L420.885 461.505L348.701 389.321L493.069 389.322ZM382.022 425.632L345.711 461.943L272.47 461.943V316.08L382.022 425.632ZM383.517 427.127L418.333 461.943L348.701 461.943L383.517 427.127ZM418.333 464.057L270.976 611.414H199.23L346.587 464.057H418.333ZM567.804 912.471L532.988 947.287L498.172 912.47L567.804 912.471ZM642.54 1059.83L571.413 1059.83L571.413 988.701L642.54 1059.83ZM534.483 948.781L570.356 912.908L717.276 1059.83L645.53 1059.83L534.483 948.781ZM718.77 1061.94L718.77 1133.07L647.643 1061.94L718.77 1061.94ZM720.884 1135.62L720.884 1135.62L720.884 1063.44L793.068 1135.62L720.884 1207.8L720.884 1135.62ZM721.322 1060.88L794.563 987.644L867.804 1060.88L794.563 1134.13L721.322 1060.88ZM797.114 987.206L868.242 987.206L868.241 1058.33L797.114 987.206ZM793.816 985.402L720.884 1058.33L720.884 911.414C720.884 911.277 720.856 911.139 720.803 911.01C720.749 910.881 720.672 910.764 720.575 910.667L572.908 763L719.39 763L793.815 837.426L867.803 911.414L793.816 985.402ZM796.058 836.678L868.242 764.494L868.242 836.677L868.242 836.678V908.862L796.058 836.678ZM870.355 839.23L941.483 910.357L870.355 910.357L870.355 839.23ZM945.091 836.24L945.091 689.758L1018.02 762.69L1165.69 910.357L1019.21 910.357L945.091 836.24ZM1019.83 612.909L1093.94 538.792H1240.43L1167.49 611.724L1019.83 759.391L1019.83 612.909ZM1280.34 723.08L1170.79 613.528L1316.66 613.528L1316.66 686.769L1280.34 723.08ZM1316.66 689.758L1316.66 759.391L1281.84 724.575L1316.66 689.758ZM1316.66 611.414L1170.79 611.414L1316.66 465.551L1316.66 611.414ZM1429.82 349.402L1395 314.586L1464.63 314.586L1429.82 349.402ZM1428.32 350.897L1318.77 460.448L1318.77 314.586L1392.01 314.586L1428.32 350.897ZM1318.15 312.472L1170.79 165.114L1242.54 165.114L1389.9 312.472L1318.15 312.472ZM1167.18 164.057C1167.18 164.195 1167.21 164.333 1167.27 164.462C1167.32 164.591 1167.4 164.708 1167.49 164.805L1315.16 312.472L1168.68 312.472L1020.26 164.058L1167.18 17.1378L1167.18 164.057ZM1020.26 14.5863L1093.51 -58.6546L1166.75 14.5864L1093.51 87.8272L1020.26 14.5863ZM870.356 -135.942L870.355 -207.069L941.483 -135.942L870.356 -135.942ZM868.241 -209.183L868.241 -135.942L722.379 -135.942L795.31 -208.873L831.931 -245.494L868.241 -209.183ZM793.068 -209.62L719.827 -136.38L646.586 -209.62L719.827 -282.861L793.068 -209.62ZM644.344 -208.874L717.275 -135.942L645.092 -135.942C645.092 -135.942 645.091 -135.942 645.09 -135.942L571.413 -135.942L571.413 -281.805L644.344 -208.874ZM794.125 15.6431L830.436 51.9542L720.884 161.506V15.6431H794.125ZM718.77 161.506L572.908 15.6435L718.771 15.6431L718.77 161.506ZM493.069 163L423.437 163L458.253 128.184L493.069 163ZM494.126 238.793L421.942 310.977V238.795C421.942 238.794 421.942 238.793 421.942 238.792L421.942 166.609L494.126 238.793ZM419.828 236.241L348.701 165.114L419.828 165.114L419.828 236.241ZM345.092 239.231L345.092 385.713L272.161 312.781L124.494 165.114L270.976 165.114L345.092 239.231ZM270.357 316.08L270.357 461.943L124.494 461.943L270.357 316.08ZM343.598 464.057L196.24 611.414L124.494 611.414L271.852 464.057H343.598ZM122.999 613.528L196.677 613.528C196.678 613.528 196.678 613.528 196.679 613.528L268.862 613.528L122.999 759.391L122.999 613.528ZM418.333 760.885L346.15 760.885L346.149 760.885L272.47 760.886L272.47 615.023L418.333 760.885ZM495.183 912.47L531.494 948.781L421.942 1058.33L421.942 912.47L495.183 912.47ZM532.988 950.276L569.299 986.587L569.299 1059.83L423.436 1059.83L532.988 950.276ZM644.654 1061.94L718.771 1136.06L718.771 1207.8L572.908 1061.94L644.654 1061.94ZM718.77 1210.79L718.77 1284.03L646.148 1284.03L646.148 1138.17L718.77 1210.79ZM720.884 1212.91L792.011 1284.03L720.884 1284.03L720.884 1212.91ZM867.804 1210.36L794.563 1283.6L721.322 1210.36L794.563 1137.12L867.804 1210.36ZM868.241 1207.8L796.058 1135.62L868.242 1063.44L868.242 1135.62L868.242 1135.62L868.241 1207.8ZM942.977 1133.07L870.355 1060.45L870.355 987.206L942.977 987.206L942.977 1133.07ZM797.114 985.092L869.298 912.908L941.483 985.093L797.114 985.092ZM871.85 912.47L943.596 912.47L1054.64 1023.52L1018.77 1059.39L871.85 912.47ZM1056.14 1022.02L1019.83 985.711L1019.83 912.47L1165.69 912.47L1056.14 1022.02ZM1242.98 760.886H1242.98H1169.3L1169.3 615.022L1315.16 760.885L1242.98 760.886ZM1318.77 759.391L1318.77 687.644L1466.13 540.287V612.033L1318.77 759.391ZM1468.24 609.919V537.736L1468.24 537.735V464.057L1614.1 464.056L1468.24 609.919ZM1614.1 461.943L1467.18 461.943C1467.05 461.942 1466.91 461.971 1466.78 462.024C1466.65 462.078 1466.53 462.155 1466.44 462.252L1318.77 609.919L1318.77 463.438L1467.18 315.023L1614.1 461.943ZM1392.89 312.472L1245.53 165.114L1317.27 165.114L1464.63 312.472L1392.89 312.472ZM1315.16 163.001L1242.98 163.001L1242.98 163.001L1169.3 163.001L1169.3 17.1382L1315.16 163.001ZM1092.01 -60.1493L1019.83 12.0349L1019.83 -60.1485C1019.83 -60.1485 1019.83 -60.1496 1019.83 -60.15V-132.333L1092.01 -60.1493ZM1016.22 -135.942L944.472 -135.942L833.425 -246.988L869.299 -282.861L1016.22 -135.942ZM794.563 -211.115L722.379 -283.299L794.562 -283.299C794.563 -283.299 794.564 -283.299 794.564 -283.299L866.747 -283.299L794.563 -211.115ZM719.389 -285.413L646.148 -285.413L646.148 -358.035L792.011 -358.035L719.389 -285.413L719.389 -285.413ZM644.035 -356.54L644.035 -284.356L644.035 -212.172L571.851 -284.356L644.035 -356.54ZM569.299 -281.805L569.299 -134.886C569.299 -134.748 569.327 -134.611 569.381 -134.481C569.435 -134.352 569.512 -134.235 569.609 -134.138L717.276 13.5292L570.794 13.5292L422.38 -134.885L569.299 -281.805ZM567.805 15.6431L532.988 50.4595L498.172 15.6431L567.805 15.6431ZM531.494 51.9542L421.942 161.506L421.942 15.6431L495.183 15.6431L531.494 51.9542ZM419.828 15.6428L419.828 161.506L273.965 15.6431L419.828 15.6428ZM271.414 16.0811L418.333 163.001L346.587 163.001L235.541 51.9542L271.414 16.0811ZM234.046 53.4489L270.357 89.7599L270.357 163.001L124.494 163.001L234.046 53.4489ZM120.885 314.585L120.885 385.713L49.7583 314.586L120.885 314.585ZM46.7689 314.586L157.816 425.632L121.942 461.505L-24.9773 314.586L46.7689 314.586ZM-26.472 464.057L44.655 464.057L-26.472 535.184L-26.472 464.057ZM-26.472 538.174L84.5746 427.127L120.448 463L-26.472 609.92L-26.472 538.174ZM-26.0341 612.471L122.38 464.057L268.862 464.057L121.195 611.724C121.098 611.821 121.021 611.938 120.967 612.067C120.914 612.197 120.885 612.334 120.886 612.472L120.885 759.391L-26.0341 612.471ZM270.357 615.023L270.357 761.942C270.356 762.08 270.384 762.217 270.438 762.346C270.492 762.476 270.569 762.592 270.666 762.69L418.333 910.357L271.852 910.357L123.437 761.942L270.357 615.023ZM273.965 912.47L419.828 912.471L419.828 1058.33L273.965 912.47ZM423.436 1061.94L569.918 1061.94L644.035 1136.06L644.035 1282.54L423.436 1061.94ZM792.011 1286.15L719.827 1358.33L647.643 1286.15L792.011 1286.15Z" fill="white"/>
</svg>
