<svg width="1440" height="346" viewBox="0 0 1440 346" fill="none" xmlns="http://www.w3.org/2000/svg">
<path opacity="0.03" d="M793.506 990.148L793.816 989.839L795.31 988.344L868.551 915.103L870.046 913.609L870.355 913.299L870.355 842.172L905.919 877.736L907.414 876.241L870.355 839.183L870.355 767.436L943.287 840.368L944.781 838.873L945.091 838.564L945.091 692.701L1018.02 765.632L1019.52 764.137L1055.39 728.264L1056.88 726.77L1167.18 616.47L1167.49 616.161L1168.99 614.666L1169.3 614.357L1168.68 614.357L1020.26 465.942L1167.18 319.023L1167.18 465.942C1167.18 466.079 1167.21 466.216 1167.26 466.344C1167.32 466.472 1167.39 466.59 1167.49 466.69L1242.23 541.426L1243.72 539.931L1170.79 466.999L1242.54 467L1279.6 504.058L1281.09 502.563L1245.53 466.999L1316.65 467L1316.96 466.69L1318.46 465.195L1318.77 464.886L1466.44 317.218L1468.24 315.414L1615.6 168.057L1616.65 167L1615.6 165.943L1467.93 18.2765L1466.44 16.7815L1466.13 16.4721L1318.46 -131.195L1316.65 -133L1169.3 -280.356L1168.99 -280.666L1167.49 -282.161L1092.76 -356.897L1019.83 -429.828L1017.71 -431.942L870.046 -579.609L868.551 -581.103L868.241 -581.413L797.114 -581.413L832.678 -616.976L831.183 -618.471L794.125 -581.413L722.379 -581.413L795.31 -654.344L793.816 -655.839L793.506 -656.148L647.643 -656.148L720.575 -729.08L719.827 -729.827L646.148 -656.148L644.035 -654.035L571.103 -581.103L569.609 -579.609L569.299 -579.299L421.632 -431.632L420.138 -430.138L419.828 -429.828L420.447 -429.828L567.805 -282.47L496.058 -282.47L384.264 -394.264L382.77 -392.77L493.069 -282.471L421.322 -282.471L346.897 -356.897L345.402 -355.402L418.333 -282.471L272.47 -282.47L272.161 -282.161L270.666 -280.666L234.793 -244.793L233.298 -243.298L122.999 -132.999L122.69 -132.69L121.195 -131.195L268.862 16.4717L122.38 16.4716L48.2636 -57.6448L48.2632 -58.2632L47.9542 -57.9542L46.4595 -56.4595L119.391 16.4717L47.6444 16.4716L10.5864 -20.5864L9.09167 -19.0917L44.655 16.4716L-26.472 16.472L-26.7814 16.7814L-28.2761 18.2761L-28.5859 18.5859L-177 167L-176.253 167.747L-28.5856 20.0803L-28.5855 166.562L-102.702 240.679L-103.321 240.679L-103.012 240.988L-101.517 242.483L-28.5859 169.552L-28.5859 241.298L-65.6439 278.356L-64.1492 279.851L-28.5859 244.287L-28.5859 315.414L-28.2761 315.724L-26.7814 317.219L120.885 464.885L121.195 465.195L122.69 466.69L270.666 614.666L272.47 616.47L419.828 763.828L420.138 764.138L421.632 765.632L421.942 765.942L644.035 988.035L646.148 990.148L719.827 1063.83L793.506 990.148ZM273.965 466.999L345.711 466.999L493.069 614.357L421.323 614.357L273.965 466.999ZM46.7689 165.943L-26.472 165.943L-26.472 20.0803L83.0799 129.632L46.7689 165.943ZM122.999 91.8264L122.999 18.5856L268.862 18.5855L159.31 128.137L122.999 91.8264ZM343.597 -133L272.47 -133L272.47 -204.127L343.597 -133ZM345.711 -130.886L419.828 -56.7689L419.828 14.9773L273.965 -130.886L345.711 -130.886ZM569.299 -278.862L569.299 -132.999H496.058L459.747 -169.31L569.299 -278.862ZM572.908 -429.828L644.654 -429.828L792.011 -282.47L720.265 -282.47L572.908 -429.828ZM646.148 -579.299L717.276 -579.299L646.148 -508.172L646.148 -579.299ZM1017.71 -355.712L1017.71 -283.965L871.85 -429.828L943.596 -429.828L1017.71 -355.712ZM946.586 -429.828L1017.71 -429.828L1017.71 -358.701L946.586 -429.828ZM1466.13 241.297L1318.77 388.655L1318.77 316.909L1466.13 169.551V241.297ZM946.586 616.47L1017.71 616.471L1017.71 687.597L946.586 616.47ZM944.472 614.356L870.355 540.24L870.355 468.494L1016.22 614.357L944.472 614.356ZM420.447 466.999L567.805 614.357L496.058 614.357L348.701 466.999L420.447 466.999ZM719.389 -429.828L866.747 -282.47L795.001 -282.47L647.643 -429.828L719.389 -429.828ZM1019.83 313.92V242.174L1093.94 168.057H1165.69L1019.83 313.92ZM717.276 614.357L645.53 614.357L498.172 466.999L569.918 466.999L717.276 614.357ZM645.091 18.5856L645.092 18.5855H718.77V164.448L645.839 91.517L572.908 18.5859L645.091 18.5856ZM1017.71 -280.976L1017.71 -207.735L945.091 -207.735L945.091 -353.598L1017.71 -280.976ZM1090.95 -205.622L1018.77 -133.437L946.586 -205.622L1090.95 -205.622ZM1241.92 165.943L1170.79 165.943L1241.92 94.8159L1241.92 165.943ZM906.666 352.344L870.794 316.472L1017.71 169.552V241.298L906.666 352.344ZM570.794 614.357L423.436 466.999L495.183 466.999L642.54 614.357L570.794 614.357ZM346.587 317.528L419.828 317.528L419.828 463.391L310.276 353.839L346.587 317.528ZM421.942 168.056L493.069 168.057L421.942 239.184V168.056ZM496.058 168.057L567.805 168.057L421.942 313.919V242.173L496.058 168.057ZM1095 92.2648L1168.24 19.0238L1241.48 92.2644L1168.24 165.505L1095 92.2648ZM570.794 168.057L644.035 168.057V240.679L498.172 240.678L570.794 168.057ZM646.148 94.8159L718.332 167L646.148 239.183V94.8159ZM720.884 242.174L868.242 94.8162L868.242 166.562L720.884 313.92V242.174ZM942.977 -205.621V-59.7583L870.355 -132.38V-205.621H942.977ZM870.356 168.057H1016.22L870.356 313.919V168.057ZM870.356 -129.391L1016.22 16.4724L944.472 16.4724L870.356 -57.6444L870.356 -129.391ZM946.586 18.5859H1017.71L1017.71 89.7129L946.586 18.5859ZM1019.83 91.8268V18.5859L1165.69 18.586L1092.76 91.517L1056.14 128.137L1019.83 91.8268ZM941.483 16.472H870.355L870.355 -54.6554L941.483 16.472ZM943.597 18.5859L1054.64 129.632L1018.77 165.505L871.85 18.5859H943.597ZM1019.21 16.472L945.091 -57.6448V-204.127L1165.69 16.472L1019.21 16.472ZM868.242 -134.494L797.115 -205.621L868.242 -205.621L868.242 -134.494ZM868.242 -57.2068V-57.2061L868.242 14.9773L796.058 -57.2068L868.242 -129.391L868.242 -57.2068ZM905.172 54.8969L870.356 89.7133V20.0806L905.172 54.8969ZM906.667 56.3917L1016.22 165.944L870.356 165.944V92.7027L906.667 56.3917ZM719.827 317.528C719.965 317.529 720.102 317.5 720.231 317.447C720.36 317.393 720.477 317.316 720.575 317.219L868.242 169.552V316.033L793.816 390.459L719.827 464.448L572.908 317.529L719.827 317.528ZM941.483 -207.735L869.299 -207.735C869.299 -207.735 869.299 -207.735 869.298 -207.735C869.298 -207.734 869.298 -207.734 869.298 -207.735L797.115 -207.735L869.299 -279.919L941.483 -207.735ZM867.804 -131.942L794.563 -58.7015L721.322 -131.942L794.563 -205.183L867.804 -131.942ZM868.242 91.8268L720.884 239.184V167.438L868.242 20.0806L868.242 91.8268ZM718.771 241.736L718.771 241.736V315.414L572.908 315.414L718.771 169.551L718.771 241.736ZM644.035 165.942L572.908 165.943L644.035 94.8155L644.035 165.942ZM419.828 315.414L348.701 315.414L419.828 244.287L419.828 315.414ZM423.437 464.885L458.253 430.069L493.069 464.885L423.437 464.885ZM421.942 463.391L421.942 316.909L496.059 242.792L642.541 242.792L569.609 315.724L421.942 463.391ZM1019.83 168.057L1090.95 168.057L1019.83 239.184V168.057ZM1093.51 165.943H1093.5H1021.32L1093.51 93.7595L1165.69 165.943L1093.51 165.943ZM570.356 19.0235L643.597 92.2644L570.356 165.505L497.116 92.264L570.356 19.0235ZM567.805 165.942L495.621 165.942L495.62 165.943L423.437 165.943L495.621 93.7587L567.805 165.942ZM419.828 241.298L308.782 352.344L272.909 316.471L419.828 169.551L419.828 241.298ZM572.908 616.47L645.091 616.47L645.092 616.47H718.771L718.771 762.333L572.908 616.47ZM496.058 464.886L459.747 428.575L569.299 319.023L569.299 464.885L496.058 464.886ZM571.413 319.023L717.276 464.886H571.413L571.413 319.023ZM721.322 465.943L794.563 392.702L867.804 465.942L794.563 539.183L721.322 465.943ZM797.114 392.264L868.242 392.264V463.391L797.114 392.264ZM870.355 465.504L870.355 392.264H942.977V538.127L870.355 465.504ZM797.115 390.15L869.299 317.966L941.483 390.15H797.115ZM908.161 353.839L944.472 317.528H1017.71L1017.71 463.391L908.161 353.839ZM946.586 315.414L1017.71 244.287V315.414L946.586 315.414ZM1168.68 168.057H1241.92V240.679H1096.06L1168.68 168.057ZM1244.03 94.8158L1316.22 167L1244.03 239.184V94.8158ZM1170.79 18.5856L1316.66 18.5855L1316.66 164.449L1170.79 18.5856ZM1019.83 -207.735V-278.863L1090.95 -207.735L1019.83 -207.735ZM942.977 -355.712L942.977 -209.23L722.379 -429.828L868.861 -429.828L942.977 -355.712ZM866.747 -280.357L831.931 -245.541L797.114 -280.357L866.747 -280.357ZM717.275 -133L571.413 -132.999L571.413 -278.862L717.275 -133ZM719.389 -130.886L793.816 -56.4595L867.804 17.5288L720.884 164.449L720.884 17.5292C720.884 17.3913 720.856 17.2537 720.802 17.1249C720.749 16.9959 720.671 16.879 720.574 16.7818L572.908 -130.885L719.389 -130.886ZM717.275 16.4717L645.529 16.4716L498.172 -130.886L569.918 -130.886L717.275 16.4717ZM642.54 16.4716H570.794L423.436 -130.886L495.182 -130.886L642.54 16.4716ZM568.861 17.5288L495.62 90.7697L422.38 17.5288L495.62 -55.7121L568.861 17.5288ZM493.069 91.2073L421.942 91.2076L421.942 20.0803L493.069 91.2073ZM419.828 17.9664L419.828 91.2073L347.206 91.2076V-54.6553L419.828 17.9664ZM493.069 93.3215L420.885 165.505L348.701 93.3211L493.069 93.3215ZM382.022 129.632L345.711 165.943L272.47 165.943V20.0803L382.022 129.632ZM383.517 131.127L418.333 165.943L348.701 165.943L383.517 131.127ZM418.333 168.057L270.976 315.414H199.23L346.587 168.057H418.333ZM567.804 616.471L532.988 651.287L498.172 616.47L567.804 616.471ZM642.54 763.828L571.413 763.828L571.413 692.701L642.54 763.828ZM534.483 652.781L570.356 616.908L717.276 763.828L645.53 763.828L534.483 652.781ZM718.77 765.942L718.77 837.069L647.643 765.941L718.77 765.942ZM720.884 839.621L720.884 839.62L720.884 767.436L793.068 839.62L720.884 911.805L720.884 839.621ZM721.322 764.885L794.563 691.644L867.804 764.885L794.563 838.126L721.322 764.885ZM797.114 691.206L868.242 691.206L868.241 762.333L797.114 691.206ZM793.816 689.402L720.884 762.333L720.884 615.414C720.884 615.277 720.856 615.139 720.803 615.01C720.749 614.881 720.672 614.764 720.575 614.667L572.908 467L719.39 467L793.815 541.426L867.803 615.414L793.816 689.402ZM796.058 540.678L868.242 468.494L868.242 540.677L868.242 540.678V612.862L796.058 540.678ZM870.355 543.23L941.483 614.357L870.355 614.357L870.355 543.23ZM945.091 540.24L945.091 393.758L1018.02 466.69L1165.69 614.357L1019.21 614.357L945.091 540.24ZM1019.83 316.909L1093.94 242.792H1240.43L1167.49 315.724L1019.83 463.391L1019.83 316.909ZM1280.34 427.08L1170.79 317.528L1316.66 317.528L1316.66 390.769L1280.34 427.08ZM1316.66 393.758L1316.66 463.391L1281.84 428.575L1316.66 393.758ZM1316.66 315.414L1170.79 315.414L1316.66 169.551L1316.66 315.414ZM1429.82 53.4019L1395 18.5859L1464.63 18.586L1429.82 53.4019ZM1428.32 54.8966L1318.77 164.448L1318.77 18.5859L1392.01 18.5859L1428.32 54.8966ZM1318.15 16.472L1170.79 -130.886L1242.54 -130.886L1389.9 16.4721L1318.15 16.472ZM1167.18 -131.943C1167.18 -131.805 1167.21 -131.667 1167.27 -131.538C1167.32 -131.409 1167.4 -131.292 1167.49 -131.195L1315.16 16.4721L1168.68 16.472L1020.26 -131.942L1167.18 -278.862L1167.18 -131.943ZM1020.26 -281.414L1093.51 -354.655L1166.75 -281.414L1093.51 -208.173L1020.26 -281.414ZM870.356 -431.942L870.355 -503.069L941.483 -431.942L870.356 -431.942ZM868.241 -505.183L868.241 -431.942L722.379 -431.942L795.31 -504.873L831.931 -541.494L868.241 -505.183ZM793.068 -505.62L719.827 -432.38L646.586 -505.62L719.827 -578.861L793.068 -505.62ZM644.344 -504.874L717.275 -431.942L645.092 -431.942C645.092 -431.942 645.091 -431.942 645.09 -431.942L571.413 -431.942L571.413 -577.805L644.344 -504.874ZM794.125 -280.357L830.436 -244.046L720.884 -134.494V-280.357H794.125ZM718.77 -134.494L572.908 -280.356L718.771 -280.357L718.77 -134.494ZM493.069 -133L423.437 -133L458.253 -167.816L493.069 -133ZM494.126 -57.2068L421.942 14.9773V-57.2053C421.942 -57.2061 421.942 -57.2069 421.942 -57.2076L421.942 -129.391L494.126 -57.2068ZM419.828 -59.7587L348.701 -130.886L419.828 -130.886L419.828 -59.7587ZM345.092 -56.7692L345.092 89.7125L272.161 16.7814L124.494 -130.886L270.976 -130.886L345.092 -56.7692ZM270.357 20.0803L270.357 165.943L124.494 165.943L270.357 20.0803ZM343.598 168.057L196.24 315.414L124.494 315.414L271.852 168.057H343.598ZM122.999 317.528L196.677 317.528C196.678 317.528 196.678 317.528 196.679 317.528L268.862 317.528L122.999 463.391L122.999 317.528ZM418.333 464.885L346.15 464.885L346.149 464.885L272.47 464.886L272.47 319.023L418.333 464.885ZM495.183 616.47L531.494 652.781L421.942 762.333L421.942 616.47L495.183 616.47ZM532.988 654.276L569.299 690.587L569.299 763.828L423.436 763.828L532.988 654.276ZM644.654 765.942L718.771 840.058L718.771 911.805L572.908 765.942L644.654 765.942ZM718.77 914.794L718.77 988.035L646.148 988.035L646.148 842.172L718.77 914.794ZM720.884 916.907L792.011 988.035L720.884 988.035L720.884 916.907ZM867.804 914.356L794.563 987.597L721.322 914.356L794.563 841.115L867.804 914.356ZM868.241 911.804L796.058 839.62L868.242 767.436L868.242 839.62L868.242 839.62L868.241 911.804ZM942.977 837.069L870.355 764.446L870.355 691.206L942.977 691.206L942.977 837.069ZM797.114 689.092L869.298 616.908L941.483 689.093L797.114 689.092ZM871.85 616.47L943.596 616.47L1054.64 727.517L1018.77 763.39L871.85 616.47ZM1056.14 726.022L1019.83 689.711L1019.83 616.47L1165.69 616.47L1056.14 726.022ZM1242.98 464.886H1242.98H1169.3L1169.3 319.022L1315.16 464.885L1242.98 464.886ZM1318.77 463.391L1318.77 391.644L1466.13 244.287V316.033L1318.77 463.391ZM1468.24 313.919V241.736L1468.24 241.735V168.057L1614.1 168.056L1468.24 313.919ZM1614.1 165.943L1467.18 165.943C1467.05 165.942 1466.91 165.971 1466.78 166.024C1466.65 166.078 1466.53 166.155 1466.44 166.252L1318.77 313.919L1318.77 167.438L1467.18 19.0235L1614.1 165.943ZM1392.89 16.472L1245.53 -130.886L1317.27 -130.886L1464.63 16.4721L1392.89 16.472ZM1315.16 -132.999L1242.98 -132.999L1242.98 -132.999L1169.3 -132.999L1169.3 -278.862L1315.16 -132.999ZM1092.01 -356.149L1019.83 -283.965L1019.83 -356.149C1019.83 -356.149 1019.83 -356.15 1019.83 -356.15V-428.333L1092.01 -356.149ZM1016.22 -431.942L944.472 -431.942L833.425 -542.988L869.299 -578.861L1016.22 -431.942ZM794.563 -507.115L722.379 -579.299L794.562 -579.299C794.563 -579.299 794.564 -579.299 794.564 -579.299L866.747 -579.299L794.563 -507.115ZM719.389 -581.413L646.148 -581.413L646.148 -654.035L792.011 -654.035L719.389 -581.413L719.389 -581.413ZM644.035 -652.54L644.035 -580.356L644.035 -508.172L571.851 -580.356L644.035 -652.54ZM569.299 -577.805L569.299 -430.886C569.299 -430.748 569.327 -430.611 569.381 -430.481C569.435 -430.352 569.512 -430.235 569.609 -430.138L717.276 -282.471L570.794 -282.471L422.38 -430.885L569.299 -577.805ZM567.805 -280.357L532.988 -245.541L498.172 -280.357L567.805 -280.357ZM531.494 -244.046L421.942 -134.494L421.942 -280.357L495.183 -280.357L531.494 -244.046ZM419.828 -280.357L419.828 -134.494L273.965 -280.357L419.828 -280.357ZM271.414 -279.919L418.333 -132.999L346.587 -132.999L235.541 -244.046L271.414 -279.919ZM234.046 -242.551L270.357 -206.24L270.357 -132.999L124.494 -132.999L234.046 -242.551ZM120.885 18.5852L120.885 89.7125L49.7583 18.5855L120.885 18.5852ZM46.7689 18.5855L157.816 129.632L121.942 165.505L-24.9773 18.5855L46.7689 18.5855ZM-26.472 168.057L44.655 168.057L-26.472 239.184L-26.472 168.057ZM-26.472 242.174L84.5746 131.127L120.448 167L-26.472 313.92L-26.472 242.174ZM-26.0341 316.471L122.38 168.057L268.862 168.057L121.195 315.724C121.098 315.821 121.021 315.938 120.967 316.067C120.914 316.197 120.885 316.334 120.886 316.472L120.885 463.391L-26.0341 316.471ZM270.357 319.023L270.357 465.942C270.356 466.08 270.384 466.217 270.438 466.346C270.492 466.476 270.569 466.592 270.666 466.69L418.333 614.357L271.852 614.357L123.437 465.942L270.357 319.023ZM273.965 616.47L419.828 616.471L419.828 762.333L273.965 616.47ZM423.436 765.942L569.918 765.942L644.035 840.058L644.035 986.54L423.436 765.942ZM792.011 990.149L719.827 1062.33L647.643 990.148L792.011 990.149Z" fill="black"/>
</svg>
