<svg width="1794" height="1794" viewBox="0 0 1794 1794" fill="none" xmlns="http://www.w3.org/2000/svg">
<path opacity="0.05" d="M970.506 1719.98L970.816 1719.67L972.31 1718.17L1045.55 1644.93L1047.05 1643.44L1047.35 1643.13V1572L1082.92 1607.56L1084.41 1606.07L1047.35 1569.01V1497.26L1120.29 1570.2L1121.78 1568.7L1122.09 1568.39V1422.53L1195.02 1495.46L1196.52 1493.96L1232.39 1458.09L1233.88 1456.6L1344.18 1346.3L1344.49 1345.99L1345.99 1344.49L1346.3 1344.18H1345.68L1197.26 1195.77L1344.18 1048.85V1195.77C1344.18 1195.91 1344.21 1196.04 1344.26 1196.17C1344.32 1196.3 1344.39 1196.42 1344.49 1196.52L1419.23 1271.25L1420.72 1269.76L1347.79 1196.83L1419.54 1196.83L1456.6 1233.89L1458.09 1232.39L1422.53 1196.83L1493.65 1196.83L1493.96 1196.52L1495.46 1195.02L1495.77 1194.71L1643.44 1047.05L1645.24 1045.24L1792.6 897.884L1793.65 896.827L1792.6 895.77L1644.93 748.104L1643.44 746.609L1643.13 746.299L1495.46 598.632L1493.65 596.827L1346.3 449.471L1345.99 449.161L1344.49 447.666L1269.76 372.93L1196.83 299.999L1194.71 297.885L1047.05 150.218L1045.55 148.724L1045.24 148.414H974.114L1009.68 112.851L1008.18 111.356L971.125 148.414H899.379L972.31 75.483L970.816 73.988L970.506 73.679H824.643L897.575 0.747009L896.827 0L823.148 73.679L821.035 75.7921L748.103 148.724L746.609 150.218L746.299 150.528L598.632 298.195L597.138 299.689L596.828 299.999H597.447L744.805 447.357H673.058L561.264 335.563L559.77 337.057L670.069 447.356H598.322L523.897 372.93L522.402 374.425L595.333 447.356L449.47 447.357L449.161 447.666L447.666 449.161L411.793 485.034L410.298 486.529L299.999 596.828L299.69 597.137L298.195 598.632L445.862 746.299L299.38 746.299L225.264 672.182L225.263 671.564L224.954 671.873L223.46 673.368L296.391 746.299L224.644 746.299L187.586 709.241L186.092 710.735L221.655 746.299L150.528 746.299L150.219 746.608L148.724 748.103L148.414 748.413L0 896.827L0.746994 897.574L148.414 749.907L148.415 896.389L74.298 970.506H73.679L73.988 970.815L75.483 972.31L148.414 899.379V971.125L111.356 1008.18L112.851 1009.68L148.414 974.114V1045.24L148.724 1045.55L150.219 1047.05L297.885 1194.71L298.195 1195.02L299.69 1196.52L447.666 1344.49L449.47 1346.3L596.828 1493.66L597.138 1493.97L598.632 1495.46L598.942 1495.77L821.035 1717.86L823.148 1719.98L896.827 1793.66L970.506 1719.98ZM450.965 1196.83H522.711L670.069 1344.18H598.323L450.965 1196.83ZM223.769 895.77H150.528V749.907L260.08 859.459L223.769 895.77ZM299.999 821.653V748.413L445.862 748.413L336.31 857.964L299.999 821.653ZM520.597 596.827H449.47V525.7L520.597 596.827ZM522.711 598.941L596.828 673.058V744.804L450.965 598.941H522.711ZM746.299 450.965V596.828H673.058L636.747 560.517L746.299 450.965ZM749.908 299.999H821.654L969.011 447.357H897.265L749.908 299.999ZM823.148 150.528H894.276L823.148 221.655V150.528ZM1194.71 374.115V445.862L1048.85 299.999H1120.6L1194.71 374.115ZM1123.59 299.999H1194.71V371.126L1123.59 299.999ZM1643.13 971.124L1495.77 1118.48V1046.74L1643.13 899.378V971.124ZM1123.59 1346.3L1194.71 1346.3V1417.42L1123.59 1346.3ZM1121.47 1344.18L1047.35 1270.07V1198.32L1193.22 1344.18L1121.47 1344.18ZM597.447 1196.83L744.805 1344.18H673.058L525.701 1196.83H597.447ZM896.389 299.999L1043.75 447.357H972.001L824.643 299.999H896.389ZM1196.83 1043.75V972.001L1270.94 897.884H1342.69L1196.83 1043.75ZM894.276 1344.18H822.53L675.172 1196.83H746.918L894.276 1344.18ZM822.091 748.413L895.77 748.413V894.275L822.839 821.344L749.908 748.413L822.091 748.413ZM1194.71 448.851V522.092H1122.09V376.229L1194.71 448.851ZM1267.95 524.205L1195.77 596.39L1123.59 524.205H1267.95ZM1418.92 895.77H1347.79L1418.92 824.643V895.77ZM1083.67 1082.17L1047.79 1046.3L1194.71 899.379V971.125L1083.67 1082.17ZM747.794 1344.18L600.436 1196.83H672.183L819.54 1344.18H747.794ZM523.587 1047.35H596.828V1193.22L487.276 1083.67L523.587 1047.35ZM598.942 897.883L670.069 897.884L598.942 969.011V897.883ZM673.058 897.884H744.805L598.942 1043.75V972L673.058 897.884ZM1272 822.092L1345.24 748.851L1418.48 822.091L1345.24 895.332L1272 822.092ZM747.794 897.884H821.035V970.506L675.172 970.505L747.794 897.884ZM823.148 824.643L895.332 896.827L823.148 969.01V824.643ZM897.884 972.001L1045.24 824.643V896.389L897.884 1043.75V972.001ZM1119.98 524.206V670.069L1047.35 597.447V524.206H1119.98ZM1047.36 897.884H1193.22L1047.36 1043.75V897.884ZM1047.36 600.436L1193.22 746.299H1121.47L1047.36 672.183V600.436ZM1123.59 748.413H1194.71V819.54L1123.59 748.413ZM1196.83 821.654V748.413L1342.69 748.413L1269.76 821.344L1233.14 857.964L1196.83 821.654ZM1118.48 746.299H1047.35V675.172L1118.48 746.299ZM1120.6 748.413L1231.64 859.459L1195.77 895.332L1048.85 748.413H1120.6ZM1196.21 746.299L1122.09 672.182V525.7L1342.69 746.299H1196.21ZM1045.24 595.333L974.115 524.206H1045.24V595.333ZM1045.24 672.62V744.804L973.058 672.62L1045.24 600.436V672.62ZM1082.17 784.724L1047.36 819.54V749.908L1082.17 784.724ZM1083.67 786.219L1193.22 895.771H1047.36V822.53L1083.67 786.219ZM896.827 1047.35C896.965 1047.36 897.102 1047.33 897.231 1047.27C897.36 1047.22 897.477 1047.14 897.575 1047.05L1045.24 899.379V1045.86L970.816 1120.29L896.827 1194.28L749.908 1047.36L896.827 1047.35ZM1118.48 522.092H1046.3H1046.3V522.092H974.115L1046.3 449.908L1118.48 522.092ZM1044.8 597.885L971.563 671.126L898.322 597.885L971.563 524.644L1044.8 597.885ZM1045.24 821.654L897.884 969.011V897.265L1045.24 749.908V821.654ZM895.771 971.563V1045.24H749.908L895.771 899.378V971.563ZM821.035 895.769L749.908 895.77L821.035 824.643V895.769ZM596.828 1045.24H525.701L596.828 974.114V1045.24ZM600.437 1194.71L635.253 1159.9L670.069 1194.71H600.437ZM598.942 1193.22V1046.74L673.059 972.619H819.541L746.609 1045.55L598.942 1193.22ZM1196.83 897.884H1267.95L1196.83 969.011V897.884ZM1270.51 895.77H1270.5H1198.32L1270.51 823.587L1342.69 895.77H1270.51ZM747.356 748.851L820.597 822.091L747.356 895.332L674.116 822.091L747.356 748.851ZM744.805 895.769H672.621L672.62 895.77H600.437L672.621 823.586L744.805 895.769ZM596.828 971.125L485.782 1082.17L449.909 1046.3L596.828 899.378V971.125ZM749.908 1346.3H822.091H895.771V1492.16L749.908 1346.3ZM673.058 1194.71L636.747 1158.4L746.299 1048.85V1194.71L673.058 1194.71ZM748.413 1048.85L894.276 1194.71H748.413V1048.85ZM898.322 1195.77L971.563 1122.53L1044.8 1195.77L971.563 1269.01L898.322 1195.77ZM974.114 1122.09H1045.24V1193.22L974.114 1122.09ZM1047.35 1195.33V1122.09H1119.98V1267.95L1047.35 1195.33ZM974.115 1119.98L1046.3 1047.79L1118.48 1119.98H974.115ZM1085.16 1083.67L1121.47 1047.35H1194.71V1193.22L1085.16 1083.67ZM1123.59 1045.24L1194.71 974.114V1045.24H1123.59ZM1345.68 897.884H1418.92V970.506H1273.06L1345.68 897.884ZM1421.03 824.643L1493.22 896.827L1421.03 969.011V824.643ZM1347.79 748.413L1493.66 748.413V894.276L1347.79 748.413ZM1196.83 522.092V450.964L1267.95 522.092H1196.83ZM1119.98 374.115V520.597L899.379 299.999H1045.86L1119.98 374.115ZM1043.75 449.47L1008.93 484.286L974.114 449.47H1043.75ZM894.275 596.827L748.413 596.828V450.965L894.275 596.827ZM896.389 598.941L970.816 673.368L1044.8 747.356L897.884 894.276V747.356C897.884 747.218 897.856 747.081 897.802 746.952C897.749 746.823 897.671 746.706 897.574 746.609L749.908 598.942L896.389 598.941ZM894.275 746.299L822.529 746.299L675.172 598.941H746.918L894.275 746.299ZM819.54 746.299H747.794L600.436 598.941H672.182L819.54 746.299ZM745.861 747.356L672.62 820.597L599.38 747.356L672.62 674.115L745.861 747.356ZM670.069 821.034L598.942 821.035V749.907L670.069 821.034ZM596.828 747.793V821.034L524.206 821.035V675.172L596.828 747.793ZM670.069 823.149L597.885 895.332L525.701 823.148L670.069 823.149ZM559.022 859.459L522.711 895.77H449.47V749.907L559.022 859.459ZM560.517 860.954L595.333 895.77H525.701L560.517 860.954ZM595.333 897.884L447.976 1045.24H376.23L523.587 897.884H595.333ZM744.804 1346.3L709.988 1381.11L675.172 1346.3L744.804 1346.3ZM819.54 1493.66H748.413V1422.53L819.54 1493.66ZM711.483 1382.61L747.356 1346.74L894.276 1493.66H822.53L711.483 1382.61ZM895.77 1495.77V1566.9L824.643 1495.77L895.77 1495.77ZM897.884 1569.45V1497.26L970.068 1569.45L897.884 1641.63V1569.45ZM898.322 1494.71L971.563 1421.47L1044.8 1494.71L971.563 1567.95L898.322 1494.71ZM974.114 1421.03H1045.24L1045.24 1492.16L974.114 1421.03ZM970.816 1419.23L897.884 1492.16V1345.24C897.884 1345.1 897.856 1344.97 897.803 1344.84C897.749 1344.71 897.672 1344.59 897.575 1344.49L749.908 1196.83H896.39L970.815 1271.25L1044.8 1345.24L970.816 1419.23ZM973.058 1270.51L1045.24 1198.32V1270.5V1342.69L973.058 1270.51ZM1047.35 1273.06L1118.48 1344.18H1047.35V1273.06ZM1122.09 1270.07V1123.58L1195.02 1196.52L1342.69 1344.18H1196.21L1122.09 1270.07ZM1196.83 1046.74L1270.94 972.619H1417.43L1344.49 1045.55L1196.83 1193.22V1046.74ZM1457.34 1156.91L1347.79 1047.35H1493.66V1120.6L1457.34 1156.91ZM1493.66 1123.58V1193.22L1458.84 1158.4L1493.66 1123.58ZM1493.66 1045.24H1347.79L1493.66 899.378V1045.24ZM1606.82 783.229L1572 748.413L1641.63 748.413L1606.82 783.229ZM1605.32 784.724L1495.77 894.275V748.413H1569.01L1605.32 784.724ZM1495.15 746.299L1347.79 598.941H1419.54L1566.9 746.299L1495.15 746.299ZM1344.18 597.884C1344.18 598.022 1344.21 598.16 1344.27 598.289C1344.32 598.418 1344.4 598.535 1344.49 598.632L1492.16 746.299L1345.68 746.299L1197.26 597.885L1344.18 450.965V597.884ZM1197.26 448.413L1270.51 375.172L1343.75 448.413L1270.51 521.654L1197.26 448.413ZM1047.36 297.885L1047.35 226.758L1118.48 297.885H1047.36ZM1045.24 224.644V297.885H899.379L972.31 224.954L1008.93 188.333L1045.24 224.644ZM970.068 224.207L896.827 297.447L823.586 224.207L896.827 150.966L970.068 224.207ZM821.344 224.953L894.275 297.885H822.092H822.09H748.413V152.022L821.344 224.953ZM971.125 449.47L1007.44 485.781L897.884 595.333V449.47H971.125ZM895.77 595.333L749.908 449.471L895.771 449.47L895.77 595.333ZM670.069 596.827H600.437L635.253 562.011L670.069 596.827ZM671.126 672.62L598.942 744.804V672.622V672.619V600.436L671.126 672.62ZM596.828 670.068L525.701 598.941H596.828V670.068ZM522.092 673.058V819.54L449.161 746.608L301.494 598.941H447.976L522.092 673.058ZM447.357 749.907V895.77H301.494L447.357 749.907ZM520.598 897.884L373.24 1045.24H301.494L448.852 897.884H520.598ZM299.999 1047.35H373.677H373.679H445.862L299.999 1193.22V1047.35ZM595.333 1194.71H523.15H523.149L449.47 1194.71V1048.85L595.333 1194.71ZM672.183 1346.3L708.494 1382.61L598.942 1492.16V1346.3H672.183ZM709.988 1384.1L746.299 1420.41V1493.66H600.436L709.988 1384.1ZM821.654 1495.77L895.771 1569.89V1641.63L749.908 1495.77H821.654ZM895.77 1644.62V1717.86H823.148V1572L895.77 1644.62ZM897.884 1646.73L969.011 1717.86H897.884V1646.73ZM1044.8 1644.18L971.563 1717.42L898.322 1644.18L971.563 1570.94L1044.8 1644.18ZM1045.24 1641.63L973.058 1569.45L1045.24 1497.26V1569.45L1045.24 1641.63ZM1119.98 1566.9L1047.35 1494.27V1421.03H1119.98V1566.9ZM974.114 1418.92L1046.3 1346.74L1118.48 1418.92L974.114 1418.92ZM1048.85 1346.3H1120.6L1231.64 1457.34L1195.77 1493.22L1048.85 1346.3ZM1233.14 1455.85L1196.83 1419.54V1346.3H1342.69L1233.14 1455.85ZM1419.98 1194.71H1346.3V1048.85L1492.16 1194.71L1419.98 1194.71ZM1495.77 1193.22V1121.47L1643.13 974.114V1045.86L1495.77 1193.22ZM1645.24 1043.75V971.563V897.884L1791.1 897.883L1645.24 1043.75ZM1791.1 895.77H1644.18C1644.05 895.769 1643.91 895.798 1643.78 895.851C1643.65 895.905 1643.53 895.982 1643.44 896.079L1495.77 1043.75V897.265L1644.18 748.851L1791.1 895.77ZM1569.89 746.299L1422.53 598.941H1494.27L1641.63 746.299L1569.89 746.299ZM1492.16 596.828H1419.98H1346.3V450.965L1492.16 596.828ZM1269.01 373.678L1196.83 445.862V373.678V373.677V301.494L1269.01 373.678ZM1193.22 297.885H1121.47L1010.42 186.839L1046.3 150.966L1193.22 297.885ZM971.563 222.712L899.379 150.528H971.562H971.564H1043.75L971.563 222.712ZM896.389 148.414H823.148V75.7921H969.011L896.389 148.414ZM821.035 77.287V149.471V221.655L748.851 149.471L821.035 77.287ZM746.299 152.022V298.941C746.299 299.079 746.327 299.216 746.381 299.346C746.435 299.475 746.512 299.592 746.609 299.689L894.276 447.356H747.794L599.38 298.942L746.299 152.022ZM744.805 449.47L709.988 484.286L675.172 449.47H744.805ZM708.494 485.781L598.942 595.333V449.47H672.183L708.494 485.781ZM596.828 449.47V595.333L450.965 449.47H596.828ZM448.414 449.908L595.333 596.828H523.587L412.541 485.781L448.414 449.908ZM411.046 487.276L447.357 523.587V596.828H301.494L411.046 487.276ZM297.885 748.412V819.54L226.758 748.413L297.885 748.412ZM223.769 748.413L334.816 859.459L298.942 895.332L152.023 748.413H223.769ZM150.528 897.884H221.655L150.528 969.011V897.884ZM150.528 972.001L261.575 860.954L297.448 896.827L150.528 1043.75V972.001ZM150.966 1046.3L299.38 897.884H445.862L298.195 1045.55C298.098 1045.65 298.021 1045.77 297.967 1045.89C297.914 1046.02 297.885 1046.16 297.886 1046.3L297.885 1193.22L150.966 1046.3ZM447.357 1048.85V1195.77C447.356 1195.91 447.384 1196.04 447.438 1196.17C447.492 1196.3 447.569 1196.42 447.666 1196.52L595.333 1344.18H448.852L300.437 1195.77L447.357 1048.85ZM450.965 1346.3L596.828 1346.3V1492.16L450.965 1346.3ZM600.436 1495.77H746.918L821.035 1569.89V1716.37L600.436 1495.77ZM969.011 1719.98L896.827 1792.16L824.643 1719.98L969.011 1719.98Z" fill="black"/>
</svg>
