<svg width="635" height="635" viewBox="0 0 635 635" fill="none" xmlns="http://www.w3.org/2000/svg">
<path opacity="0.05" d="M343.58 608.908L343.69 608.798L344.219 608.269L370.148 582.34L370.677 581.811L370.786 581.702V556.521L383.377 569.111L383.906 568.582L370.786 555.463V530.063L396.606 555.882L397.135 555.353L397.244 555.244V503.605L423.064 529.424L423.593 528.895L436.293 516.195L436.822 515.666L475.87 476.618L475.98 476.508L476.509 475.979L476.618 475.87H476.399L423.857 423.328L475.87 371.315V423.328C475.87 423.376 475.879 423.425 475.898 423.47C475.917 423.516 475.944 423.557 475.979 423.593L502.437 450.051L502.967 449.521L477.147 423.702H502.547L515.666 436.822L516.196 436.292L503.605 423.702H528.786L528.896 423.593L529.425 423.063L529.534 422.954L581.812 370.677L582.45 370.038L634.618 317.87L634.992 317.496L634.618 317.122L582.341 264.845L581.812 264.315L581.702 264.206L529.425 211.929L528.786 211.29L476.618 159.122L476.509 159.013L475.98 158.484L449.522 132.025L423.702 106.206L422.954 105.458L370.677 53.181L370.148 52.652L370.038 52.542H344.858L357.448 39.952L356.919 39.423L343.799 52.542H318.4L344.219 26.723L343.69 26.194L343.58 26.084H291.941L317.761 0.264999L317.496 0L291.412 26.084L290.664 26.832L264.845 52.652L264.316 53.181L264.206 53.29L211.929 105.568L211.4 106.097L211.29 106.206H211.509L263.677 158.374H238.277L198.7 118.797L198.171 119.326L237.219 158.374L211.819 158.374L185.471 132.025L184.942 132.555L210.761 158.374L159.122 158.374L159.013 158.484L158.484 159.013L145.784 171.713L145.255 172.242L106.207 211.29L106.097 211.4L105.568 211.929L157.845 264.206H105.987L79.749 237.967L79.748 237.748L79.639 237.858L79.11 238.387L104.929 264.206H79.529L66.41 251.087L65.881 251.616L78.471 264.206H53.291L53.181 264.315L52.652 264.845L52.542 264.954L0 317.496L0.264999 317.761L52.542 265.483V317.341L26.303 343.58H26.084L26.194 343.689L26.723 344.219L52.542 318.399V343.799L39.423 356.918L39.952 357.448L52.542 344.857V370.038L52.652 370.147L53.181 370.677L105.458 422.954L105.568 423.063L106.097 423.593L158.484 475.979L159.122 476.618L211.29 528.786L211.4 528.895L211.929 529.424L212.038 529.534L290.664 608.16L291.412 608.908L317.496 634.992L343.58 608.908ZM159.652 423.702H185.051L237.219 475.87H211.819L159.652 423.702ZM79.219 317.122H53.291V265.483L92.074 304.267L79.219 317.122ZM106.207 290.883V264.954H157.845L119.061 303.738L106.207 290.883ZM184.303 211.29H159.122L159.122 186.109L184.303 211.29ZM185.051 212.038L211.29 238.277V263.677L159.652 212.038H185.051ZM264.206 159.651V211.29L238.277 211.29L225.422 198.435L264.206 159.651ZM265.484 106.206L290.883 106.206L343.051 158.374H317.651L265.484 106.206ZM291.412 53.29H316.593L291.412 78.4709V53.29ZM422.954 132.445V157.845L371.316 106.206L396.715 106.206L422.954 132.445ZM397.773 106.206L422.954 106.206V131.387L397.773 106.206ZM581.702 343.799L529.534 395.967V370.567L581.702 318.399V343.799ZM397.773 476.618H422.954V501.798L397.773 476.618ZM397.025 475.87L370.786 449.631V424.231L422.425 475.87H397.025ZM211.509 423.702L263.677 475.87H238.277L186.11 423.702H211.509ZM317.341 106.206L369.509 158.374H344.109L291.942 106.206L317.341 106.206ZM423.702 369.509V344.109L449.941 317.87H475.341L423.702 369.509ZM316.593 475.87H291.193L239.026 423.702H264.425L316.593 475.87ZM291.038 264.954H317.122V316.592L291.303 290.773L265.484 264.954H291.038ZM422.954 158.903V184.832H397.244V133.193L422.954 158.903ZM448.883 185.58L423.328 211.135L397.774 185.58H448.883ZM502.328 317.122H477.147L502.328 291.941V317.122ZM383.641 383.112L370.942 370.412L422.954 318.4V343.799L383.641 383.112ZM264.735 475.87L212.568 423.702H237.967L290.135 475.87H264.735ZM185.361 370.786H211.29V422.425L172.507 383.641L185.361 370.786ZM212.039 317.87H237.219L212.039 343.051V317.87ZM238.277 317.87H263.677L212.039 369.509V344.109L238.277 317.87ZM450.315 291.038L476.244 265.109L502.173 291.038L476.244 316.967L450.315 291.038ZM264.735 317.87H290.664V343.58H239.026L264.735 317.87ZM291.412 291.941L316.967 317.496L291.412 343.05V291.941ZM317.871 344.109L370.038 291.941V317.341L317.871 369.509V344.109ZM396.496 185.58V237.219L370.786 211.509V185.58H396.496ZM370.786 317.87H422.425L370.786 369.509V317.87ZM370.786 212.568L422.425 264.206H397.025L370.786 237.967V212.568ZM397.774 264.954H422.954V290.135L397.774 264.954ZM423.702 290.883V264.954H475.341L449.522 290.773L436.557 303.738L423.702 290.883ZM395.967 264.206H370.786V239.025L395.967 264.206ZM396.715 264.954L436.028 304.267L423.328 316.967L371.316 264.954H396.715ZM423.483 264.206L397.244 237.967V186.109L475.341 264.206H423.483ZM370.038 210.761L344.858 185.581L370.038 185.58V210.761ZM370.038 238.122V263.677L344.483 238.122L370.038 212.567V238.122ZM383.112 277.809L370.786 290.135V265.483L383.112 277.809ZM383.641 278.338L422.425 317.122H370.786V291.193L383.641 278.338ZM317.496 370.786C317.545 370.786 317.594 370.776 317.639 370.757C317.685 370.738 317.726 370.711 317.761 370.677L370.038 318.4V370.257L343.69 396.605L317.496 422.799L265.484 370.786H317.496ZM395.967 184.832H370.413C370.413 184.832 370.412 184.832 370.412 184.832C370.412 184.832 370.412 184.832 370.412 184.832H344.858L370.412 159.277L395.967 184.832ZM369.883 211.664L343.954 237.593L318.026 211.664L343.954 185.735L369.883 211.664ZM370.038 290.883L317.871 343.051V317.651L370.038 265.483V290.883ZM317.122 343.954V370.038H265.484L317.122 318.399L317.122 343.954ZM290.664 317.122H265.484L290.664 291.941L290.664 317.122ZM211.29 370.038H186.11L211.29 344.857L211.29 370.038ZM212.568 422.954L224.893 410.628L237.219 422.954H212.568ZM212.039 422.425V370.567L238.277 344.328H290.135L264.316 370.147L212.039 422.425ZM423.702 317.87H448.883L423.702 343.051V317.87ZM449.786 317.122H424.232L449.786 291.567L475.341 317.122H449.786ZM264.58 265.109L290.509 291.038L264.58 316.967L238.652 291.038L264.58 265.109ZM263.677 317.122H238.123H212.568L238.122 291.567L263.677 317.122ZM211.29 343.799L171.978 383.112L159.278 370.412L211.29 318.399L211.29 343.799ZM265.484 476.618H291.038H317.122L317.122 528.257L265.484 476.618ZM238.277 422.954L225.422 410.099L264.206 371.315L264.206 422.954H238.277ZM264.954 371.315L316.593 422.954H264.954L264.954 371.315ZM318.026 423.328L343.954 397.399L369.883 423.328L343.954 449.257L318.026 423.328ZM344.858 397.244H370.038V422.425L344.858 397.244ZM370.786 423.173V397.244H396.496V448.883L370.786 423.173ZM344.858 396.496L370.412 370.941L395.967 396.496H344.858ZM384.17 383.641L397.025 370.786H422.954V422.425L384.17 383.641ZM397.774 370.038L422.954 344.857V370.038H397.774ZM476.399 317.87H502.328V343.58H450.689L476.399 317.87ZM503.076 291.941L528.631 317.496L503.076 343.051V291.941ZM477.148 264.954H528.786V316.593L477.148 264.954ZM423.702 184.832V159.651L448.883 184.832H423.702ZM396.496 132.445V184.303L318.4 106.206L370.257 106.206L396.496 132.445ZM369.509 159.122L357.183 171.448L344.858 159.122L369.509 159.122ZM316.593 211.29L264.954 211.29L264.955 159.652L316.593 211.29ZM317.341 212.038L343.69 238.387L369.883 264.58L317.87 316.593L317.87 264.58C317.87 264.531 317.86 264.483 317.841 264.437C317.823 264.391 317.795 264.35 317.761 264.316L265.484 212.038L317.341 212.038ZM316.593 264.206H291.193L239.026 212.038H264.425L316.593 264.206ZM290.135 264.206H264.735L212.567 212.038L237.967 212.038L290.135 264.206ZM264.051 264.58L238.122 290.509L212.194 264.58L238.122 238.651L264.051 264.58ZM237.219 290.664H212.038L212.038 265.483L237.219 290.664ZM211.29 264.735V290.664H185.581V239.025L211.29 264.735ZM237.219 291.412L211.664 316.967L186.11 291.412H237.219ZM197.906 304.267L185.051 317.122H159.122V265.483L197.906 304.267ZM198.435 304.796L210.761 317.122H186.11L198.435 304.796ZM210.761 317.87L158.593 370.038H133.194L185.361 317.87H210.761ZM263.677 476.618L251.351 488.944L239.026 476.618H263.677ZM290.135 528.786H264.954V503.605L290.135 528.786ZM251.881 489.473L264.58 476.773L316.593 528.786H291.193L251.881 489.473ZM317.122 529.534V554.714L291.941 529.534H317.122ZM317.87 555.618L317.87 530.063L343.425 555.618L317.87 581.173L317.87 555.618ZM318.025 529.16L343.954 503.231L369.883 529.16L343.954 555.089L318.025 529.16ZM344.858 503.076H370.038V528.256L344.858 503.076ZM343.69 502.437L317.87 528.257V476.244C317.871 476.195 317.86 476.147 317.841 476.101C317.822 476.055 317.795 476.014 317.761 475.98L265.484 423.702H317.341L343.69 450.051L369.883 476.244L343.69 502.437ZM344.483 449.786L370.038 424.231V449.786V475.341L344.483 449.786ZM370.786 450.689L395.967 475.87H370.786V450.689ZM397.244 449.631V397.773L423.064 423.593L475.341 475.87H423.483L397.244 449.631ZM423.702 370.567L449.941 344.328H501.799L475.98 370.147L423.702 422.425V370.567ZM515.931 409.57L477.148 370.786H528.786V396.715L515.931 409.57ZM528.786 397.773V422.425L516.46 410.099L528.786 397.773ZM528.786 370.038H477.148L528.786 318.399V370.038ZM568.847 277.28L556.522 264.954H581.173L568.847 277.28ZM568.318 277.809L529.535 316.592L529.534 264.954H555.463L568.318 277.809ZM529.315 264.206L477.147 212.038H502.547L554.715 264.206H529.315ZM475.87 211.664C475.87 211.713 475.88 211.761 475.899 211.807C475.918 211.853 475.945 211.894 475.98 211.929L528.257 264.206H476.399L423.857 211.664L475.87 159.651V211.664ZM423.857 158.748L449.786 132.819L475.715 158.748L449.786 184.677L423.857 158.748ZM370.787 105.458L370.786 80.2774L395.967 105.458L370.787 105.458ZM370.038 79.5291V105.458H318.4L344.219 79.6387L357.183 66.6743L370.038 79.5291ZM343.425 79.3742L317.496 105.303L291.567 79.3741L317.496 53.445L343.425 79.3742ZM290.774 79.6386L316.593 105.458L291.039 105.458C291.039 105.458 291.038 105.458 291.039 105.458H264.954V53.819L290.774 79.6386ZM343.799 159.122L356.654 171.977L317.87 210.761V159.122H343.799ZM317.122 210.761L265.484 159.122L317.122 159.122L317.122 210.761ZM237.219 211.29H212.568L224.893 198.964L237.219 211.29ZM237.593 238.122L212.038 263.677L212.038 238.123C212.038 238.123 212.038 238.122 212.038 238.123L212.038 212.567L237.593 238.122ZM211.29 237.219L186.11 212.038H211.29L211.29 237.219ZM184.832 238.277V290.135L159.013 264.315L106.736 212.038H158.593L184.832 238.277ZM158.374 265.483L158.374 317.122H106.736L158.374 265.483ZM184.303 317.87L132.135 370.038H106.736L158.903 317.87H184.303ZM106.207 370.786H132.29C132.29 370.786 132.29 370.786 132.29 370.786H157.845L106.207 422.425V370.786ZM210.761 422.954H185.207H159.122V371.315L210.761 422.954ZM237.967 476.618L250.822 489.473L212.038 528.257L212.038 476.618H237.967ZM251.351 490.002L264.206 502.857V528.786H212.568L251.351 490.002ZM290.883 529.534L317.122 555.773V581.173L265.484 529.534H290.883ZM317.122 582.231V608.16H291.412V556.521L317.122 582.231ZM317.87 582.979L343.051 608.16H317.87V582.979ZM369.883 582.076L343.954 608.005L318.025 582.076L343.954 556.147L369.883 582.076ZM370.038 581.172L344.483 555.618L370.038 530.063V555.618V581.172ZM396.496 554.714L370.786 529.005V503.076H396.496V554.714ZM344.858 502.328L370.412 476.773L395.967 502.328H344.858ZM371.316 476.618H396.715L436.028 515.931L423.328 528.631L371.316 476.618ZM436.557 515.402L423.702 502.547V476.618H475.341L436.557 515.402ZM502.702 422.954H476.618V371.315L528.257 422.954H502.702ZM529.534 422.425V397.025L581.702 344.857V370.257L529.534 422.425ZM582.45 369.509V343.954V317.87H634.089L582.45 369.509ZM634.089 317.122H582.076C582.027 317.122 581.979 317.132 581.933 317.151C581.887 317.17 581.846 317.197 581.812 317.231L529.534 369.508V317.651L582.076 265.109L634.089 317.122ZM555.773 264.206L503.605 212.038H529.005L581.173 264.206H555.773ZM528.257 211.29H502.702L476.619 211.29L476.618 159.652L528.257 211.29ZM449.257 132.29L423.702 157.845V132.29V106.735L449.257 132.29ZM422.425 105.458H397.025L357.712 66.1452L370.412 53.445L422.425 105.458ZM343.954 78.845L318.4 53.29H343.954C343.954 53.29 343.954 53.29 343.955 53.29H369.509L343.954 78.845ZM317.341 52.542H291.412L291.412 26.832H343.051L317.341 52.542ZM290.664 27.361V52.916L290.664 78.4707L265.109 52.916L290.664 27.361ZM264.206 53.819V105.832C264.206 105.881 264.216 105.929 264.235 105.975C264.254 106.021 264.282 106.062 264.316 106.097L316.593 158.374H264.736L212.194 105.832L264.206 53.819ZM263.677 159.122L251.351 171.448L239.026 159.122L263.677 159.122ZM250.822 171.977L212.038 210.761L212.038 159.122H237.967L250.822 171.977ZM211.29 159.122V210.761L159.652 159.122L211.29 159.122ZM158.748 159.277L210.761 211.29L185.361 211.29L146.049 171.977L158.748 159.277ZM145.519 172.506L158.374 185.361L158.374 211.29L106.736 211.29L145.519 172.506ZM105.458 264.954V290.135L80.278 264.954H105.458ZM79.219 264.954L118.532 304.267L105.832 316.967L53.82 264.954H79.219ZM53.291 317.87H78.471L53.291 343.051V317.87ZM53.291 344.109L92.603 304.796L105.303 317.496L53.291 369.509V344.109ZM53.446 370.412L105.987 317.87H157.845L105.568 370.147C105.533 370.182 105.506 370.223 105.487 370.269C105.468 370.315 105.458 370.363 105.458 370.412V422.425L53.446 370.412ZM158.374 371.315V423.328C158.374 423.377 158.384 423.425 158.403 423.471C158.422 423.517 158.449 423.558 158.484 423.593L210.761 475.87H158.903L106.362 423.328L158.374 371.315ZM159.652 476.618H211.29L211.29 528.257L159.652 476.618ZM212.568 529.534H264.425L290.664 555.773V607.631L212.568 529.534ZM343.051 608.908L317.496 634.463L291.941 608.908H343.051Z" fill="white"/>
</svg>
