<svg width="887" height="569" viewBox="0 0 887 569" fill="none" xmlns="http://www.w3.org/2000/svg">
<path opacity="0.03" d="M948.555 499.778L948.772 499.561L949.821 498.511L1001.25 447.087L1002.29 446.038L1002.51 445.821L1002.51 395.88L1027.48 420.85L1028.53 419.801L1002.51 393.781L1002.51 343.407L1053.72 394.614L1054.77 393.564L1054.99 393.347L1054.99 290.933L1106.19 342.14L1107.24 341.091L1132.43 315.903L1133.48 314.854L1210.92 237.41L1211.14 237.193L1212.19 236.144L1212.41 235.926L1211.97 235.926L1107.77 131.721L1210.92 28.5657L1210.92 131.721C1210.92 131.817 1210.94 131.913 1210.98 132.003C1211.02 132.093 1211.07 132.176 1211.14 132.246L1263.61 184.72L1264.66 183.67L1213.46 132.463H1263.83L1289.85 158.483L1290.9 157.434L1265.93 132.463L1315.87 132.464L1316.09 132.246L1317.14 131.197L1317.35 130.979L1421.03 27.299L1422.3 26.0323L1525.76 -77.4309L1526.51 -78.1729L1525.76 -78.9151L1422.08 -182.595L1421.03 -183.645L1420.82 -183.862L1317.14 -287.542L1315.87 -288.809L1212.41 -392.272L1212.19 -392.489L1211.14 -393.539L1158.67 -446.012L1107.46 -497.219L1105.97 -498.703L1002.29 -602.383L1001.25 -603.433L1001.03 -603.65L951.088 -603.65L976.058 -628.62L975.009 -629.67L948.989 -603.65L898.614 -603.65L949.821 -654.857L948.772 -655.906L948.555 -656.124L846.141 -656.124L897.348 -707.331L896.823 -707.855L845.091 -656.124L843.607 -654.639L792.401 -603.433L791.351 -602.383L791.134 -602.166L687.454 -498.486L686.404 -497.436L686.187 -497.219L686.621 -497.219L790.084 -393.756L739.71 -393.756L661.217 -472.249L660.167 -471.2L737.611 -393.756L687.236 -393.756L634.98 -446.012L633.931 -444.963L685.137 -393.756L582.724 -393.756L582.507 -393.539L581.457 -392.489L556.27 -367.302L555.22 -366.253L477.777 -288.809L477.559 -288.592L476.51 -287.542L580.19 -183.862L477.342 -183.862L425.303 -235.901L425.303 -236.335L425.086 -236.118L424.036 -235.069L475.243 -183.862L424.868 -183.862L398.849 -209.881L397.8 -208.832L422.77 -183.862L372.83 -183.862L372.612 -183.645L371.563 -182.595L371.345 -182.378L267.141 -78.1729L267.665 -77.6481L371.346 -181.328L371.346 -78.4803L319.307 -26.4413L318.872 -26.4413L319.089 -26.2241L320.139 -25.1746L371.345 -76.3811L371.345 -26.0065L345.326 0.0127151L346.376 1.06219L371.345 -23.9076L371.345 26.032L371.563 26.2495L372.612 27.2989L476.293 130.979L476.51 131.197L477.559 132.246L581.457 236.144L582.724 237.41L686.187 340.873L686.404 341.091L687.454 342.14L687.671 342.357L843.607 498.294L845.091 499.778L896.823 551.51L948.555 499.778ZM583.773 132.463L634.148 132.463L737.611 235.926L687.236 235.926L583.773 132.463ZM424.254 -78.9148H372.83L372.83 -181.328L449.749 -104.41L424.254 -78.9148ZM477.777 -130.954V-182.378L580.19 -182.378L503.272 -105.459L477.777 -130.954ZM632.664 -288.809H582.724L582.724 -338.749L632.664 -288.809ZM634.148 -287.325L686.187 -235.286V-184.911L583.773 -287.325L634.148 -287.325ZM791.134 -391.223L791.134 -288.809H739.71L714.215 -314.304L791.134 -391.223ZM793.667 -497.219L844.042 -497.219L947.505 -393.756L897.131 -393.756L793.667 -497.219ZM845.091 -602.166L895.032 -602.166L845.091 -552.226L845.091 -602.166ZM1105.97 -445.18V-394.806L1003.56 -497.219L1053.94 -497.219L1105.97 -445.18ZM1056.04 -497.219L1105.98 -497.219L1105.97 -447.279L1056.04 -497.219ZM1420.82 -26.0071L1317.35 77.4561V27.0814L1420.82 -76.3817L1420.82 -26.0071ZM1056.04 237.41L1105.97 237.411L1105.97 287.35L1056.04 237.41ZM1054.55 235.926L1002.51 183.887L1002.51 133.512L1104.93 235.926L1054.55 235.926ZM686.621 132.463L790.084 235.926L739.71 235.926L636.247 132.463H686.621ZM896.516 -497.219L999.979 -393.756L949.604 -393.756L846.141 -497.219L896.516 -497.219ZM1107.46 24.9828V-25.3918L1159.5 -77.4309L1209.87 -77.4309L1107.46 24.9828ZM895.032 235.926L844.657 235.926L741.194 132.463L791.568 132.463L895.032 235.926ZM844.349 -182.378L844.349 -182.378L896.081 -182.378V-79.9648L844.874 -131.171L793.668 -182.378L844.349 -182.378ZM1105.97 -392.707V-341.283L1054.99 -341.283L1054.99 -443.696L1105.97 -392.707ZM1157.4 -339.799L1106.72 -289.117L1056.04 -339.799L1157.4 -339.799ZM1263.4 -78.9148H1213.46L1263.4 -128.855V-78.9148ZM1028.01 51.9615L1002.82 26.7745L1105.98 -76.3809L1105.98 -26.0068L1028.01 51.9615ZM792.183 235.926L688.72 132.463L739.095 132.463L842.558 235.926L792.183 235.926ZM634.763 27.5162H686.187V129.93L609.268 53.011L634.763 27.5162ZM687.671 -77.4311L737.611 -77.4309L687.671 -27.491V-77.4311ZM739.71 -77.4309L790.085 -77.4309L687.671 24.9825V-25.3921L739.71 -77.4309ZM1160.24 -130.646L1211.66 -182.07L1263.09 -130.646L1211.66 -79.2223L1160.24 -130.646ZM792.183 -77.4309H843.608V-26.4413L741.194 -26.4415L792.183 -77.4309ZM845.091 -128.855L895.773 -78.1731L845.091 -27.4913V-128.855ZM897.565 -25.3916L1001.03 -128.855V-78.4801L897.565 24.983L897.565 -25.3916ZM1053.5 -339.799L1053.5 -237.385L1002.51 -288.374V-339.799L1053.5 -339.799ZM1002.51 -77.4306H1104.93L1002.51 24.9825L1002.51 -77.4306ZM1002.51 -286.275L1104.93 -183.862H1054.55L1002.51 -235.901L1002.51 -286.275ZM1056.04 -182.378L1105.98 -182.378L1105.98 -132.438L1056.04 -182.378ZM1107.46 -130.954V-182.378L1209.87 -182.378L1158.67 -131.171L1132.95 -105.459L1107.46 -130.954ZM1052.45 -183.862H1002.51V-233.802L1052.45 -183.862ZM1053.94 -182.378L1131.9 -104.41L1106.72 -79.2223L1003.56 -182.378L1053.94 -182.378ZM1107.02 -183.862L1054.99 -235.901V-338.749L1209.87 -183.862H1107.02ZM1001.03 -289.858L951.089 -339.798L1001.03 -339.798L1001.03 -289.858ZM1001.03 -235.593L1001.03 -235.593L1001.03 -184.911L950.346 -235.593L1001.03 -286.276L1001.03 -235.593ZM1026.96 -156.883L1002.51 -132.438L1002.51 -181.328L1026.96 -156.883ZM1028.01 -155.833L1104.93 -78.9146H1002.51V-130.339L1028.01 -155.833ZM896.823 27.5165C896.92 27.5167 897.016 27.4968 897.107 27.4592C897.197 27.4215 897.28 27.3677 897.348 27.2995L1001.03 -76.3809L1001.03 26.4667L948.772 78.723L896.823 130.672L793.668 27.5167L896.823 27.5165ZM1052.45 -341.282L1001.77 -341.283C1001.77 -341.283 1001.77 -341.283 1001.77 -341.282C1001.77 -341.282 1001.77 -341.282 1001.77 -341.282L951.089 -341.283L1001.77 -391.964L1052.45 -341.282ZM1000.72 -288.067L949.297 -236.643L897.873 -288.067L949.297 -339.491L1000.72 -288.067ZM1001.03 -130.954L897.565 -27.4905V-77.8651L1001.03 -181.328L1001.03 -130.954ZM896.081 -25.6993L896.081 -25.6988V26.0322H793.667L896.081 -76.3814L896.081 -25.6993ZM843.608 -78.9153L793.668 -78.9151L843.608 -128.855L843.608 -78.9153ZM686.187 26.0317L636.247 26.032L686.187 -23.9081L686.187 26.0317ZM688.721 130.979L713.166 106.534L737.611 130.979L688.721 130.979ZM687.671 129.93L687.671 27.0815L739.71 -24.9576H842.558L791.351 26.2492L687.671 129.93ZM1107.46 -77.4309H1157.4L1107.46 -27.4908V-77.4309ZM1159.19 -78.9148L1159.19 -78.9148H1108.51L1159.19 -129.597L1209.87 -78.9148L1159.19 -78.9148ZM791.876 -182.07L843.3 -130.646L791.876 -79.2226L740.452 -130.647L791.876 -182.07ZM790.085 -78.9153L739.403 -78.9153L739.402 -78.9153L688.721 -78.9151L739.403 -129.597L790.085 -78.9153ZM686.187 -26.0068L608.219 51.9613L583.032 26.7739L686.187 -76.3817L686.187 -26.0068ZM793.667 237.41H844.349H844.349L896.081 237.41L896.081 339.824L793.667 237.41ZM739.71 130.979L714.215 105.485L791.134 28.5657L791.134 130.979L739.71 130.979ZM792.618 28.5659L895.032 130.979L792.618 130.979L792.618 28.5659ZM897.873 131.722L949.297 80.2975L1000.72 131.721L949.297 183.145L897.873 131.722ZM951.088 79.9897H1001.03V129.93L951.088 79.9897ZM1002.51 131.414V79.9897L1053.5 79.9897L1053.5 182.403L1002.51 131.414ZM951.089 78.5058L1001.77 27.8239L1052.45 78.5058H951.089ZM1029.06 53.011L1054.55 27.5162H1105.98L1105.98 129.93L1029.06 53.011ZM1056.04 26.0322L1105.98 -23.9079L1105.98 26.0323L1056.04 26.0322ZM1211.97 -77.4309H1263.4L1263.4 -26.4413H1160.98L1211.97 -77.4309ZM1264.88 -128.855L1315.56 -78.1729L1264.88 -27.4908V-128.855ZM1213.46 -182.378L1315.87 -182.378L1315.87 -79.9643L1213.46 -182.378ZM1107.46 -341.283L1107.46 -391.223L1157.4 -341.283L1107.46 -341.283ZM1053.5 -445.18V-342.332L898.614 -497.219H1001.46L1053.5 -445.18ZM999.979 -392.272L975.533 -367.827L951.088 -392.272L999.979 -392.272ZM895.031 -288.809L792.618 -288.809L792.618 -391.222L895.031 -288.809ZM896.516 -287.325L948.772 -235.069L1000.72 -183.12L897.565 -79.9643L897.565 -183.12C897.565 -183.216 897.545 -183.313 897.508 -183.404C897.47 -183.494 897.416 -183.576 897.347 -183.644L793.668 -287.325L896.516 -287.325ZM895.031 -183.862H844.657L741.194 -287.325L791.568 -287.325L895.031 -183.862ZM842.558 -183.862L792.183 -183.862L688.72 -287.325L739.095 -287.325L842.558 -183.862ZM790.826 -183.12L739.402 -131.696L687.978 -183.12L739.402 -234.544L790.826 -183.12ZM737.611 -131.389L687.671 -131.388V-181.328L737.611 -131.389ZM686.187 -182.813L686.187 -131.389L635.197 -131.388L635.197 -233.802L686.187 -182.813ZM737.611 -129.904L686.929 -79.2223L636.247 -129.904L737.611 -129.904ZM659.643 -104.41L634.148 -78.9148L582.724 -78.9148V-181.328L659.643 -104.41ZM660.692 -103.36L685.137 -78.9148H636.247L660.692 -103.36ZM685.137 -77.4309L581.674 26.0322L531.3 26.0322L634.763 -77.4309H685.137ZM790.084 237.411L765.639 261.856L741.194 237.41L790.084 237.411ZM842.558 340.873L792.618 340.873L792.618 290.933L842.558 340.873ZM766.689 262.905L791.876 237.718L895.032 340.873L844.657 340.873L766.689 262.905ZM896.081 342.358L896.081 392.297L846.141 342.357L896.081 342.358ZM897.565 394.089L897.565 394.089L897.565 343.407L948.247 394.089L897.565 444.771L897.565 394.089ZM897.873 341.615L949.297 290.191L1000.72 341.615L949.297 393.04L897.873 341.615ZM951.088 289.884H1001.03L1001.03 339.824L951.088 289.884ZM948.772 288.617L897.565 339.824L897.565 236.669C897.565 236.572 897.545 236.476 897.508 236.385C897.47 236.294 897.416 236.212 897.348 236.144L793.667 132.464L896.516 132.464L948.772 184.72L1000.72 236.669L948.772 288.617ZM950.346 184.195L1001.03 133.513L1001.03 184.194L1001.03 184.195L1001.03 234.877L950.346 184.195ZM1002.51 185.986L1052.45 235.926L1002.51 235.926V185.986ZM1054.99 183.887V81.0392L1106.19 132.246L1209.87 235.926H1107.02L1054.99 183.887ZM1107.46 27.0817L1159.5 -24.9573H1262.35L1211.14 26.2492L1107.46 129.93L1107.46 27.0817ZM1290.37 104.435L1213.46 27.516L1315.87 27.5162V78.9402L1290.37 104.435ZM1315.87 81.0392V129.93L1291.42 105.485L1315.87 81.0392ZM1315.87 26.0317L1213.46 26.032L1315.87 -76.3816L1315.87 26.0317ZM1395.32 -157.933L1370.88 -182.378L1419.77 -182.378L1395.32 -157.933ZM1394.27 -156.883L1317.35 -79.9648L1317.35 -182.378H1368.78L1394.27 -156.883ZM1316.92 -183.862L1213.46 -287.325H1263.83L1367.29 -183.862H1316.92ZM1210.92 -288.067C1210.92 -287.97 1210.94 -287.874 1210.98 -287.783C1211.02 -287.693 1211.07 -287.611 1211.14 -287.542L1314.82 -183.862H1211.97L1107.77 -288.067L1210.92 -391.223L1210.92 -288.067ZM1107.77 -393.014L1159.19 -444.438L1210.61 -393.014L1159.19 -341.59L1107.77 -393.014ZM1002.51 -498.703L1002.51 -548.643L1052.45 -498.703L1002.51 -498.703ZM1001.03 -550.127L1001.03 -498.703L898.615 -498.703L949.821 -549.91L975.533 -575.622L1001.03 -550.127ZM948.247 -550.435L896.823 -499.011L845.399 -550.435L896.823 -601.859L948.247 -550.435ZM843.825 -549.91L895.031 -498.703L844.35 -498.703C844.35 -498.703 844.349 -498.703 844.348 -498.703L792.618 -498.703L792.618 -601.117L843.825 -549.91ZM948.989 -392.272L974.484 -366.777L897.565 -289.858L897.565 -392.272H948.989ZM896.081 -289.859L793.668 -392.272L896.081 -392.272L896.081 -289.859ZM737.611 -288.809L688.721 -288.809L713.166 -313.255L737.611 -288.809ZM738.353 -235.593L687.671 -184.911L687.671 -235.592C687.671 -235.593 687.671 -235.593 687.671 -235.594V-286.276L738.353 -235.593ZM686.187 -237.385L636.247 -287.325L686.187 -287.325L686.187 -237.385ZM633.713 -235.286L633.713 -132.438L582.507 -183.645L478.826 -287.325L581.674 -287.325L633.713 -235.286ZM581.24 -181.328L581.24 -78.9151L478.826 -78.9148L581.24 -181.328ZM632.664 -77.4309L529.201 26.0322L478.826 26.0322L582.289 -77.4309H632.664ZM477.777 27.5162L529.507 27.5159C529.508 27.5159 529.509 27.5159 529.509 27.5159L580.19 27.5165L477.777 129.93L477.777 27.5162ZM685.137 130.979L634.456 130.979L634.455 130.979L582.724 130.979L582.724 28.5657L685.137 130.979ZM739.095 237.41L764.59 262.905L687.671 339.824L687.671 237.41H739.095ZM765.639 263.955L791.134 289.449V340.873L688.72 340.873L765.639 263.955ZM844.042 342.357L896.081 394.396L896.081 444.771L793.667 342.357L844.042 342.357ZM896.081 446.87V498.294L845.091 498.294L845.091 395.88L896.081 446.87ZM897.565 448.354L947.505 498.294L897.565 498.294L897.565 448.354ZM1000.72 446.562L949.297 497.987L897.872 446.562L949.297 395.138L1000.72 446.562ZM1001.03 444.771L950.346 394.089L1001.03 343.407L1001.03 394.088L1001.03 394.089L1001.03 444.771ZM1053.5 392.297L1002.51 341.308V289.884L1053.5 289.884L1053.5 392.297ZM951.088 288.4L1001.77 237.718L1052.45 288.4H951.088ZM1003.56 237.41L1053.94 237.41L1131.9 315.379L1106.72 340.566L1003.56 237.41ZM1132.95 314.329L1107.46 288.834V237.41L1209.87 237.41L1132.95 314.329ZM1264.14 130.979H1264.14H1212.41L1212.41 28.5654L1314.82 130.979L1264.14 130.979ZM1317.35 129.93L1317.35 79.555L1420.82 -23.9081L1420.82 26.4664L1317.35 129.93ZM1422.3 24.9825L1422.3 -25.699V-25.6996V-77.4306L1524.71 -77.4312L1422.3 24.9825ZM1524.71 -78.9151H1421.56C1421.46 -78.9154 1421.37 -78.8954 1421.27 -78.8579C1421.18 -78.8204 1421.1 -78.7663 1421.03 -78.6981L1317.35 24.9823V-77.8653L1421.56 -182.07L1524.71 -78.9151ZM1369.39 -183.862L1265.93 -287.325H1316.3L1419.77 -183.862L1369.39 -183.862ZM1314.82 -288.809H1264.14H1264.14L1212.41 -288.809L1212.41 -391.222L1314.82 -288.809ZM1158.14 -445.488L1107.46 -394.805L1107.46 -445.487C1107.46 -445.487 1107.46 -445.488 1107.46 -445.488L1107.46 -496.17L1158.14 -445.488ZM1104.93 -498.703L1054.55 -498.703L976.583 -576.671L1001.77 -601.859L1104.93 -498.703ZM949.297 -551.484L898.614 -602.166L949.296 -602.166C949.297 -602.166 949.297 -602.166 949.298 -602.166L999.978 -602.166L949.297 -551.484ZM896.515 -603.65L845.091 -603.65L845.091 -654.64L947.505 -654.64L896.516 -603.65L896.515 -603.65ZM843.608 -653.59L843.607 -602.908L843.607 -552.226L792.925 -602.908L843.608 -653.59ZM791.134 -601.117L791.134 -497.962C791.134 -497.865 791.153 -497.769 791.191 -497.678C791.229 -497.587 791.283 -497.505 791.351 -497.437L895.032 -393.756H792.184L687.978 -497.961L791.134 -601.117ZM790.084 -392.272L765.639 -367.827L741.194 -392.272L790.084 -392.272ZM764.59 -366.777L687.671 -289.858L687.671 -392.272H739.095L764.59 -366.777ZM686.187 -392.272L686.187 -289.859L583.773 -392.272L686.187 -392.272ZM581.982 -391.965L685.137 -288.809H634.763L556.795 -366.777L581.982 -391.965ZM555.745 -365.728L581.24 -340.233V-288.809L478.826 -288.809L555.745 -365.728ZM476.293 -182.378V-132.438L426.353 -182.378L476.293 -182.378ZM424.254 -182.378L502.222 -104.41L477.035 -79.2223L373.879 -182.378L424.254 -182.378ZM372.83 -77.4309L422.77 -77.4306L372.83 -27.4908L372.83 -77.4309ZM372.83 -25.3918L450.798 -103.36L475.985 -78.1729L372.83 24.9828L372.83 -25.3918ZM373.137 26.7742L477.342 -77.4309H580.19L476.51 26.2495C476.442 26.3177 476.387 26.3998 476.35 26.4903C476.312 26.5814 476.293 26.6779 476.293 26.7747L476.293 129.93L373.137 26.7742ZM581.24 28.5659L581.24 131.721C581.239 131.818 581.259 131.914 581.297 132.005C581.335 132.096 581.389 132.178 581.457 132.246L685.137 235.926L582.289 235.926L478.084 131.721L581.24 28.5659ZM583.773 237.41L686.187 237.411L686.187 339.824L583.773 237.41ZM688.72 342.357L791.568 342.357L843.608 394.396L843.608 497.245L688.72 342.357ZM947.505 499.778L896.823 550.46L846.141 499.778L947.505 499.778Z" fill="white"/>
</svg>
