<svg width="887" height="569" viewBox="0 0 887 569" fill="none" xmlns="http://www.w3.org/2000/svg">
<path opacity="0.03" d="M948.559 499.778L948.776 499.561L949.825 498.511L1001.25 447.087L1002.3 446.038L1002.52 445.821L1002.52 395.88L1027.49 420.85L1028.54 419.801L1002.52 393.781L1002.52 343.407L1053.72 394.614L1054.77 393.564L1054.99 393.347L1054.99 290.933L1106.2 342.14L1107.25 341.091L1132.43 315.903L1133.48 314.854L1210.93 237.41L1211.14 237.193L1212.19 236.144L1212.41 235.926L1211.98 235.926L1107.77 131.721L1210.93 28.5657L1210.93 131.721C1210.93 131.817 1210.94 131.913 1210.98 132.003C1211.02 132.093 1211.07 132.176 1211.14 132.246L1263.62 184.72L1264.67 183.67L1213.46 132.463H1263.83L1289.85 158.483L1290.9 157.434L1265.93 132.463L1315.87 132.464L1316.09 132.246L1317.14 131.197L1317.36 130.979L1421.04 27.299L1422.3 26.0323L1525.77 -77.4309L1526.51 -78.1729L1525.77 -78.9151L1422.09 -182.595L1421.04 -183.645L1420.82 -183.862L1317.14 -287.542L1315.87 -288.809L1212.41 -392.272L1212.19 -392.489L1211.14 -393.539L1158.67 -446.012L1107.46 -497.219L1105.98 -498.703L1002.3 -602.383L1001.25 -603.433L1001.03 -603.65L951.092 -603.65L976.062 -628.62L975.013 -629.67L948.993 -603.65L898.618 -603.65L949.825 -654.857L948.776 -655.906L948.559 -656.124L846.145 -656.124L897.352 -707.331L896.827 -707.855L845.095 -656.124L843.611 -654.639L792.405 -603.433L791.355 -602.383L791.138 -602.166L687.458 -498.486L686.408 -497.436L686.191 -497.219L686.625 -497.219L790.088 -393.756L739.714 -393.756L661.221 -472.249L660.171 -471.2L737.615 -393.756L687.24 -393.756L634.984 -446.012L633.935 -444.963L685.141 -393.756L582.728 -393.756L582.51 -393.539L581.461 -392.489L556.274 -367.302L555.224 -366.253L477.781 -288.809L477.563 -288.592L476.514 -287.542L580.194 -183.862L477.346 -183.862L425.307 -235.901L425.307 -236.335L425.09 -236.118L424.04 -235.069L475.247 -183.862L424.872 -183.862L398.853 -209.881L397.804 -208.832L422.773 -183.862L372.834 -183.862L372.616 -183.645L371.567 -182.595L371.349 -182.378L267.145 -78.1729L267.669 -77.6481L371.35 -181.328L371.35 -78.4803L319.311 -26.4413L318.876 -26.4413L319.093 -26.2241L320.143 -25.1746L371.349 -76.3811L371.349 -26.0065L345.33 0.0127151L346.38 1.06219L371.349 -23.9076L371.349 26.032L371.567 26.2495L372.616 27.2989L476.296 130.979L476.514 131.197L477.563 132.246L581.461 236.144L582.728 237.41L686.191 340.873L686.408 341.091L687.458 342.14L687.675 342.357L843.611 498.294L845.095 499.778L896.827 551.51L948.559 499.778ZM583.777 132.463L634.152 132.463L737.615 235.926L687.24 235.926L583.777 132.463ZM424.258 -78.9148H372.834L372.834 -181.328L449.752 -104.41L424.258 -78.9148ZM477.781 -130.954V-182.378L580.194 -182.378L503.275 -105.459L477.781 -130.954ZM632.668 -288.809H582.727L582.728 -338.749L632.668 -288.809ZM634.152 -287.325L686.191 -235.286V-184.911L583.777 -287.325L634.152 -287.325ZM791.138 -391.223L791.138 -288.809H739.714L714.219 -314.304L791.138 -391.223ZM793.671 -497.219L844.046 -497.219L947.509 -393.756L897.134 -393.756L793.671 -497.219ZM845.095 -602.166L895.036 -602.166L845.095 -552.226L845.095 -602.166ZM1105.98 -445.18V-394.806L1003.57 -497.219L1053.94 -497.219L1105.98 -445.18ZM1056.04 -497.219L1105.98 -497.219L1105.98 -447.279L1056.04 -497.219ZM1420.82 -26.0071L1317.36 77.4561V27.0814L1420.82 -76.3817L1420.82 -26.0071ZM1056.04 237.41L1105.98 237.411L1105.98 287.35L1056.04 237.41ZM1054.55 235.926L1002.52 183.887L1002.52 133.512L1104.93 235.926L1054.55 235.926ZM686.625 132.463L790.088 235.926L739.714 235.926L636.251 132.463H686.625ZM896.519 -497.219L999.983 -393.756L949.608 -393.756L846.145 -497.219L896.519 -497.219ZM1107.46 24.9828V-25.3918L1159.5 -77.4309L1209.88 -77.4309L1107.46 24.9828ZM895.035 235.926L844.661 235.926L741.198 132.463L791.572 132.463L895.035 235.926ZM844.353 -182.378L844.353 -182.378L896.084 -182.378V-79.9648L844.878 -131.171L793.672 -182.378L844.353 -182.378ZM1105.98 -392.707V-341.283L1054.99 -341.283L1054.99 -443.696L1105.98 -392.707ZM1157.4 -339.799L1106.72 -289.117L1056.04 -339.799L1157.4 -339.799ZM1263.4 -78.9148H1213.46L1263.4 -128.855V-78.9148ZM1028.01 51.9615L1002.82 26.7745L1105.98 -76.3809L1105.98 -26.0068L1028.01 51.9615ZM792.187 235.926L688.724 132.463L739.099 132.463L842.562 235.926L792.187 235.926ZM634.767 27.5162H686.191V129.93L609.272 53.011L634.767 27.5162ZM687.675 -77.4311L737.615 -77.4309L687.675 -27.491V-77.4311ZM739.714 -77.4309L790.088 -77.4309L687.675 24.9825V-25.3921L739.714 -77.4309ZM1160.24 -130.646L1211.67 -182.07L1263.09 -130.646L1211.67 -79.2223L1160.24 -130.646ZM792.187 -77.4309H843.611V-26.4413L741.198 -26.4415L792.187 -77.4309ZM845.095 -128.855L895.777 -78.1731L845.095 -27.4913V-128.855ZM897.569 -25.3916L1001.03 -128.855V-78.4801L897.569 24.983L897.569 -25.3916ZM1053.51 -339.799L1053.51 -237.385L1002.52 -288.374V-339.799L1053.51 -339.799ZM1002.52 -77.4306H1104.93L1002.52 24.9825L1002.52 -77.4306ZM1002.52 -286.275L1104.93 -183.862H1054.56L1002.52 -235.901L1002.52 -286.275ZM1056.04 -182.378L1105.98 -182.378L1105.98 -132.438L1056.04 -182.378ZM1107.46 -130.954V-182.378L1209.88 -182.378L1158.67 -131.171L1132.96 -105.459L1107.46 -130.954ZM1052.46 -183.862H1002.52V-233.802L1052.46 -183.862ZM1053.94 -182.378L1131.91 -104.41L1106.72 -79.2223L1003.57 -182.378L1053.94 -182.378ZM1107.03 -183.862L1054.99 -235.901V-338.749L1209.88 -183.862H1107.03ZM1001.03 -289.858L951.092 -339.798L1001.03 -339.798L1001.03 -289.858ZM1001.03 -235.593L1001.03 -235.593L1001.03 -184.911L950.35 -235.593L1001.03 -286.276L1001.03 -235.593ZM1026.96 -156.883L1002.52 -132.438L1002.52 -181.328L1026.96 -156.883ZM1028.01 -155.833L1104.93 -78.9146H1002.52V-130.339L1028.01 -155.833ZM896.827 27.5165C896.923 27.5167 897.02 27.4968 897.111 27.4592C897.201 27.4215 897.283 27.3677 897.352 27.2995L1001.03 -76.3809L1001.03 26.4667L948.776 78.723L896.827 130.672L793.672 27.5167L896.827 27.5165ZM1052.46 -341.282L1001.77 -341.283C1001.77 -341.283 1001.77 -341.283 1001.77 -341.282C1001.77 -341.282 1001.77 -341.282 1001.77 -341.282L951.092 -341.283L1001.77 -391.964L1052.46 -341.282ZM1000.72 -288.067L949.3 -236.643L897.877 -288.067L949.301 -339.491L1000.72 -288.067ZM1001.03 -130.954L897.569 -27.4905V-77.8651L1001.03 -181.328L1001.03 -130.954ZM896.085 -25.6993L896.085 -25.6988V26.0322H793.671L896.085 -76.3814L896.085 -25.6993ZM843.611 -78.9153L793.672 -78.9151L843.612 -128.855L843.611 -78.9153ZM686.191 26.0317L636.251 26.032L686.191 -23.9081L686.191 26.0317ZM688.725 130.979L713.17 106.534L737.615 130.979L688.725 130.979ZM687.675 129.93L687.675 27.0815L739.714 -24.9576H842.562L791.355 26.2492L687.675 129.93ZM1107.46 -77.4309H1157.4L1107.46 -27.4908V-77.4309ZM1159.19 -78.9148L1159.19 -78.9148H1108.51L1159.19 -129.597L1209.88 -78.9148L1159.19 -78.9148ZM791.88 -182.07L843.304 -130.646L791.88 -79.2226L740.456 -130.647L791.88 -182.07ZM790.088 -78.9153L739.407 -78.9153L739.406 -78.9153L688.724 -78.9151L739.407 -129.597L790.088 -78.9153ZM686.191 -26.0068L608.223 51.9613L583.035 26.7739L686.191 -76.3817L686.191 -26.0068ZM793.671 237.41H844.353H844.353L896.085 237.41L896.085 339.824L793.671 237.41ZM739.714 130.979L714.219 105.485L791.138 28.5657L791.138 130.979L739.714 130.979ZM792.622 28.5659L895.035 130.979L792.622 130.979L792.622 28.5659ZM897.877 131.722L949.301 80.2975L1000.72 131.721L949.3 183.145L897.877 131.722ZM951.092 79.9897H1001.03V129.93L951.092 79.9897ZM1002.52 131.414V79.9897L1053.51 79.9897L1053.51 182.403L1002.52 131.414ZM951.092 78.5058L1001.77 27.8239L1052.46 78.5058H951.092ZM1029.06 53.011L1054.56 27.5162H1105.98L1105.98 129.93L1029.06 53.011ZM1056.04 26.0322L1105.98 -23.9079L1105.98 26.0323L1056.04 26.0322ZM1211.98 -77.4309H1263.4L1263.4 -26.4413H1160.99L1211.98 -77.4309ZM1264.88 -128.855L1315.57 -78.1729L1264.88 -27.4908V-128.855ZM1213.46 -182.378L1315.87 -182.378L1315.87 -79.9643L1213.46 -182.378ZM1107.46 -341.283L1107.46 -391.223L1157.4 -341.283L1107.46 -341.283ZM1053.51 -445.18V-342.332L898.618 -497.219H1001.47L1053.51 -445.18ZM999.983 -392.272L975.537 -367.827L951.092 -392.272L999.983 -392.272ZM895.035 -288.809L792.622 -288.809L792.622 -391.222L895.035 -288.809ZM896.519 -287.325L948.776 -235.069L1000.72 -183.12L897.569 -79.9643L897.569 -183.12C897.569 -183.216 897.549 -183.313 897.511 -183.404C897.474 -183.494 897.42 -183.576 897.351 -183.644L793.672 -287.325L896.519 -287.325ZM895.035 -183.862H844.661L741.198 -287.325L791.572 -287.325L895.035 -183.862ZM842.562 -183.862L792.187 -183.862L688.724 -287.325L739.099 -287.325L842.562 -183.862ZM790.83 -183.12L739.406 -131.696L687.982 -183.12L739.406 -234.544L790.83 -183.12ZM737.615 -131.389L687.675 -131.388V-181.328L737.615 -131.389ZM686.191 -182.813L686.191 -131.389L635.201 -131.388L635.201 -233.802L686.191 -182.813ZM737.615 -129.904L686.933 -79.2223L636.251 -129.904L737.615 -129.904ZM659.647 -104.41L634.152 -78.9148L582.728 -78.9148V-181.328L659.647 -104.41ZM660.696 -103.36L685.141 -78.9148H636.251L660.696 -103.36ZM685.141 -77.4309L581.678 26.0322L531.304 26.0322L634.767 -77.4309H685.141ZM790.088 237.411L765.643 261.856L741.198 237.41L790.088 237.411ZM842.562 340.873L792.622 340.873L792.622 290.933L842.562 340.873ZM766.693 262.905L791.88 237.718L895.035 340.873L844.661 340.873L766.693 262.905ZM896.085 342.358L896.085 392.297L846.145 342.357L896.085 342.358ZM897.569 394.089L897.569 394.089L897.569 343.407L948.251 394.089L897.569 444.771L897.569 394.089ZM897.876 341.615L949.3 290.191L1000.72 341.615L949.3 393.04L897.876 341.615ZM951.092 289.884H1001.03L1001.03 339.824L951.092 289.884ZM948.776 288.617L897.569 339.824L897.569 236.669C897.569 236.572 897.549 236.476 897.512 236.385C897.474 236.294 897.42 236.212 897.352 236.144L793.671 132.464L896.52 132.464L948.775 184.72L1000.72 236.669L948.776 288.617ZM950.35 184.195L1001.03 133.513L1001.03 184.194L1001.03 184.195L1001.03 234.877L950.35 184.195ZM1002.52 185.986L1052.46 235.926L1002.52 235.926V185.986ZM1054.99 183.887V81.0392L1106.2 132.246L1209.88 235.926H1107.03L1054.99 183.887ZM1107.46 27.0817L1159.5 -24.9573H1262.35L1211.14 26.2492L1107.46 129.93L1107.46 27.0817ZM1290.38 104.435L1213.46 27.516L1315.87 27.5162V78.9402L1290.38 104.435ZM1315.87 81.0392V129.93L1291.43 105.485L1315.87 81.0392ZM1315.87 26.0317L1213.46 26.032L1315.87 -76.3816L1315.87 26.0317ZM1395.33 -157.933L1370.88 -182.378L1419.77 -182.378L1395.33 -157.933ZM1394.28 -156.883L1317.36 -79.9648L1317.36 -182.378H1368.78L1394.28 -156.883ZM1316.92 -183.862L1213.46 -287.325H1263.83L1367.3 -183.862H1316.92ZM1210.93 -288.067C1210.93 -287.97 1210.95 -287.874 1210.98 -287.783C1211.02 -287.693 1211.08 -287.611 1211.14 -287.542L1314.82 -183.862H1211.98L1107.77 -288.067L1210.93 -391.223L1210.93 -288.067ZM1107.77 -393.014L1159.19 -444.438L1210.62 -393.014L1159.19 -341.59L1107.77 -393.014ZM1002.52 -498.703L1002.52 -548.643L1052.46 -498.703L1002.52 -498.703ZM1001.03 -550.127L1001.03 -498.703L898.619 -498.703L949.825 -549.91L975.537 -575.622L1001.03 -550.127ZM948.251 -550.435L896.827 -499.011L845.403 -550.435L896.827 -601.859L948.251 -550.435ZM843.828 -549.91L895.035 -498.703L844.354 -498.703C844.353 -498.703 844.353 -498.703 844.352 -498.703L792.622 -498.703L792.622 -601.117L843.828 -549.91ZM948.993 -392.272L974.488 -366.777L897.569 -289.858L897.569 -392.272H948.993ZM896.085 -289.859L793.672 -392.272L896.085 -392.272L896.085 -289.859ZM737.615 -288.809L688.724 -288.809L713.17 -313.255L737.615 -288.809ZM738.357 -235.593L687.675 -184.911L687.675 -235.592C687.675 -235.593 687.675 -235.593 687.675 -235.594V-286.276L738.357 -235.593ZM686.191 -237.385L636.251 -287.325L686.191 -287.325L686.191 -237.385ZM633.717 -235.286L633.717 -132.438L582.51 -183.645L478.83 -287.325L581.678 -287.325L633.717 -235.286ZM581.244 -181.328L581.244 -78.9151L478.83 -78.9148L581.244 -181.328ZM632.668 -77.4309L529.205 26.0322L478.83 26.0322L582.293 -77.4309H632.668ZM477.781 27.5162L529.511 27.5159C529.512 27.5159 529.512 27.5159 529.513 27.5159L580.194 27.5165L477.781 129.93L477.781 27.5162ZM685.141 130.979L634.46 130.979L634.459 130.979L582.728 130.979L582.728 28.5657L685.141 130.979ZM739.099 237.41L764.594 262.905L687.675 339.824L687.675 237.41H739.099ZM765.643 263.955L791.138 289.449V340.873L688.724 340.873L765.643 263.955ZM844.046 342.357L896.085 394.396L896.085 444.771L793.671 342.357L844.046 342.357ZM896.085 446.87V498.294L845.095 498.294L845.095 395.88L896.085 446.87ZM897.569 448.354L947.509 498.294L897.569 498.294L897.569 448.354ZM1000.72 446.562L949.3 497.987L897.876 446.562L949.3 395.138L1000.72 446.562ZM1001.03 444.771L950.35 394.089L1001.03 343.407L1001.03 394.088L1001.03 394.089L1001.03 444.771ZM1053.51 392.297L1002.52 341.308V289.884L1053.51 289.884L1053.51 392.297ZM951.092 288.4L1001.77 237.718L1052.46 288.4H951.092ZM1003.57 237.41L1053.94 237.41L1131.91 315.379L1106.72 340.566L1003.57 237.41ZM1132.96 314.329L1107.46 288.834V237.41L1209.88 237.41L1132.96 314.329ZM1264.14 130.979H1264.14H1212.41L1212.41 28.5654L1314.82 130.979L1264.14 130.979ZM1317.36 129.93L1317.36 79.555L1420.82 -23.9081L1420.82 26.4664L1317.36 129.93ZM1422.3 24.9825L1422.3 -25.699V-25.6996V-77.4306L1524.72 -77.4312L1422.3 24.9825ZM1524.72 -78.9151H1421.56C1421.47 -78.9154 1421.37 -78.8954 1421.28 -78.8579C1421.19 -78.8204 1421.11 -78.7663 1421.04 -78.6981L1317.36 24.9823V-77.8653L1421.56 -182.07L1524.72 -78.9151ZM1369.4 -183.862L1265.93 -287.325H1316.31L1419.77 -183.862L1369.4 -183.862ZM1314.82 -288.809H1264.14H1264.14L1212.41 -288.809L1212.41 -391.222L1314.82 -288.809ZM1158.15 -445.488L1107.46 -394.805L1107.46 -445.487C1107.46 -445.487 1107.46 -445.488 1107.46 -445.488L1107.46 -496.17L1158.15 -445.488ZM1104.93 -498.703L1054.55 -498.703L976.587 -576.671L1001.77 -601.859L1104.93 -498.703ZM949.3 -551.484L898.618 -602.166L949.3 -602.166C949.3 -602.166 949.301 -602.166 949.301 -602.166L999.982 -602.166L949.3 -551.484ZM896.519 -603.65L845.095 -603.65L845.095 -654.64L947.509 -654.64L896.519 -603.65L896.519 -603.65ZM843.611 -653.59L843.611 -602.908L843.611 -552.226L792.929 -602.908L843.611 -653.59ZM791.138 -601.117L791.138 -497.962C791.138 -497.865 791.157 -497.769 791.195 -497.678C791.233 -497.587 791.287 -497.505 791.355 -497.437L895.036 -393.756H792.188L687.982 -497.961L791.138 -601.117ZM790.088 -392.272L765.643 -367.827L741.198 -392.272L790.088 -392.272ZM764.594 -366.777L687.675 -289.858L687.675 -392.272H739.099L764.594 -366.777ZM686.191 -392.272L686.191 -289.859L583.777 -392.272L686.191 -392.272ZM581.986 -391.965L685.141 -288.809H634.767L556.798 -366.777L581.986 -391.965ZM555.749 -365.728L581.244 -340.233V-288.809L478.83 -288.809L555.749 -365.728ZM476.296 -182.378V-132.438L426.357 -182.378L476.296 -182.378ZM424.258 -182.378L502.226 -104.41L477.039 -79.2223L373.883 -182.378L424.258 -182.378ZM372.834 -77.4309L422.773 -77.4306L372.834 -27.4908L372.834 -77.4309ZM372.834 -25.3918L450.802 -103.36L475.989 -78.1729L372.834 24.9828L372.834 -25.3918ZM373.141 26.7742L477.346 -77.4309H580.194L476.514 26.2495C476.446 26.3177 476.391 26.3998 476.354 26.4903C476.316 26.5814 476.296 26.6779 476.297 26.7747L476.296 129.93L373.141 26.7742ZM581.243 28.5659L581.243 131.721C581.243 131.818 581.263 131.914 581.301 132.005C581.338 132.096 581.393 132.178 581.461 132.246L685.141 235.926L582.293 235.926L478.088 131.721L581.243 28.5659ZM583.777 237.41L686.191 237.411L686.191 339.824L583.777 237.41ZM688.724 342.357L791.572 342.357L843.611 394.396L843.611 497.245L688.724 342.357ZM947.509 499.778L896.827 550.46L846.145 499.778L947.509 499.778Z" fill="white"/>
</svg>
