<svg width="18" height="12" viewBox="0 0 18 12" fill="none" xmlns="http://www.w3.org/2000/svg">
<g clip-path="url(#clip0_278_334)">
<path d="M0 0H18V12H0V0Z" fill="white"/>
<path d="M0 0H18V0.922807H0V0ZM0 1.84561H18V2.76842H0V1.84561ZM0 3.69123H18V4.61404H0V3.69123ZM0 5.53684H18V6.45965H0V5.53684ZM0 7.38596H18V8.30877H0V7.38596ZM0 9.23158H18V10.1544H0V9.23158ZM0 11.0772H18V12H0V11.0772Z" fill="#D80027"/>
<path d="M0 0H9V6.45965H0V0Z" fill="#2E52B2"/>
<path d="M1.67782 4.87421L1.53747 4.42508L1.38308 4.87421H0.919922L1.29536 5.14438L1.15501 5.5935L1.53747 5.31631L1.9094 5.5935L1.76554 5.14438L2.14799 4.87421H1.67782ZM3.65325 4.87421L3.5094 4.42508L3.36203 4.87421H2.89887L3.27431 5.14438L3.13396 5.5935L3.5094 5.31631L3.88834 5.5935L3.74799 5.14438L4.12343 4.87421H3.65325ZM5.63571 4.87421L5.48483 4.42508L5.34448 4.87421H4.8708L5.25676 5.14438L5.1094 5.5935L5.48483 5.31631L5.8708 5.5935L5.72343 5.14438L6.09887 4.87421H5.63571ZM7.60764 4.87421L7.46729 4.42508L7.31992 4.87421H6.85326L7.2322 5.14438L7.09185 5.5935L7.46729 5.31631L7.84624 5.5935L7.69536 5.14438L8.08133 4.87421H7.60764ZM3.5094 2.64263L3.36203 3.09175H2.89887L3.27431 3.36894L3.13396 3.81105L3.5094 3.53736L3.88834 3.81105L3.74799 3.36894L4.12343 3.09175H3.65325L3.5094 2.64263ZM1.53747 2.64263L1.38308 3.09175H0.919922L1.29536 3.36894L1.15501 3.81105L1.53747 3.53736L1.9094 3.81105L1.76554 3.36894L2.14799 3.09175H1.67782L1.53747 2.64263ZM5.48483 2.64263L5.34448 3.09175H4.8708L5.25676 3.36894L5.1094 3.81105L5.48483 3.53736L5.8708 3.81105L5.72343 3.36894L6.09887 3.09175H5.63571L5.48483 2.64263ZM7.46729 2.64263L7.31992 3.09175H6.85326L7.2322 3.36894L7.09185 3.81105L7.46729 3.53736L7.84624 3.81105L7.69536 3.36894L8.08133 3.09175H7.60764L7.46729 2.64263ZM1.53747 0.867188L1.38308 1.30929H0.919922L1.29536 1.58649L1.15501 2.0321L1.53747 1.75491L1.9094 2.0321L1.76554 1.58649L2.14799 1.30929H1.67782L1.53747 0.867188ZM3.5094 0.867188L3.36203 1.30929H2.89887L3.27431 1.58649L3.13396 2.0321L3.5094 1.75491L3.88834 2.0321L3.74799 1.58649L4.12343 1.30929H3.65325L3.5094 0.867188ZM5.48483 0.867188L5.34448 1.30929H4.8708L5.25676 1.58649L5.1094 2.0321L5.48483 1.75491L5.8708 2.0321L5.72343 1.58649L6.09887 1.30929H5.63571L5.48483 0.867188ZM7.46729 0.867188L7.31992 1.30929H6.85326L7.2322 1.58649L7.09185 2.0321L7.46729 1.75491L7.84624 2.0321L7.69536 1.58649L8.08133 1.30929H7.60764L7.46729 0.867188Z" fill="white"/>
</g>
<defs>
<clipPath id="clip0_278_334">
<rect width="18" height="12" rx="2" fill="white"/>
</clipPath>
</defs>
</svg>
