<svg width="208" height="24" viewBox="0 0 208 24" fill="none" xmlns="http://www.w3.org/2000/svg">
<g clip-path="url(#clip0_2176_1151)">
<path d="M132.074 6.7937H126.309V19.4588H132.074V6.7937Z" fill="#FF4F00"/>
<path d="M188.074 15.3933L188.49 16.0974C187.658 18.4867 186.335 20.2787 184.522 21.4734C182.975 22.5052 181.156 23.0905 179.067 23.2312V18.071C179.87 17.9464 180.58 17.6632 181.194 17.2175C182.069 16.5776 182.687 15.6809 183.05 14.5291L188.074 15.3933ZM53.377 13.7615C53.3769 15.6815 52.9926 17.3565 52.2246 18.7859C51.478 20.2151 50.3783 21.3247 48.9277 22.114C47.7722 22.7257 46.4332 23.0922 44.9121 23.2166V18.0007C45.5648 17.829 46.104 17.5043 46.5283 17.0251C47.2108 16.2786 47.5527 15.2015 47.5527 13.7937V0.544678H53.377V13.7615ZM39.8721 13.7937C39.8721 15.2013 40.2031 16.2786 40.8643 17.0251C41.2896 17.4904 41.8189 17.8107 42.4512 17.9861V23.2107C40.9554 23.0815 39.6371 22.7174 38.4971 22.114C37.0466 21.3248 35.9369 20.2149 35.1689 18.7859C34.4223 17.3565 34.0488 15.6815 34.0488 13.7615V0.544678H39.8721V13.7937ZM176.605 5.46265C175.433 5.68682 174.467 6.23397 173.706 7.10522C172.682 8.27843 172.17 9.82515 172.17 11.7449C172.17 13.6648 172.693 15.2121 173.738 16.3855C174.499 17.2218 175.455 17.7576 176.605 17.9978V23.1882C175.026 23.0213 173.547 22.5786 172.17 21.8572C170.4 20.8972 168.981 19.5428 167.914 17.7937C166.869 16.0443 166.346 14.0275 166.346 11.7449C166.346 9.46239 166.869 7.44619 167.914 5.69702C168.981 3.94795 170.4 2.60438 172.17 1.66577C173.547 0.927892 175.026 0.474163 176.605 0.303467V5.46265ZM6.25 22.9451H0.425781V0.544678H6.25V22.9451ZM16.1562 18.0808H18.3809V22.9451H10.332V0.544678H16.1562V18.0808ZM28.082 18.0808H30.3066V22.9451H22.2578V0.544678H28.082V18.0808ZM69.2617 15.8416L75.5977 0.544678H81.0381V22.9451H75.6621V11.1052H75.3418L74.7979 15.2332L71.5654 22.9451H66.958L63.7256 15.2332L63.1816 11.1052H62.8623V22.9451H57.4863V0.544678H62.9258L69.2617 15.8416ZM90.9658 22.9451H85.1416V0.544678H90.9658V22.9451ZM108.424 12.1931L109 14.9138H109.32V0.544678H115.145V22.9451H108.937L101.769 11.2976L101.192 8.57788H100.872V22.9451H95.0479V0.544678H101.256L108.424 12.1931ZM140.292 22.9451H134.212L132.964 19.4578H130.109V14.5935H131.236L129.092 6.91382H128.835L126.692 14.5935H127.584V19.4578H124.964L123.716 22.9451H117.636L126.403 0.544678H131.524L140.292 22.9451ZM156.175 12.1931L156.751 14.9138H157.07V0.544678H162.895V22.9451H156.687L149.519 11.2976L148.942 8.57788H148.622V22.9451H142.799V0.544678H149.007L156.175 12.1931ZM207.57 5.40894H197.811V9.31323H206.706V14.1775H197.811V18.0808H207.922V22.9451H191.986V0.544678H207.57V5.40894ZM179.067 0.256592C180.522 0.349749 181.85 0.648841 183.05 1.15308C184.522 1.75036 185.717 2.59353 186.634 3.6814C187.573 4.76926 188.202 6.00684 188.522 7.39331L188.106 8.09741L183.05 8.96167C182.751 7.83115 182.144 6.9454 181.227 6.30542C180.608 5.86396 179.888 5.57412 179.067 5.43726V0.256592Z" fill="#34354A"/>
</g>
<defs>
<clipPath id="clip0_2176_1151">
<rect width="208" height="24" fill="white"/>
</clipPath>
</defs>
</svg>
