<svg width="394" height="300" viewBox="0 0 394 300" fill="none" xmlns="http://www.w3.org/2000/svg">
<rect width="393" height="299" transform="translate(0.855469 0.117188)" fill="#324978"/>
<path d="M3.44782 116.118L0.855469 109.396V0.118103H50.0983L50.1101 0L50.1401 0.118103H393.855V28.1128H389.708L388.152 25.0571L387.115 26.8905L386.078 25.0571L383.486 27.5016L382.449 44.0027L378.82 45.2249L377.264 51.9476H376.228L375.191 40.9469L371.561 37.8912L371.043 26.8905L368.45 27.5016V24.4459L366.895 26.2794H365.858V19.5567H363.784L361.71 23.2236L358.081 18.9456L357.044 26.8905L352.896 35.4466L349.786 31.1685L348.749 35.4466L345.638 31.7797L342.527 35.4466H338.379V31.7797H336.305V28.1128H334.231L333.713 24.4459L328.843 30.5574L324.899 26.8905L321.788 31.1685L320.751 29.9462L318.159 30.5574L317.64 19.5567L316.085 20.1679L315.567 1.22229H312.974V4.88918H310.9L309.345 22.6125H306.234L304.679 31.7797L301.049 25.0571L298.976 35.4466L296.902 31.1685L292.235 37.28L289.643 39.7246L289.125 34.8354L286.532 37.8912L285.495 33.6131L283.421 36.6689L281.866 33.6131L279.792 45.8361L279.274 44.0027H277.718L274.089 73.3378H272.534L271.497 58.0591H266.312L265.793 47.0584H263.72L263.201 50.7253L262.164 48.2807H260.609L259.572 53.781L258.016 48.2807L255.424 47.6695L254.906 44.0027H253.869L253.35 45.2249H252.832L252.313 44.0027H251.276L250.758 47.0584H249.202L247.647 64.7817H245.573L244.018 48.8918H242.462L239.87 53.781L238.315 48.8918H236.759L233.13 60.5036H230.019L228.464 58.6702H225.871L224.834 59.8925V53.781H220.687V64.7817H218.094V59.8925H216.539V62.9482H214.983L213.428 75.7823L211.354 81.2827L210.836 85.5607L207.725 94.1168H204.614L200.466 103.895L198.911 102.673H196.319L194.763 99.6171H187.505V103.895H183.875L181.801 88.6165H180.246L179.209 91.6722H176.617L175.061 93.5056L173.506 91.6722H170.914L169.877 93.5056V89.8388H167.803L166.766 88.6165L164.692 100.228L163.136 98.3948H160.026L156.915 106.34L155.359 95.3391L153.804 97.1725H152.249L151.212 91.6722L149.656 93.5056H147.582L145.509 85.5607L144.472 105.729L142.916 46.4473L140.842 44.0027V37.28H138.25V47.0584H136.695V42.7803H135.139L133.584 40.9469H132.547L131.51 49.503H129.436L127.881 69.6709H126.325L124.251 77.6158H122.696L120.103 74.5601L117.511 77.6158H112.326V73.9489H111.29L109.734 72.1154H106.623L104.549 74.5601L99.3647 68.4486H96.7724V73.9489L94.6985 71.5043H92.6246V77.6158H90.0322V72.7266H88.4768V61.726H85.366L84.8476 42.1692H82.7737L81.2183 22.0013L78.6259 35.4466L76.552 42.1692L74.9966 39.1135L73.9597 47.0584L70.8489 42.1692L69.2935 50.1141H67.2196L66.1827 55.6145L64.6272 51.9476L63.0718 32.3909H60.998L58.4056 40.9469H56.8502L56.3317 14.6675L54.7763 15.2787L51.6655 6.11148L50.1401 0.118103H50.0983L49.0732 10.3895L46.9993 15.8899V28.724L44.9254 27.5016L43.37 33.002L41.2961 31.7797V43.3915L39.2222 41.5581L37.6668 40.9469L36.6299 35.4466L34.0375 28.724L30.9267 66.6151L28.8528 50.7253L27.2974 53.1699L25.742 50.7253L24.7051 54.3922L22.6312 51.9476L21.5943 75.1712H20.5573L19.5204 89.2276L18.4834 92.2834L16.928 107.562H15.3726L11.2249 90.4499L9.15098 103.895L7.07711 105.117V114.285L3.44782 116.118Z" fill="url(#paint0_linear_230_1445)"/>
<path d="M0.855469 109.401L2.5078 113.682C3.01121 114.986 4.53021 115.571 5.77822 114.941C6.57475 114.539 7.0771 113.723 7.0771 112.831V106.443C7.0771 105.628 7.50833 104.874 8.21077 104.46C8.80583 104.11 9.21304 103.505 9.31841 102.822C9.72976 100.158 13.5186 99.9287 14.1542 102.548L15.2019 106.866C15.3021 107.279 15.6717 107.57 16.0965 107.57C16.5688 107.57 16.9644 107.212 17.0123 106.743L18.3296 93.8163C18.4318 92.8131 18.6481 91.8218 18.9725 90.867C19.3356 89.7981 19.5624 88.6843 19.6456 87.5585L20.5197 75.7215C20.5409 75.4342 20.7802 75.2119 21.0682 75.2119C21.3625 75.2119 21.6046 74.9804 21.6177 74.6864L22.5488 53.8549C22.5782 53.197 23.399 52.9161 23.8254 53.4181C24.2007 53.8601 24.9173 53.7043 25.0752 53.1464L25.2792 52.4258C25.4584 51.7929 26.3015 51.6693 26.6548 52.2241L26.7324 52.3459C26.9957 52.7592 27.5992 52.7592 27.8624 52.3459C28.1986 51.8181 29.0106 51.9985 29.0917 52.619L29.3224 54.3851C29.527 55.951 31.8117 55.8963 31.941 54.3224L33.46 35.8397C33.6005 34.1293 35.9588 33.7893 36.5768 35.3903C36.6121 35.4817 36.639 35.5762 36.6572 35.6725L37.4319 39.7778C37.5781 40.5523 38.1122 41.1973 38.8459 41.4853L39.0323 41.5584C39.158 41.6078 39.274 41.6787 39.3751 41.768C40.1213 42.427 41.2961 41.8972 41.2961 40.9017V33.2471C41.2961 32.6357 41.9606 32.2558 42.4875 32.566C42.9337 32.8287 43.5079 32.5985 43.6489 32.1002L44.6464 28.5763C44.7875 28.078 45.3617 27.8477 45.8079 28.1105C46.3348 28.4207 46.9993 28.0408 46.9993 27.4294V17.2017C46.9993 16.4011 47.1441 15.6071 47.4268 14.858L48.9897 10.7171C49.0451 10.5704 49.081 10.4171 49.0966 10.2611L49.4838 6.38626C49.6073 5.14962 51.3587 5.01812 51.6655 6.22245L54.5496 14.713C54.6731 15.0764 55.0751 15.2631 55.4324 15.1228C55.8684 14.9517 56.3415 15.2674 56.3508 15.7358L56.8327 40.1371C56.8424 40.6289 57.2438 41.0225 57.7357 41.0225C58.1336 41.0225 58.4846 40.7621 58.6 40.3814L60.7299 33.359C60.8891 32.834 61.3731 32.4751 61.9216 32.4751C62.5711 32.4751 63.1116 32.9742 63.1631 33.6216L64.6124 51.8259C64.6222 51.9491 64.6519 52.0699 64.7002 52.1837C65.1443 53.2297 66.6753 53.0644 66.886 51.9478L67.0266 51.2029C67.1385 50.6098 67.6567 50.1803 68.2602 50.1803C68.8605 50.1803 69.3767 49.7554 69.4922 49.1664L70.3186 44.9492C70.51 43.9725 71.7954 43.7296 72.33 44.569C72.8832 45.4375 74.2193 45.1407 74.3527 44.1197L74.745 41.1166C74.8217 40.5301 75.6098 40.3942 75.8783 40.9213C76.1237 41.4029 76.8304 41.3421 76.9899 40.8256L78.6259 35.5277C79.0329 33.4191 82.1059 33.5939 82.2712 35.735L82.6959 41.2358C82.7398 41.8045 83.214 42.2435 83.7844 42.2435C84.3761 42.2435 84.8601 42.7148 84.8758 43.3063L85.3253 60.2461C85.348 61.1 86.0467 61.7803 86.9008 61.7803C87.7712 61.7803 88.4768 62.486 88.4768 63.3564V71.9921C88.4768 72.4216 88.825 72.7698 89.2545 72.7698C89.6841 72.7698 90.0322 73.118 90.0322 73.5475V76.3579C90.0322 77.0737 90.6126 77.654 91.3284 77.654C92.0443 77.654 92.6246 77.0737 92.6246 76.3579V72.9666C92.6246 72.1835 93.2594 71.5488 94.0424 71.5488H94.233C94.5283 71.5488 94.8086 71.6785 94.9998 71.9035C95.6057 72.6171 96.7724 72.1886 96.7724 71.2524V69.9723C96.7724 69.157 97.4332 68.4961 98.2485 68.4961H98.5446C99.0648 68.4961 99.5588 68.7247 99.8955 69.1212L103.061 72.8482C103.841 73.7668 105.258 73.7668 106.038 72.8482C106.409 72.4112 106.954 72.1593 107.527 72.1593H108.533C109.295 72.1593 110.018 72.4941 110.512 73.0751L111.077 73.7408C111.212 73.8994 111.409 73.9909 111.618 73.9909C112.009 73.9909 112.326 74.3083 112.326 74.6998V75.8225C112.326 76.834 113.146 77.654 114.158 77.654H116.381C117.098 77.654 117.779 77.3392 118.242 76.7929C119.217 75.6447 120.989 75.6447 121.965 76.7929L122.319 77.2098C122.558 77.4916 122.909 77.654 123.279 77.654C123.852 77.654 124.352 77.2673 124.497 76.713L126.146 70.4016C126.252 69.9984 126.616 69.7172 127.033 69.7172C127.511 69.7172 127.909 69.3488 127.946 68.8717L129.354 50.6264C129.4 50.0301 129.898 49.5698 130.496 49.5698C131.074 49.5698 131.562 49.1377 131.632 48.563L132.465 41.6987C132.512 41.3127 132.839 41.0225 133.228 41.0225C133.454 41.0225 133.668 41.1216 133.814 41.2936L134.821 42.479C135.023 42.7169 135.319 42.854 135.631 42.854C136.218 42.854 136.695 43.3301 136.695 43.9174V46.35C136.695 46.7795 137.043 47.1277 137.472 47.1277C137.902 47.1277 138.25 46.7795 138.25 46.35V38.6555C138.25 37.9396 138.83 37.3593 139.546 37.3593C140.262 37.3593 140.842 37.9396 140.842 38.6555V42.4401C140.842 43.4956 141.217 44.5168 141.901 45.3213C142.558 46.0952 142.931 47.0706 142.957 48.0856L144.472 105.738L145.132 92.9089C145.198 91.6149 147.033 91.4269 147.361 92.6806C147.491 93.1796 147.942 93.5277 148.458 93.5277H149.222C149.497 93.5277 149.759 93.4066 149.938 93.1964C150.449 92.5942 151.43 92.8539 151.577 93.6303L152.063 96.21C152.171 96.7789 152.668 97.1909 153.247 97.1909H153.39C153.653 97.1909 153.902 97.0756 154.072 96.8756C154.571 96.2878 155.53 96.5655 155.638 97.3289L155.934 99.4155C156.199 101.289 158.779 101.591 159.47 99.8293L159.553 99.6188C159.838 98.8908 160.54 98.4119 161.322 98.4119H162.706C162.979 98.4119 163.238 98.5318 163.415 98.7399C163.924 99.3392 164.901 99.0756 165.039 98.3016L166.534 89.9381C166.627 89.4221 167.278 89.2464 167.617 89.6459C167.735 89.7846 167.908 89.8646 168.09 89.8646H169.113C169.535 89.8646 169.877 90.2065 169.877 90.6283V91.7032C169.877 92.1971 170.532 92.3698 170.775 91.94C170.861 91.7893 171.021 91.6961 171.194 91.6961H172.828C173.258 91.6961 173.666 91.8851 173.945 92.2128C174.53 92.9017 175.593 92.9017 176.178 92.2128C176.456 91.8851 176.865 91.6961 177.295 91.6961H177.634C178.576 91.6961 179.413 91.0964 179.716 90.2048L180.021 89.3072C180.155 88.9104 180.528 88.6435 180.947 88.6435C181.436 88.6435 181.851 89.0052 181.916 89.4902L183.647 102.23C183.778 103.19 184.598 103.907 185.567 103.907C186.637 103.907 187.505 103.039 187.505 101.969V101.77C187.505 100.59 188.461 99.633 189.641 99.633H193.05C194.101 99.633 195.064 100.223 195.541 101.159L195.566 101.209C196.028 102.115 196.959 102.686 197.976 102.686H198.497C198.765 102.686 199.025 102.776 199.236 102.941C199.856 103.428 200.769 103.193 201.077 102.467L204.023 95.5296C204.381 94.686 205.209 94.1382 206.126 94.1382C207.086 94.1382 207.943 93.5377 208.272 92.6354L210.398 86.7935C210.689 85.9944 210.887 85.1646 210.99 84.3203L211.141 83.0754C211.283 81.9075 211.564 80.7609 211.98 79.6602L212.881 77.2708C213.244 76.3087 213.491 75.3065 213.614 74.2856L214.895 63.7268C214.946 63.3128 215.297 63.0014 215.714 63.0014C216.17 63.0014 216.539 62.6322 216.539 62.1767V60.7265C216.539 60.297 216.887 59.9488 217.317 59.9488C217.746 59.9488 218.094 60.297 218.094 60.7265V63.5368C218.094 64.2527 218.675 64.833 219.39 64.833C220.106 64.833 220.687 64.2527 220.687 63.5368V55.9174C220.687 54.772 221.615 53.8435 222.76 53.8435H223.194C224.1 53.8435 224.834 54.5778 224.834 55.4836V58.5795C224.834 59.0476 225.418 59.2619 225.721 58.9051C225.816 58.7926 225.956 58.7277 226.104 58.7277H227.262C228.024 58.7277 228.748 59.0626 229.241 59.6435C229.735 60.2244 230.459 60.5593 231.221 60.5593C232.356 60.5593 233.361 59.8214 233.7 58.7374L236.526 49.7035C236.665 49.2607 237.075 48.9593 237.539 48.9593C238.001 48.9593 238.41 49.2582 238.55 49.6984L238.68 50.1079C239.123 51.4994 241.023 51.6705 241.708 50.3806L242.172 49.5071C242.35 49.17 242.701 48.9593 243.083 48.9593C243.613 48.9593 244.057 49.3619 244.109 49.89L245.473 63.8062C245.53 64.3888 246.019 64.833 246.605 64.833C247.195 64.833 247.687 64.3823 247.738 63.7948L249.132 47.9339C249.172 47.4777 249.554 47.1277 250.012 47.1277C250.443 47.1277 250.811 46.8169 250.883 46.3921L251.179 44.6482C251.235 44.3172 251.522 44.0751 251.858 44.0751C252.134 44.0751 252.383 44.2402 252.491 44.4944L252.73 45.0575C252.792 45.2022 252.934 45.2961 253.091 45.2961C253.248 45.2961 253.39 45.2022 253.451 45.0575L253.693 44.4879C253.8 44.2376 254.045 44.0751 254.317 44.0751C254.655 44.0751 254.941 44.3235 254.988 44.6578L255.224 46.3213C255.344 47.1757 255.977 47.8685 256.817 48.0663L257.34 48.1895C257.758 48.2878 258.089 48.6046 258.206 49.0172L258.297 49.3416C258.614 50.4606 260.231 50.3488 260.447 49.206C260.54 48.7131 260.972 48.3488 261.474 48.3488H261.752C262.002 48.3488 262.228 48.4981 262.325 48.7281C262.572 49.309 263.427 49.1969 263.515 48.572L263.619 47.8399C263.677 47.4314 264.026 47.1277 264.439 47.1277H264.708C265.316 47.1277 265.816 47.6051 265.845 48.2121L266.188 55.5009C266.258 56.9654 267.465 58.1172 268.931 58.1172C270.375 58.1172 271.573 59.2359 271.671 60.6768L272.479 72.5828C272.51 73.0318 272.883 73.3803 273.333 73.3803C273.765 73.3803 274.129 73.0585 274.182 72.63L277.615 44.9069C277.674 44.4318 278.078 44.0751 278.556 44.0751H278.996C279.16 44.0751 279.305 44.1842 279.349 44.3422C279.456 44.7187 279.999 44.6894 280.064 44.3037L281.498 35.8614C281.616 35.1709 282.545 35.029 282.863 35.653C283.114 36.1458 283.802 36.189 284.113 35.7315L284.31 35.4405C284.766 34.7696 285.801 34.9574 285.993 35.7456L286.101 36.1913C286.28 36.9315 287.224 37.1554 287.717 36.5748C288.247 35.9502 289.268 36.2649 289.354 37.0798L289.403 37.5375C289.501 38.4662 290.62 38.8807 291.3 38.2403L292.135 37.4542C292.202 37.391 292.264 37.3225 292.319 37.2493L295.883 32.5869C296.35 31.9755 297.298 32.0709 297.634 32.7633C298.066 33.6544 299.383 33.4859 299.578 32.5146L300.319 28.8052C300.566 27.5697 302.223 27.3207 302.822 28.4291C303.43 29.5547 305.118 29.2761 305.333 28.0147L305.984 24.1778C306.129 23.3282 306.865 22.7067 307.726 22.7067C308.642 22.7067 309.406 22.0067 309.487 21.0943L310.814 5.98907C310.863 5.43015 311.331 5.0014 311.892 5.0014C312.49 5.0014 312.974 4.51679 312.974 3.919V2.65217C312.974 1.92651 313.562 1.33824 314.288 1.33824C315 1.33824 315.582 1.9048 315.602 2.61618L316.062 19.4207C316.073 19.8312 316.489 20.1062 316.871 19.9561C317.249 19.8078 317.66 20.0745 317.679 20.4798L318.076 28.8798C318.119 29.7967 318.984 30.4492 319.878 30.2387L320.245 30.1523C320.556 30.0791 320.881 30.1862 321.088 30.4297C321.445 30.8497 322.1 30.8251 322.425 30.3797L323.437 28.9889C324.215 27.9206 325.751 27.7718 326.719 28.6711L327.027 28.9571C328.007 29.8672 329.554 29.7519 330.388 28.7064L332.034 26.6426C332.669 25.8469 333.948 26.1958 334.09 27.2036L334.096 27.247C334.174 27.7945 334.642 28.2014 335.195 28.2014C335.808 28.2014 336.305 28.6983 336.305 29.3114V30.8276C336.305 31.4003 336.77 31.8646 337.342 31.8646C337.915 31.8646 338.379 32.3288 338.379 32.9015V33.6961C338.379 34.7077 339.199 35.5277 340.211 35.5277H341.215C342.047 35.5277 342.838 35.162 343.376 34.5276L344.472 33.2378C345.083 32.5183 346.193 32.5183 346.804 33.2378L347.393 33.9314C347.957 34.5958 349.037 34.3396 349.242 33.4925C349.457 32.6095 350.606 32.3817 351.141 33.1164L351.542 33.6664C352.155 34.5096 353.446 34.3948 353.901 33.4565L356.81 27.4634C356.965 27.1435 357.068 26.8006 357.114 26.4479L357.637 22.4453C357.807 21.1378 359.448 20.6534 360.302 21.6585C360.986 22.4637 362.262 22.3428 362.782 21.4235L363.408 20.3187C363.64 19.9079 364.076 19.654 364.548 19.654C365.272 19.654 365.858 20.2406 365.858 20.9641V25.6609C365.858 26.0524 366.175 26.3698 366.567 26.3698C366.775 26.3698 366.975 26.2762 367.109 26.1176C367.564 25.5824 368.45 25.89 368.45 26.5921V26.6235C368.45 27.1176 368.911 27.4824 369.392 27.3691L369.778 27.2783C370.435 27.1234 371.072 27.6036 371.104 28.2785L371.446 35.5238C371.519 37.0832 372.241 38.5411 373.435 39.546C374.56 40.4922 375.268 41.8426 375.406 43.306L376.175 51.4609C376.205 51.7732 376.467 52.0119 376.781 52.0119C377.064 52.0119 377.31 51.8167 377.373 51.541L378.428 46.9892C378.671 45.937 379.443 45.0864 380.467 44.742C381.666 44.3387 382.501 43.2501 382.58 41.9879L383.433 28.4317C383.467 27.8915 383.705 27.3843 384.099 27.0131L385.436 25.7537C385.763 25.4459 386.292 25.5258 386.513 25.9165L386.61 26.0883C386.833 26.4809 387.398 26.4809 387.62 26.0883C387.848 25.6858 388.432 25.6986 388.642 26.1108L389.322 27.445C389.559 27.9092 390.036 28.2014 390.557 28.2014H393.855" stroke="white" stroke-width="1.83471"/>
<defs>
<linearGradient id="paint0_linear_230_1445" x1="220.423" y1="-185.219" x2="220.423" y2="116.119" gradientUnits="userSpaceOnUse">
<stop stop-color="#D3DCE4" stop-opacity="0"/>
<stop offset="1" stop-color="#979797" stop-opacity="0.18"/>
</linearGradient>
</defs>
</svg>
