<svg width="720" height="338" viewBox="0 0 720 338" fill="none" xmlns="http://www.w3.org/2000/svg">
<g clip-path="url(#clip0_230_1464)">
<rect width="720" height="338" rx="32" fill="#324978"/>
<path d="M-23.346 298.44L-27.7729 289.309C-27.8388 289.173 -27.873 289.024 -27.873 288.873V-191.721C-27.873 -192.273 -27.4253 -192.721 -26.873 -192.721H719.127C719.679 -192.721 720.127 -192.273 720.127 -191.721V165.053C720.127 165.605 719.679 166.053 719.127 166.053H712.78C712.439 166.053 712.121 165.879 711.938 165.592L710.071 162.675C709.689 162.078 708.824 162.057 708.413 162.634L708.113 163.056C707.715 163.617 706.882 163.617 706.483 163.056L705.919 162.263C705.594 161.805 704.954 161.705 704.504 162.042L700.752 164.857C700.522 165.029 700.378 165.292 700.355 165.578L698.473 189.403C698.44 189.825 698.144 190.181 697.735 190.29L692.054 191.812C691.716 191.903 691.45 192.163 691.352 192.499L688.759 201.414C688.635 201.841 688.243 202.135 687.799 202.135H687.464C686.957 202.135 686.531 201.756 686.471 201.253L684.656 185.939C684.622 185.649 684.462 185.388 684.219 185.226L678.107 181.132C677.847 180.958 677.683 180.672 677.665 180.36L676.775 165.335C676.739 164.734 676.184 164.301 675.592 164.412L672.958 164.906C672.342 165.021 671.773 164.549 671.773 163.923V162.81C671.773 161.935 670.728 161.482 670.089 162.08L669.101 163.007C668.916 163.181 668.672 163.277 668.417 163.277H667.839C667.287 163.277 666.839 162.83 666.839 162.277V154.1C666.839 153.548 666.392 153.1 665.839 153.1H663.408C663.084 153.1 662.781 153.257 662.593 153.521L659.608 157.718C659.257 158.212 658.551 158.282 658.11 157.868L653.405 153.457C652.821 152.91 651.863 153.235 651.734 154.025L650.095 164.01C650.074 164.137 650.029 164.259 649.962 164.369L642.862 176.018C642.516 176.587 641.72 176.664 641.27 176.172L637.432 171.973C636.909 171.401 635.963 171.615 635.737 172.356L634.743 175.618C634.527 176.327 633.643 176.563 633.103 176.056L629.038 172.245C628.653 171.884 628.055 171.884 627.67 172.245L622.722 176.885C622.536 177.058 622.292 177.155 622.038 177.155H615.539C614.986 177.155 614.539 176.707 614.539 176.155V172.604C614.539 172.052 614.091 171.604 613.539 171.604H611.591C611.039 171.604 610.591 171.156 610.591 170.604V167.053C610.591 166.5 610.144 166.053 609.591 166.053H607.482C606.997 166.053 606.582 165.705 606.497 165.228L605.993 162.388C605.851 161.592 604.873 161.284 604.302 161.855L596.997 169.146C596.646 169.495 596.093 169.536 595.696 169.242L589.606 164.738C589.194 164.434 588.619 164.49 588.273 164.868L583.644 169.931C583.268 170.343 582.628 170.367 582.222 169.986L581.357 169.175C581.125 168.957 580.802 168.863 580.489 168.922L577.169 169.544C576.577 169.655 576.022 169.222 575.986 168.621L575.142 154.377C575.104 153.728 574.466 153.288 573.845 153.482L573.358 153.634C572.728 153.831 572.083 153.374 572.061 152.714L571.152 126.31C571.134 125.772 570.692 125.345 570.153 125.345H567.185C566.633 125.345 566.185 125.792 566.185 126.345V129.896C566.185 130.448 565.737 130.896 565.185 130.896H563.134C562.624 130.896 562.195 131.279 562.14 131.786L559.376 156.836C559.32 157.343 558.891 157.726 558.382 157.726H554.166C553.694 157.726 553.286 158.056 553.188 158.517L550.885 169.311C550.701 170.173 549.574 170.393 549.08 169.664L544.742 163.274C544.257 162.559 543.155 162.755 542.945 163.592L540.122 174.839C539.906 175.7 538.76 175.874 538.299 175.116L536.27 171.788C535.928 171.227 535.149 171.142 534.695 171.616L526.769 179.872C526.732 179.911 526.691 179.947 526.648 179.979L523.144 182.607C522.533 183.066 521.654 182.697 521.553 181.939L521.049 178.157C520.941 177.35 519.967 177.003 519.374 177.559L517.03 179.757C516.49 180.263 515.605 180.027 515.389 179.319L514.416 176.126C514.186 175.37 513.212 175.167 512.699 175.768L510.813 177.979C510.377 178.49 509.572 178.434 509.21 177.869L508.289 176.43C507.807 175.677 506.655 175.886 506.469 176.76L503.542 190.482C503.395 191.167 502.442 191.23 502.207 190.57C502.108 190.293 501.846 190.108 501.552 190.108H499.939C499.446 190.108 499.026 190.467 498.951 190.954L492.306 233.67C492.23 234.157 491.811 234.516 491.318 234.516H490.132C489.613 234.516 489.18 234.119 489.136 233.601L487.318 212.302C487.274 211.784 486.841 211.387 486.322 211.387H478.315C477.786 211.387 477.348 210.974 477.317 210.446L476.441 195.674C476.41 195.146 475.972 194.733 475.443 194.733H473.276C472.791 194.733 472.376 195.081 472.292 195.558L471.958 197.437C471.791 198.372 470.538 198.571 470.091 197.733L469.76 197.113C469.586 196.787 469.247 196.584 468.878 196.584H467.308C466.845 196.584 466.442 196.902 466.335 197.353L465.325 201.616C465.095 202.585 463.743 202.659 463.41 201.72L461.776 197.126C461.657 196.79 461.368 196.543 461.018 196.478L457.329 195.786C456.92 195.709 456.601 195.388 456.528 194.978L455.809 190.933C455.724 190.455 455.309 190.108 454.825 190.108H454.289C453.92 190.108 453.58 190.311 453.407 190.637L452.934 191.523C452.791 191.791 452.512 191.958 452.209 191.958C451.905 191.958 451.626 191.791 451.483 191.523L451.011 190.637C450.837 190.311 450.498 190.108 450.129 190.108H449.564C449.092 190.108 448.685 190.437 448.586 190.899L447.937 193.942C447.838 194.404 447.431 194.733 446.959 194.733H445.703C445.194 194.733 444.765 195.117 444.709 195.624L441.945 220.673C441.89 221.18 441.461 221.564 440.952 221.564H438.785C438.279 221.564 437.854 221.187 437.792 220.686L435.048 198.387C434.986 197.886 434.56 197.509 434.055 197.509H432.514C432.18 197.509 431.868 197.676 431.682 197.954L428.1 203.329C427.653 203.999 426.638 203.893 426.339 203.145L424.336 198.138C424.184 197.758 423.817 197.509 423.408 197.509H421.806C421.395 197.509 421.025 197.761 420.875 198.143L414.466 214.453C414.316 214.836 413.946 215.088 413.535 215.088H408.691C408.437 215.088 408.193 214.991 408.007 214.817L405.624 212.582C405.439 212.409 405.194 212.312 404.94 212.312H400.797C400.543 212.312 400.298 212.409 400.113 212.583C399.474 213.181 398.428 212.729 398.428 211.854V205.91C398.428 205.358 397.98 204.91 397.428 204.91H391.533C390.981 204.91 390.533 205.358 390.533 205.91V220.564C390.533 221.116 390.086 221.564 389.533 221.564H386.599C386.047 221.564 385.599 221.116 385.599 220.564V215.162C385.599 214.61 385.152 214.162 384.599 214.162H383.639C383.087 214.162 382.639 214.61 382.639 215.162V217.788C382.639 218.341 382.191 218.788 381.639 218.788H380.28C379.91 218.788 379.57 218.584 379.397 218.257L377.298 214.297C377 213.734 376.258 213.59 375.77 214L373.059 216.284C372.873 216.44 372.751 216.658 372.714 216.898L371.805 222.864C371.791 222.956 371.764 223.045 371.726 223.129L366.13 235.371C365.967 235.727 365.612 235.955 365.221 235.955H360.542C360.173 235.955 359.834 236.158 359.66 236.484L352.552 249.813C352.279 250.324 351.631 250.497 351.139 250.19L349.331 249.06C349.172 248.96 348.988 248.908 348.801 248.908H344.701C344.36 248.908 344.042 248.734 343.858 248.447L341.488 244.743C341.304 244.455 340.987 244.282 340.646 244.282H328.378C327.825 244.282 327.378 244.729 327.378 245.282V249.758C327.378 250.31 326.93 250.758 326.378 250.758H321.314C320.826 250.758 320.41 250.407 320.328 249.926L316.665 228.46C316.583 227.98 316.166 227.628 315.679 227.628H314.223C313.822 227.628 313.46 227.867 313.303 228.236L311.848 231.647C311.691 232.015 311.329 232.254 310.928 232.254H307.05C306.796 232.254 306.551 232.351 306.366 232.525L304.378 234.388C303.994 234.749 303.395 234.749 303.01 234.388L301.022 232.525C300.837 232.351 300.592 232.254 300.338 232.254H296.281C295.979 232.254 295.696 232.4 295.521 232.647C294.994 233.388 293.826 233.015 293.826 232.106V230.479C293.826 229.926 293.378 229.479 292.826 229.479H290.274C290.02 229.479 289.776 229.382 289.59 229.208L289.182 228.825C288.617 228.296 287.691 228.58 287.522 229.335L284.341 243.5C284.172 244.255 283.246 244.539 282.682 244.01L281.286 242.702C281.101 242.528 280.856 242.431 280.602 242.431H275.699C275.318 242.431 274.97 242.648 274.802 242.99L270.504 251.721C270.077 252.588 268.791 252.406 268.622 251.454L266.518 239.621C266.379 238.84 265.429 238.524 264.85 239.067L263.524 240.31C263.338 240.484 263.094 240.581 262.84 240.581H261.065C260.602 240.581 260.199 240.262 260.092 239.811L258.699 233.933C258.522 233.186 257.603 232.909 257.042 233.435L255.629 234.759C255.444 234.933 255.199 235.03 254.945 235.03H251.732C251.513 235.03 251.299 234.957 251.124 234.824L248.885 233.109C248.26 232.63 247.353 233.028 247.281 233.812L245.473 253.533L242.532 194.212C242.519 193.953 242.406 193.709 242.217 193.532L238.881 190.404C238.679 190.215 238.565 189.951 238.565 189.674V180.931C238.565 180.378 238.117 179.931 237.565 179.931H234.631C234.079 179.931 233.631 180.378 233.631 180.931V193.733C233.631 194.286 233.183 194.733 232.631 194.733H231.67C231.118 194.733 230.67 194.286 230.67 193.733V189.257C230.67 188.705 230.223 188.257 229.67 188.257H228.106C227.851 188.257 227.607 188.16 227.422 187.987L225.038 185.752C224.853 185.578 224.608 185.482 224.354 185.482H223.635C223.141 185.482 222.721 185.843 222.647 186.331L220.932 197.585C220.857 198.073 220.437 198.434 219.943 198.434H217.763C217.248 198.434 216.817 198.825 216.768 199.338L213.982 228.062C213.933 228.574 213.502 228.965 212.987 228.965H211.659C211.226 228.965 210.843 229.243 210.708 229.653L207.213 240.305C207.078 240.715 206.695 240.993 206.263 240.993H204.422C204.168 240.993 203.924 240.896 203.738 240.722L199.777 237.008C199.392 236.647 198.793 236.647 198.409 237.008L194.447 240.722C194.262 240.896 194.017 240.993 193.763 240.993H185.291C184.738 240.993 184.291 240.545 184.291 239.993V236.442C184.291 235.889 183.843 235.442 183.291 235.442H182.712C182.458 235.442 182.214 235.345 182.028 235.171L179.645 232.936C179.46 232.763 179.215 232.666 178.961 232.666H173.831C173.577 232.666 173.333 232.763 173.147 232.936L170.172 235.725C169.788 236.086 169.189 236.086 168.804 235.725L159.909 227.385C159.723 227.212 159.479 227.115 159.225 227.115H155.686C155.134 227.115 154.686 227.563 154.686 228.115V233.133C154.686 234.009 153.641 234.462 153.002 233.863L151.028 232.011C150.842 231.838 150.598 231.741 150.344 231.741H147.792C147.24 231.741 146.792 232.189 146.792 232.741V239.993C146.792 240.545 146.344 240.993 145.792 240.993H142.858C142.306 240.993 141.858 240.545 141.858 239.993V234.591C141.858 234.039 141.41 233.591 140.858 233.591H139.897C139.345 233.591 138.897 233.143 138.897 232.591V217.938C138.897 217.386 138.45 216.938 137.897 216.938H133.944C133.404 216.938 132.962 216.51 132.944 215.971L132.022 188.299C132.004 187.76 131.562 187.332 131.023 187.332H128.903C128.408 187.332 127.988 186.97 127.914 186.481L125.969 173.569C125.847 172.756 124.851 172.43 124.272 173.012L120.296 177.007C120.198 177.104 120.122 177.222 120.072 177.35L116.913 185.495C116.617 186.258 115.58 186.362 115.139 185.672L114.647 184.904C114.153 184.132 112.966 184.376 112.818 185.281L111.631 192.516C111.49 193.371 110.404 193.655 109.863 192.979L106.613 188.916C106.095 188.268 105.059 188.496 104.861 189.302L102.573 198.598C102.463 199.045 102.062 199.359 101.602 199.359H99.229C98.7655 199.359 98.3628 199.678 98.2559 200.129L97.075 205.111C96.8624 206.008 95.6532 206.164 95.2196 205.351L93.5973 202.309C93.5359 202.194 93.4976 202.068 93.4846 201.938L90.6339 173.43C90.5828 172.918 90.1526 172.529 89.6388 172.529H87.2858C86.8708 172.529 86.499 172.785 86.3513 173.173L81.9079 184.838C81.7602 185.225 81.3884 185.482 80.9734 185.482H79.6777C79.135 185.482 78.6914 185.049 78.678 184.506L77.7482 147.024C77.7317 146.36 77.0843 145.896 76.4502 146.094L75.6181 146.354C75.128 146.507 74.6015 146.264 74.4 145.792L68.9009 132.903C68.8567 132.799 68.7952 132.704 68.7192 132.62L67.2278 130.989C66.6774 130.387 65.6764 130.662 65.5106 131.461L63.9243 139.105C63.9082 139.183 63.8828 139.259 63.8488 139.331L60.0492 147.346C59.9857 147.48 59.9528 147.626 59.9528 147.774V165.405C59.9528 166.137 59.1915 166.621 58.5284 166.31L57.0032 165.595C56.4686 165.345 55.8343 165.609 55.6365 166.166L53.4142 172.416C53.2164 172.973 52.5822 173.237 52.0476 172.987L50.5224 172.272C49.8592 171.961 49.0979 172.445 49.0979 173.177V187.257C49.0979 188.067 48.1853 188.541 47.5227 188.075L45.2785 186.497C45.1938 186.437 45.1004 186.391 45.0016 186.36L42.7337 185.651C42.3968 185.546 42.1404 185.271 42.059 184.928L40.242 177.262C40.2252 177.191 40.2006 177.122 40.1688 177.056L36.8162 170.141C36.3769 169.235 35.0251 169.473 34.9217 170.475L30.1307 216.89C30.0108 218.051 28.3382 218.101 28.1492 216.95L25.7784 202.502C25.6382 201.648 24.5518 201.363 24.0108 202.039L23.235 203.009C22.8347 203.51 22.0736 203.51 21.6732 203.009L20.6153 201.687C20.1258 201.075 19.1547 201.238 18.8922 201.976L18.0318 204.396C17.7904 205.075 16.9315 205.284 16.4057 204.791L15.1352 203.6C14.5159 203.019 13.5004 203.426 13.4528 204.273L11.6522 236.348C11.6225 236.878 11.1843 237.292 10.6538 237.292H10.5372C10.0207 237.292 9.58915 237.685 9.54145 238.2L7.66648 258.415C7.6569 258.519 7.63128 258.62 7.59055 258.715L5.7329 263.069C5.69674 263.154 5.67247 263.243 5.66078 263.335L2.82973 285.454C2.76584 285.953 2.34102 286.327 1.83782 286.327H0.498219C0.058218 286.327 -0.330084 286.039 -0.458349 285.618L-6.96438 264.269C-7.26826 263.272 -8.7042 263.347 -8.90266 264.37L-11.9873 280.276C-12.0482 280.59 -12.2552 280.856 -12.5446 280.991L-15.4558 282.356C-15.807 282.521 -16.0314 282.874 -16.0314 283.262V295.828C-16.0314 296.236 -16.2796 296.603 -16.6585 296.756L-22.0733 298.931C-22.5608 299.127 -23.1168 298.913 -23.346 298.44Z" fill="url(#paint0_linear_230_1464)"/>
<path d="M-27.873 289.09L-24.8218 295.391C-23.7618 297.58 -21.1876 298.575 -18.9311 297.667C-17.1791 296.962 -16.0314 295.263 -16.0314 293.375V285.028C-16.0314 283.55 -15.1769 282.205 -13.8387 281.576C-12.7361 281.059 -11.9472 280.046 -11.7156 278.85L-11.6417 278.469C-10.7342 273.784 -4.15971 273.441 -2.7701 278.006L-0.6364 285.017C-0.402379 285.785 0.306824 286.311 1.11051 286.311C2.02949 286.311 2.80529 285.628 2.92182 284.716L5.37841 265.5C5.57745 263.943 5.99049 262.421 6.60582 260.977C7.29907 259.35 7.73507 257.625 7.89819 255.864L9.53627 238.181C9.5869 237.634 10.0455 237.216 10.5944 237.216C11.1583 237.216 11.6239 236.776 11.6555 236.213L13.396 205.171C13.4661 203.921 14.9638 203.322 15.8765 204.179C16.6516 204.906 17.9187 204.599 18.2744 203.597L18.5581 202.798C18.9662 201.649 20.4778 201.395 21.239 202.348L21.3959 202.544C21.9381 203.223 22.9701 203.223 23.5124 202.544C24.245 201.627 25.7176 202.012 25.9074 203.171L26.3255 205.722C26.7982 208.606 30.9872 208.481 31.2869 205.574L34.1567 177.737C34.479 174.612 38.6981 173.87 40.0675 176.698C40.1667 176.902 40.2431 177.117 40.2955 177.339L41.6296 182.974C41.9772 184.442 43.073 185.619 44.5129 186.069L44.805 186.161C45.0341 186.232 45.2506 186.339 45.4469 186.477C46.9821 187.558 49.0979 186.46 49.0979 184.583V174.012C49.0979 172.818 50.3388 172.03 51.419 172.537C52.2903 172.946 53.3242 172.515 53.6463 171.608L55.4045 166.656C55.7265 165.749 56.7605 165.318 57.6317 165.727C58.712 166.234 59.9528 165.445 59.9528 164.252V149.794C59.9528 148.194 60.3081 146.613 60.993 145.167L63.6685 139.516C63.8219 139.192 63.9227 138.845 63.9673 138.49L64.6643 132.929C64.95 130.649 68.1348 130.354 68.8341 132.542L74.2616 145.28C74.5416 145.937 75.2741 146.275 75.9559 146.061C76.8376 145.786 77.7381 146.43 77.761 147.354L78.6592 183.608C78.6831 184.573 79.4718 185.342 80.4367 185.342C81.1747 185.342 81.836 184.887 82.0985 184.197L85.9897 173.969C86.3551 173.009 87.2758 172.374 88.3033 172.374C89.5752 172.374 90.6401 173.338 90.7665 174.603L93.4608 201.582C93.4895 201.868 93.574 202.147 93.7096 202.402C94.6683 204.202 97.3449 203.856 97.8147 201.871L97.9845 201.154C98.2505 200.031 99.2599 199.237 100.414 199.237C101.568 199.237 102.579 198.45 102.855 197.329L104.272 191.565C104.711 189.78 107.007 189.274 108.155 190.711C109.353 192.211 111.763 191.581 112.073 189.686L112.734 185.654C112.912 184.569 114.335 184.276 114.927 185.202C115.456 186.03 116.7 185.905 117.055 184.99L120.148 177.006C121.086 173.132 126.719 173.53 127.103 177.497L127.858 185.293C127.963 186.372 128.87 187.195 129.954 187.195C131.089 187.195 132.02 188.095 132.057 189.23L132.88 213.928C132.934 215.55 134.264 216.837 135.888 216.837C137.55 216.837 138.897 218.185 138.897 219.847V232.031C138.897 232.848 139.56 233.511 140.378 233.511C141.195 233.511 141.858 234.174 141.858 234.991V238.454C141.858 239.817 142.962 240.921 144.325 240.921C145.687 240.921 146.792 239.817 146.792 238.454V234.486C146.792 232.924 148.058 231.658 149.62 231.658H149.947C150.456 231.658 150.946 231.852 151.316 232.2C152.594 233.399 154.686 232.494 154.686 230.742V229.545C154.686 228.154 155.814 227.027 157.205 227.027H158.221C159.12 227.027 159.985 227.369 160.64 227.984L166.712 233.684C168.273 235.149 170.704 235.149 172.265 233.684C173.017 232.978 174.01 232.585 175.041 232.585H177.326C178.631 232.585 179.886 233.081 180.837 233.974L181.909 234.98C182.171 235.227 182.517 235.364 182.877 235.364C183.657 235.364 184.291 235.997 184.291 236.777V238.142C184.291 239.677 185.535 240.921 187.069 240.921H192.151C193.441 240.921 194.682 240.43 195.622 239.548C197.573 237.716 200.612 237.716 202.563 239.548L203.264 240.206C203.754 240.665 204.401 240.921 205.073 240.921C206.215 240.921 207.228 240.187 207.583 239.102L210.525 230.128C210.769 229.383 211.464 228.879 212.248 228.879C213.182 228.879 213.963 228.17 214.053 227.241L216.66 200.329C216.771 199.184 217.733 198.311 218.883 198.311C219.987 198.311 220.925 197.505 221.091 196.413L222.573 186.678C222.69 185.91 223.35 185.342 224.127 185.342C224.527 185.342 224.912 185.495 225.203 185.768L227.098 187.547C227.491 187.916 228.01 188.121 228.55 188.121C229.721 188.121 230.67 189.071 230.67 190.242V193.125C230.67 193.943 231.333 194.606 232.151 194.606C232.968 194.606 233.631 193.943 233.631 193.125V182.252C233.631 180.889 234.735 179.785 236.098 179.785C237.46 179.785 238.565 180.889 238.565 182.252V187.173C238.565 188.96 239.304 190.668 240.607 191.891C241.829 193.038 242.558 194.615 242.641 196.289L245.473 253.477L246.73 234.004C246.882 231.648 250.174 231.23 250.909 233.474C251.198 234.355 252.02 234.951 252.948 234.951H254.584C255.07 234.951 255.538 234.766 255.893 234.433C256.964 233.427 258.723 233.956 259.062 235.387L259.82 238.589C260.087 239.714 261.091 240.509 262.248 240.509H262.518C262.979 240.509 263.422 240.334 263.758 240.018C264.806 239.034 266.529 239.606 266.78 241.022L267.311 244.011C267.895 247.299 272.34 247.928 273.813 244.932L274.074 244.401C274.688 243.152 275.958 242.362 277.349 242.362H280.249C280.73 242.362 281.193 242.545 281.543 242.874C282.611 243.876 284.363 243.337 284.683 241.909L287.422 229.695C287.636 228.743 288.804 228.384 289.515 229.052C289.749 229.271 290.057 229.393 290.378 229.393H292.482C293.224 229.393 293.826 229.995 293.826 230.737V232.025C293.826 232.934 294.994 233.307 295.521 232.565C295.696 232.319 295.979 232.172 296.282 232.172H299.53C300.303 232.172 301.048 232.467 301.612 232.996C302.783 234.095 304.606 234.095 305.777 232.996C306.341 232.467 307.085 232.172 307.859 232.172H309.071C310.598 232.172 311.977 231.261 312.575 229.856L313.053 228.737C313.362 228.011 314.074 227.541 314.862 227.541C315.821 227.541 316.641 228.232 316.802 229.177L319.939 247.582C320.246 249.382 321.806 250.699 323.632 250.699H324.135C325.926 250.699 327.378 249.247 327.378 247.456C327.378 245.666 328.829 244.214 330.62 244.214H338.444C340.157 244.214 341.751 245.087 342.673 246.53C343.595 247.973 345.189 248.846 346.902 248.846H348.35C348.832 248.846 349.304 248.981 349.713 249.237C350.975 250.027 352.643 249.582 353.343 248.267L358.598 238.401C359.425 236.848 361.042 235.877 362.802 235.877C364.667 235.877 366.36 234.789 367.135 233.093L370.728 225.222C371.429 223.688 371.913 222.063 372.167 220.395L372.699 216.898C372.746 216.584 372.84 216.279 372.976 215.992L373.047 215.84C374.315 213.162 378.228 213.495 379.025 216.349L379.335 217.459C379.538 218.187 380.201 218.69 380.956 218.69C381.885 218.69 382.639 217.936 382.639 217.007V215.538C382.639 214.721 383.302 214.058 384.119 214.058C384.937 214.058 385.599 214.721 385.599 215.538V219.002C385.599 220.364 386.704 221.469 388.066 221.469C389.429 221.469 390.533 220.364 390.533 219.002V208.742C390.533 206.562 392.301 204.795 394.481 204.795H395.629C397.175 204.795 398.428 206.048 398.428 207.593V211.747C398.428 212.623 399.474 213.076 400.113 212.477C400.298 212.303 400.543 212.206 400.797 212.206H403.305C404.609 212.206 405.865 212.702 406.816 213.595C407.767 214.488 409.022 214.985 410.326 214.985H410.471C412.73 214.985 414.76 213.601 415.585 211.497L420.582 198.767C420.909 197.933 421.714 197.385 422.609 197.385C423.5 197.385 424.302 197.927 424.632 198.755L424.862 199.33C425.786 201.643 428.926 201.97 430.307 199.896L431.36 198.314C431.747 197.733 432.398 197.385 433.096 197.385C434.148 197.385 435.036 198.17 435.165 199.215L437.661 219.522C437.797 220.634 438.741 221.469 439.861 221.469C440.992 221.469 441.941 220.618 442.065 219.495L444.637 196.152C444.734 195.272 445.478 194.606 446.363 194.606C447.182 194.606 447.89 194.033 448.061 193.231L448.519 191.082C448.656 190.436 449.227 189.974 449.888 189.974C450.405 189.974 450.88 190.259 451.124 190.716L451.483 191.391C451.626 191.659 451.905 191.827 452.209 191.827C452.512 191.827 452.791 191.659 452.934 191.391L453.302 190.701C453.54 190.254 454.006 189.974 454.513 189.974C455.178 189.974 455.747 190.451 455.864 191.106L456.203 193.02C456.472 194.532 457.648 195.719 459.157 196.003L460.322 196.221C461.103 196.368 461.747 196.919 462.013 197.668L462.219 198.249C462.903 200.174 465.674 200.023 466.144 198.035C466.363 197.111 467.188 196.458 468.138 196.458H468.757C469.201 196.458 469.608 196.703 469.817 197.095C470.353 198.102 471.86 197.863 472.059 196.74L472.217 195.853C472.345 195.132 472.972 194.606 473.705 194.606H474.296C475.469 194.606 476.44 195.52 476.509 196.691L477.077 206.29C477.243 209.092 479.564 211.279 482.37 211.279C485.124 211.279 487.42 213.388 487.654 216.132L489.084 232.911C489.157 233.774 489.879 234.437 490.746 234.437C491.568 234.437 492.268 233.838 492.394 233.025L498.833 191.578C498.976 190.655 499.771 189.974 500.705 189.974H501.552C501.846 189.974 502.108 190.159 502.207 190.437C502.441 191.097 503.395 191.034 503.542 190.349L506.24 177.686C506.51 176.417 508.183 176.114 508.881 177.207C509.406 178.028 510.576 178.108 511.208 177.366L511.614 176.89C512.596 175.738 514.463 176.127 514.903 177.574L514.966 177.781C515.377 179.131 517.062 179.581 518.091 178.615C519.22 177.554 521.076 178.216 521.281 179.752L521.317 180.025C521.524 181.576 523.323 182.33 524.573 181.391L526.488 179.953C526.638 179.841 526.778 179.717 526.907 179.582L533.743 172.452C534.678 171.477 536.282 171.652 536.985 172.806C537.934 174.365 540.293 174.007 540.737 172.236L542.028 167.083C542.593 164.831 545.555 164.307 546.858 166.229C548.187 168.189 551.217 167.597 551.71 165.281L552.771 160.302C553.112 158.699 554.528 157.553 556.167 157.553C557.937 157.553 559.424 156.221 559.618 154.461L562.033 132.544C562.15 131.489 563.041 130.69 564.103 130.69C565.253 130.69 566.185 129.758 566.185 128.608V127.641C566.185 126.255 567.308 125.132 568.694 125.132C570.047 125.132 571.156 126.204 571.202 127.555L572.052 152.278C572.079 153.068 572.851 153.615 573.605 153.379C574.347 153.146 575.111 153.673 575.157 154.45L575.848 166.132C575.957 167.97 577.653 169.295 579.463 168.955L580.1 168.835C580.657 168.731 581.232 168.898 581.646 169.287C582.369 169.966 583.508 169.922 584.177 169.189L586.094 167.09C587.677 165.356 590.317 165.1 592.204 166.498L593.122 167.177C594.999 168.567 597.61 168.374 599.262 166.723L602.879 163.108C604.05 161.938 606.054 162.569 606.344 164.199C606.518 165.177 607.368 165.89 608.361 165.89H608.444C609.63 165.89 610.591 166.851 610.591 168.037V169.474C610.591 170.564 611.475 171.448 612.565 171.448C613.655 171.448 614.539 172.331 614.539 173.421V174.227C614.539 175.761 615.783 177.006 617.317 177.006H620.194C621.633 177.006 623.017 176.458 624.065 175.473L626.172 173.496C627.399 172.344 629.309 172.344 630.536 173.496L631.912 174.788C633.001 175.81 634.784 175.334 635.218 173.905C635.673 172.412 637.581 171.98 638.633 173.134L639.613 174.207C640.891 175.606 643.155 175.387 644.14 173.768L649.467 165.017C649.861 164.37 650.127 163.653 650.249 162.906L651.086 157.798C651.492 155.323 654.496 154.303 656.325 156.02C657.71 157.32 659.925 157.099 661.026 155.549L662.114 154.017C662.602 153.33 663.393 152.921 664.236 152.921C665.674 152.921 666.839 154.087 666.839 155.525V161.697C666.839 162.478 667.472 163.111 668.253 163.111C668.613 163.111 668.959 162.974 669.221 162.728L669.554 162.415C670.395 161.625 671.773 162.222 671.773 163.376C671.773 164.201 672.523 164.823 673.334 164.671L674.314 164.486C675.584 164.248 676.775 165.178 676.851 166.468L677.439 176.403C677.6 179.117 679.02 181.6 681.278 183.114C683.388 184.528 684.774 186.794 685.072 189.316L686.45 200.954C686.521 201.56 687.035 202.016 687.645 202.016C688.181 202.016 688.652 201.662 688.801 201.148L690.624 194.874C691.174 192.982 692.672 191.515 694.574 191.005C696.878 190.387 698.543 188.385 698.73 186.007L700.243 166.842C700.337 165.648 700.939 164.551 701.897 163.832L704.175 162.121C704.805 161.648 705.701 161.788 706.157 162.43L706.337 162.684C706.807 163.346 707.79 163.346 708.259 162.684C708.744 162.002 709.764 162.027 710.214 162.732L711.434 164.641C711.932 165.419 712.791 165.89 713.715 165.89H720.127" stroke="white"/>
</g>
<defs>
<linearGradient id="paint0_linear_230_1464" x1="390.031" y1="-156.898" x2="390.031" y2="299.282" gradientUnits="userSpaceOnUse">
<stop stop-color="#D3DCE4" stop-opacity="0"/>
<stop offset="1" stop-color="#979797" stop-opacity="0.18"/>
</linearGradient>
<clipPath id="clip0_230_1464">
<rect width="720" height="338" rx="32" fill="white"/>
</clipPath>
</defs>
</svg>
